M48
; DRILL file {KiCad (6.0.1)} date Sat Oct 22 09:39:42 2022
; FORMAT={-:-/ absolute / inch / decimal}
; #@! TF.CreationDate,2022-10-22T09:39:42+02:00
; #@! TF.GenerationSoftware,Kicad,Pcbnew,(6.0.1)
; #@! TF.FileFunction,Plated,1,4,PTH
FMAT,2
INCH
; #@! TA.AperFunction,Plated,PTH,ViaDrill
T1C0.0118
; #@! TA.AperFunction,Plated,PTH,ComponentDrill
T2C0.0394
%
G90
G05
T1
X4.63Y-4.135
X4.66Y-4.08
X4.69Y-4.08
X4.7Y-4.135
X4.725Y-4.08
X4.755Y-4.08
X4.77Y-4.135
X4.7944Y-4.08
X4.825Y-4.08
X4.84Y-4.135
X4.8644Y-4.08
X4.89Y-4.08
X4.91Y-4.135
X4.9394Y-4.08
X4.9644Y-3.7084
X4.965Y-4.08
X4.97Y-3.85
X4.985Y-4.135
X4.9992Y-4.0792
X5.005Y-3.635
X5.03Y-3.73
X5.0312Y-4.08
X5.055Y-3.22
X5.065Y-3.635
X5.07Y-4.08
X5.0906Y-3.73
X5.109Y-4.1405
X5.11Y-4.0844
X5.11Y-4.18
X5.175Y-4.005
X5.215Y-4.09
X5.225Y-3.995
X5.225Y-4.025
X5.2396Y-3.2
X5.2552Y-4.1392
X5.2602Y-3.1744
X5.27Y-4.05
X5.2906Y-4.0802
X5.3162Y-4.08
X5.33Y-3.835
X5.33Y-3.865
X5.34Y-4.01
X5.34Y-4.14
X5.375Y-4.01
X5.395Y-3.835
X5.405Y-4.01
X5.41Y-3.45
X5.41Y-4.14
X5.4341Y-3.995
X5.44Y-3.45
X5.46Y-3.97
X5.4787Y-4.08
X5.48Y-4.14
X5.4805Y-4.0253
X5.505Y-3.15
X5.5056Y-3.995
X5.525Y-3.835
X5.53Y-3.15
X5.55Y-4.14
X5.555Y-3.15
X5.58Y-3.15
X5.58Y-3.455
X5.59Y-3.7
X5.605Y-3.15
X5.615Y-3.455
X5.6196Y-3.7
X5.62Y-4.14
X5.6444Y-4.005
X5.67Y-4.005
X5.69Y-4.14
X5.715Y-4.005
X5.72Y-3.075
X5.74Y-3.36
X5.74Y-3.41
X5.745Y-4.005
X5.765Y-4.14
X5.79Y-4.005
X5.82Y-3.295
X5.82Y-4.005
X5.835Y-4.14
X5.86Y-4.005
X5.895Y-4.005
X5.905Y-4.14
X5.93Y-3.445
X5.97Y-3.445
X5.975Y-4.14
X6.025Y-3.315
X6.035Y-3.6344
X6.035Y-3.5539
X6.035Y-3.5027
X6.035Y-3.5283
X6.035Y-3.5794
X6.035Y-3.605
X6.035Y-3.66
X6.035Y-3.4771
X6.045Y-4.14
X6.1026Y-3.7332
X6.105Y-3.315
X6.115Y-4.14
X6.13Y-3.735
X6.14Y-3.395
X6.16Y-3.735
X6.185Y-4.14
X6.1894Y-3.3711
X6.1894Y-3.735
X6.195Y-3.315
X6.21Y-3.42
X6.26Y-4.1389
X6.265Y-3.765
X6.265Y-3.795
X6.265Y-3.825
X6.265Y-3.855
X6.28Y-3.305
X6.33Y-4.14
X6.3925Y-3.345
X6.4Y-4.14
X6.4035Y-3.3993
X6.4547Y-3.815
X6.455Y-3.73
X6.455Y-3.76
X6.455Y-3.845
X6.455Y-3.875
X6.455Y-3.91
X6.455Y-3.94
X6.455Y-3.7894
X6.46Y-3.65
X6.47Y-4.14
X6.535Y-3.98
X6.54Y-4.14
X6.5662Y-3.9795
X6.5949Y-3.98
X6.6105Y-4.1389
X6.625Y-3.98
X6.655Y-3.98
X6.68Y-4.14
X6.685Y-3.98
X6.7129Y-3.9779
X6.7196Y-4.0746
X6.7404Y-4.0954
X6.745Y-3.98
X6.76Y-4.14
X6.845Y-3.665
X6.85Y-4.105
X6.89Y-3.145
X6.9Y-3.665
X6.9Y-4.14
X6.97Y-4.14
X7.015Y-4.09
X7.04Y-4.09
X7.065Y-4.14
X7.115Y-3.665
T2
X5.89Y-3.11
X5.99Y-3.11
X6.09Y-3.11
X6.19Y-3.11
X6.29Y-3.11
X6.39Y-3.11
T0
M30
