%TF.GenerationSoftware,KiCad,Pcbnew,(6.0.1)*%
%TF.CreationDate,2022-10-22T09:43:17+02:00*%
%TF.ProjectId,so-dimm-esp32-cm,736f2d64-696d-46d2-9d65-737033322d63,rev?*%
%TF.SameCoordinates,Original*%
%TF.FileFunction,Soldermask,Top*%
%TF.FilePolarity,Negative*%
%FSLAX46Y46*%
G04 Gerber Fmt 4.6, Leading zero omitted, Abs format (unit mm)*
G04 Created by KiCad (PCBNEW (6.0.1)) date 2022-10-22 09:43:17*
%MOMM*%
%LPD*%
G01*
G04 APERTURE LIST*
G04 Aperture macros list*
%AMRoundRect*
0 Rectangle with rounded corners*
0 $1 Rounding radius*
0 $2 $3 $4 $5 $6 $7 $8 $9 X,Y pos of 4 corners*
0 Add a 4 corners polygon primitive as box body*
4,1,4,$2,$3,$4,$5,$6,$7,$8,$9,$2,$3,0*
0 Add four circle primitives for the rounded corners*
1,1,$1+$1,$2,$3*
1,1,$1+$1,$4,$5*
1,1,$1+$1,$6,$7*
1,1,$1+$1,$8,$9*
0 Add four rect primitives between the rounded corners*
20,1,$1+$1,$2,$3,$4,$5,0*
20,1,$1+$1,$4,$5,$6,$7,0*
20,1,$1+$1,$6,$7,$8,$9,0*
20,1,$1+$1,$8,$9,$2,$3,0*%
G04 Aperture macros list end*
%ADD10RoundRect,0.200000X0.275000X-0.200000X0.275000X0.200000X-0.275000X0.200000X-0.275000X-0.200000X0*%
%ADD11RoundRect,0.218750X0.256250X-0.218750X0.256250X0.218750X-0.256250X0.218750X-0.256250X-0.218750X0*%
%ADD12R,1.550000X1.000000*%
%ADD13C,1.800000*%
%ADD14R,0.450000X2.300000*%
%ADD15R,1.475000X0.450000*%
%ADD16R,0.900000X1.500000*%
%ADD17R,1.500000X0.900000*%
%ADD18R,0.900000X0.900000*%
%ADD19R,1.700000X1.700000*%
%ADD20O,1.700000X1.700000*%
%ADD21RoundRect,0.225000X0.250000X-0.225000X0.250000X0.225000X-0.250000X0.225000X-0.250000X-0.225000X0*%
G04 APERTURE END LIST*
D10*
%TO.C,R4*%
X157353000Y-83248000D03*
X157353000Y-81598000D03*
%TD*%
D11*
%TO.C,D1*%
X181864000Y-98450500D03*
X181864000Y-96875500D03*
%TD*%
D10*
%TO.C,R8*%
X161671000Y-83248000D03*
X161671000Y-81598000D03*
%TD*%
%TO.C,R6*%
X164084000Y-83248000D03*
X164084000Y-81598000D03*
%TD*%
D12*
%TO.C,S1*%
X168444000Y-79463000D03*
X168444000Y-77763000D03*
X173694000Y-79463000D03*
X173694000Y-77763000D03*
%TD*%
D10*
%TO.C,R7*%
X181864000Y-94805000D03*
X181864000Y-93155000D03*
%TD*%
D13*
%TO.C,J1*%
X117425346Y-102077001D03*
X181025346Y-102077001D03*
D14*
X117575346Y-106677001D03*
X118175346Y-106677001D03*
X118775346Y-106677001D03*
X119375346Y-106677001D03*
X119975346Y-106677001D03*
X120575346Y-106677001D03*
X121175346Y-106677001D03*
X121775346Y-106677001D03*
X122375346Y-106677001D03*
X122975346Y-106677001D03*
X123575346Y-106677001D03*
X124175346Y-106677001D03*
X124775346Y-106677001D03*
X125375346Y-106677001D03*
X125975346Y-106677001D03*
X126575346Y-106677001D03*
X127175346Y-106677001D03*
X127775346Y-106677001D03*
X128375346Y-106677001D03*
X128975346Y-106677001D03*
X133175346Y-106677001D03*
X133775346Y-106677001D03*
X134375346Y-106677001D03*
X134975346Y-106677001D03*
X135575346Y-106677001D03*
X136175346Y-106677001D03*
X136775346Y-106677001D03*
X137375346Y-106677001D03*
X137975346Y-106677001D03*
X138575346Y-106677001D03*
X139175346Y-106677001D03*
X139775346Y-106677001D03*
X140375346Y-106677001D03*
X140975346Y-106677001D03*
X141575346Y-106677001D03*
X142175346Y-106677001D03*
X142775346Y-106677001D03*
X143375346Y-106677001D03*
X143975346Y-106677001D03*
X144575346Y-106677001D03*
X145175346Y-106677001D03*
X145775346Y-106677001D03*
X146375346Y-106677001D03*
X146975346Y-106677001D03*
X147575346Y-106677001D03*
X148175346Y-106677001D03*
X148775346Y-106677001D03*
X149375346Y-106677001D03*
X149975346Y-106677001D03*
X150575346Y-106677001D03*
X151175346Y-106677001D03*
X151775346Y-106677001D03*
X152375346Y-106677001D03*
X152975346Y-106677001D03*
X153575346Y-106677001D03*
X154175346Y-106677001D03*
X154775346Y-106677001D03*
X155375346Y-106677001D03*
X155975346Y-106677001D03*
X156575346Y-106677001D03*
X157175346Y-106677001D03*
X157775346Y-106677001D03*
X158375346Y-106677001D03*
X158975346Y-106677001D03*
X159575346Y-106677001D03*
X160175346Y-106677001D03*
X160775346Y-106677001D03*
X161375346Y-106677001D03*
X161975346Y-106677001D03*
X162575346Y-106677001D03*
X163175346Y-106677001D03*
X163775346Y-106677001D03*
X164375346Y-106677001D03*
X164975346Y-106677001D03*
X165575346Y-106677001D03*
X166175346Y-106677001D03*
X166775346Y-106677001D03*
X167375346Y-106677001D03*
X167975346Y-106677001D03*
X168575346Y-106677001D03*
X169175346Y-106677001D03*
X169775346Y-106677001D03*
X170375346Y-106677001D03*
X170975346Y-106677001D03*
X171575346Y-106677001D03*
X172175346Y-106677001D03*
X172775346Y-106677001D03*
X173375346Y-106677001D03*
X173975346Y-106677001D03*
X174575346Y-106677001D03*
X175175346Y-106677001D03*
X175775346Y-106677001D03*
X176375346Y-106677001D03*
X176975346Y-106677001D03*
X177575346Y-106677001D03*
X178175346Y-106677001D03*
X178775346Y-106677001D03*
X179375346Y-106677001D03*
X179975346Y-106677001D03*
X180575346Y-106677001D03*
%TD*%
D15*
%TO.C,IC1*%
X154542000Y-86468000D03*
X154542000Y-87118000D03*
X154542000Y-87768000D03*
X154542000Y-88418000D03*
X154542000Y-89068000D03*
X154542000Y-89718000D03*
X154542000Y-90368000D03*
X154542000Y-91018000D03*
X154542000Y-91668000D03*
X154542000Y-92318000D03*
X154542000Y-92968000D03*
X154542000Y-93618000D03*
X160418000Y-93618000D03*
X160418000Y-92968000D03*
X160418000Y-92318000D03*
X160418000Y-91668000D03*
X160418000Y-91018000D03*
X160418000Y-90368000D03*
X160418000Y-89718000D03*
X160418000Y-89068000D03*
X160418000Y-88418000D03*
X160418000Y-87768000D03*
X160418000Y-87118000D03*
X160418000Y-86468000D03*
%TD*%
D10*
%TO.C,R1*%
X151003000Y-83248000D03*
X151003000Y-81598000D03*
%TD*%
%TO.C,R2*%
X155034000Y-83248000D03*
X155034000Y-81598000D03*
%TD*%
D15*
%TO.C,IC2*%
X165464000Y-92945000D03*
X165464000Y-93595000D03*
X165464000Y-94245000D03*
X165464000Y-94895000D03*
X165464000Y-95545000D03*
X165464000Y-96195000D03*
X165464000Y-96845000D03*
X165464000Y-97495000D03*
X165464000Y-98145000D03*
X165464000Y-98795000D03*
X165464000Y-99445000D03*
X165464000Y-100095000D03*
X171340000Y-100095000D03*
X171340000Y-99445000D03*
X171340000Y-98795000D03*
X171340000Y-98145000D03*
X171340000Y-97495000D03*
X171340000Y-96845000D03*
X171340000Y-96195000D03*
X171340000Y-95545000D03*
X171340000Y-94895000D03*
X171340000Y-94245000D03*
X171340000Y-93595000D03*
X171340000Y-92945000D03*
%TD*%
D10*
%TO.C,R5*%
X159512000Y-83248000D03*
X159512000Y-81598000D03*
%TD*%
D16*
%TO.C,U1*%
X126487000Y-95999000D03*
X127757000Y-95999000D03*
X129027000Y-95999000D03*
X130297000Y-95999000D03*
X131567000Y-95999000D03*
X132837000Y-95999000D03*
X134107000Y-95999000D03*
X135377000Y-95999000D03*
X136647000Y-95999000D03*
X137917000Y-95999000D03*
X139187000Y-95999000D03*
X140457000Y-95999000D03*
X141727000Y-95999000D03*
X142997000Y-95999000D03*
D17*
X144247000Y-94234000D03*
X144247000Y-92964000D03*
X144247000Y-91694000D03*
X144247000Y-90424000D03*
X144247000Y-89154000D03*
X144247000Y-87884000D03*
X144247000Y-86614000D03*
X144247000Y-85344000D03*
X144247000Y-84074000D03*
X144247000Y-82804000D03*
X144247000Y-81534000D03*
X144247000Y-80264000D03*
D16*
X142997000Y-78499000D03*
X141727000Y-78499000D03*
X140457000Y-78499000D03*
X139187000Y-78499000D03*
X137917000Y-78499000D03*
X136647000Y-78499000D03*
X135377000Y-78499000D03*
X134107000Y-78499000D03*
X132837000Y-78499000D03*
X131567000Y-78499000D03*
X130297000Y-78499000D03*
X129027000Y-78499000D03*
X127757000Y-78499000D03*
X126487000Y-78499000D03*
D18*
X132807000Y-88749000D03*
X135607000Y-87349000D03*
X134207000Y-90149000D03*
X134207000Y-88749000D03*
X135607000Y-90149000D03*
X132807000Y-87349000D03*
X132807000Y-90149000D03*
X134207000Y-87349000D03*
X135607000Y-88749000D03*
%TD*%
D10*
%TO.C,R3*%
X153002000Y-83248000D03*
X153002000Y-81598000D03*
%TD*%
D19*
%TO.C,J2*%
X149606000Y-78994000D03*
D20*
X152146000Y-78994000D03*
X154686000Y-78994000D03*
X157226000Y-78994000D03*
X159766000Y-78994000D03*
X162306000Y-78994000D03*
%TD*%
D21*
%TO.C,C1*%
X148844000Y-83198000D03*
X148844000Y-81648000D03*
%TD*%
M02*
