%TF.GenerationSoftware,KiCad,Pcbnew,(6.0.1)*%
%TF.CreationDate,2022-10-22T09:43:17+02:00*%
%TF.ProjectId,so-dimm-esp32-cm,736f2d64-696d-46d2-9d65-737033322d63,rev?*%
%TF.SameCoordinates,Original*%
%TF.FileFunction,Soldermask,Bot*%
%TF.FilePolarity,Negative*%
%FSLAX46Y46*%
G04 Gerber Fmt 4.6, Leading zero omitted, Abs format (unit mm)*
G04 Created by KiCad (PCBNEW (6.0.1)) date 2022-10-22 09:43:17*
%MOMM*%
%LPD*%
G01*
G04 APERTURE LIST*
%ADD10C,1.800000*%
%ADD11R,0.450000X2.300000*%
%ADD12R,1.700000X1.700000*%
%ADD13O,1.700000X1.700000*%
%ADD14C,1.000000*%
G04 APERTURE END LIST*
D10*
%TO.C,J1*%
X117425346Y-102077001D03*
X181025346Y-102077001D03*
D11*
X117575346Y-106677001D03*
X118175346Y-106677001D03*
X118775346Y-106677001D03*
X119375346Y-106677001D03*
X119975346Y-106677001D03*
X120575346Y-106677001D03*
X121175346Y-106677001D03*
X121775346Y-106677001D03*
X122375346Y-106677001D03*
X122975346Y-106677001D03*
X123575346Y-106677001D03*
X124175346Y-106677001D03*
X124775346Y-106677001D03*
X125375346Y-106677001D03*
X125975346Y-106677001D03*
X126575346Y-106677001D03*
X127175346Y-106677001D03*
X127775346Y-106677001D03*
X128375346Y-106677001D03*
X128975346Y-106677001D03*
X133175346Y-106677001D03*
X133775346Y-106677001D03*
X134375346Y-106677001D03*
X134975346Y-106677001D03*
X135575346Y-106677001D03*
X136175346Y-106677001D03*
X136775346Y-106677001D03*
X137375346Y-106677001D03*
X137975346Y-106677001D03*
X138575346Y-106677001D03*
X139175346Y-106677001D03*
X139775346Y-106677001D03*
X140375346Y-106677001D03*
X140975346Y-106677001D03*
X141575346Y-106677001D03*
X142175346Y-106677001D03*
X142775346Y-106677001D03*
X143375346Y-106677001D03*
X143975346Y-106677001D03*
X144575346Y-106677001D03*
X145175346Y-106677001D03*
X145775346Y-106677001D03*
X146375346Y-106677001D03*
X146975346Y-106677001D03*
X147575346Y-106677001D03*
X148175346Y-106677001D03*
X148775346Y-106677001D03*
X149375346Y-106677001D03*
X149975346Y-106677001D03*
X150575346Y-106677001D03*
X151175346Y-106677001D03*
X151775346Y-106677001D03*
X152375346Y-106677001D03*
X152975346Y-106677001D03*
X153575346Y-106677001D03*
X154175346Y-106677001D03*
X154775346Y-106677001D03*
X155375346Y-106677001D03*
X155975346Y-106677001D03*
X156575346Y-106677001D03*
X157175346Y-106677001D03*
X157775346Y-106677001D03*
X158375346Y-106677001D03*
X158975346Y-106677001D03*
X159575346Y-106677001D03*
X160175346Y-106677001D03*
X160775346Y-106677001D03*
X161375346Y-106677001D03*
X161975346Y-106677001D03*
X162575346Y-106677001D03*
X163175346Y-106677001D03*
X163775346Y-106677001D03*
X164375346Y-106677001D03*
X164975346Y-106677001D03*
X165575346Y-106677001D03*
X166175346Y-106677001D03*
X166775346Y-106677001D03*
X167375346Y-106677001D03*
X167975346Y-106677001D03*
X168575346Y-106677001D03*
X169175346Y-106677001D03*
X169775346Y-106677001D03*
X170375346Y-106677001D03*
X170975346Y-106677001D03*
X171575346Y-106677001D03*
X172175346Y-106677001D03*
X172775346Y-106677001D03*
X173375346Y-106677001D03*
X173975346Y-106677001D03*
X174575346Y-106677001D03*
X175175346Y-106677001D03*
X175775346Y-106677001D03*
X176375346Y-106677001D03*
X176975346Y-106677001D03*
X177575346Y-106677001D03*
X178175346Y-106677001D03*
X178775346Y-106677001D03*
X179375346Y-106677001D03*
X179975346Y-106677001D03*
X180575346Y-106677001D03*
%TD*%
D12*
%TO.C,J2*%
X149606000Y-78994000D03*
D13*
X152146000Y-78994000D03*
X154686000Y-78994000D03*
X157226000Y-78994000D03*
X159766000Y-78994000D03*
X162306000Y-78994000D03*
%TD*%
D14*
%TO.C,TP4*%
X157226000Y-82169000D03*
%TD*%
%TO.C,TP10*%
X137414000Y-86614000D03*
%TD*%
%TO.C,TP2*%
X152146000Y-82169000D03*
%TD*%
%TO.C,TP13*%
X143256000Y-84455000D03*
%TD*%
%TO.C,TP8*%
X127889000Y-95631000D03*
%TD*%
%TO.C,TP11*%
X139446000Y-86614000D03*
%TD*%
%TO.C,TP6*%
X159766000Y-82169000D03*
%TD*%
%TO.C,TP9*%
X174244000Y-92202000D03*
%TD*%
%TO.C,TP3*%
X154686000Y-82169000D03*
%TD*%
%TO.C,TP5*%
X162306000Y-82169000D03*
%TD*%
%TO.C,TP1*%
X149606000Y-82169000D03*
%TD*%
%TO.C,TP12*%
X141097000Y-84455000D03*
%TD*%
%TO.C,TP7*%
X163576000Y-85979000D03*
%TD*%
M02*
