%TF.GenerationSoftware,KiCad,Pcbnew,(6.0.1)*%
%TF.CreationDate,2022-10-22T09:43:17+02:00*%
%TF.ProjectId,so-dimm-esp32-cm,736f2d64-696d-46d2-9d65-737033322d63,rev?*%
%TF.SameCoordinates,Original*%
%TF.FileFunction,Legend,Top*%
%TF.FilePolarity,Positive*%
%FSLAX46Y46*%
G04 Gerber Fmt 4.6, Leading zero omitted, Abs format (unit mm)*
G04 Created by KiCad (PCBNEW (6.0.1)) date 2022-10-22 09:43:17*
%MOMM*%
%LPD*%
G01*
G04 APERTURE LIST*
%ADD10C,0.150000*%
%ADD11C,0.254000*%
%ADD12C,0.120000*%
%ADD13C,0.100000*%
%ADD14C,0.200000*%
G04 APERTURE END LIST*
D10*
X170740428Y-81297428D02*
X170540428Y-81011714D01*
X170397571Y-81297428D02*
X170397571Y-80697428D01*
X170626142Y-80697428D01*
X170683285Y-80726000D01*
X170711857Y-80754571D01*
X170740428Y-80811714D01*
X170740428Y-80897428D01*
X170711857Y-80954571D01*
X170683285Y-80983142D01*
X170626142Y-81011714D01*
X170397571Y-81011714D01*
X170969000Y-81268857D02*
X171054714Y-81297428D01*
X171197571Y-81297428D01*
X171254714Y-81268857D01*
X171283285Y-81240285D01*
X171311857Y-81183142D01*
X171311857Y-81126000D01*
X171283285Y-81068857D01*
X171254714Y-81040285D01*
X171197571Y-81011714D01*
X171083285Y-80983142D01*
X171026142Y-80954571D01*
X170997571Y-80926000D01*
X170969000Y-80868857D01*
X170969000Y-80811714D01*
X170997571Y-80754571D01*
X171026142Y-80726000D01*
X171083285Y-80697428D01*
X171226142Y-80697428D01*
X171311857Y-80726000D01*
X171483285Y-80697428D02*
X171826142Y-80697428D01*
X171654714Y-81297428D02*
X171654714Y-80697428D01*
%TO.C,R4*%
X157253000Y-84599428D02*
X157053000Y-84313714D01*
X156910142Y-84599428D02*
X156910142Y-83999428D01*
X157138714Y-83999428D01*
X157195857Y-84028000D01*
X157224428Y-84056571D01*
X157253000Y-84113714D01*
X157253000Y-84199428D01*
X157224428Y-84256571D01*
X157195857Y-84285142D01*
X157138714Y-84313714D01*
X156910142Y-84313714D01*
X157767285Y-84199428D02*
X157767285Y-84599428D01*
X157624428Y-83970857D02*
X157481571Y-84399428D01*
X157853000Y-84399428D01*
%TO.C,D1*%
X181421142Y-96156428D02*
X181421142Y-95556428D01*
X181564000Y-95556428D01*
X181649714Y-95585000D01*
X181706857Y-95642142D01*
X181735428Y-95699285D01*
X181764000Y-95813571D01*
X181764000Y-95899285D01*
X181735428Y-96013571D01*
X181706857Y-96070714D01*
X181649714Y-96127857D01*
X181564000Y-96156428D01*
X181421142Y-96156428D01*
X182335428Y-96156428D02*
X181992571Y-96156428D01*
X182164000Y-96156428D02*
X182164000Y-95556428D01*
X182106857Y-95642142D01*
X182049714Y-95699285D01*
X181992571Y-95727857D01*
%TO.C,R8*%
X161571000Y-84599428D02*
X161371000Y-84313714D01*
X161228142Y-84599428D02*
X161228142Y-83999428D01*
X161456714Y-83999428D01*
X161513857Y-84028000D01*
X161542428Y-84056571D01*
X161571000Y-84113714D01*
X161571000Y-84199428D01*
X161542428Y-84256571D01*
X161513857Y-84285142D01*
X161456714Y-84313714D01*
X161228142Y-84313714D01*
X161913857Y-84256571D02*
X161856714Y-84228000D01*
X161828142Y-84199428D01*
X161799571Y-84142285D01*
X161799571Y-84113714D01*
X161828142Y-84056571D01*
X161856714Y-84028000D01*
X161913857Y-83999428D01*
X162028142Y-83999428D01*
X162085285Y-84028000D01*
X162113857Y-84056571D01*
X162142428Y-84113714D01*
X162142428Y-84142285D01*
X162113857Y-84199428D01*
X162085285Y-84228000D01*
X162028142Y-84256571D01*
X161913857Y-84256571D01*
X161856714Y-84285142D01*
X161828142Y-84313714D01*
X161799571Y-84370857D01*
X161799571Y-84485142D01*
X161828142Y-84542285D01*
X161856714Y-84570857D01*
X161913857Y-84599428D01*
X162028142Y-84599428D01*
X162085285Y-84570857D01*
X162113857Y-84542285D01*
X162142428Y-84485142D01*
X162142428Y-84370857D01*
X162113857Y-84313714D01*
X162085285Y-84285142D01*
X162028142Y-84256571D01*
%TO.C,R6*%
X163984000Y-84599428D02*
X163784000Y-84313714D01*
X163641142Y-84599428D02*
X163641142Y-83999428D01*
X163869714Y-83999428D01*
X163926857Y-84028000D01*
X163955428Y-84056571D01*
X163984000Y-84113714D01*
X163984000Y-84199428D01*
X163955428Y-84256571D01*
X163926857Y-84285142D01*
X163869714Y-84313714D01*
X163641142Y-84313714D01*
X164498285Y-83999428D02*
X164384000Y-83999428D01*
X164326857Y-84028000D01*
X164298285Y-84056571D01*
X164241142Y-84142285D01*
X164212571Y-84256571D01*
X164212571Y-84485142D01*
X164241142Y-84542285D01*
X164269714Y-84570857D01*
X164326857Y-84599428D01*
X164441142Y-84599428D01*
X164498285Y-84570857D01*
X164526857Y-84542285D01*
X164555428Y-84485142D01*
X164555428Y-84342285D01*
X164526857Y-84285142D01*
X164498285Y-84256571D01*
X164441142Y-84228000D01*
X164326857Y-84228000D01*
X164269714Y-84256571D01*
X164241142Y-84285142D01*
X164212571Y-84342285D01*
%TO.C,R7*%
X181764000Y-92473428D02*
X181564000Y-92187714D01*
X181421142Y-92473428D02*
X181421142Y-91873428D01*
X181649714Y-91873428D01*
X181706857Y-91902000D01*
X181735428Y-91930571D01*
X181764000Y-91987714D01*
X181764000Y-92073428D01*
X181735428Y-92130571D01*
X181706857Y-92159142D01*
X181649714Y-92187714D01*
X181421142Y-92187714D01*
X181964000Y-91873428D02*
X182364000Y-91873428D01*
X182106857Y-92473428D01*
D11*
%TO.C,IC1*%
X156240238Y-90617523D02*
X156240238Y-89347523D01*
X157570714Y-90496571D02*
X157510238Y-90557047D01*
X157328809Y-90617523D01*
X157207857Y-90617523D01*
X157026428Y-90557047D01*
X156905476Y-90436095D01*
X156845000Y-90315142D01*
X156784523Y-90073238D01*
X156784523Y-89891809D01*
X156845000Y-89649904D01*
X156905476Y-89528952D01*
X157026428Y-89408000D01*
X157207857Y-89347523D01*
X157328809Y-89347523D01*
X157510238Y-89408000D01*
X157570714Y-89468476D01*
X158780238Y-90617523D02*
X158054523Y-90617523D01*
X158417380Y-90617523D02*
X158417380Y-89347523D01*
X158296428Y-89528952D01*
X158175476Y-89649904D01*
X158054523Y-89710380D01*
D10*
%TO.C,R1*%
X150903000Y-84599428D02*
X150703000Y-84313714D01*
X150560142Y-84599428D02*
X150560142Y-83999428D01*
X150788714Y-83999428D01*
X150845857Y-84028000D01*
X150874428Y-84056571D01*
X150903000Y-84113714D01*
X150903000Y-84199428D01*
X150874428Y-84256571D01*
X150845857Y-84285142D01*
X150788714Y-84313714D01*
X150560142Y-84313714D01*
X151474428Y-84599428D02*
X151131571Y-84599428D01*
X151303000Y-84599428D02*
X151303000Y-83999428D01*
X151245857Y-84085142D01*
X151188714Y-84142285D01*
X151131571Y-84170857D01*
%TO.C,R2*%
X154967000Y-84599428D02*
X154767000Y-84313714D01*
X154624142Y-84599428D02*
X154624142Y-83999428D01*
X154852714Y-83999428D01*
X154909857Y-84028000D01*
X154938428Y-84056571D01*
X154967000Y-84113714D01*
X154967000Y-84199428D01*
X154938428Y-84256571D01*
X154909857Y-84285142D01*
X154852714Y-84313714D01*
X154624142Y-84313714D01*
X155195571Y-84056571D02*
X155224142Y-84028000D01*
X155281285Y-83999428D01*
X155424142Y-83999428D01*
X155481285Y-84028000D01*
X155509857Y-84056571D01*
X155538428Y-84113714D01*
X155538428Y-84170857D01*
X155509857Y-84256571D01*
X155167000Y-84599428D01*
X155538428Y-84599428D01*
D11*
%TO.C,IC2*%
X167162238Y-97094523D02*
X167162238Y-95824523D01*
X168492714Y-96973571D02*
X168432238Y-97034047D01*
X168250809Y-97094523D01*
X168129857Y-97094523D01*
X167948428Y-97034047D01*
X167827476Y-96913095D01*
X167767000Y-96792142D01*
X167706523Y-96550238D01*
X167706523Y-96368809D01*
X167767000Y-96126904D01*
X167827476Y-96005952D01*
X167948428Y-95885000D01*
X168129857Y-95824523D01*
X168250809Y-95824523D01*
X168432238Y-95885000D01*
X168492714Y-95945476D01*
X168976523Y-95945476D02*
X169037000Y-95885000D01*
X169157952Y-95824523D01*
X169460333Y-95824523D01*
X169581285Y-95885000D01*
X169641761Y-95945476D01*
X169702238Y-96066428D01*
X169702238Y-96187380D01*
X169641761Y-96368809D01*
X168916047Y-97094523D01*
X169702238Y-97094523D01*
D10*
%TO.C,R5*%
X159412000Y-84599428D02*
X159212000Y-84313714D01*
X159069142Y-84599428D02*
X159069142Y-83999428D01*
X159297714Y-83999428D01*
X159354857Y-84028000D01*
X159383428Y-84056571D01*
X159412000Y-84113714D01*
X159412000Y-84199428D01*
X159383428Y-84256571D01*
X159354857Y-84285142D01*
X159297714Y-84313714D01*
X159069142Y-84313714D01*
X159954857Y-83999428D02*
X159669142Y-83999428D01*
X159640571Y-84285142D01*
X159669142Y-84256571D01*
X159726285Y-84228000D01*
X159869142Y-84228000D01*
X159926285Y-84256571D01*
X159954857Y-84285142D01*
X159983428Y-84342285D01*
X159983428Y-84485142D01*
X159954857Y-84542285D01*
X159926285Y-84570857D01*
X159869142Y-84599428D01*
X159726285Y-84599428D01*
X159669142Y-84570857D01*
X159640571Y-84542285D01*
%TO.C,U1*%
X122163666Y-92010904D02*
X122163666Y-91534714D01*
X122449380Y-92106142D02*
X121449380Y-91772809D01*
X122449380Y-91439476D01*
X121782714Y-91106142D02*
X122449380Y-91106142D01*
X121877952Y-91106142D02*
X121830333Y-91058523D01*
X121782714Y-90963285D01*
X121782714Y-90820428D01*
X121830333Y-90725190D01*
X121925571Y-90677571D01*
X122449380Y-90677571D01*
X121782714Y-90344238D02*
X121782714Y-89963285D01*
X121449380Y-90201380D02*
X122306523Y-90201380D01*
X122401761Y-90153761D01*
X122449380Y-90058523D01*
X122449380Y-89963285D01*
X122401761Y-89249000D02*
X122449380Y-89344238D01*
X122449380Y-89534714D01*
X122401761Y-89629952D01*
X122306523Y-89677571D01*
X121925571Y-89677571D01*
X121830333Y-89629952D01*
X121782714Y-89534714D01*
X121782714Y-89344238D01*
X121830333Y-89249000D01*
X121925571Y-89201380D01*
X122020809Y-89201380D01*
X122116047Y-89677571D01*
X121782714Y-88772809D02*
X122449380Y-88772809D01*
X121877952Y-88772809D02*
X121830333Y-88725190D01*
X121782714Y-88629952D01*
X121782714Y-88487095D01*
X121830333Y-88391857D01*
X121925571Y-88344238D01*
X122449380Y-88344238D01*
X121782714Y-87868047D02*
X122449380Y-87868047D01*
X121877952Y-87868047D02*
X121830333Y-87820428D01*
X121782714Y-87725190D01*
X121782714Y-87582333D01*
X121830333Y-87487095D01*
X121925571Y-87439476D01*
X122449380Y-87439476D01*
X122449380Y-86534714D02*
X121925571Y-86534714D01*
X121830333Y-86582333D01*
X121782714Y-86677571D01*
X121782714Y-86868047D01*
X121830333Y-86963285D01*
X122401761Y-86534714D02*
X122449380Y-86629952D01*
X122449380Y-86868047D01*
X122401761Y-86963285D01*
X122306523Y-87010904D01*
X122211285Y-87010904D01*
X122116047Y-86963285D01*
X122068428Y-86868047D01*
X122068428Y-86629952D01*
X122020809Y-86534714D01*
X122163666Y-85344238D02*
X122163666Y-84868047D01*
X122449380Y-85439476D02*
X121449380Y-85106142D01*
X122449380Y-84772809D01*
X122449380Y-84439476D02*
X121782714Y-84439476D01*
X121973190Y-84439476D02*
X121877952Y-84391857D01*
X121830333Y-84344238D01*
X121782714Y-84249000D01*
X121782714Y-84153761D01*
X122401761Y-83439476D02*
X122449380Y-83534714D01*
X122449380Y-83725190D01*
X122401761Y-83820428D01*
X122306523Y-83868047D01*
X121925571Y-83868047D01*
X121830333Y-83820428D01*
X121782714Y-83725190D01*
X121782714Y-83534714D01*
X121830333Y-83439476D01*
X121925571Y-83391857D01*
X122020809Y-83391857D01*
X122116047Y-83868047D01*
X122449380Y-82534714D02*
X121925571Y-82534714D01*
X121830333Y-82582333D01*
X121782714Y-82677571D01*
X121782714Y-82868047D01*
X121830333Y-82963285D01*
X122401761Y-82534714D02*
X122449380Y-82629952D01*
X122449380Y-82868047D01*
X122401761Y-82963285D01*
X122306523Y-83010904D01*
X122211285Y-83010904D01*
X122116047Y-82963285D01*
X122068428Y-82868047D01*
X122068428Y-82629952D01*
X122020809Y-82534714D01*
%TO.C,R3*%
X152935000Y-84599428D02*
X152735000Y-84313714D01*
X152592142Y-84599428D02*
X152592142Y-83999428D01*
X152820714Y-83999428D01*
X152877857Y-84028000D01*
X152906428Y-84056571D01*
X152935000Y-84113714D01*
X152935000Y-84199428D01*
X152906428Y-84256571D01*
X152877857Y-84285142D01*
X152820714Y-84313714D01*
X152592142Y-84313714D01*
X153135000Y-83999428D02*
X153506428Y-83999428D01*
X153306428Y-84228000D01*
X153392142Y-84228000D01*
X153449285Y-84256571D01*
X153477857Y-84285142D01*
X153506428Y-84342285D01*
X153506428Y-84485142D01*
X153477857Y-84542285D01*
X153449285Y-84570857D01*
X153392142Y-84599428D01*
X153220714Y-84599428D01*
X153163571Y-84570857D01*
X153135000Y-84542285D01*
%TO.C,C1*%
X148744000Y-84542285D02*
X148715428Y-84570857D01*
X148629714Y-84599428D01*
X148572571Y-84599428D01*
X148486857Y-84570857D01*
X148429714Y-84513714D01*
X148401142Y-84456571D01*
X148372571Y-84342285D01*
X148372571Y-84256571D01*
X148401142Y-84142285D01*
X148429714Y-84085142D01*
X148486857Y-84028000D01*
X148572571Y-83999428D01*
X148629714Y-83999428D01*
X148715428Y-84028000D01*
X148744000Y-84056571D01*
X149315428Y-84599428D02*
X148972571Y-84599428D01*
X149144000Y-84599428D02*
X149144000Y-83999428D01*
X149086857Y-84085142D01*
X149029714Y-84142285D01*
X148972571Y-84170857D01*
D12*
%TO.C,R4*%
X156830500Y-82660258D02*
X156830500Y-82185742D01*
X157875500Y-82660258D02*
X157875500Y-82185742D01*
%TO.C,D1*%
X181129000Y-96863000D02*
X181129000Y-99148000D01*
X181129000Y-99148000D02*
X182599000Y-99148000D01*
X182599000Y-99148000D02*
X182599000Y-96863000D01*
%TO.C,R8*%
X162193500Y-82660258D02*
X162193500Y-82185742D01*
X161148500Y-82660258D02*
X161148500Y-82185742D01*
%TO.C,R6*%
X163561500Y-82660258D02*
X163561500Y-82185742D01*
X164606500Y-82660258D02*
X164606500Y-82185742D01*
D13*
%TO.C,S1*%
X173419000Y-80363000D02*
X168719000Y-80363000D01*
X173419000Y-80213000D02*
X173419000Y-80363000D01*
X167269000Y-79513000D02*
X167269000Y-79513000D01*
X168719000Y-80363000D02*
X168719000Y-80213000D01*
X167269000Y-79613000D02*
X167269000Y-79613000D01*
X167269000Y-79513000D02*
G75*
G03*
X167269000Y-79613000I0J-50000D01*
G01*
X167269000Y-79613000D02*
G75*
G03*
X167269000Y-79513000I0J50000D01*
G01*
D12*
%TO.C,R7*%
X182386500Y-94217258D02*
X182386500Y-93742742D01*
X181341500Y-94217258D02*
X181341500Y-93742742D01*
D14*
%TO.C,IC1*%
X155630000Y-93943000D02*
X155630000Y-86143000D01*
X155630000Y-86143000D02*
X159330000Y-86143000D01*
X159330000Y-86143000D02*
X159330000Y-93943000D01*
X153805000Y-85893000D02*
X155280000Y-85893000D01*
X159330000Y-93943000D02*
X155630000Y-93943000D01*
D12*
%TO.C,R1*%
X150480500Y-82660258D02*
X150480500Y-82185742D01*
X151525500Y-82660258D02*
X151525500Y-82185742D01*
%TO.C,R2*%
X154511500Y-82660258D02*
X154511500Y-82185742D01*
X155556500Y-82660258D02*
X155556500Y-82185742D01*
D14*
%TO.C,IC2*%
X170252000Y-92620000D02*
X170252000Y-100420000D01*
X166552000Y-100420000D02*
X166552000Y-92620000D01*
X166552000Y-92620000D02*
X170252000Y-92620000D01*
X164727000Y-92370000D02*
X166202000Y-92370000D01*
X170252000Y-100420000D02*
X166552000Y-100420000D01*
D12*
%TO.C,R5*%
X160034500Y-82660258D02*
X160034500Y-82185742D01*
X158989500Y-82660258D02*
X158989500Y-82185742D01*
%TO.C,U1*%
X118997000Y-78249000D02*
X125747000Y-78249000D01*
X118997000Y-96249000D02*
X118997000Y-78249000D01*
X124937000Y-78249000D02*
X124937000Y-96249000D01*
X118997000Y-96249000D02*
X125747000Y-96249000D01*
X144497000Y-96249000D02*
X144497000Y-95249000D01*
X143747000Y-96249000D02*
X144497000Y-96249000D01*
X143747000Y-78249000D02*
X144497000Y-78249000D01*
X144497000Y-78249000D02*
X144497000Y-79249000D01*
%TO.C,R3*%
X152479500Y-82660258D02*
X152479500Y-82185742D01*
X153524500Y-82660258D02*
X153524500Y-82185742D01*
%TO.C,J2*%
X148276000Y-77664000D02*
X149606000Y-77664000D01*
X150876000Y-80324000D02*
X163636000Y-80324000D01*
X148276000Y-78994000D02*
X148276000Y-77664000D01*
X150876000Y-77664000D02*
X163636000Y-77664000D01*
X150876000Y-80324000D02*
X150876000Y-77664000D01*
X163636000Y-80324000D02*
X163636000Y-77664000D01*
%TO.C,C1*%
X149354000Y-82563580D02*
X149354000Y-82282420D01*
X148334000Y-82563580D02*
X148334000Y-82282420D01*
%TD*%
M02*
