%TF.GenerationSoftware,KiCad,Pcbnew,7.0.8*%
%TF.CreationDate,2024-03-21T14:52:22+01:00*%
%TF.ProjectId,so-dimm-esp32-cm,736f2d64-696d-46d2-9d65-737033322d63,REV.03*%
%TF.SameCoordinates,Original*%
%TF.FileFunction,Copper,L2,Inr*%
%TF.FilePolarity,Positive*%
%FSLAX46Y46*%
G04 Gerber Fmt 4.6, Leading zero omitted, Abs format (unit mm)*
G04 Created by KiCad (PCBNEW 7.0.8) date 2024-03-21 14:52:22*
%MOMM*%
%LPD*%
G01*
G04 APERTURE LIST*
%TA.AperFunction,ComponentPad*%
%ADD10C,0.800000*%
%TD*%
%TA.AperFunction,ComponentPad*%
%ADD11C,5.400000*%
%TD*%
%TA.AperFunction,ViaPad*%
%ADD12C,0.500000*%
%TD*%
%TA.AperFunction,ViaPad*%
%ADD13C,0.800000*%
%TD*%
G04 APERTURE END LIST*
D10*
%TO.N,Net-(C7-Pad1)*%
%TO.C,H1*%
X177899109Y-79975109D03*
X178492218Y-78543218D03*
X178492218Y-81407000D03*
X179924109Y-77950109D03*
D11*
X179924109Y-79975109D03*
D10*
X179924109Y-82000109D03*
X181356000Y-78543218D03*
X181356000Y-81407000D03*
X181949109Y-79975109D03*
%TD*%
D12*
%TO.N,+3V3*%
X150114000Y-87757000D03*
X127762000Y-94742000D03*
X178943000Y-103886000D03*
X131826000Y-98425000D03*
X178181000Y-104521000D03*
X172212000Y-82423000D03*
X178054000Y-103886000D03*
X145923000Y-87884000D03*
X163322000Y-86614000D03*
X129794000Y-104916503D03*
X132715000Y-105156000D03*
X167386000Y-91948000D03*
X149098000Y-83566000D03*
X178790600Y-93211950D03*
X170180000Y-95123000D03*
X156845000Y-84709000D03*
X174315500Y-93091000D03*
X127889000Y-100584000D03*
X171450000Y-92329000D03*
X127889000Y-97155000D03*
X146939000Y-83566000D03*
X179070000Y-86233000D03*
X178775346Y-104521000D03*
%TO.N,GND*%
X157480000Y-80010000D03*
X125476000Y-97282000D03*
X180340000Y-86360000D03*
X149860000Y-80010000D03*
X142803817Y-105059417D03*
X169675306Y-105130499D03*
D13*
X179933600Y-99815950D03*
D12*
X173990000Y-101600000D03*
X132842000Y-88011000D03*
X125476000Y-79756000D03*
X122936000Y-105029000D03*
X151130000Y-87757000D03*
X179451000Y-105156000D03*
X125476000Y-92964000D03*
X168910000Y-85090000D03*
X133477000Y-88773000D03*
X180340000Y-91440000D03*
X134239000Y-88011000D03*
X125476000Y-89916000D03*
X144528978Y-105134162D03*
X177038000Y-105156000D03*
X158750000Y-83820000D03*
X166624000Y-93599000D03*
X125476000Y-78740000D03*
X142240000Y-82550000D03*
X176530000Y-97790000D03*
X169672000Y-77851000D03*
X160020000Y-80010000D03*
X121158000Y-105029000D03*
X177800000Y-93980000D03*
X125476000Y-80772000D03*
X125476000Y-93980000D03*
X129794000Y-104267000D03*
X157480000Y-82550000D03*
X175260000Y-78740000D03*
X165862000Y-82423000D03*
X177800000Y-83820000D03*
X158750000Y-78740000D03*
X177800000Y-101600000D03*
X135636000Y-105156000D03*
X153546465Y-105136942D03*
X141020800Y-105054400D03*
X154178000Y-96266000D03*
X152400000Y-80010000D03*
X125476000Y-83820000D03*
X174315500Y-94742000D03*
X163830000Y-78740000D03*
X154940000Y-77470000D03*
X152400000Y-77470000D03*
X154178000Y-94996000D03*
X152908000Y-94996000D03*
X146431000Y-105156000D03*
X176530000Y-90170000D03*
X161290000Y-83820000D03*
X139192000Y-105054400D03*
X176530000Y-92710000D03*
X135636000Y-89408000D03*
X125476000Y-82804000D03*
X164341361Y-105136049D03*
X165100000Y-80010000D03*
X135636000Y-88011000D03*
X151130000Y-78740000D03*
X125476000Y-91948000D03*
X181610000Y-90170000D03*
X125476000Y-77724000D03*
X133477000Y-87376000D03*
X154940000Y-82550000D03*
X126627925Y-104837475D03*
X153162000Y-99060000D03*
X176530000Y-95250000D03*
X153670000Y-78740000D03*
X125476000Y-84836000D03*
X134874000Y-88773000D03*
X157102040Y-105131415D03*
X160020000Y-82550000D03*
X133604308Y-105003600D03*
X176530000Y-82550000D03*
X134874000Y-90170000D03*
X125476000Y-94996000D03*
X165100000Y-77470000D03*
X157480000Y-77470000D03*
X148263233Y-105144884D03*
X137464800Y-105105200D03*
X148590000Y-78740000D03*
X163322000Y-88392000D03*
X160784887Y-105145909D03*
X125476000Y-98933000D03*
X149860000Y-77470000D03*
X131826000Y-99187000D03*
X154940000Y-80010000D03*
X172466000Y-77851000D03*
X155450000Y-105100000D03*
X149989608Y-105147291D03*
X151511000Y-87122000D03*
X152400000Y-98298000D03*
X163830000Y-83820000D03*
X162563538Y-105140433D03*
X119380000Y-105029000D03*
X125476000Y-86868000D03*
X171704000Y-105156000D03*
X125476000Y-96012000D03*
X166118535Y-105132878D03*
X176530000Y-102870000D03*
X162560000Y-77470000D03*
X171450000Y-85090000D03*
X173990000Y-96520000D03*
X180340000Y-88900000D03*
X152400000Y-82550000D03*
X175260000Y-105156000D03*
X165100000Y-82550000D03*
X177800000Y-91440000D03*
X162560000Y-80010000D03*
X139700000Y-82550000D03*
X117602000Y-105029000D03*
X181610000Y-85090000D03*
X125476000Y-81788000D03*
X137160000Y-82550000D03*
X162560000Y-82550000D03*
X125476000Y-90932000D03*
X173990000Y-85090000D03*
X153289000Y-93980000D03*
X160020000Y-77470000D03*
X156210000Y-78740000D03*
X161290000Y-78740000D03*
X168910000Y-87630000D03*
X125476000Y-87884000D03*
X176530000Y-77470000D03*
X149860000Y-82550000D03*
X134874000Y-87376000D03*
X167907617Y-105127499D03*
X125476000Y-88900000D03*
X151130000Y-83820000D03*
X147320000Y-77470000D03*
X176149000Y-85090000D03*
X132842000Y-89408000D03*
X164592000Y-100711000D03*
X176530000Y-100330000D03*
X126238000Y-79629000D03*
X175260000Y-81280000D03*
X133477000Y-90170000D03*
X173990000Y-99060000D03*
X151768468Y-105141586D03*
X179070000Y-87630000D03*
X124750500Y-104698800D03*
X166370000Y-85090000D03*
X177800000Y-96520000D03*
X125476000Y-85852000D03*
X167640000Y-86360000D03*
X179070000Y-90170000D03*
X177800000Y-99060000D03*
X134239000Y-89408000D03*
X166624000Y-94488000D03*
X159004000Y-105127499D03*
%TO.N,/SCL*%
X159004000Y-88519000D03*
X162814000Y-90297000D03*
%TO.N,/SDA*%
X159131000Y-87122000D03*
%TO.N,/~{E2_INT}*%
X164338000Y-90424000D03*
X145669000Y-86360000D03*
%TO.N,E2_IO0_2*%
X163957161Y-96251538D03*
%TO.N,E2_IO0_3*%
X163949923Y-96901000D03*
%TO.N,E2_IO0_4*%
X163957000Y-97663000D03*
%TO.N,E2_IO0_5*%
X163957000Y-98425000D03*
%TO.N,E2_IO0_6*%
X163957000Y-99314000D03*
%TO.N,E2_IO0_7*%
X163957000Y-100076000D03*
%TO.N,E2_IO1_0*%
X171323000Y-101092000D03*
%TO.N,E2_IO1_1*%
X170508188Y-101038056D03*
%TO.N,E2_IO1_2*%
X169773422Y-101066422D03*
%TO.N,E2_IO1_3*%
X169037000Y-101092000D03*
%TO.N,E2_IO1_4*%
X168275000Y-101092000D03*
%TO.N,E2_IO1_5*%
X167511269Y-101092000D03*
%TO.N,E2_IO1_6*%
X166782447Y-101079066D03*
%TO.N,E2_IO1_7*%
X165989000Y-101090812D03*
%TO.N,/SDA0*%
X118364000Y-103632000D03*
X147955000Y-91313000D03*
X150114000Y-89535000D03*
X142875000Y-91567000D03*
X126492000Y-91440000D03*
X137414000Y-88519000D03*
%TO.N,/ESP32-CM/ESP_EN{slash}CM_RUN*%
X167132000Y-81153000D03*
X129286000Y-94107000D03*
%TO.N,/ESP32-CM/RXD0*%
X137287000Y-104013000D03*
X132080000Y-83820000D03*
%TO.N,/ESP32-CM/TXD0*%
X130810000Y-83820000D03*
X135636000Y-104013000D03*
%TO.N,E1_IO0_4*%
X153289000Y-90932000D03*
%TO.N,E1_IO0_5*%
X153289000Y-91694000D03*
%TO.N,E1_IO0_6*%
X153289000Y-92456000D03*
%TO.N,E1_IO0_7*%
X153289000Y-93218000D03*
%TO.N,/SCL0*%
X142875000Y-90424000D03*
X127000000Y-92075000D03*
X151864200Y-88491200D03*
X119126000Y-103632000D03*
X139319000Y-88519000D03*
%TO.N,/ESP32-CM/IO0*%
X124460000Y-104013000D03*
X130175000Y-90678000D03*
X146050000Y-78486000D03*
%TO.N,/ESP32-CM/USB_D-*%
X141987000Y-94361000D03*
X171050346Y-104521000D03*
%TO.N,/ESP32-CM/USB_D+*%
X142737000Y-94361000D03*
X170300346Y-104521000D03*
%TO.N,/ESP32-CM/V1SPI_CLK*%
X140462000Y-94234000D03*
X142494000Y-103251000D03*
%TO.N,/ESP32-CM/V1SPI_MOSI*%
X139700000Y-93472000D03*
X141605000Y-104140000D03*
%TO.N,/ESP32-CM/V1SPI_MISO*%
X138557000Y-93091000D03*
X140843000Y-104394000D03*
%TO.N,/ESP32-CM/V1SPI_CS*%
X139192000Y-97536000D03*
X139581500Y-102362000D03*
%TO.N,/ESP32-CM/V0SPI_CLK*%
X129540000Y-101219000D03*
X127762000Y-103759000D03*
X129032000Y-80518000D03*
%TO.N,/ESP32-CM/V0SPI_MOSI*%
X131191000Y-101346000D03*
X127203200Y-104343200D03*
%TO.N,/ESP32-CM/V0SPI_MISO*%
X128270000Y-101219000D03*
X127635000Y-80518000D03*
X125741602Y-103750298D03*
%TO.N,/ESP32-CM/V0SPI_CS*%
X125222000Y-104140000D03*
X130302000Y-94869000D03*
%TO.N,/ESP32-CM/GPIO15{slash}RTS*%
X135382000Y-97409000D03*
X137922000Y-103251000D03*
%TO.N,/ESP32-CM/GPIO16{slash}CTS*%
X136652000Y-97409000D03*
X138571444Y-103242260D03*
%TO.N,/SDA1*%
X120015000Y-103632000D03*
X141097000Y-88519000D03*
X142875000Y-89154000D03*
X127508000Y-92710000D03*
X150494521Y-85964498D03*
X145669000Y-89027000D03*
X148082000Y-86106000D03*
%TO.N,/SCL1*%
X120777000Y-103632000D03*
X127635000Y-93472000D03*
X156210000Y-88773000D03*
X142875000Y-87884000D03*
X150495000Y-86614000D03*
%TD*%
%TA.AperFunction,Conductor*%
%TO.N,GND*%
G36*
X178647084Y-77097503D02*
G01*
X178693577Y-77151159D01*
X178703681Y-77221433D01*
X178674187Y-77286013D01*
X178635514Y-77316097D01*
X178458737Y-77404878D01*
X178444347Y-77412105D01*
X178156818Y-77601216D01*
X177893175Y-77822438D01*
X177656991Y-78072778D01*
X177451488Y-78348817D01*
X177451470Y-78348844D01*
X177279398Y-78646882D01*
X177279395Y-78646887D01*
X177143085Y-78962890D01*
X177143083Y-78962896D01*
X177044376Y-79292599D01*
X176984612Y-79631535D01*
X176984612Y-79631541D01*
X176964602Y-79975109D01*
X176984612Y-80318676D01*
X176984612Y-80318682D01*
X176984613Y-80318687D01*
X177044376Y-80657618D01*
X177143082Y-80987320D01*
X177143084Y-80987326D01*
X177143085Y-80987327D01*
X177279395Y-81303330D01*
X177279398Y-81303335D01*
X177414995Y-81538196D01*
X177451477Y-81601385D01*
X177451486Y-81601397D01*
X177451488Y-81601400D01*
X177656991Y-81877439D01*
X177893175Y-82127779D01*
X178156818Y-82349001D01*
X178269328Y-82423000D01*
X178444355Y-82538117D01*
X178751908Y-82692576D01*
X179075313Y-82810286D01*
X179410196Y-82889654D01*
X179605529Y-82912485D01*
X179752026Y-82929609D01*
X179752029Y-82929609D01*
X180096192Y-82929609D01*
X180224376Y-82914625D01*
X180438022Y-82889654D01*
X180772905Y-82810286D01*
X181096310Y-82692576D01*
X181403863Y-82538117D01*
X181691404Y-82348998D01*
X181955046Y-82127776D01*
X182191223Y-81877443D01*
X182396741Y-81601385D01*
X182568821Y-81303333D01*
X182633150Y-81154199D01*
X182678497Y-81099574D01*
X182746179Y-81078135D01*
X182814708Y-81096692D01*
X182862326Y-81149352D01*
X182874845Y-81204107D01*
X182874845Y-85817251D01*
X182854843Y-85885372D01*
X182801187Y-85931865D01*
X182765289Y-85942173D01*
X182604908Y-85963284D01*
X182604887Y-85963288D01*
X182332604Y-86036241D01*
X182072145Y-86144122D01*
X182072135Y-86144127D01*
X181828009Y-86285068D01*
X181604358Y-86456678D01*
X181604347Y-86456687D01*
X181405017Y-86656013D01*
X181405013Y-86656018D01*
X181233395Y-86879671D01*
X181092447Y-87123793D01*
X181092443Y-87123801D01*
X181092442Y-87123804D01*
X180984560Y-87384251D01*
X180924488Y-87608442D01*
X180911594Y-87656561D01*
X180874799Y-87936044D01*
X180874799Y-88217955D01*
X180911594Y-88497438D01*
X180911595Y-88497441D01*
X180911596Y-88497448D01*
X180984560Y-88769749D01*
X181091118Y-89027000D01*
X181092443Y-89030198D01*
X181092447Y-89030206D01*
X181173504Y-89170596D01*
X181233398Y-89274333D01*
X181405014Y-89497983D01*
X181604354Y-89697319D01*
X181728400Y-89792500D01*
X181828009Y-89868931D01*
X182072135Y-90009872D01*
X182072141Y-90009875D01*
X182072148Y-90009879D01*
X182332598Y-90117756D01*
X182332601Y-90117756D01*
X182332604Y-90117758D01*
X182604887Y-90190711D01*
X182604890Y-90190711D01*
X182604900Y-90190714D01*
X182765293Y-90211826D01*
X182830217Y-90240545D01*
X182869310Y-90299809D01*
X182874846Y-90336747D01*
X182874846Y-92839900D01*
X182854844Y-92908021D01*
X182801188Y-92954514D01*
X182748846Y-92965900D01*
X181921105Y-92965900D01*
X181917374Y-92965789D01*
X181837844Y-92961072D01*
X181667021Y-92979952D01*
X181667004Y-92979955D01*
X181501777Y-93027271D01*
X181501770Y-93027274D01*
X181346835Y-93101685D01*
X181206602Y-93201073D01*
X181085073Y-93322602D01*
X180985685Y-93462835D01*
X180911274Y-93617770D01*
X180911271Y-93617777D01*
X180863955Y-93783004D01*
X180863952Y-93783021D01*
X180845072Y-93953844D01*
X180849790Y-94033375D01*
X180849901Y-94037106D01*
X180849901Y-98165414D01*
X180849902Y-98165417D01*
X180850979Y-98173597D01*
X180850613Y-98173645D01*
X180853771Y-98204866D01*
X180852144Y-98231894D01*
X180852144Y-98231901D01*
X180876529Y-98420038D01*
X180935581Y-98600319D01*
X180935583Y-98600323D01*
X181027231Y-98766426D01*
X181027231Y-98766427D01*
X181148256Y-98912516D01*
X181148259Y-98912519D01*
X181294415Y-99033469D01*
X181460568Y-99125030D01*
X181640885Y-99183989D01*
X181829036Y-99208274D01*
X181916702Y-99202948D01*
X181920931Y-99202835D01*
X182707460Y-99208521D01*
X182775433Y-99229015D01*
X182821537Y-99283006D01*
X182832546Y-99333851D01*
X182845405Y-101763800D01*
X182864029Y-105283334D01*
X182844389Y-105351559D01*
X182790980Y-105398335D01*
X182738032Y-105410000D01*
X133333580Y-105410000D01*
X133265459Y-105389998D01*
X133218966Y-105336342D01*
X133208862Y-105266070D01*
X133218148Y-105201488D01*
X133224688Y-105156003D01*
X133224688Y-105156000D01*
X133204042Y-105012404D01*
X133143777Y-104880442D01*
X133048775Y-104770804D01*
X133048774Y-104770803D01*
X132982787Y-104728396D01*
X132926732Y-104692371D01*
X132926731Y-104692370D01*
X132926730Y-104692370D01*
X132787536Y-104651500D01*
X132642464Y-104651500D01*
X132503272Y-104692370D01*
X132494621Y-104694910D01*
X132494174Y-104693390D01*
X132433910Y-104702054D01*
X132369330Y-104672559D01*
X132330949Y-104612831D01*
X132325846Y-104577337D01*
X132325846Y-104503709D01*
X132321986Y-104486796D01*
X132293227Y-104360795D01*
X132229625Y-104228724D01*
X132138229Y-104114118D01*
X132023623Y-104022722D01*
X132023621Y-104022721D01*
X132023620Y-104022720D01*
X132023618Y-104022719D01*
X132003436Y-104013000D01*
X135126312Y-104013000D01*
X135146958Y-104156596D01*
X135207223Y-104288558D01*
X135302225Y-104398196D01*
X135424268Y-104476629D01*
X135563464Y-104517500D01*
X135708536Y-104517500D01*
X135847732Y-104476629D01*
X135969775Y-104398196D01*
X136064777Y-104288558D01*
X136125042Y-104156596D01*
X136145688Y-104013000D01*
X136777312Y-104013000D01*
X136797958Y-104156596D01*
X136858223Y-104288558D01*
X136953225Y-104398196D01*
X137075268Y-104476629D01*
X137214464Y-104517500D01*
X137359536Y-104517500D01*
X137498732Y-104476629D01*
X137620775Y-104398196D01*
X137624411Y-104394000D01*
X140333312Y-104394000D01*
X140353958Y-104537596D01*
X140414223Y-104669558D01*
X140509225Y-104779196D01*
X140631268Y-104857629D01*
X140770464Y-104898500D01*
X140915536Y-104898500D01*
X141054732Y-104857629D01*
X141176775Y-104779196D01*
X141271777Y-104669558D01*
X141271782Y-104669546D01*
X141275707Y-104663440D01*
X141329360Y-104616944D01*
X141399633Y-104606835D01*
X141417203Y-104610657D01*
X141532464Y-104644500D01*
X141677536Y-104644500D01*
X141816732Y-104603629D01*
X141938775Y-104525196D01*
X141942411Y-104521000D01*
X169790658Y-104521000D01*
X169811304Y-104664596D01*
X169871569Y-104796558D01*
X169966571Y-104906196D01*
X170088614Y-104984629D01*
X170227810Y-105025500D01*
X170372882Y-105025500D01*
X170512078Y-104984629D01*
X170607226Y-104923480D01*
X170675345Y-104903478D01*
X170743462Y-104923478D01*
X170790169Y-104953495D01*
X170838610Y-104984627D01*
X170838612Y-104984627D01*
X170838614Y-104984629D01*
X170977810Y-105025500D01*
X171122882Y-105025500D01*
X171262078Y-104984629D01*
X171384121Y-104906196D01*
X171479123Y-104796558D01*
X171539388Y-104664596D01*
X171560034Y-104521000D01*
X171539388Y-104377404D01*
X171479123Y-104245442D01*
X171384121Y-104135804D01*
X171384120Y-104135803D01*
X171321605Y-104095627D01*
X171262078Y-104057371D01*
X171262077Y-104057370D01*
X171262076Y-104057370D01*
X171122882Y-104016500D01*
X170977810Y-104016500D01*
X170838615Y-104057370D01*
X170838612Y-104057372D01*
X170743467Y-104118518D01*
X170675346Y-104138520D01*
X170607225Y-104118518D01*
X170528058Y-104067641D01*
X170512078Y-104057371D01*
X170512077Y-104057370D01*
X170512076Y-104057370D01*
X170372882Y-104016500D01*
X170227810Y-104016500D01*
X170088615Y-104057370D01*
X170088612Y-104057372D01*
X169966571Y-104135803D01*
X169871569Y-104245441D01*
X169811304Y-104377403D01*
X169807709Y-104402409D01*
X169790658Y-104521000D01*
X141942411Y-104521000D01*
X142033777Y-104415558D01*
X142094042Y-104283596D01*
X142114688Y-104140000D01*
X142094042Y-103996404D01*
X142043622Y-103886000D01*
X177544312Y-103886000D01*
X177564958Y-104029596D01*
X177625223Y-104161558D01*
X177680448Y-104225291D01*
X177709941Y-104289872D01*
X177699840Y-104360141D01*
X177691958Y-104377402D01*
X177691957Y-104377402D01*
X177671312Y-104520996D01*
X177671312Y-104520998D01*
X177671312Y-104521000D01*
X177691958Y-104664596D01*
X177752223Y-104796558D01*
X177847225Y-104906196D01*
X177969268Y-104984629D01*
X178108464Y-105025500D01*
X178253536Y-105025500D01*
X178392732Y-104984629D01*
X178410051Y-104973498D01*
X178478169Y-104953495D01*
X178546289Y-104973494D01*
X178563614Y-104984629D01*
X178702810Y-105025500D01*
X178847882Y-105025500D01*
X178987078Y-104984629D01*
X179109121Y-104906196D01*
X179204123Y-104796558D01*
X179264388Y-104664596D01*
X179285034Y-104521000D01*
X179264388Y-104377404D01*
X179264386Y-104377399D01*
X179263615Y-104374771D01*
X179263614Y-104372030D01*
X179263105Y-104368484D01*
X179263614Y-104368410D01*
X179263613Y-104303775D01*
X179289286Y-104256757D01*
X179371777Y-104161558D01*
X179432042Y-104029596D01*
X179452688Y-103886000D01*
X179432042Y-103742404D01*
X179371777Y-103610442D01*
X179276775Y-103500804D01*
X179276774Y-103500803D01*
X179174137Y-103434842D01*
X179154732Y-103422371D01*
X179154731Y-103422370D01*
X179154730Y-103422370D01*
X179015536Y-103381500D01*
X178870464Y-103381500D01*
X178731269Y-103422370D01*
X178731266Y-103422372D01*
X178609225Y-103500803D01*
X178593724Y-103518693D01*
X178533998Y-103557076D01*
X178463001Y-103557076D01*
X178403276Y-103518693D01*
X178387774Y-103500803D01*
X178285137Y-103434842D01*
X178265732Y-103422371D01*
X178265731Y-103422370D01*
X178265730Y-103422370D01*
X178126536Y-103381500D01*
X177981464Y-103381500D01*
X177842269Y-103422370D01*
X177842266Y-103422372D01*
X177720225Y-103500803D01*
X177625223Y-103610441D01*
X177564958Y-103742403D01*
X177544312Y-103886000D01*
X142043622Y-103886000D01*
X142033777Y-103864442D01*
X142002446Y-103828284D01*
X141972953Y-103763703D01*
X141973064Y-103762928D01*
X141933208Y-103751226D01*
X141862659Y-103705887D01*
X141816732Y-103676371D01*
X141816731Y-103676370D01*
X141816730Y-103676370D01*
X141677536Y-103635500D01*
X141532464Y-103635500D01*
X141393269Y-103676370D01*
X141393266Y-103676372D01*
X141271225Y-103754803D01*
X141176223Y-103864440D01*
X141172286Y-103870568D01*
X141118629Y-103917060D01*
X141048355Y-103927162D01*
X141030792Y-103923341D01*
X140915537Y-103889500D01*
X140915536Y-103889500D01*
X140770464Y-103889500D01*
X140631269Y-103930370D01*
X140631266Y-103930372D01*
X140509225Y-104008803D01*
X140414223Y-104118441D01*
X140353958Y-104250403D01*
X140350450Y-104274800D01*
X140333312Y-104394000D01*
X137624411Y-104394000D01*
X137715777Y-104288558D01*
X137776042Y-104156596D01*
X137796688Y-104013000D01*
X137780359Y-103899430D01*
X137790463Y-103829158D01*
X137836956Y-103775502D01*
X137905077Y-103755500D01*
X137994536Y-103755500D01*
X138133732Y-103714629D01*
X138185399Y-103681423D01*
X138253520Y-103661421D01*
X138321640Y-103681421D01*
X138359712Y-103705889D01*
X138498908Y-103746760D01*
X138643980Y-103746760D01*
X138783176Y-103705889D01*
X138905219Y-103627456D01*
X139000221Y-103517818D01*
X139060486Y-103385856D01*
X139079875Y-103251000D01*
X141984312Y-103251000D01*
X142004958Y-103394596D01*
X142065223Y-103526558D01*
X142065226Y-103526562D01*
X142096553Y-103562716D01*
X142126046Y-103627296D01*
X142125934Y-103628070D01*
X142165790Y-103639772D01*
X142282268Y-103714629D01*
X142421464Y-103755500D01*
X142566536Y-103755500D01*
X142705732Y-103714629D01*
X142827775Y-103636196D01*
X142922777Y-103526558D01*
X142983042Y-103394596D01*
X143003688Y-103251000D01*
X142983042Y-103107404D01*
X142922777Y-102975442D01*
X142827775Y-102865804D01*
X142827774Y-102865803D01*
X142743801Y-102811837D01*
X142705732Y-102787371D01*
X142705731Y-102787370D01*
X142705730Y-102787370D01*
X142566536Y-102746500D01*
X142421464Y-102746500D01*
X142282269Y-102787370D01*
X142282266Y-102787372D01*
X142160225Y-102865803D01*
X142065223Y-102975441D01*
X142004958Y-103107403D01*
X141984312Y-103251000D01*
X139079875Y-103251000D01*
X139081132Y-103242260D01*
X139060486Y-103098664D01*
X139000221Y-102966702D01*
X138905219Y-102857064D01*
X138905218Y-102857063D01*
X138796777Y-102787372D01*
X138783176Y-102778631D01*
X138783175Y-102778630D01*
X138783174Y-102778630D01*
X138643980Y-102737760D01*
X138498908Y-102737760D01*
X138359712Y-102778630D01*
X138308041Y-102811837D01*
X138239920Y-102831838D01*
X138171803Y-102811837D01*
X138133731Y-102787370D01*
X137994536Y-102746500D01*
X137849464Y-102746500D01*
X137710269Y-102787370D01*
X137710266Y-102787372D01*
X137588225Y-102865803D01*
X137493223Y-102975441D01*
X137436950Y-103098663D01*
X137432958Y-103107404D01*
X137412312Y-103251000D01*
X137427472Y-103356442D01*
X137428641Y-103364568D01*
X137418537Y-103434842D01*
X137372044Y-103488498D01*
X137303923Y-103508500D01*
X137214464Y-103508500D01*
X137075269Y-103549370D01*
X137075266Y-103549372D01*
X136953225Y-103627803D01*
X136858223Y-103737441D01*
X136797958Y-103869403D01*
X136784545Y-103962695D01*
X136777312Y-104013000D01*
X136145688Y-104013000D01*
X136125042Y-103869404D01*
X136064777Y-103737442D01*
X135969775Y-103627804D01*
X135969774Y-103627803D01*
X135859721Y-103557076D01*
X135847732Y-103549371D01*
X135847731Y-103549370D01*
X135847730Y-103549370D01*
X135708536Y-103508500D01*
X135563464Y-103508500D01*
X135424269Y-103549370D01*
X135424266Y-103549372D01*
X135302225Y-103627803D01*
X135207223Y-103737441D01*
X135146958Y-103869403D01*
X135133545Y-103962695D01*
X135126312Y-104013000D01*
X132003436Y-104013000D01*
X131906174Y-103966161D01*
X131891552Y-103959120D01*
X131748640Y-103926501D01*
X131602052Y-103926501D01*
X131459140Y-103959120D01*
X131459135Y-103959122D01*
X131327073Y-104022719D01*
X131327071Y-104022720D01*
X131212463Y-104114118D01*
X131121065Y-104228726D01*
X131121064Y-104228728D01*
X131065938Y-104343200D01*
X131057465Y-104360795D01*
X131028708Y-104486789D01*
X131024846Y-104503709D01*
X131024846Y-105284000D01*
X131004844Y-105352121D01*
X130951188Y-105398614D01*
X130898846Y-105410000D01*
X130309833Y-105410000D01*
X130241712Y-105389998D01*
X130195219Y-105336342D01*
X130185115Y-105266068D01*
X130214609Y-105201488D01*
X130214610Y-105201486D01*
X130222777Y-105192061D01*
X130283042Y-105060099D01*
X130303688Y-104916503D01*
X130283042Y-104772907D01*
X130222777Y-104640945D01*
X130127775Y-104531307D01*
X130127774Y-104531306D01*
X130030824Y-104469000D01*
X130005732Y-104452874D01*
X130005731Y-104452873D01*
X130005730Y-104452873D01*
X129866536Y-104412003D01*
X129721464Y-104412003D01*
X129582269Y-104452873D01*
X129582266Y-104452875D01*
X129460225Y-104531306D01*
X129365223Y-104640944D01*
X129304958Y-104772906D01*
X129284312Y-104916503D01*
X129304958Y-105060099D01*
X129365223Y-105192061D01*
X129373390Y-105201486D01*
X129402884Y-105266066D01*
X129392782Y-105336340D01*
X129346290Y-105389997D01*
X129278169Y-105410000D01*
X117220000Y-105410000D01*
X117151879Y-105389998D01*
X117105386Y-105336342D01*
X117094000Y-105284000D01*
X117094000Y-104316375D01*
X117114002Y-104248254D01*
X117127546Y-104230770D01*
X117135086Y-104222627D01*
X117651589Y-103664803D01*
X117712546Y-103628410D01*
X117783504Y-103630749D01*
X117841933Y-103671080D01*
X117868758Y-103732478D01*
X117874956Y-103775589D01*
X117874958Y-103775596D01*
X117935223Y-103907558D01*
X118030225Y-104017196D01*
X118152268Y-104095629D01*
X118291464Y-104136500D01*
X118436536Y-104136500D01*
X118575732Y-104095629D01*
X118676879Y-104030624D01*
X118744999Y-104010623D01*
X118813120Y-104030625D01*
X118813121Y-104030625D01*
X118914268Y-104095629D01*
X119053464Y-104136500D01*
X119198536Y-104136500D01*
X119337732Y-104095629D01*
X119459775Y-104017196D01*
X119475276Y-103999306D01*
X119535000Y-103960923D01*
X119605996Y-103960922D01*
X119665721Y-103999304D01*
X119681225Y-104017196D01*
X119803268Y-104095629D01*
X119942464Y-104136500D01*
X120087536Y-104136500D01*
X120226732Y-104095629D01*
X120327879Y-104030624D01*
X120395999Y-104010623D01*
X120464120Y-104030625D01*
X120464121Y-104030625D01*
X120565268Y-104095629D01*
X120704464Y-104136500D01*
X120849536Y-104136500D01*
X120988732Y-104095629D01*
X121110775Y-104017196D01*
X121114411Y-104013000D01*
X123950312Y-104013000D01*
X123970958Y-104156596D01*
X124031223Y-104288558D01*
X124126225Y-104398196D01*
X124248268Y-104476629D01*
X124387464Y-104517500D01*
X124532536Y-104517500D01*
X124671732Y-104476629D01*
X124691907Y-104463662D01*
X124760027Y-104443659D01*
X124828148Y-104463659D01*
X124855254Y-104487146D01*
X124869606Y-104503709D01*
X124888225Y-104525196D01*
X125010268Y-104603629D01*
X125149464Y-104644500D01*
X125294536Y-104644500D01*
X125433732Y-104603629D01*
X125555775Y-104525196D01*
X125650777Y-104415558D01*
X125683821Y-104343200D01*
X126693512Y-104343200D01*
X126714158Y-104486796D01*
X126774423Y-104618758D01*
X126869425Y-104728396D01*
X126991468Y-104806829D01*
X127130664Y-104847700D01*
X127275736Y-104847700D01*
X127414932Y-104806829D01*
X127536975Y-104728396D01*
X127631977Y-104618758D01*
X127692242Y-104486796D01*
X127697119Y-104452874D01*
X127708810Y-104371568D01*
X127738303Y-104306987D01*
X127798029Y-104268604D01*
X127833527Y-104263500D01*
X127834536Y-104263500D01*
X127973732Y-104222629D01*
X128095775Y-104144196D01*
X128190777Y-104034558D01*
X128251042Y-103902596D01*
X128271688Y-103759000D01*
X128251042Y-103615404D01*
X128190777Y-103483442D01*
X128095775Y-103373804D01*
X128095774Y-103373803D01*
X127985721Y-103303076D01*
X127973732Y-103295371D01*
X127973731Y-103295370D01*
X127973730Y-103295370D01*
X127834536Y-103254500D01*
X127689464Y-103254500D01*
X127550269Y-103295370D01*
X127550266Y-103295372D01*
X127428225Y-103373803D01*
X127333223Y-103483441D01*
X127272958Y-103615403D01*
X127272956Y-103615410D01*
X127256390Y-103730632D01*
X127226897Y-103795213D01*
X127167171Y-103833596D01*
X127131673Y-103838700D01*
X127130664Y-103838700D01*
X126991469Y-103879570D01*
X126991466Y-103879572D01*
X126869425Y-103958003D01*
X126774423Y-104067641D01*
X126714158Y-104199603D01*
X126707568Y-104245441D01*
X126693512Y-104343200D01*
X125683821Y-104343200D01*
X125690555Y-104328455D01*
X125737048Y-104274800D01*
X125805169Y-104254798D01*
X125814138Y-104254798D01*
X125953334Y-104213927D01*
X126075377Y-104135494D01*
X126170379Y-104025856D01*
X126230644Y-103893894D01*
X126251290Y-103750298D01*
X126230644Y-103606702D01*
X126170379Y-103474740D01*
X126075377Y-103365102D01*
X126075376Y-103365101D01*
X126014355Y-103325885D01*
X125953334Y-103286669D01*
X125953333Y-103286668D01*
X125953332Y-103286668D01*
X125814138Y-103245798D01*
X125669066Y-103245798D01*
X125529871Y-103286668D01*
X125529868Y-103286670D01*
X125407827Y-103365101D01*
X125312825Y-103474739D01*
X125289159Y-103526562D01*
X125275224Y-103557076D01*
X125273047Y-103561842D01*
X125226554Y-103615498D01*
X125158433Y-103635500D01*
X125149464Y-103635500D01*
X125010269Y-103676370D01*
X125010261Y-103676374D01*
X124990085Y-103689340D01*
X124921964Y-103709340D01*
X124853844Y-103689336D01*
X124826746Y-103665854D01*
X124793775Y-103627804D01*
X124793774Y-103627803D01*
X124683721Y-103557076D01*
X124671732Y-103549371D01*
X124671731Y-103549370D01*
X124671730Y-103549370D01*
X124532536Y-103508500D01*
X124387464Y-103508500D01*
X124248269Y-103549370D01*
X124248266Y-103549372D01*
X124126225Y-103627803D01*
X124031223Y-103737441D01*
X123970958Y-103869403D01*
X123957545Y-103962695D01*
X123950312Y-104013000D01*
X121114411Y-104013000D01*
X121205777Y-103907558D01*
X121266042Y-103775596D01*
X121286688Y-103632000D01*
X121266042Y-103488404D01*
X121205777Y-103356442D01*
X121110775Y-103246804D01*
X121110774Y-103246803D01*
X121049753Y-103207587D01*
X120988732Y-103168371D01*
X120988731Y-103168370D01*
X120988730Y-103168370D01*
X120849536Y-103127500D01*
X120704464Y-103127500D01*
X120565269Y-103168370D01*
X120565266Y-103168372D01*
X120464121Y-103233374D01*
X120396000Y-103253376D01*
X120327879Y-103233374D01*
X120257125Y-103187904D01*
X120226732Y-103168371D01*
X120226731Y-103168370D01*
X120226730Y-103168370D01*
X120087536Y-103127500D01*
X119942464Y-103127500D01*
X119803269Y-103168370D01*
X119803266Y-103168372D01*
X119681225Y-103246803D01*
X119665724Y-103264693D01*
X119605998Y-103303076D01*
X119535001Y-103303076D01*
X119475276Y-103264693D01*
X119459774Y-103246803D01*
X119398753Y-103207587D01*
X119337732Y-103168371D01*
X119337731Y-103168370D01*
X119337730Y-103168370D01*
X119198536Y-103127500D01*
X119053464Y-103127500D01*
X118914269Y-103168370D01*
X118914266Y-103168372D01*
X118813121Y-103233374D01*
X118745000Y-103253376D01*
X118676879Y-103233374D01*
X118606125Y-103187904D01*
X118575732Y-103168371D01*
X118575731Y-103168370D01*
X118575730Y-103168370D01*
X118436534Y-103127499D01*
X118427615Y-103126217D01*
X118427837Y-103124669D01*
X118369356Y-103107498D01*
X118322863Y-103053842D01*
X118312759Y-102983568D01*
X118342253Y-102918988D01*
X118345023Y-102915895D01*
X118390759Y-102866500D01*
X118857888Y-102362000D01*
X139071812Y-102362000D01*
X139092458Y-102505596D01*
X139152723Y-102637558D01*
X139247725Y-102747196D01*
X139369768Y-102825629D01*
X139508964Y-102866500D01*
X139654036Y-102866500D01*
X139793232Y-102825629D01*
X139915275Y-102747196D01*
X140010277Y-102637558D01*
X140070542Y-102505596D01*
X140091188Y-102362000D01*
X140070542Y-102218404D01*
X140056022Y-102186610D01*
X179799500Y-102186610D01*
X179838679Y-102396198D01*
X179915702Y-102595019D01*
X179915703Y-102595020D01*
X179915705Y-102595025D01*
X180027945Y-102776298D01*
X180027946Y-102776300D01*
X180060343Y-102811837D01*
X180171593Y-102933872D01*
X180341745Y-103062366D01*
X180532611Y-103157405D01*
X180737690Y-103215756D01*
X180896806Y-103230500D01*
X180896813Y-103230500D01*
X181003187Y-103230500D01*
X181003194Y-103230500D01*
X181162310Y-103215756D01*
X181367389Y-103157405D01*
X181558255Y-103062366D01*
X181728407Y-102933872D01*
X181872052Y-102776302D01*
X181984298Y-102595019D01*
X182061321Y-102396198D01*
X182100500Y-102186610D01*
X182100500Y-101973390D01*
X182061321Y-101763802D01*
X181984298Y-101564981D01*
X181978507Y-101555629D01*
X181872054Y-101383701D01*
X181872053Y-101383699D01*
X181728408Y-101226129D01*
X181718968Y-101219000D01*
X181558255Y-101097634D01*
X181367389Y-101002595D01*
X181367386Y-101002594D01*
X181367384Y-101002593D01*
X181162311Y-100944244D01*
X181142420Y-100942401D01*
X181003194Y-100929500D01*
X180896806Y-100929500D01*
X180773049Y-100940967D01*
X180737688Y-100944244D01*
X180532615Y-101002593D01*
X180532611Y-101002595D01*
X180341745Y-101097634D01*
X180341744Y-101097635D01*
X180171591Y-101226129D01*
X180027946Y-101383699D01*
X180027945Y-101383701D01*
X179915705Y-101564974D01*
X179915703Y-101564979D01*
X179915702Y-101564981D01*
X179908502Y-101583566D01*
X179838679Y-101763800D01*
X179838679Y-101763802D01*
X179799500Y-101973390D01*
X179799500Y-102186610D01*
X140056022Y-102186610D01*
X140010277Y-102086442D01*
X139915275Y-101976804D01*
X139915274Y-101976803D01*
X139854253Y-101937587D01*
X139793232Y-101898371D01*
X139793231Y-101898370D01*
X139793230Y-101898370D01*
X139654036Y-101857500D01*
X139508964Y-101857500D01*
X139369769Y-101898370D01*
X139369766Y-101898372D01*
X139247725Y-101976803D01*
X139152723Y-102086441D01*
X139106978Y-102186610D01*
X139092458Y-102218404D01*
X139071812Y-102362000D01*
X118857888Y-102362000D01*
X120231597Y-100878394D01*
X120292556Y-100842000D01*
X120324051Y-100838000D01*
X123952000Y-100838000D01*
X124206000Y-100584000D01*
X127379312Y-100584000D01*
X127399958Y-100727596D01*
X127460223Y-100859558D01*
X127555225Y-100969196D01*
X127677268Y-101047629D01*
X127677275Y-101047631D01*
X127685462Y-101051370D01*
X127684746Y-101052937D01*
X127735550Y-101085580D01*
X127765049Y-101150158D01*
X127765051Y-101186029D01*
X127760312Y-101218996D01*
X127760312Y-101218997D01*
X127760312Y-101219000D01*
X127780958Y-101362596D01*
X127841223Y-101494558D01*
X127936225Y-101604196D01*
X128058268Y-101682629D01*
X128197464Y-101723500D01*
X128342536Y-101723500D01*
X128481732Y-101682629D01*
X128603775Y-101604196D01*
X128698777Y-101494558D01*
X128759042Y-101362596D01*
X128779688Y-101219000D01*
X128779687Y-101218997D01*
X128779688Y-101218996D01*
X129030311Y-101218996D01*
X129031337Y-101226129D01*
X129050958Y-101362596D01*
X129111223Y-101494558D01*
X129206225Y-101604196D01*
X129328268Y-101682629D01*
X129467464Y-101723500D01*
X129612536Y-101723500D01*
X129751732Y-101682629D01*
X129873775Y-101604196D01*
X129968777Y-101494558D01*
X130029042Y-101362596D01*
X130031428Y-101346000D01*
X130681312Y-101346000D01*
X130701958Y-101489596D01*
X130762223Y-101621558D01*
X130857225Y-101731196D01*
X130979268Y-101809629D01*
X131118464Y-101850500D01*
X131263536Y-101850500D01*
X131402732Y-101809629D01*
X131524775Y-101731196D01*
X131619777Y-101621558D01*
X131680042Y-101489596D01*
X131700688Y-101346000D01*
X131680042Y-101202404D01*
X131629080Y-101090812D01*
X165479312Y-101090812D01*
X165499958Y-101234408D01*
X165560223Y-101366370D01*
X165655225Y-101476008D01*
X165777268Y-101554441D01*
X165916464Y-101595312D01*
X166061536Y-101595312D01*
X166200732Y-101554441D01*
X166322775Y-101476008D01*
X166322777Y-101476004D01*
X166326739Y-101473459D01*
X166394859Y-101453456D01*
X166462980Y-101473457D01*
X166462983Y-101473459D01*
X166570711Y-101542693D01*
X166570713Y-101542693D01*
X166570715Y-101542695D01*
X166709911Y-101583566D01*
X166854983Y-101583566D01*
X166994179Y-101542695D01*
X167068674Y-101494819D01*
X167136792Y-101474817D01*
X167204913Y-101494818D01*
X167204915Y-101494819D01*
X167204917Y-101494820D01*
X167299537Y-101555629D01*
X167438733Y-101596500D01*
X167583805Y-101596500D01*
X167723001Y-101555629D01*
X167825015Y-101490067D01*
X167893131Y-101470066D01*
X167961252Y-101490067D01*
X168063268Y-101555629D01*
X168202464Y-101596500D01*
X168347536Y-101596500D01*
X168486732Y-101555629D01*
X168587879Y-101490624D01*
X168655999Y-101470623D01*
X168724120Y-101490625D01*
X168724121Y-101490625D01*
X168825268Y-101555629D01*
X168964464Y-101596500D01*
X169109536Y-101596500D01*
X169248732Y-101555629D01*
X169356989Y-101486055D01*
X169425109Y-101466053D01*
X169493230Y-101486054D01*
X169493231Y-101486055D01*
X169506462Y-101494558D01*
X169561690Y-101530051D01*
X169700886Y-101570922D01*
X169845958Y-101570922D01*
X169985154Y-101530051D01*
X170094755Y-101459613D01*
X170162871Y-101439612D01*
X170230990Y-101459612D01*
X170248123Y-101470623D01*
X170296452Y-101501683D01*
X170296454Y-101501683D01*
X170296456Y-101501685D01*
X170435652Y-101542556D01*
X170580724Y-101542556D01*
X170719920Y-101501685D01*
X170814680Y-101440785D01*
X170882800Y-101420783D01*
X170950921Y-101440784D01*
X170978023Y-101464268D01*
X170989225Y-101477196D01*
X171111268Y-101555629D01*
X171250464Y-101596500D01*
X171395536Y-101596500D01*
X171534732Y-101555629D01*
X171656775Y-101477196D01*
X171751777Y-101367558D01*
X171812042Y-101235596D01*
X171832688Y-101092000D01*
X171812042Y-100948404D01*
X171751777Y-100816442D01*
X171656775Y-100706804D01*
X171656774Y-100706803D01*
X171534735Y-100628373D01*
X171534732Y-100628371D01*
X171534731Y-100628370D01*
X171534730Y-100628370D01*
X171395536Y-100587500D01*
X171250464Y-100587500D01*
X171111269Y-100628370D01*
X171111266Y-100628372D01*
X171016507Y-100689270D01*
X170948386Y-100709272D01*
X170880265Y-100689270D01*
X170853163Y-100665785D01*
X170841963Y-100652860D01*
X170719920Y-100574427D01*
X170719919Y-100574426D01*
X170719918Y-100574426D01*
X170580724Y-100533556D01*
X170435652Y-100533556D01*
X170296457Y-100574426D01*
X170296450Y-100574429D01*
X170186855Y-100644862D01*
X170118735Y-100664864D01*
X170050614Y-100644862D01*
X170023105Y-100627183D01*
X169985154Y-100602793D01*
X169985153Y-100602792D01*
X169985152Y-100602792D01*
X169845958Y-100561922D01*
X169700886Y-100561922D01*
X169561691Y-100602792D01*
X169561688Y-100602794D01*
X169453432Y-100672366D01*
X169385311Y-100692368D01*
X169317191Y-100672366D01*
X169248737Y-100628373D01*
X169248730Y-100628370D01*
X169109536Y-100587500D01*
X168964464Y-100587500D01*
X168825269Y-100628370D01*
X168825266Y-100628372D01*
X168724121Y-100693374D01*
X168656000Y-100713376D01*
X168587879Y-100693374D01*
X168486735Y-100628373D01*
X168486732Y-100628371D01*
X168486731Y-100628370D01*
X168486730Y-100628370D01*
X168347536Y-100587500D01*
X168202464Y-100587500D01*
X168063269Y-100628370D01*
X168063266Y-100628372D01*
X167961255Y-100693931D01*
X167893134Y-100713933D01*
X167825013Y-100693931D01*
X167824918Y-100693870D01*
X167723001Y-100628371D01*
X167723000Y-100628370D01*
X167722999Y-100628370D01*
X167583805Y-100587500D01*
X167438733Y-100587500D01*
X167299538Y-100628370D01*
X167299535Y-100628372D01*
X167225042Y-100676246D01*
X167156921Y-100696248D01*
X167088800Y-100676246D01*
X167023714Y-100634418D01*
X166994179Y-100615437D01*
X166994178Y-100615436D01*
X166994177Y-100615436D01*
X166854983Y-100574566D01*
X166709911Y-100574566D01*
X166570716Y-100615436D01*
X166570713Y-100615438D01*
X166444706Y-100696418D01*
X166376585Y-100716420D01*
X166308464Y-100696418D01*
X166228241Y-100644862D01*
X166200732Y-100627183D01*
X166200731Y-100627182D01*
X166200730Y-100627182D01*
X166061536Y-100586312D01*
X165916464Y-100586312D01*
X165777269Y-100627182D01*
X165777266Y-100627184D01*
X165655225Y-100705615D01*
X165560223Y-100815253D01*
X165501682Y-100943442D01*
X165499958Y-100947216D01*
X165479312Y-101090812D01*
X131629080Y-101090812D01*
X131619777Y-101070442D01*
X131524775Y-100960804D01*
X131524774Y-100960803D01*
X131463753Y-100921587D01*
X131402732Y-100882371D01*
X131402731Y-100882370D01*
X131402730Y-100882370D01*
X131263536Y-100841500D01*
X131118464Y-100841500D01*
X130979269Y-100882370D01*
X130979266Y-100882372D01*
X130857225Y-100960803D01*
X130762223Y-101070441D01*
X130701958Y-101202403D01*
X130697186Y-101235596D01*
X130681312Y-101346000D01*
X130031428Y-101346000D01*
X130049688Y-101219000D01*
X130029042Y-101075404D01*
X129968777Y-100943442D01*
X129873775Y-100833804D01*
X129873774Y-100833803D01*
X129778212Y-100772389D01*
X129751732Y-100755371D01*
X129751731Y-100755370D01*
X129751730Y-100755370D01*
X129612536Y-100714500D01*
X129467464Y-100714500D01*
X129328269Y-100755370D01*
X129328266Y-100755372D01*
X129206225Y-100833803D01*
X129111223Y-100943441D01*
X129050958Y-101075403D01*
X129050956Y-101075410D01*
X129030311Y-101218996D01*
X128779688Y-101218996D01*
X128759043Y-101075410D01*
X128759042Y-101075409D01*
X128759042Y-101075404D01*
X128698777Y-100943442D01*
X128603775Y-100833804D01*
X128603774Y-100833803D01*
X128508212Y-100772389D01*
X128481732Y-100755371D01*
X128481728Y-100755370D01*
X128473537Y-100751629D01*
X128474251Y-100750063D01*
X128423437Y-100717404D01*
X128393947Y-100652822D01*
X128393947Y-100616966D01*
X128398688Y-100584000D01*
X128378042Y-100440404D01*
X128317777Y-100308442D01*
X128222775Y-100198804D01*
X128222774Y-100198803D01*
X128161753Y-100159587D01*
X128100732Y-100120371D01*
X128100731Y-100120370D01*
X128100730Y-100120370D01*
X127961536Y-100079500D01*
X127816464Y-100079500D01*
X127677269Y-100120370D01*
X127677266Y-100120372D01*
X127555225Y-100198803D01*
X127460223Y-100308441D01*
X127399958Y-100440403D01*
X127386565Y-100533556D01*
X127379312Y-100584000D01*
X124206000Y-100584000D01*
X125095000Y-99695000D01*
X125095000Y-98425000D01*
X131316312Y-98425000D01*
X131336958Y-98568596D01*
X131397223Y-98700558D01*
X131492225Y-98810196D01*
X131614268Y-98888629D01*
X131753464Y-98929500D01*
X131898536Y-98929500D01*
X132037732Y-98888629D01*
X132159775Y-98810196D01*
X132254777Y-98700558D01*
X132315042Y-98568596D01*
X132335688Y-98425000D01*
X132315042Y-98281404D01*
X132254777Y-98149442D01*
X132159775Y-98039804D01*
X132159774Y-98039803D01*
X132037909Y-97961485D01*
X132037732Y-97961371D01*
X132037731Y-97961370D01*
X132037730Y-97961370D01*
X131898536Y-97920500D01*
X131753464Y-97920500D01*
X131614269Y-97961370D01*
X131614266Y-97961372D01*
X131492225Y-98039803D01*
X131397223Y-98149441D01*
X131371912Y-98204866D01*
X131336958Y-98281404D01*
X131316312Y-98425000D01*
X125095000Y-98425000D01*
X125095000Y-97155000D01*
X127379312Y-97155000D01*
X127399958Y-97298596D01*
X127460223Y-97430558D01*
X127555225Y-97540196D01*
X127677268Y-97618629D01*
X127816464Y-97659500D01*
X127961536Y-97659500D01*
X128100732Y-97618629D01*
X128222775Y-97540196D01*
X128317777Y-97430558D01*
X128327622Y-97409000D01*
X134872312Y-97409000D01*
X134892958Y-97552596D01*
X134953223Y-97684558D01*
X135048225Y-97794196D01*
X135170268Y-97872629D01*
X135309464Y-97913500D01*
X135454536Y-97913500D01*
X135593732Y-97872629D01*
X135715775Y-97794196D01*
X135810777Y-97684558D01*
X135871042Y-97552596D01*
X135891688Y-97409000D01*
X135891687Y-97408997D01*
X135891688Y-97408996D01*
X136142311Y-97408996D01*
X136158186Y-97519404D01*
X136162958Y-97552596D01*
X136223223Y-97684558D01*
X136318225Y-97794196D01*
X136440268Y-97872629D01*
X136579464Y-97913500D01*
X136724536Y-97913500D01*
X136863732Y-97872629D01*
X136985775Y-97794196D01*
X137080777Y-97684558D01*
X137141042Y-97552596D01*
X137143428Y-97536000D01*
X138682312Y-97536000D01*
X138702958Y-97679596D01*
X138763223Y-97811558D01*
X138858225Y-97921196D01*
X138980268Y-97999629D01*
X139119464Y-98040500D01*
X139264536Y-98040500D01*
X139403732Y-97999629D01*
X139525775Y-97921196D01*
X139620777Y-97811558D01*
X139681042Y-97679596D01*
X139701688Y-97536000D01*
X139681042Y-97392404D01*
X139620777Y-97260442D01*
X139525775Y-97150804D01*
X139525774Y-97150803D01*
X139464753Y-97111587D01*
X139403732Y-97072371D01*
X139403731Y-97072370D01*
X139403730Y-97072370D01*
X139264536Y-97031500D01*
X139119464Y-97031500D01*
X138980269Y-97072370D01*
X138980266Y-97072372D01*
X138858225Y-97150803D01*
X138763223Y-97260441D01*
X138705225Y-97387441D01*
X138702958Y-97392404D01*
X138682312Y-97536000D01*
X137143428Y-97536000D01*
X137161688Y-97409000D01*
X137141042Y-97265404D01*
X137080777Y-97133442D01*
X136985775Y-97023804D01*
X136985774Y-97023803D01*
X136924753Y-96984587D01*
X136863732Y-96945371D01*
X136863731Y-96945370D01*
X136863730Y-96945370D01*
X136724536Y-96904500D01*
X136579464Y-96904500D01*
X136440269Y-96945370D01*
X136440266Y-96945372D01*
X136318225Y-97023803D01*
X136223223Y-97133441D01*
X136162958Y-97265403D01*
X136162956Y-97265410D01*
X136142311Y-97408996D01*
X135891688Y-97408996D01*
X135871043Y-97265410D01*
X135871042Y-97265409D01*
X135871042Y-97265404D01*
X135810777Y-97133442D01*
X135715775Y-97023804D01*
X135715774Y-97023803D01*
X135654753Y-96984587D01*
X135593732Y-96945371D01*
X135593731Y-96945370D01*
X135593730Y-96945370D01*
X135454536Y-96904500D01*
X135309464Y-96904500D01*
X135170269Y-96945370D01*
X135170266Y-96945372D01*
X135048225Y-97023803D01*
X134953223Y-97133441D01*
X134895225Y-97260441D01*
X134892958Y-97265404D01*
X134872312Y-97409000D01*
X128327622Y-97409000D01*
X128378042Y-97298596D01*
X128398688Y-97155000D01*
X128378042Y-97011404D01*
X128327622Y-96901000D01*
X163440235Y-96901000D01*
X163460881Y-97044596D01*
X163521146Y-97176558D01*
X163544552Y-97203570D01*
X163574045Y-97268151D01*
X163563942Y-97338425D01*
X163544556Y-97368592D01*
X163528223Y-97387442D01*
X163467958Y-97519403D01*
X163447312Y-97663000D01*
X163467958Y-97806596D01*
X163528223Y-97938558D01*
X163548091Y-97961487D01*
X163577584Y-98026068D01*
X163567481Y-98096342D01*
X163548091Y-98126513D01*
X163528223Y-98149441D01*
X163467958Y-98281403D01*
X163447312Y-98425000D01*
X163467958Y-98568596D01*
X163528223Y-98700558D01*
X163528226Y-98700562D01*
X163603114Y-98786988D01*
X163632607Y-98851568D01*
X163622504Y-98921842D01*
X163603114Y-98952012D01*
X163528226Y-99038437D01*
X163528223Y-99038441D01*
X163467958Y-99170403D01*
X163447312Y-99314000D01*
X163467958Y-99457596D01*
X163528223Y-99589558D01*
X163548091Y-99612487D01*
X163577584Y-99677068D01*
X163567481Y-99747342D01*
X163548091Y-99777513D01*
X163528223Y-99800441D01*
X163518378Y-99822000D01*
X163467958Y-99932404D01*
X163447312Y-100076000D01*
X163467958Y-100219596D01*
X163528223Y-100351558D01*
X163623225Y-100461196D01*
X163745268Y-100539629D01*
X163884464Y-100580500D01*
X164029536Y-100580500D01*
X164168732Y-100539629D01*
X164290775Y-100461196D01*
X164385777Y-100351558D01*
X164446042Y-100219596D01*
X164466688Y-100076000D01*
X164446042Y-99932404D01*
X164385777Y-99800442D01*
X164365907Y-99777511D01*
X164336415Y-99712934D01*
X164346517Y-99642660D01*
X164365904Y-99612491D01*
X164385777Y-99589558D01*
X164446042Y-99457596D01*
X164466688Y-99314000D01*
X164446042Y-99170404D01*
X164385777Y-99038442D01*
X164310884Y-98952011D01*
X164281392Y-98887432D01*
X164291495Y-98817158D01*
X164310882Y-98786990D01*
X164385777Y-98700558D01*
X164446042Y-98568596D01*
X164466688Y-98425000D01*
X164446042Y-98281404D01*
X164385777Y-98149442D01*
X164365907Y-98126511D01*
X164336415Y-98061934D01*
X164346517Y-97991660D01*
X164365904Y-97961491D01*
X164385777Y-97938558D01*
X164446042Y-97806596D01*
X164466688Y-97663000D01*
X164446042Y-97519404D01*
X164385777Y-97387442D01*
X164362369Y-97360428D01*
X164332877Y-97295848D01*
X164342980Y-97225574D01*
X164362371Y-97195402D01*
X164378700Y-97176558D01*
X164438965Y-97044596D01*
X164459611Y-96901000D01*
X164438965Y-96757404D01*
X164383765Y-96636534D01*
X164373663Y-96566261D01*
X164383766Y-96531851D01*
X164391004Y-96516002D01*
X164446203Y-96395134D01*
X164466849Y-96251538D01*
X164446203Y-96107942D01*
X164385938Y-95975980D01*
X164290936Y-95866342D01*
X164290935Y-95866341D01*
X164229914Y-95827125D01*
X164168893Y-95787909D01*
X164168892Y-95787908D01*
X164168891Y-95787908D01*
X164029697Y-95747038D01*
X163884625Y-95747038D01*
X163745430Y-95787908D01*
X163745427Y-95787910D01*
X163623386Y-95866341D01*
X163528384Y-95975979D01*
X163468119Y-96107941D01*
X163447473Y-96251538D01*
X163468119Y-96395134D01*
X163523318Y-96516002D01*
X163533422Y-96586276D01*
X163523318Y-96620686D01*
X163460881Y-96757403D01*
X163440235Y-96901000D01*
X128327622Y-96901000D01*
X128317777Y-96879442D01*
X128222775Y-96769804D01*
X128222774Y-96769803D01*
X128161753Y-96730587D01*
X128100732Y-96691371D01*
X128100731Y-96691370D01*
X128100730Y-96691370D01*
X127961536Y-96650500D01*
X127816464Y-96650500D01*
X127677269Y-96691370D01*
X127677266Y-96691372D01*
X127555225Y-96769803D01*
X127460223Y-96879441D01*
X127430114Y-96945372D01*
X127399958Y-97011404D01*
X127379312Y-97155000D01*
X125095000Y-97155000D01*
X125095000Y-94742000D01*
X127252312Y-94742000D01*
X127272958Y-94885596D01*
X127333223Y-95017558D01*
X127428225Y-95127196D01*
X127550268Y-95205629D01*
X127689464Y-95246500D01*
X127834536Y-95246500D01*
X127973732Y-95205629D01*
X128095775Y-95127196D01*
X128190777Y-95017558D01*
X128251042Y-94885596D01*
X128253428Y-94869000D01*
X129792312Y-94869000D01*
X129812958Y-95012596D01*
X129873223Y-95144558D01*
X129968225Y-95254196D01*
X130090268Y-95332629D01*
X130229464Y-95373500D01*
X130374536Y-95373500D01*
X130513732Y-95332629D01*
X130635775Y-95254196D01*
X130730777Y-95144558D01*
X130740622Y-95123000D01*
X169670312Y-95123000D01*
X169690958Y-95266596D01*
X169751223Y-95398558D01*
X169846225Y-95508196D01*
X169968268Y-95586629D01*
X170107464Y-95627500D01*
X170252536Y-95627500D01*
X170391732Y-95586629D01*
X170513775Y-95508196D01*
X170608777Y-95398558D01*
X170669042Y-95266596D01*
X170689688Y-95123000D01*
X170669042Y-94979404D01*
X170608777Y-94847442D01*
X170513775Y-94737804D01*
X170513774Y-94737803D01*
X170451259Y-94697627D01*
X170391732Y-94659371D01*
X170391731Y-94659370D01*
X170391730Y-94659370D01*
X170252536Y-94618500D01*
X170107464Y-94618500D01*
X169968269Y-94659370D01*
X169968266Y-94659372D01*
X169846225Y-94737803D01*
X169751223Y-94847441D01*
X169733799Y-94885596D01*
X169690958Y-94979404D01*
X169670312Y-95123000D01*
X130740622Y-95123000D01*
X130791042Y-95012596D01*
X130811688Y-94869000D01*
X130791042Y-94725404D01*
X130730777Y-94593442D01*
X130635775Y-94483804D01*
X130635774Y-94483803D01*
X130574753Y-94444587D01*
X130513732Y-94405371D01*
X130513731Y-94405370D01*
X130513730Y-94405370D01*
X130374536Y-94364500D01*
X130229464Y-94364500D01*
X130090269Y-94405370D01*
X130090266Y-94405372D01*
X129968225Y-94483803D01*
X129873223Y-94593441D01*
X129812958Y-94725403D01*
X129807484Y-94763479D01*
X129792312Y-94869000D01*
X128253428Y-94869000D01*
X128271688Y-94742000D01*
X128251042Y-94598404D01*
X128190777Y-94466442D01*
X128095775Y-94356804D01*
X128095774Y-94356803D01*
X128034753Y-94317587D01*
X127973732Y-94278371D01*
X127973731Y-94278370D01*
X127973730Y-94278370D01*
X127834536Y-94237500D01*
X127689464Y-94237500D01*
X127550269Y-94278370D01*
X127550266Y-94278372D01*
X127428225Y-94356803D01*
X127333223Y-94466441D01*
X127272958Y-94598403D01*
X127267472Y-94636558D01*
X127252312Y-94742000D01*
X125095000Y-94742000D01*
X125095000Y-94107000D01*
X128776312Y-94107000D01*
X128796958Y-94250596D01*
X128857223Y-94382558D01*
X128952225Y-94492196D01*
X129074268Y-94570629D01*
X129213464Y-94611500D01*
X129358536Y-94611500D01*
X129497732Y-94570629D01*
X129619775Y-94492196D01*
X129714777Y-94382558D01*
X129775042Y-94250596D01*
X129795688Y-94107000D01*
X129775042Y-93963404D01*
X129714777Y-93831442D01*
X129619775Y-93721804D01*
X129619774Y-93721803D01*
X129547845Y-93675577D01*
X129497732Y-93643371D01*
X129497731Y-93643370D01*
X129497730Y-93643370D01*
X129358536Y-93602500D01*
X129213464Y-93602500D01*
X129074269Y-93643370D01*
X129074266Y-93643372D01*
X128952225Y-93721803D01*
X128857223Y-93831441D01*
X128796958Y-93963403D01*
X128796689Y-93965272D01*
X128776312Y-94107000D01*
X125095000Y-94107000D01*
X125095000Y-91440000D01*
X125982312Y-91440000D01*
X126002958Y-91583596D01*
X126063223Y-91715558D01*
X126158225Y-91825196D01*
X126280268Y-91903629D01*
X126400687Y-91938986D01*
X126460413Y-91977369D01*
X126489906Y-92041949D01*
X126489908Y-92065988D01*
X126490312Y-92065988D01*
X126490312Y-92074996D01*
X126490312Y-92074998D01*
X126490312Y-92075000D01*
X126510958Y-92218596D01*
X126571223Y-92350558D01*
X126666225Y-92460196D01*
X126788268Y-92538629D01*
X126908687Y-92573986D01*
X126968413Y-92612369D01*
X126997906Y-92676949D01*
X126997908Y-92700988D01*
X126998312Y-92700988D01*
X126998312Y-92709996D01*
X126998312Y-92709998D01*
X126998312Y-92710000D01*
X127013472Y-92815441D01*
X127018958Y-92853596D01*
X127079223Y-92985558D01*
X127079226Y-92985562D01*
X127172430Y-93093126D01*
X127201924Y-93157706D01*
X127191820Y-93227980D01*
X127145958Y-93328403D01*
X127141186Y-93361596D01*
X127125312Y-93472000D01*
X127145958Y-93615596D01*
X127206223Y-93747558D01*
X127301225Y-93857196D01*
X127423268Y-93935629D01*
X127562464Y-93976500D01*
X127707536Y-93976500D01*
X127846732Y-93935629D01*
X127968775Y-93857196D01*
X128063777Y-93747558D01*
X128124042Y-93615596D01*
X128144688Y-93472000D01*
X128124042Y-93328404D01*
X128063777Y-93196442D01*
X127972411Y-93091000D01*
X138047312Y-93091000D01*
X138067958Y-93234596D01*
X138128223Y-93366558D01*
X138223225Y-93476196D01*
X138345268Y-93554629D01*
X138484464Y-93595500D01*
X138629536Y-93595500D01*
X138768732Y-93554629D01*
X138890775Y-93476196D01*
X138969088Y-93385817D01*
X139028814Y-93347435D01*
X139099810Y-93347435D01*
X139159537Y-93385819D01*
X139189030Y-93450399D01*
X139190312Y-93468331D01*
X139190312Y-93471996D01*
X139190312Y-93471998D01*
X139190312Y-93472000D01*
X139210958Y-93615596D01*
X139271223Y-93747558D01*
X139366225Y-93857196D01*
X139488268Y-93935629D01*
X139627464Y-93976500D01*
X139772534Y-93976500D01*
X139772536Y-93976500D01*
X139810775Y-93965271D01*
X139881768Y-93965271D01*
X139941494Y-94003654D01*
X139970988Y-94068235D01*
X139970988Y-94104098D01*
X139952312Y-94234000D01*
X139972958Y-94377596D01*
X140033223Y-94509558D01*
X140128225Y-94619196D01*
X140250268Y-94697629D01*
X140389464Y-94738500D01*
X140534536Y-94738500D01*
X140673732Y-94697629D01*
X140795775Y-94619196D01*
X140890777Y-94509558D01*
X140951042Y-94377596D01*
X140953428Y-94361000D01*
X141477312Y-94361000D01*
X141497958Y-94504596D01*
X141558223Y-94636558D01*
X141653225Y-94746196D01*
X141775268Y-94824629D01*
X141914464Y-94865500D01*
X142059536Y-94865500D01*
X142198732Y-94824629D01*
X142293880Y-94763480D01*
X142361999Y-94743478D01*
X142430116Y-94763478D01*
X142486007Y-94799397D01*
X142525264Y-94824627D01*
X142525266Y-94824627D01*
X142525268Y-94824629D01*
X142664464Y-94865500D01*
X142809536Y-94865500D01*
X142948732Y-94824629D01*
X143070775Y-94746196D01*
X143165777Y-94636558D01*
X143226042Y-94504596D01*
X143246688Y-94361000D01*
X143226042Y-94217404D01*
X143165777Y-94085442D01*
X143070775Y-93975804D01*
X143070774Y-93975803D01*
X143008259Y-93935627D01*
X142948732Y-93897371D01*
X142948731Y-93897370D01*
X142948730Y-93897370D01*
X142809536Y-93856500D01*
X142664464Y-93856500D01*
X142525269Y-93897370D01*
X142525266Y-93897372D01*
X142430121Y-93958518D01*
X142362000Y-93978520D01*
X142293879Y-93958518D01*
X142227360Y-93915769D01*
X142198732Y-93897371D01*
X142198731Y-93897370D01*
X142198730Y-93897370D01*
X142059536Y-93856500D01*
X141914464Y-93856500D01*
X141775269Y-93897370D01*
X141775266Y-93897372D01*
X141653225Y-93975803D01*
X141558223Y-94085441D01*
X141548378Y-94107000D01*
X141497958Y-94217404D01*
X141477312Y-94361000D01*
X140953428Y-94361000D01*
X140971688Y-94234000D01*
X140951042Y-94090404D01*
X140890777Y-93958442D01*
X140795775Y-93848804D01*
X140795774Y-93848803D01*
X140734753Y-93809587D01*
X140673732Y-93770371D01*
X140673731Y-93770370D01*
X140673730Y-93770370D01*
X140534536Y-93729500D01*
X140389464Y-93729500D01*
X140351224Y-93740727D01*
X140280228Y-93740727D01*
X140220502Y-93702342D01*
X140191010Y-93637761D01*
X140191011Y-93601899D01*
X140191695Y-93597146D01*
X140199140Y-93545359D01*
X140209688Y-93472003D01*
X140209160Y-93468331D01*
X140189042Y-93328404D01*
X140138622Y-93218000D01*
X152779312Y-93218000D01*
X152799958Y-93361596D01*
X152860223Y-93493558D01*
X152955225Y-93603196D01*
X153077268Y-93681629D01*
X153216464Y-93722500D01*
X153361536Y-93722500D01*
X153500732Y-93681629D01*
X153622775Y-93603196D01*
X153717777Y-93493558D01*
X153778042Y-93361596D01*
X153798688Y-93218000D01*
X153780428Y-93091000D01*
X173805812Y-93091000D01*
X173826458Y-93234596D01*
X173886723Y-93366558D01*
X173981725Y-93476196D01*
X174103768Y-93554629D01*
X174242964Y-93595500D01*
X174388036Y-93595500D01*
X174527232Y-93554629D01*
X174649275Y-93476196D01*
X174744277Y-93366558D01*
X174804542Y-93234596D01*
X174807798Y-93211950D01*
X178280912Y-93211950D01*
X178301558Y-93355546D01*
X178361823Y-93487508D01*
X178456825Y-93597146D01*
X178578868Y-93675579D01*
X178718064Y-93716450D01*
X178863136Y-93716450D01*
X179002332Y-93675579D01*
X179124375Y-93597146D01*
X179219377Y-93487508D01*
X179279642Y-93355546D01*
X179300288Y-93211950D01*
X179279642Y-93068354D01*
X179219377Y-92936392D01*
X179124375Y-92826754D01*
X179124374Y-92826753D01*
X179011923Y-92754485D01*
X179002332Y-92748321D01*
X179002331Y-92748320D01*
X179002330Y-92748320D01*
X178863136Y-92707450D01*
X178718064Y-92707450D01*
X178578869Y-92748320D01*
X178578866Y-92748322D01*
X178456825Y-92826753D01*
X178361823Y-92936391D01*
X178301558Y-93068353D01*
X178294650Y-93116400D01*
X178280912Y-93211950D01*
X174807798Y-93211950D01*
X174825188Y-93091000D01*
X174804542Y-92947404D01*
X174744277Y-92815442D01*
X174649275Y-92705804D01*
X174649274Y-92705803D01*
X174588253Y-92666587D01*
X174527232Y-92627371D01*
X174527231Y-92627370D01*
X174527230Y-92627370D01*
X174388036Y-92586500D01*
X174242964Y-92586500D01*
X174103769Y-92627370D01*
X174103766Y-92627372D01*
X173981725Y-92705803D01*
X173886723Y-92815441D01*
X173828724Y-92942443D01*
X173826458Y-92947404D01*
X173805812Y-93091000D01*
X153780428Y-93091000D01*
X153778042Y-93074404D01*
X153717777Y-92942442D01*
X153697907Y-92919511D01*
X153668415Y-92854934D01*
X153678517Y-92784660D01*
X153697904Y-92754491D01*
X153717777Y-92731558D01*
X153778042Y-92599596D01*
X153798688Y-92456000D01*
X153778042Y-92312404D01*
X153717777Y-92180442D01*
X153697907Y-92157511D01*
X153668415Y-92092934D01*
X153678517Y-92022660D01*
X153697904Y-91992491D01*
X153717777Y-91969558D01*
X153727622Y-91948000D01*
X166876312Y-91948000D01*
X166896958Y-92091596D01*
X166957223Y-92223558D01*
X167052225Y-92333196D01*
X167174268Y-92411629D01*
X167313464Y-92452500D01*
X167458536Y-92452500D01*
X167597732Y-92411629D01*
X167719775Y-92333196D01*
X167723411Y-92329000D01*
X170940312Y-92329000D01*
X170960958Y-92472596D01*
X171021223Y-92604558D01*
X171116225Y-92714196D01*
X171238268Y-92792629D01*
X171377464Y-92833500D01*
X171522536Y-92833500D01*
X171661732Y-92792629D01*
X171783775Y-92714196D01*
X171878777Y-92604558D01*
X171939042Y-92472596D01*
X171959688Y-92329000D01*
X171939042Y-92185404D01*
X171878777Y-92053442D01*
X171783775Y-91943804D01*
X171783774Y-91943803D01*
X171721259Y-91903627D01*
X171661732Y-91865371D01*
X171661731Y-91865370D01*
X171661730Y-91865370D01*
X171522536Y-91824500D01*
X171377464Y-91824500D01*
X171238269Y-91865370D01*
X171238266Y-91865372D01*
X171116225Y-91943803D01*
X171021223Y-92053441D01*
X170963224Y-92180443D01*
X170960958Y-92185404D01*
X170940312Y-92329000D01*
X167723411Y-92329000D01*
X167814777Y-92223558D01*
X167875042Y-92091596D01*
X167895688Y-91948000D01*
X167875042Y-91804404D01*
X167814777Y-91672442D01*
X167719775Y-91562804D01*
X167719774Y-91562803D01*
X167658753Y-91523587D01*
X167597732Y-91484371D01*
X167597731Y-91484370D01*
X167597730Y-91484370D01*
X167458536Y-91443500D01*
X167313464Y-91443500D01*
X167174269Y-91484370D01*
X167174266Y-91484372D01*
X167052225Y-91562803D01*
X166957223Y-91672441D01*
X166896958Y-91804403D01*
X166892186Y-91837596D01*
X166876312Y-91948000D01*
X153727622Y-91948000D01*
X153778042Y-91837596D01*
X153798688Y-91694000D01*
X153778042Y-91550404D01*
X153717777Y-91418442D01*
X153697907Y-91395511D01*
X153668415Y-91330934D01*
X153678517Y-91260660D01*
X153697904Y-91230491D01*
X153717777Y-91207558D01*
X153778042Y-91075596D01*
X153798688Y-90932000D01*
X153778042Y-90788404D01*
X153717777Y-90656442D01*
X153622775Y-90546804D01*
X153622774Y-90546803D01*
X153561753Y-90507587D01*
X153500732Y-90468371D01*
X153500731Y-90468370D01*
X153500730Y-90468370D01*
X153361536Y-90427500D01*
X153216464Y-90427500D01*
X153077269Y-90468370D01*
X153077266Y-90468372D01*
X152955225Y-90546803D01*
X152860223Y-90656441D01*
X152799958Y-90788403D01*
X152779312Y-90932000D01*
X152799958Y-91075596D01*
X152860223Y-91207558D01*
X152880091Y-91230487D01*
X152909584Y-91295068D01*
X152899481Y-91365342D01*
X152880091Y-91395513D01*
X152860223Y-91418441D01*
X152799958Y-91550403D01*
X152779312Y-91694000D01*
X152799958Y-91837596D01*
X152860223Y-91969558D01*
X152880091Y-91992487D01*
X152909584Y-92057068D01*
X152899481Y-92127342D01*
X152880091Y-92157513D01*
X152860223Y-92180441D01*
X152799958Y-92312403D01*
X152779312Y-92456000D01*
X152799958Y-92599596D01*
X152860223Y-92731558D01*
X152880091Y-92754487D01*
X152909584Y-92819068D01*
X152899481Y-92889342D01*
X152880091Y-92919513D01*
X152860223Y-92942441D01*
X152799958Y-93074403D01*
X152794466Y-93112599D01*
X152779312Y-93218000D01*
X140138622Y-93218000D01*
X140128777Y-93196442D01*
X140033775Y-93086804D01*
X140033774Y-93086803D01*
X139941144Y-93027273D01*
X139911732Y-93008371D01*
X139911731Y-93008370D01*
X139911730Y-93008370D01*
X139772536Y-92967500D01*
X139627464Y-92967500D01*
X139488269Y-93008370D01*
X139488266Y-93008372D01*
X139366225Y-93086803D01*
X139287912Y-93177181D01*
X139228186Y-93215564D01*
X139157189Y-93215564D01*
X139097463Y-93177180D01*
X139067970Y-93112599D01*
X139066688Y-93094668D01*
X139066688Y-93091003D01*
X139066382Y-93088875D01*
X139046042Y-92947404D01*
X138985777Y-92815442D01*
X138890775Y-92705804D01*
X138890774Y-92705803D01*
X138829753Y-92666587D01*
X138768732Y-92627371D01*
X138768731Y-92627370D01*
X138768730Y-92627370D01*
X138629536Y-92586500D01*
X138484464Y-92586500D01*
X138345269Y-92627370D01*
X138345266Y-92627372D01*
X138223225Y-92705803D01*
X138128223Y-92815441D01*
X138070224Y-92942443D01*
X138067958Y-92947404D01*
X138047312Y-93091000D01*
X127972411Y-93091000D01*
X127970568Y-93088873D01*
X127941076Y-93024294D01*
X127951178Y-92954022D01*
X127997042Y-92853596D01*
X128017688Y-92710000D01*
X127997042Y-92566404D01*
X127936777Y-92434442D01*
X127841775Y-92324804D01*
X127841774Y-92324803D01*
X127780753Y-92285587D01*
X127719732Y-92246371D01*
X127719731Y-92246370D01*
X127719730Y-92246370D01*
X127599312Y-92211013D01*
X127539586Y-92172630D01*
X127510093Y-92108049D01*
X127510093Y-92084012D01*
X127509688Y-92084012D01*
X127509688Y-92075003D01*
X127509687Y-92074996D01*
X127489042Y-91931404D01*
X127428777Y-91799442D01*
X127333775Y-91689804D01*
X127333774Y-91689803D01*
X127272753Y-91650587D01*
X127211732Y-91611371D01*
X127211731Y-91611370D01*
X127211730Y-91611370D01*
X127091312Y-91576013D01*
X127077287Y-91567000D01*
X142365312Y-91567000D01*
X142385958Y-91710596D01*
X142446223Y-91842558D01*
X142541225Y-91952196D01*
X142663268Y-92030629D01*
X142802464Y-92071500D01*
X142947536Y-92071500D01*
X143086732Y-92030629D01*
X143208775Y-91952196D01*
X143303777Y-91842558D01*
X143364042Y-91710596D01*
X143384688Y-91567000D01*
X143364042Y-91423404D01*
X143313622Y-91313000D01*
X147445312Y-91313000D01*
X147465958Y-91456596D01*
X147526223Y-91588558D01*
X147621225Y-91698196D01*
X147743268Y-91776629D01*
X147882464Y-91817500D01*
X148027536Y-91817500D01*
X148166732Y-91776629D01*
X148288775Y-91698196D01*
X148383777Y-91588558D01*
X148444042Y-91456596D01*
X148464688Y-91313000D01*
X148444042Y-91169404D01*
X148383777Y-91037442D01*
X148288775Y-90927804D01*
X148288774Y-90927803D01*
X148226259Y-90887627D01*
X148166732Y-90849371D01*
X148166731Y-90849370D01*
X148166730Y-90849370D01*
X148027536Y-90808500D01*
X147882464Y-90808500D01*
X147743269Y-90849370D01*
X147743266Y-90849372D01*
X147621225Y-90927803D01*
X147526223Y-91037441D01*
X147465958Y-91169403D01*
X147460472Y-91207558D01*
X147445312Y-91313000D01*
X143313622Y-91313000D01*
X143303777Y-91291442D01*
X143208775Y-91181804D01*
X143208774Y-91181803D01*
X143146259Y-91141627D01*
X143086732Y-91103371D01*
X143086730Y-91103370D01*
X143083817Y-91101498D01*
X143037324Y-91047842D01*
X143027221Y-90977568D01*
X143056714Y-90912987D01*
X143083817Y-90889502D01*
X143086730Y-90887629D01*
X143086732Y-90887629D01*
X143208775Y-90809196D01*
X143303777Y-90699558D01*
X143364042Y-90567596D01*
X143384688Y-90424000D01*
X143366428Y-90297000D01*
X162304312Y-90297000D01*
X162324958Y-90440596D01*
X162385223Y-90572558D01*
X162480225Y-90682196D01*
X162602268Y-90760629D01*
X162741464Y-90801500D01*
X162886536Y-90801500D01*
X163025732Y-90760629D01*
X163147775Y-90682196D01*
X163242777Y-90572558D01*
X163303042Y-90440596D01*
X163305428Y-90424000D01*
X163828312Y-90424000D01*
X163848958Y-90567596D01*
X163909223Y-90699558D01*
X164004225Y-90809196D01*
X164126268Y-90887629D01*
X164265464Y-90928500D01*
X164410536Y-90928500D01*
X164549732Y-90887629D01*
X164671775Y-90809196D01*
X164766777Y-90699558D01*
X164827042Y-90567596D01*
X164847688Y-90424000D01*
X164827042Y-90280404D01*
X164766777Y-90148442D01*
X164671775Y-90038804D01*
X164671774Y-90038803D01*
X164568967Y-89972733D01*
X164549732Y-89960371D01*
X164549731Y-89960370D01*
X164549730Y-89960370D01*
X164410536Y-89919500D01*
X164265464Y-89919500D01*
X164126269Y-89960370D01*
X164126266Y-89960372D01*
X164004225Y-90038803D01*
X163909223Y-90148441D01*
X163879114Y-90214372D01*
X163848958Y-90280404D01*
X163828312Y-90424000D01*
X163305428Y-90424000D01*
X163323688Y-90297000D01*
X163303042Y-90153404D01*
X163242777Y-90021442D01*
X163147775Y-89911804D01*
X163147774Y-89911803D01*
X163081062Y-89868930D01*
X163025732Y-89833371D01*
X163025731Y-89833370D01*
X163025730Y-89833370D01*
X162886536Y-89792500D01*
X162741464Y-89792500D01*
X162602269Y-89833370D01*
X162602266Y-89833372D01*
X162480225Y-89911803D01*
X162385223Y-90021441D01*
X162327225Y-90148441D01*
X162324958Y-90153404D01*
X162304312Y-90297000D01*
X143366428Y-90297000D01*
X143364042Y-90280404D01*
X143303777Y-90148442D01*
X143208775Y-90038804D01*
X143208774Y-90038803D01*
X143105967Y-89972733D01*
X143086732Y-89960371D01*
X143086731Y-89960370D01*
X143086730Y-89960370D01*
X142947536Y-89919500D01*
X142802464Y-89919500D01*
X142663269Y-89960370D01*
X142663266Y-89960372D01*
X142541225Y-90038803D01*
X142446223Y-90148441D01*
X142385958Y-90280403D01*
X142365312Y-90424000D01*
X142385958Y-90567596D01*
X142446223Y-90699558D01*
X142541225Y-90809196D01*
X142666182Y-90889502D01*
X142712675Y-90943158D01*
X142722778Y-91013432D01*
X142693285Y-91078013D01*
X142666182Y-91101498D01*
X142541225Y-91181803D01*
X142446223Y-91291441D01*
X142388224Y-91418443D01*
X142385958Y-91423404D01*
X142365312Y-91567000D01*
X127077287Y-91567000D01*
X127031586Y-91537630D01*
X127002093Y-91473049D01*
X127002093Y-91449012D01*
X127001688Y-91449012D01*
X127001688Y-91440003D01*
X127001688Y-91440000D01*
X126981042Y-91296404D01*
X126920777Y-91164442D01*
X126825775Y-91054804D01*
X126825774Y-91054803D01*
X126764753Y-91015587D01*
X126703732Y-90976371D01*
X126703731Y-90976370D01*
X126703730Y-90976370D01*
X126564536Y-90935500D01*
X126419464Y-90935500D01*
X126280269Y-90976370D01*
X126280266Y-90976372D01*
X126158225Y-91054803D01*
X126063223Y-91164441D01*
X126005225Y-91291441D01*
X126002958Y-91296404D01*
X125982312Y-91440000D01*
X125095000Y-91440000D01*
X125095000Y-90678000D01*
X129665312Y-90678000D01*
X129685958Y-90821596D01*
X129746223Y-90953558D01*
X129841225Y-91063196D01*
X129963268Y-91141629D01*
X130102464Y-91182500D01*
X130247536Y-91182500D01*
X130386732Y-91141629D01*
X130508775Y-91063196D01*
X130603777Y-90953558D01*
X130664042Y-90821596D01*
X130684688Y-90678000D01*
X130664042Y-90534404D01*
X130603777Y-90402442D01*
X130508775Y-90292804D01*
X130508774Y-90292803D01*
X130427459Y-90240545D01*
X130386732Y-90214371D01*
X130386731Y-90214370D01*
X130386730Y-90214370D01*
X130247536Y-90173500D01*
X130102464Y-90173500D01*
X129963269Y-90214370D01*
X129963266Y-90214372D01*
X129841225Y-90292803D01*
X129746223Y-90402441D01*
X129716114Y-90468372D01*
X129685958Y-90534404D01*
X129665312Y-90678000D01*
X125095000Y-90678000D01*
X125095000Y-89154000D01*
X142365312Y-89154000D01*
X142385958Y-89297596D01*
X142446223Y-89429558D01*
X142541225Y-89539196D01*
X142663268Y-89617629D01*
X142802464Y-89658500D01*
X142947536Y-89658500D01*
X143086732Y-89617629D01*
X143208775Y-89539196D01*
X143212411Y-89535000D01*
X149604312Y-89535000D01*
X149624958Y-89678596D01*
X149685223Y-89810558D01*
X149780225Y-89920196D01*
X149902268Y-89998629D01*
X150041464Y-90039500D01*
X150186536Y-90039500D01*
X150325732Y-89998629D01*
X150447775Y-89920196D01*
X150542777Y-89810558D01*
X150603042Y-89678596D01*
X150623688Y-89535000D01*
X150603042Y-89391404D01*
X150542777Y-89259442D01*
X150447775Y-89149804D01*
X150447774Y-89149803D01*
X150334380Y-89076929D01*
X150325732Y-89071371D01*
X150325731Y-89071370D01*
X150325730Y-89071370D01*
X150186536Y-89030500D01*
X150041464Y-89030500D01*
X149902269Y-89071370D01*
X149902266Y-89071372D01*
X149780225Y-89149803D01*
X149685223Y-89259441D01*
X149624958Y-89391403D01*
X149609634Y-89497983D01*
X149604312Y-89535000D01*
X143212411Y-89535000D01*
X143303777Y-89429558D01*
X143364042Y-89297596D01*
X143384688Y-89154000D01*
X143366428Y-89027000D01*
X145159312Y-89027000D01*
X145179958Y-89170596D01*
X145240223Y-89302558D01*
X145335225Y-89412196D01*
X145457268Y-89490629D01*
X145596464Y-89531500D01*
X145741536Y-89531500D01*
X145880732Y-89490629D01*
X146002775Y-89412196D01*
X146097777Y-89302558D01*
X146158042Y-89170596D01*
X146178688Y-89027000D01*
X146158042Y-88883404D01*
X146097777Y-88751442D01*
X146002775Y-88641804D01*
X146002774Y-88641803D01*
X146002773Y-88641802D01*
X145962066Y-88615641D01*
X145915574Y-88561985D01*
X145905471Y-88491711D01*
X145905704Y-88491200D01*
X151354512Y-88491200D01*
X151375158Y-88634796D01*
X151435423Y-88766758D01*
X151530425Y-88876396D01*
X151652468Y-88954829D01*
X151791664Y-88995700D01*
X151936736Y-88995700D01*
X152075932Y-88954829D01*
X152197975Y-88876396D01*
X152287568Y-88773000D01*
X155700312Y-88773000D01*
X155720958Y-88916596D01*
X155781223Y-89048558D01*
X155876225Y-89158196D01*
X155998268Y-89236629D01*
X156137464Y-89277500D01*
X156282536Y-89277500D01*
X156421732Y-89236629D01*
X156543775Y-89158196D01*
X156638777Y-89048558D01*
X156699042Y-88916596D01*
X156719688Y-88773000D01*
X156699042Y-88629404D01*
X156648622Y-88519000D01*
X158494312Y-88519000D01*
X158514958Y-88662596D01*
X158575223Y-88794558D01*
X158670225Y-88904196D01*
X158792268Y-88982629D01*
X158931464Y-89023500D01*
X159076536Y-89023500D01*
X159215732Y-88982629D01*
X159337775Y-88904196D01*
X159432777Y-88794558D01*
X159493042Y-88662596D01*
X159513688Y-88519000D01*
X159493042Y-88375404D01*
X159432777Y-88243442D01*
X159337775Y-88133804D01*
X159337774Y-88133803D01*
X159249387Y-88077000D01*
X159215732Y-88055371D01*
X159215731Y-88055370D01*
X159215730Y-88055370D01*
X159076536Y-88014500D01*
X158931464Y-88014500D01*
X158792269Y-88055370D01*
X158792266Y-88055372D01*
X158670225Y-88133803D01*
X158575223Y-88243441D01*
X158514958Y-88375403D01*
X158507521Y-88427131D01*
X158494312Y-88519000D01*
X156648622Y-88519000D01*
X156638777Y-88497442D01*
X156543775Y-88387804D01*
X156543774Y-88387803D01*
X156469726Y-88340215D01*
X156421732Y-88309371D01*
X156421731Y-88309370D01*
X156421730Y-88309370D01*
X156282536Y-88268500D01*
X156137464Y-88268500D01*
X155998269Y-88309370D01*
X155998266Y-88309372D01*
X155876225Y-88387803D01*
X155781223Y-88497441D01*
X155735267Y-88598072D01*
X155720958Y-88629404D01*
X155700312Y-88773000D01*
X152287568Y-88773000D01*
X152292977Y-88766758D01*
X152353242Y-88634796D01*
X152373888Y-88491200D01*
X152353242Y-88347604D01*
X152292977Y-88215642D01*
X152197975Y-88106004D01*
X152197974Y-88106003D01*
X152119188Y-88055370D01*
X152075932Y-88027571D01*
X152075931Y-88027570D01*
X152075930Y-88027570D01*
X151936736Y-87986700D01*
X151791664Y-87986700D01*
X151652469Y-88027570D01*
X151652466Y-88027572D01*
X151530425Y-88106003D01*
X151435423Y-88215641D01*
X151375158Y-88347603D01*
X151363724Y-88427131D01*
X151354512Y-88491200D01*
X145905704Y-88491200D01*
X145934964Y-88427131D01*
X145994690Y-88388748D01*
X145995535Y-88388500D01*
X145995536Y-88388500D01*
X146134732Y-88347629D01*
X146256775Y-88269196D01*
X146351777Y-88159558D01*
X146412042Y-88027596D01*
X146432688Y-87884000D01*
X146414428Y-87757000D01*
X149604312Y-87757000D01*
X149624958Y-87900596D01*
X149685223Y-88032558D01*
X149780225Y-88142196D01*
X149902268Y-88220629D01*
X150041464Y-88261500D01*
X150186536Y-88261500D01*
X150325732Y-88220629D01*
X150447775Y-88142196D01*
X150542777Y-88032558D01*
X150603042Y-87900596D01*
X150623688Y-87757000D01*
X150603042Y-87613404D01*
X150542777Y-87481442D01*
X150447775Y-87371804D01*
X150447774Y-87371803D01*
X150447773Y-87371802D01*
X150414622Y-87350497D01*
X150368130Y-87296841D01*
X150358027Y-87226567D01*
X150387520Y-87161987D01*
X150447247Y-87123604D01*
X150458402Y-87122000D01*
X158621312Y-87122000D01*
X158641958Y-87265596D01*
X158702223Y-87397558D01*
X158797225Y-87507196D01*
X158919268Y-87585629D01*
X159058464Y-87626500D01*
X159203536Y-87626500D01*
X159342732Y-87585629D01*
X159464775Y-87507196D01*
X159559777Y-87397558D01*
X159620042Y-87265596D01*
X159640688Y-87122000D01*
X159620042Y-86978404D01*
X159559777Y-86846442D01*
X159464775Y-86736804D01*
X159464774Y-86736803D01*
X159375181Y-86679225D01*
X159342732Y-86658371D01*
X159342731Y-86658370D01*
X159342730Y-86658370D01*
X159203536Y-86617500D01*
X159058464Y-86617500D01*
X158919269Y-86658370D01*
X158919266Y-86658372D01*
X158797225Y-86736803D01*
X158702223Y-86846441D01*
X158641958Y-86978403D01*
X158627772Y-87077071D01*
X158621312Y-87122000D01*
X150458402Y-87122000D01*
X150482744Y-87118500D01*
X150567536Y-87118500D01*
X150706732Y-87077629D01*
X150828775Y-86999196D01*
X150923777Y-86889558D01*
X150984042Y-86757596D01*
X151004688Y-86614000D01*
X162812312Y-86614000D01*
X162832958Y-86757596D01*
X162893223Y-86889558D01*
X162988225Y-86999196D01*
X163110268Y-87077629D01*
X163249464Y-87118500D01*
X163394536Y-87118500D01*
X163533732Y-87077629D01*
X163655775Y-86999196D01*
X163750777Y-86889558D01*
X163811042Y-86757596D01*
X163831688Y-86614000D01*
X163811042Y-86470404D01*
X163750777Y-86338442D01*
X163659411Y-86233000D01*
X178560312Y-86233000D01*
X178580958Y-86376596D01*
X178641223Y-86508558D01*
X178736225Y-86618196D01*
X178858268Y-86696629D01*
X178997464Y-86737500D01*
X179142536Y-86737500D01*
X179281732Y-86696629D01*
X179403775Y-86618196D01*
X179498777Y-86508558D01*
X179559042Y-86376596D01*
X179579688Y-86233000D01*
X179559042Y-86089404D01*
X179498777Y-85957442D01*
X179403775Y-85847804D01*
X179403774Y-85847803D01*
X179342753Y-85808587D01*
X179281732Y-85769371D01*
X179281731Y-85769370D01*
X179281730Y-85769370D01*
X179142536Y-85728500D01*
X178997464Y-85728500D01*
X178858269Y-85769370D01*
X178858266Y-85769372D01*
X178736225Y-85847803D01*
X178641223Y-85957441D01*
X178583225Y-86084441D01*
X178580958Y-86089404D01*
X178560312Y-86233000D01*
X163659411Y-86233000D01*
X163655775Y-86228804D01*
X163655774Y-86228803D01*
X163575861Y-86177446D01*
X163533732Y-86150371D01*
X163533731Y-86150370D01*
X163533730Y-86150370D01*
X163394536Y-86109500D01*
X163249464Y-86109500D01*
X163110269Y-86150370D01*
X163110266Y-86150372D01*
X162988225Y-86228803D01*
X162893223Y-86338441D01*
X162832958Y-86470403D01*
X162828186Y-86503596D01*
X162812312Y-86614000D01*
X151004688Y-86614000D01*
X150984042Y-86470404D01*
X150924974Y-86341064D01*
X150914872Y-86270792D01*
X150924972Y-86236389D01*
X150983563Y-86108094D01*
X151004209Y-85964498D01*
X150983563Y-85820902D01*
X150923298Y-85688940D01*
X150828296Y-85579302D01*
X150828295Y-85579301D01*
X150767274Y-85540085D01*
X150706253Y-85500869D01*
X150706252Y-85500868D01*
X150706251Y-85500868D01*
X150567057Y-85459998D01*
X150421985Y-85459998D01*
X150282790Y-85500868D01*
X150282787Y-85500870D01*
X150160746Y-85579301D01*
X150065744Y-85688939D01*
X150005479Y-85820901D01*
X149984833Y-85964498D01*
X150005479Y-86108094D01*
X150064545Y-86237431D01*
X150074648Y-86307705D01*
X150064545Y-86342115D01*
X150005958Y-86470403D01*
X149985312Y-86614000D01*
X150005958Y-86757596D01*
X150066223Y-86889558D01*
X150161226Y-86999197D01*
X150194378Y-87020503D01*
X150240870Y-87074159D01*
X150250973Y-87144433D01*
X150221480Y-87209013D01*
X150161753Y-87247396D01*
X150126256Y-87252500D01*
X150041464Y-87252500D01*
X149902269Y-87293370D01*
X149902266Y-87293372D01*
X149780225Y-87371803D01*
X149685223Y-87481441D01*
X149627225Y-87608441D01*
X149624958Y-87613404D01*
X149604312Y-87757000D01*
X146414428Y-87757000D01*
X146412042Y-87740404D01*
X146351777Y-87608442D01*
X146256775Y-87498804D01*
X146256774Y-87498803D01*
X146195753Y-87459587D01*
X146134732Y-87420371D01*
X146134731Y-87420370D01*
X146134730Y-87420370D01*
X145995536Y-87379500D01*
X145850464Y-87379500D01*
X145711269Y-87420370D01*
X145711266Y-87420372D01*
X145589225Y-87498803D01*
X145494223Y-87608441D01*
X145433958Y-87740403D01*
X145413312Y-87884000D01*
X145433958Y-88027596D01*
X145494223Y-88159558D01*
X145589225Y-88269196D01*
X145629932Y-88295357D01*
X145676425Y-88349013D01*
X145686528Y-88419287D01*
X145657035Y-88483868D01*
X145597309Y-88522251D01*
X145457270Y-88563370D01*
X145457266Y-88563372D01*
X145335225Y-88641803D01*
X145240223Y-88751441D01*
X145179958Y-88883403D01*
X145175186Y-88916596D01*
X145159312Y-89027000D01*
X143366428Y-89027000D01*
X143364042Y-89010404D01*
X143303777Y-88878442D01*
X143208775Y-88768804D01*
X143208774Y-88768803D01*
X143147753Y-88729587D01*
X143086732Y-88690371D01*
X143086731Y-88690370D01*
X143086730Y-88690370D01*
X142947536Y-88649500D01*
X142802464Y-88649500D01*
X142663269Y-88690370D01*
X142663266Y-88690372D01*
X142541225Y-88768803D01*
X142446223Y-88878441D01*
X142428799Y-88916596D01*
X142385958Y-89010404D01*
X142365312Y-89154000D01*
X125095000Y-89154000D01*
X125095000Y-88519000D01*
X136904312Y-88519000D01*
X136924958Y-88662596D01*
X136985223Y-88794558D01*
X137080225Y-88904196D01*
X137202268Y-88982629D01*
X137341464Y-89023500D01*
X137486536Y-89023500D01*
X137625732Y-88982629D01*
X137747775Y-88904196D01*
X137842777Y-88794558D01*
X137903042Y-88662596D01*
X137923688Y-88519000D01*
X138809312Y-88519000D01*
X138829958Y-88662596D01*
X138890223Y-88794558D01*
X138985225Y-88904196D01*
X139107268Y-88982629D01*
X139246464Y-89023500D01*
X139391536Y-89023500D01*
X139530732Y-88982629D01*
X139652775Y-88904196D01*
X139747777Y-88794558D01*
X139808042Y-88662596D01*
X139828688Y-88519000D01*
X140587312Y-88519000D01*
X140607958Y-88662596D01*
X140668223Y-88794558D01*
X140763225Y-88904196D01*
X140885268Y-88982629D01*
X141024464Y-89023500D01*
X141169536Y-89023500D01*
X141308732Y-88982629D01*
X141430775Y-88904196D01*
X141525777Y-88794558D01*
X141586042Y-88662596D01*
X141606688Y-88519000D01*
X141586042Y-88375404D01*
X141525777Y-88243442D01*
X141430775Y-88133804D01*
X141430774Y-88133803D01*
X141342387Y-88077000D01*
X141308732Y-88055371D01*
X141308731Y-88055370D01*
X141308730Y-88055370D01*
X141169536Y-88014500D01*
X141024464Y-88014500D01*
X140885269Y-88055370D01*
X140885266Y-88055372D01*
X140763225Y-88133803D01*
X140668223Y-88243441D01*
X140607958Y-88375403D01*
X140600521Y-88427131D01*
X140587312Y-88519000D01*
X139828688Y-88519000D01*
X139808042Y-88375404D01*
X139747777Y-88243442D01*
X139652775Y-88133804D01*
X139652774Y-88133803D01*
X139564387Y-88077000D01*
X139530732Y-88055371D01*
X139530731Y-88055370D01*
X139530730Y-88055370D01*
X139391536Y-88014500D01*
X139246464Y-88014500D01*
X139107269Y-88055370D01*
X139107266Y-88055372D01*
X138985225Y-88133803D01*
X138890223Y-88243441D01*
X138829958Y-88375403D01*
X138822521Y-88427131D01*
X138809312Y-88519000D01*
X137923688Y-88519000D01*
X137903042Y-88375404D01*
X137842777Y-88243442D01*
X137747775Y-88133804D01*
X137747774Y-88133803D01*
X137659387Y-88077000D01*
X137625732Y-88055371D01*
X137625731Y-88055370D01*
X137625730Y-88055370D01*
X137486536Y-88014500D01*
X137341464Y-88014500D01*
X137202269Y-88055370D01*
X137202266Y-88055372D01*
X137080225Y-88133803D01*
X136985223Y-88243441D01*
X136924958Y-88375403D01*
X136917521Y-88427131D01*
X136904312Y-88519000D01*
X125095000Y-88519000D01*
X125095000Y-87884000D01*
X142365312Y-87884000D01*
X142385958Y-88027596D01*
X142446223Y-88159558D01*
X142541225Y-88269196D01*
X142663268Y-88347629D01*
X142802464Y-88388500D01*
X142947536Y-88388500D01*
X143086732Y-88347629D01*
X143208775Y-88269196D01*
X143303777Y-88159558D01*
X143364042Y-88027596D01*
X143384688Y-87884000D01*
X143364042Y-87740404D01*
X143303777Y-87608442D01*
X143208775Y-87498804D01*
X143208774Y-87498803D01*
X143147753Y-87459587D01*
X143086732Y-87420371D01*
X143086731Y-87420370D01*
X143086730Y-87420370D01*
X142947536Y-87379500D01*
X142802464Y-87379500D01*
X142663269Y-87420370D01*
X142663266Y-87420372D01*
X142541225Y-87498803D01*
X142446223Y-87608441D01*
X142424248Y-87656561D01*
X142385958Y-87740404D01*
X142365312Y-87884000D01*
X125095000Y-87884000D01*
X125095000Y-86360000D01*
X145159312Y-86360000D01*
X145179958Y-86503596D01*
X145240223Y-86635558D01*
X145335225Y-86745196D01*
X145457268Y-86823629D01*
X145596464Y-86864500D01*
X145741536Y-86864500D01*
X145880732Y-86823629D01*
X146002775Y-86745196D01*
X146097777Y-86635558D01*
X146158042Y-86503596D01*
X146178688Y-86360000D01*
X146158042Y-86216404D01*
X146107622Y-86106000D01*
X147572312Y-86106000D01*
X147592958Y-86249596D01*
X147653223Y-86381558D01*
X147748225Y-86491196D01*
X147870268Y-86569629D01*
X148009464Y-86610500D01*
X148154536Y-86610500D01*
X148293732Y-86569629D01*
X148415775Y-86491196D01*
X148510777Y-86381558D01*
X148571042Y-86249596D01*
X148591688Y-86106000D01*
X148571042Y-85962404D01*
X148510777Y-85830442D01*
X148415775Y-85720804D01*
X148415774Y-85720803D01*
X148354753Y-85681587D01*
X148293732Y-85642371D01*
X148293731Y-85642370D01*
X148293730Y-85642370D01*
X148154536Y-85601500D01*
X148009464Y-85601500D01*
X147870269Y-85642370D01*
X147870266Y-85642372D01*
X147748225Y-85720803D01*
X147653223Y-85830441D01*
X147595225Y-85957441D01*
X147592958Y-85962404D01*
X147572312Y-86106000D01*
X146107622Y-86106000D01*
X146097777Y-86084442D01*
X146002775Y-85974804D01*
X146002774Y-85974803D01*
X145929563Y-85927753D01*
X145880732Y-85896371D01*
X145880731Y-85896370D01*
X145880730Y-85896370D01*
X145741536Y-85855500D01*
X145596464Y-85855500D01*
X145457269Y-85896370D01*
X145457266Y-85896372D01*
X145335225Y-85974803D01*
X145240223Y-86084441D01*
X145186764Y-86201502D01*
X145179958Y-86216404D01*
X145159312Y-86360000D01*
X125095000Y-86360000D01*
X125095000Y-84709000D01*
X156335312Y-84709000D01*
X156355958Y-84852596D01*
X156416223Y-84984558D01*
X156511225Y-85094196D01*
X156633268Y-85172629D01*
X156772464Y-85213500D01*
X156917536Y-85213500D01*
X157056732Y-85172629D01*
X157178775Y-85094196D01*
X157273777Y-84984558D01*
X157334042Y-84852596D01*
X157354688Y-84709000D01*
X157334042Y-84565404D01*
X157273777Y-84433442D01*
X157178775Y-84323804D01*
X157178774Y-84323803D01*
X157116259Y-84283627D01*
X157056732Y-84245371D01*
X157056731Y-84245370D01*
X157056730Y-84245370D01*
X156917536Y-84204500D01*
X156772464Y-84204500D01*
X156633269Y-84245370D01*
X156633266Y-84245372D01*
X156511225Y-84323803D01*
X156416223Y-84433441D01*
X156416223Y-84433442D01*
X156355958Y-84565404D01*
X156335312Y-84709000D01*
X125095000Y-84709000D01*
X125095000Y-83820000D01*
X130300312Y-83820000D01*
X130320958Y-83963596D01*
X130381223Y-84095558D01*
X130476225Y-84205196D01*
X130598268Y-84283629D01*
X130737464Y-84324500D01*
X130882536Y-84324500D01*
X131021732Y-84283629D01*
X131143775Y-84205196D01*
X131238777Y-84095558D01*
X131299042Y-83963596D01*
X131319688Y-83820000D01*
X131319687Y-83819997D01*
X131319688Y-83819996D01*
X131570311Y-83819996D01*
X131589175Y-83951196D01*
X131590958Y-83963596D01*
X131651223Y-84095558D01*
X131746225Y-84205196D01*
X131868268Y-84283629D01*
X132007464Y-84324500D01*
X132152536Y-84324500D01*
X132291732Y-84283629D01*
X132413775Y-84205196D01*
X132508777Y-84095558D01*
X132569042Y-83963596D01*
X132589688Y-83820000D01*
X132569042Y-83676404D01*
X132518622Y-83566000D01*
X146429312Y-83566000D01*
X146449958Y-83709596D01*
X146510223Y-83841558D01*
X146605225Y-83951196D01*
X146727268Y-84029629D01*
X146866464Y-84070500D01*
X147011536Y-84070500D01*
X147150732Y-84029629D01*
X147272775Y-83951196D01*
X147367777Y-83841558D01*
X147428042Y-83709596D01*
X147448688Y-83566000D01*
X148588312Y-83566000D01*
X148608958Y-83709596D01*
X148669223Y-83841558D01*
X148764225Y-83951196D01*
X148886268Y-84029629D01*
X149025464Y-84070500D01*
X149170536Y-84070500D01*
X149309732Y-84029629D01*
X149431775Y-83951196D01*
X149526777Y-83841558D01*
X149587042Y-83709596D01*
X149607688Y-83566000D01*
X149587042Y-83422404D01*
X149526777Y-83290442D01*
X149431775Y-83180804D01*
X149431774Y-83180803D01*
X149370753Y-83141587D01*
X149309732Y-83102371D01*
X149309731Y-83102370D01*
X149309730Y-83102370D01*
X149170536Y-83061500D01*
X149025464Y-83061500D01*
X148886269Y-83102370D01*
X148886266Y-83102372D01*
X148764225Y-83180803D01*
X148669223Y-83290441D01*
X148639114Y-83356372D01*
X148608958Y-83422404D01*
X148588312Y-83566000D01*
X147448688Y-83566000D01*
X147428042Y-83422404D01*
X147367777Y-83290442D01*
X147272775Y-83180804D01*
X147272774Y-83180803D01*
X147211753Y-83141587D01*
X147150732Y-83102371D01*
X147150731Y-83102370D01*
X147150730Y-83102370D01*
X147011536Y-83061500D01*
X146866464Y-83061500D01*
X146727269Y-83102370D01*
X146727266Y-83102372D01*
X146605225Y-83180803D01*
X146510223Y-83290441D01*
X146480114Y-83356372D01*
X146449958Y-83422404D01*
X146429312Y-83566000D01*
X132518622Y-83566000D01*
X132508777Y-83544442D01*
X132413775Y-83434804D01*
X132413774Y-83434803D01*
X132352753Y-83395587D01*
X132291732Y-83356371D01*
X132291731Y-83356370D01*
X132291730Y-83356370D01*
X132152536Y-83315500D01*
X132007464Y-83315500D01*
X131868269Y-83356370D01*
X131868266Y-83356372D01*
X131746225Y-83434803D01*
X131651223Y-83544441D01*
X131590958Y-83676403D01*
X131590956Y-83676410D01*
X131570311Y-83819996D01*
X131319688Y-83819996D01*
X131299043Y-83676410D01*
X131299042Y-83676409D01*
X131299042Y-83676404D01*
X131238777Y-83544442D01*
X131143775Y-83434804D01*
X131143774Y-83434803D01*
X131082753Y-83395587D01*
X131021732Y-83356371D01*
X131021731Y-83356370D01*
X131021730Y-83356370D01*
X130882536Y-83315500D01*
X130737464Y-83315500D01*
X130598269Y-83356370D01*
X130598266Y-83356372D01*
X130476225Y-83434803D01*
X130381223Y-83544441D01*
X130371378Y-83566000D01*
X130320958Y-83676404D01*
X130300312Y-83820000D01*
X125095000Y-83820000D01*
X125095000Y-82423000D01*
X171702312Y-82423000D01*
X171722958Y-82566596D01*
X171783223Y-82698558D01*
X171878225Y-82808196D01*
X172000268Y-82886629D01*
X172139464Y-82927500D01*
X172284536Y-82927500D01*
X172423732Y-82886629D01*
X172545775Y-82808196D01*
X172640777Y-82698558D01*
X172701042Y-82566596D01*
X172721688Y-82423000D01*
X172701042Y-82279404D01*
X172640777Y-82147442D01*
X172545775Y-82037804D01*
X172545774Y-82037803D01*
X172484753Y-81998587D01*
X172423732Y-81959371D01*
X172423731Y-81959370D01*
X172423730Y-81959370D01*
X172284536Y-81918500D01*
X172139464Y-81918500D01*
X172000269Y-81959370D01*
X172000266Y-81959372D01*
X171878225Y-82037803D01*
X171783223Y-82147441D01*
X171783223Y-82147442D01*
X171722958Y-82279404D01*
X171702312Y-82423000D01*
X125095000Y-82423000D01*
X125095000Y-81153000D01*
X166622312Y-81153000D01*
X166642958Y-81296596D01*
X166703223Y-81428558D01*
X166798225Y-81538196D01*
X166920268Y-81616629D01*
X167059464Y-81657500D01*
X167204536Y-81657500D01*
X167343732Y-81616629D01*
X167465775Y-81538196D01*
X167560777Y-81428558D01*
X167621042Y-81296596D01*
X167641688Y-81153000D01*
X167621042Y-81009404D01*
X167560777Y-80877442D01*
X167465775Y-80767804D01*
X167465774Y-80767803D01*
X167404753Y-80728587D01*
X167343732Y-80689371D01*
X167343731Y-80689370D01*
X167343730Y-80689370D01*
X167204536Y-80648500D01*
X167059464Y-80648500D01*
X166920269Y-80689370D01*
X166920266Y-80689372D01*
X166798225Y-80767803D01*
X166703223Y-80877441D01*
X166642958Y-81009403D01*
X166622312Y-81153000D01*
X125095000Y-81153000D01*
X125095000Y-80518000D01*
X127125312Y-80518000D01*
X127145958Y-80661596D01*
X127206223Y-80793558D01*
X127301225Y-80903196D01*
X127423268Y-80981629D01*
X127562464Y-81022500D01*
X127707536Y-81022500D01*
X127846732Y-80981629D01*
X127968775Y-80903196D01*
X128063777Y-80793558D01*
X128124042Y-80661596D01*
X128144688Y-80518000D01*
X128522312Y-80518000D01*
X128542958Y-80661596D01*
X128603223Y-80793558D01*
X128698225Y-80903196D01*
X128820268Y-80981629D01*
X128959464Y-81022500D01*
X129104536Y-81022500D01*
X129243732Y-80981629D01*
X129365775Y-80903196D01*
X129460777Y-80793558D01*
X129521042Y-80661596D01*
X129541688Y-80518000D01*
X129521042Y-80374404D01*
X129460777Y-80242442D01*
X129365775Y-80132804D01*
X129365774Y-80132803D01*
X129304753Y-80093587D01*
X129243732Y-80054371D01*
X129243731Y-80054370D01*
X129243730Y-80054370D01*
X129104536Y-80013500D01*
X128959464Y-80013500D01*
X128820269Y-80054370D01*
X128820266Y-80054372D01*
X128698225Y-80132803D01*
X128603223Y-80242441D01*
X128603223Y-80242442D01*
X128542958Y-80374404D01*
X128522312Y-80518000D01*
X128144688Y-80518000D01*
X128124042Y-80374404D01*
X128063777Y-80242442D01*
X127968775Y-80132804D01*
X127968774Y-80132803D01*
X127907753Y-80093587D01*
X127846732Y-80054371D01*
X127846731Y-80054370D01*
X127846730Y-80054370D01*
X127707536Y-80013500D01*
X127562464Y-80013500D01*
X127423269Y-80054370D01*
X127423266Y-80054372D01*
X127301225Y-80132803D01*
X127206223Y-80242441D01*
X127206223Y-80242442D01*
X127145958Y-80374404D01*
X127125312Y-80518000D01*
X125095000Y-80518000D01*
X125095000Y-78486000D01*
X145540312Y-78486000D01*
X145560958Y-78629596D01*
X145621223Y-78761558D01*
X145716225Y-78871196D01*
X145838268Y-78949629D01*
X145977464Y-78990500D01*
X146122536Y-78990500D01*
X146261732Y-78949629D01*
X146383775Y-78871196D01*
X146478777Y-78761558D01*
X146539042Y-78629596D01*
X146559688Y-78486000D01*
X146539042Y-78342404D01*
X146478777Y-78210442D01*
X146383775Y-78100804D01*
X146383774Y-78100803D01*
X146322753Y-78061587D01*
X146261732Y-78022371D01*
X146261731Y-78022370D01*
X146261730Y-78022370D01*
X146122536Y-77981500D01*
X145977464Y-77981500D01*
X145838269Y-78022370D01*
X145838266Y-78022372D01*
X145716225Y-78100803D01*
X145621223Y-78210441D01*
X145621223Y-78210442D01*
X145560958Y-78342404D01*
X145540312Y-78486000D01*
X125095000Y-78486000D01*
X125095000Y-77203501D01*
X125115002Y-77135380D01*
X125168658Y-77088887D01*
X125221000Y-77077501D01*
X178578963Y-77077501D01*
X178647084Y-77097503D01*
G37*
%TD.AperFunction*%
%TD*%
M02*
