%TF.GenerationSoftware,KiCad,Pcbnew,7.0.8*%
%TF.CreationDate,2024-03-21T14:52:22+01:00*%
%TF.ProjectId,so-dimm-esp32-cm,736f2d64-696d-46d2-9d65-737033322d63,REV.03*%
%TF.SameCoordinates,Original*%
%TF.FileFunction,Soldermask,Top*%
%TF.FilePolarity,Negative*%
%FSLAX46Y46*%
G04 Gerber Fmt 4.6, Leading zero omitted, Abs format (unit mm)*
G04 Created by KiCad (PCBNEW 7.0.8) date 2024-03-21 14:52:22*
%MOMM*%
%LPD*%
G01*
G04 APERTURE LIST*
G04 Aperture macros list*
%AMRoundRect*
0 Rectangle with rounded corners*
0 $1 Rounding radius*
0 $2 $3 $4 $5 $6 $7 $8 $9 X,Y pos of 4 corners*
0 Add a 4 corners polygon primitive as box body*
4,1,4,$2,$3,$4,$5,$6,$7,$8,$9,$2,$3,0*
0 Add four circle primitives for the rounded corners*
1,1,$1+$1,$2,$3*
1,1,$1+$1,$4,$5*
1,1,$1+$1,$6,$7*
1,1,$1+$1,$8,$9*
0 Add four rect primitives between the rounded corners*
20,1,$1+$1,$2,$3,$4,$5,0*
20,1,$1+$1,$4,$5,$6,$7,0*
20,1,$1+$1,$6,$7,$8,$9,0*
20,1,$1+$1,$8,$9,$2,$3,0*%
G04 Aperture macros list end*
%ADD10RoundRect,0.225000X-0.225000X-0.250000X0.225000X-0.250000X0.225000X0.250000X-0.225000X0.250000X0*%
%ADD11RoundRect,0.200000X-0.200000X-0.275000X0.200000X-0.275000X0.200000X0.275000X-0.200000X0.275000X0*%
%ADD12RoundRect,0.218750X0.256250X-0.218750X0.256250X0.218750X-0.256250X0.218750X-0.256250X-0.218750X0*%
%ADD13RoundRect,0.200000X0.275000X-0.200000X0.275000X0.200000X-0.275000X0.200000X-0.275000X-0.200000X0*%
%ADD14R,1.550000X1.000000*%
%ADD15C,1.800000*%
%ADD16R,0.450000X2.300000*%
%ADD17RoundRect,0.225000X0.225000X0.250000X-0.225000X0.250000X-0.225000X-0.250000X0.225000X-0.250000X0*%
%ADD18R,1.475000X0.450000*%
%ADD19RoundRect,0.200000X0.200000X0.275000X-0.200000X0.275000X-0.200000X-0.275000X0.200000X-0.275000X0*%
%ADD20RoundRect,0.225000X-0.250000X0.225000X-0.250000X-0.225000X0.250000X-0.225000X0.250000X0.225000X0*%
%ADD21C,0.800000*%
%ADD22C,5.400000*%
%ADD23R,0.900000X1.500000*%
%ADD24R,1.500000X0.900000*%
%ADD25R,0.900000X0.900000*%
G04 APERTURE END LIST*
D10*
%TO.C,C5*%
X129527000Y-99695000D03*
X131077000Y-99695000D03*
%TD*%
D11*
%TO.C,R4*%
X154242000Y-84709000D03*
X155892000Y-84709000D03*
%TD*%
D12*
%TO.C,D1*%
X179933600Y-98571450D03*
X179933600Y-96996450D03*
%TD*%
D13*
%TO.C,R8*%
X146939000Y-86042000D03*
X146939000Y-84392000D03*
%TD*%
%TO.C,R6*%
X149098000Y-86042000D03*
X149098000Y-84392000D03*
%TD*%
D14*
%TO.C,S1*%
X168444000Y-79463000D03*
X168444000Y-77763000D03*
X173694000Y-79463000D03*
X173694000Y-77763000D03*
%TD*%
D13*
%TO.C,R7*%
X179933600Y-94925950D03*
X179933600Y-93275950D03*
%TD*%
D15*
%TO.C,J1*%
X117350000Y-102080000D03*
X180950000Y-102080000D03*
D16*
X117500000Y-106680000D03*
X118100000Y-106680000D03*
X118700000Y-106680000D03*
X119300000Y-106680000D03*
X119900000Y-106680000D03*
X120500000Y-106680000D03*
X121100000Y-106680000D03*
X121700000Y-106680000D03*
X122300000Y-106680000D03*
X122900000Y-106680000D03*
X123500000Y-106680000D03*
X124100000Y-106680000D03*
X124700000Y-106680000D03*
X125300000Y-106680000D03*
X125900000Y-106680000D03*
X126500000Y-106680000D03*
X127100000Y-106680000D03*
X127700000Y-106680000D03*
X128300000Y-106680000D03*
X128900000Y-106680000D03*
X133100000Y-106680000D03*
X133700000Y-106680000D03*
X134300000Y-106680000D03*
X134900000Y-106680000D03*
X135500000Y-106680000D03*
X136100000Y-106680000D03*
X136700000Y-106680000D03*
X137300000Y-106680000D03*
X137900000Y-106680000D03*
X138500000Y-106680000D03*
X139100000Y-106680000D03*
X139700000Y-106680000D03*
X140300000Y-106680000D03*
X140900000Y-106680000D03*
X141500000Y-106680000D03*
X142100000Y-106680000D03*
X142700000Y-106680000D03*
X143300000Y-106680000D03*
X143900000Y-106680000D03*
X144500000Y-106680000D03*
X145100000Y-106680000D03*
X145700000Y-106680000D03*
X146300000Y-106680000D03*
X146900000Y-106680000D03*
X147500000Y-106680000D03*
X148100000Y-106680000D03*
X148700000Y-106680000D03*
X149300000Y-106680000D03*
X149900000Y-106680000D03*
X150500000Y-106680000D03*
X151100000Y-106680000D03*
X151700000Y-106680000D03*
X152300000Y-106680000D03*
X152900000Y-106680000D03*
X153500000Y-106680000D03*
X154100000Y-106680000D03*
X154700000Y-106680000D03*
X155300000Y-106680000D03*
X155900000Y-106680000D03*
X156500000Y-106680000D03*
X157100000Y-106680000D03*
X157700000Y-106680000D03*
X158300000Y-106680000D03*
X158900000Y-106680000D03*
X159500000Y-106680000D03*
X160100000Y-106680000D03*
X160700000Y-106680000D03*
X161300000Y-106680000D03*
X161900000Y-106680000D03*
X162500000Y-106680000D03*
X163100000Y-106680000D03*
X163700000Y-106680000D03*
X164300000Y-106680000D03*
X164900000Y-106680000D03*
X165500000Y-106680000D03*
X166100000Y-106680000D03*
X166700000Y-106680000D03*
X167300000Y-106680000D03*
X167900000Y-106680000D03*
X168500000Y-106680000D03*
X169100000Y-106680000D03*
X169700000Y-106680000D03*
X170300000Y-106680000D03*
X170900000Y-106680000D03*
X171500000Y-106680000D03*
X172100000Y-106680000D03*
X172700000Y-106680000D03*
X173300000Y-106680000D03*
X173900000Y-106680000D03*
X174500000Y-106680000D03*
X175100000Y-106680000D03*
X175700000Y-106680000D03*
X176300000Y-106680000D03*
X176900000Y-106680000D03*
X177500000Y-106680000D03*
X178100000Y-106680000D03*
X178700000Y-106680000D03*
X179300000Y-106680000D03*
X179900000Y-106680000D03*
X180500000Y-106680000D03*
%TD*%
D17*
%TO.C,C7*%
X180734000Y-83947000D03*
X179184000Y-83947000D03*
%TD*%
D18*
%TO.C,IC1*%
X154542000Y-86468000D03*
X154542000Y-87118000D03*
X154542000Y-87768000D03*
X154542000Y-88418000D03*
X154542000Y-89068000D03*
X154542000Y-89718000D03*
X154542000Y-90368000D03*
X154542000Y-91018000D03*
X154542000Y-91668000D03*
X154542000Y-92318000D03*
X154542000Y-92968000D03*
X154542000Y-93618000D03*
X160418000Y-93618000D03*
X160418000Y-92968000D03*
X160418000Y-92318000D03*
X160418000Y-91668000D03*
X160418000Y-91018000D03*
X160418000Y-90368000D03*
X160418000Y-89718000D03*
X160418000Y-89068000D03*
X160418000Y-88418000D03*
X160418000Y-87768000D03*
X160418000Y-87118000D03*
X160418000Y-86468000D03*
%TD*%
D19*
%TO.C,R1*%
X174815000Y-82423000D03*
X173165000Y-82423000D03*
%TD*%
D13*
%TO.C,R2*%
X149098000Y-89471000D03*
X149098000Y-87821000D03*
%TD*%
D18*
%TO.C,IC2*%
X165464000Y-92945000D03*
X165464000Y-93595000D03*
X165464000Y-94245000D03*
X165464000Y-94895000D03*
X165464000Y-95545000D03*
X165464000Y-96195000D03*
X165464000Y-96845000D03*
X165464000Y-97495000D03*
X165464000Y-98145000D03*
X165464000Y-98795000D03*
X165464000Y-99445000D03*
X165464000Y-100095000D03*
X171340000Y-100095000D03*
X171340000Y-99445000D03*
X171340000Y-98795000D03*
X171340000Y-98145000D03*
X171340000Y-97495000D03*
X171340000Y-96845000D03*
X171340000Y-96195000D03*
X171340000Y-95545000D03*
X171340000Y-94895000D03*
X171340000Y-94245000D03*
X171340000Y-93595000D03*
X171340000Y-92945000D03*
%TD*%
D11*
%TO.C,R5*%
X165164000Y-91186000D03*
X166814000Y-91186000D03*
%TD*%
D17*
%TO.C,C6*%
X127902000Y-98044000D03*
X126352000Y-98044000D03*
%TD*%
D13*
%TO.C,R3*%
X146939000Y-89471000D03*
X146939000Y-87821000D03*
%TD*%
D17*
%TO.C,C1*%
X168415000Y-82423000D03*
X166865000Y-82423000D03*
%TD*%
D20*
%TO.C,C2*%
X173355000Y-93078000D03*
X173355000Y-94628000D03*
%TD*%
D21*
%TO.C,H1*%
X177899109Y-79975109D03*
X178492218Y-78543218D03*
X178492218Y-81407000D03*
X179924109Y-77950109D03*
D22*
X179924109Y-79975109D03*
D21*
X179924109Y-82000109D03*
X181356000Y-78543218D03*
X181356000Y-81407000D03*
X181949109Y-79975109D03*
%TD*%
D17*
%TO.C,C4*%
X127902000Y-99695000D03*
X126352000Y-99695000D03*
%TD*%
D11*
%TO.C,R9*%
X129477000Y-98044000D03*
X131127000Y-98044000D03*
%TD*%
D20*
%TO.C,C3*%
X162306000Y-86728000D03*
X162306000Y-88278000D03*
%TD*%
D23*
%TO.C,U2*%
X126492000Y-95986000D03*
X127762000Y-95986000D03*
X129032000Y-95986000D03*
X130302000Y-95986000D03*
X131572000Y-95986000D03*
X132842000Y-95986000D03*
X134112000Y-95986000D03*
X135382000Y-95986000D03*
X136652000Y-95986000D03*
X137922000Y-95986000D03*
X139192000Y-95986000D03*
X140462000Y-95986000D03*
X141732000Y-95986000D03*
X143002000Y-95986000D03*
D24*
X144252000Y-94221000D03*
X144252000Y-92951000D03*
X144252000Y-91681000D03*
X144252000Y-90411000D03*
X144252000Y-89141000D03*
X144252000Y-87871000D03*
X144252000Y-86601000D03*
X144252000Y-85331000D03*
X144252000Y-84061000D03*
X144252000Y-82791000D03*
X144252000Y-81521000D03*
X144252000Y-80251000D03*
D23*
X143002000Y-78486000D03*
X141732000Y-78486000D03*
X140462000Y-78486000D03*
X139192000Y-78486000D03*
X137922000Y-78486000D03*
X136652000Y-78486000D03*
X135382000Y-78486000D03*
X134112000Y-78486000D03*
X132842000Y-78486000D03*
X131572000Y-78486000D03*
X130302000Y-78486000D03*
X129032000Y-78486000D03*
X127762000Y-78486000D03*
X126492000Y-78486000D03*
D25*
X132812000Y-90136000D03*
X134212000Y-90136000D03*
X135612000Y-90136000D03*
X132812000Y-88736000D03*
X134212000Y-88736000D03*
X135612000Y-88736000D03*
X132812000Y-87336000D03*
X134212000Y-87336000D03*
X135612000Y-87336000D03*
%TD*%
G36*
X131118385Y-105429685D02*
G01*
X131164140Y-105482489D01*
X131175346Y-105534000D01*
X131175346Y-107952990D01*
X131155661Y-108020029D01*
X131102857Y-108065784D01*
X131051335Y-108076990D01*
X116178830Y-108075692D01*
X116171885Y-108075301D01*
X116022493Y-108058463D01*
X115995477Y-108052302D01*
X115863444Y-108006164D01*
X115838446Y-107994142D01*
X115719988Y-107919818D01*
X115698289Y-107902542D01*
X115599315Y-107803747D01*
X115581998Y-107782077D01*
X115507461Y-107663750D01*
X115495395Y-107638774D01*
X115450015Y-107509654D01*
X115443000Y-107468539D01*
X115443000Y-105534000D01*
X115462685Y-105466961D01*
X115515489Y-105421206D01*
X115567000Y-105410000D01*
X131051346Y-105410000D01*
X131118385Y-105429685D01*
G37*
G36*
X182958896Y-105429685D02*
G01*
X183004651Y-105482489D01*
X183015855Y-105533344D01*
X183025327Y-107323347D01*
X183024936Y-107330632D01*
X183008102Y-107479851D01*
X183001941Y-107506860D01*
X182955798Y-107638892D01*
X182943777Y-107663887D01*
X182869454Y-107782340D01*
X182852179Y-107804036D01*
X182753380Y-107903015D01*
X182731712Y-107920331D01*
X182613391Y-107994868D01*
X182588419Y-108006934D01*
X182456490Y-108053309D01*
X182429460Y-108059523D01*
X182280168Y-108076598D01*
X182273117Y-108077000D01*
X132299346Y-108077000D01*
X132232307Y-108057315D01*
X132186552Y-108004511D01*
X132175346Y-107953000D01*
X132175346Y-105534000D01*
X132195031Y-105466961D01*
X132247835Y-105421206D01*
X132299346Y-105410000D01*
X182891857Y-105410000D01*
X182958896Y-105429685D01*
G37*
M02*
