%TF.GenerationSoftware,KiCad,Pcbnew,7.0.8*%
%TF.CreationDate,2024-03-21T14:52:22+01:00*%
%TF.ProjectId,so-dimm-esp32-cm,736f2d64-696d-46d2-9d65-737033322d63,REV.03*%
%TF.SameCoordinates,Original*%
%TF.FileFunction,Legend,Top*%
%TF.FilePolarity,Positive*%
%FSLAX46Y46*%
G04 Gerber Fmt 4.6, Leading zero omitted, Abs format (unit mm)*
G04 Created by KiCad (PCBNEW 7.0.8) date 2024-03-21 14:52:22*
%MOMM*%
%LPD*%
G01*
G04 APERTURE LIST*
G04 Aperture macros list*
%AMRoundRect*
0 Rectangle with rounded corners*
0 $1 Rounding radius*
0 $2 $3 $4 $5 $6 $7 $8 $9 X,Y pos of 4 corners*
0 Add a 4 corners polygon primitive as box body*
4,1,4,$2,$3,$4,$5,$6,$7,$8,$9,$2,$3,0*
0 Add four circle primitives for the rounded corners*
1,1,$1+$1,$2,$3*
1,1,$1+$1,$4,$5*
1,1,$1+$1,$6,$7*
1,1,$1+$1,$8,$9*
0 Add four rect primitives between the rounded corners*
20,1,$1+$1,$2,$3,$4,$5,0*
20,1,$1+$1,$4,$5,$6,$7,0*
20,1,$1+$1,$6,$7,$8,$9,0*
20,1,$1+$1,$8,$9,$2,$3,0*%
G04 Aperture macros list end*
%ADD10C,0.150000*%
%ADD11C,0.254000*%
%ADD12C,0.120000*%
%ADD13C,0.100000*%
%ADD14C,0.200000*%
%ADD15RoundRect,0.225000X-0.225000X-0.250000X0.225000X-0.250000X0.225000X0.250000X-0.225000X0.250000X0*%
%ADD16RoundRect,0.200000X-0.200000X-0.275000X0.200000X-0.275000X0.200000X0.275000X-0.200000X0.275000X0*%
%ADD17RoundRect,0.218750X0.256250X-0.218750X0.256250X0.218750X-0.256250X0.218750X-0.256250X-0.218750X0*%
%ADD18RoundRect,0.200000X0.275000X-0.200000X0.275000X0.200000X-0.275000X0.200000X-0.275000X-0.200000X0*%
%ADD19R,1.550000X1.000000*%
%ADD20C,1.800000*%
%ADD21R,0.450000X2.300000*%
%ADD22RoundRect,0.225000X0.225000X0.250000X-0.225000X0.250000X-0.225000X-0.250000X0.225000X-0.250000X0*%
%ADD23R,1.475000X0.450000*%
%ADD24RoundRect,0.200000X0.200000X0.275000X-0.200000X0.275000X-0.200000X-0.275000X0.200000X-0.275000X0*%
%ADD25RoundRect,0.225000X-0.250000X0.225000X-0.250000X-0.225000X0.250000X-0.225000X0.250000X0.225000X0*%
%ADD26C,0.800000*%
%ADD27C,5.400000*%
%ADD28R,0.900000X1.500000*%
%ADD29R,1.500000X0.900000*%
%ADD30R,0.900000X0.900000*%
G04 APERTURE END LIST*
D10*
X154242143Y-80822771D02*
X154356429Y-80822771D01*
X154356429Y-80822771D02*
X154413572Y-80851342D01*
X154413572Y-80851342D02*
X154470715Y-80908485D01*
X154470715Y-80908485D02*
X154499286Y-81022771D01*
X154499286Y-81022771D02*
X154499286Y-81222771D01*
X154499286Y-81222771D02*
X154470715Y-81337057D01*
X154470715Y-81337057D02*
X154413572Y-81394200D01*
X154413572Y-81394200D02*
X154356429Y-81422771D01*
X154356429Y-81422771D02*
X154242143Y-81422771D01*
X154242143Y-81422771D02*
X154185001Y-81394200D01*
X154185001Y-81394200D02*
X154127858Y-81337057D01*
X154127858Y-81337057D02*
X154099286Y-81222771D01*
X154099286Y-81222771D02*
X154099286Y-81022771D01*
X154099286Y-81022771D02*
X154127858Y-80908485D01*
X154127858Y-80908485D02*
X154185001Y-80851342D01*
X154185001Y-80851342D02*
X154242143Y-80822771D01*
X154756429Y-81422771D02*
X154756429Y-80822771D01*
X154756429Y-80822771D02*
X154985000Y-80822771D01*
X154985000Y-80822771D02*
X155042143Y-80851342D01*
X155042143Y-80851342D02*
X155070714Y-80879914D01*
X155070714Y-80879914D02*
X155099286Y-80937057D01*
X155099286Y-80937057D02*
X155099286Y-81022771D01*
X155099286Y-81022771D02*
X155070714Y-81079914D01*
X155070714Y-81079914D02*
X155042143Y-81108485D01*
X155042143Y-81108485D02*
X154985000Y-81137057D01*
X154985000Y-81137057D02*
X154756429Y-81137057D01*
X155356429Y-81108485D02*
X155556429Y-81108485D01*
X155642143Y-81422771D02*
X155356429Y-81422771D01*
X155356429Y-81422771D02*
X155356429Y-80822771D01*
X155356429Y-80822771D02*
X155642143Y-80822771D01*
X155899286Y-81422771D02*
X155899286Y-80822771D01*
X155899286Y-80822771D02*
X156242143Y-81422771D01*
X156242143Y-81422771D02*
X156242143Y-80822771D01*
X156442142Y-80822771D02*
X156785000Y-80822771D01*
X156613571Y-81422771D02*
X156613571Y-80822771D01*
X156985000Y-81422771D02*
X156985000Y-80822771D01*
X156985000Y-81108485D02*
X157327857Y-81108485D01*
X157327857Y-81422771D02*
X157327857Y-80822771D01*
X157613571Y-81422771D02*
X157613571Y-80822771D01*
X157899285Y-81422771D02*
X157899285Y-80822771D01*
X157899285Y-80822771D02*
X158242142Y-81422771D01*
X158242142Y-81422771D02*
X158242142Y-80822771D01*
X158842141Y-80851342D02*
X158784999Y-80822771D01*
X158784999Y-80822771D02*
X158699284Y-80822771D01*
X158699284Y-80822771D02*
X158613570Y-80851342D01*
X158613570Y-80851342D02*
X158556427Y-80908485D01*
X158556427Y-80908485D02*
X158527856Y-80965628D01*
X158527856Y-80965628D02*
X158499284Y-81079914D01*
X158499284Y-81079914D02*
X158499284Y-81165628D01*
X158499284Y-81165628D02*
X158527856Y-81279914D01*
X158527856Y-81279914D02*
X158556427Y-81337057D01*
X158556427Y-81337057D02*
X158613570Y-81394200D01*
X158613570Y-81394200D02*
X158699284Y-81422771D01*
X158699284Y-81422771D02*
X158756427Y-81422771D01*
X158756427Y-81422771D02*
X158842141Y-81394200D01*
X158842141Y-81394200D02*
X158870713Y-81365628D01*
X158870713Y-81365628D02*
X158870713Y-81165628D01*
X158870713Y-81165628D02*
X158756427Y-81165628D01*
X159899284Y-81422771D02*
X159556427Y-81422771D01*
X159727856Y-81422771D02*
X159727856Y-80822771D01*
X159727856Y-80822771D02*
X159670713Y-80908485D01*
X159670713Y-80908485D02*
X159613570Y-80965628D01*
X159613570Y-80965628D02*
X159556427Y-80994200D01*
X160613571Y-81108485D02*
X160813571Y-81108485D01*
X160899285Y-81422771D02*
X160613571Y-81422771D01*
X160613571Y-81422771D02*
X160613571Y-80822771D01*
X160613571Y-80822771D02*
X160899285Y-80822771D01*
X161127856Y-81394200D02*
X161213571Y-81422771D01*
X161213571Y-81422771D02*
X161356428Y-81422771D01*
X161356428Y-81422771D02*
X161413571Y-81394200D01*
X161413571Y-81394200D02*
X161442142Y-81365628D01*
X161442142Y-81365628D02*
X161470713Y-81308485D01*
X161470713Y-81308485D02*
X161470713Y-81251342D01*
X161470713Y-81251342D02*
X161442142Y-81194200D01*
X161442142Y-81194200D02*
X161413571Y-81165628D01*
X161413571Y-81165628D02*
X161356428Y-81137057D01*
X161356428Y-81137057D02*
X161242142Y-81108485D01*
X161242142Y-81108485D02*
X161184999Y-81079914D01*
X161184999Y-81079914D02*
X161156428Y-81051342D01*
X161156428Y-81051342D02*
X161127856Y-80994200D01*
X161127856Y-80994200D02*
X161127856Y-80937057D01*
X161127856Y-80937057D02*
X161156428Y-80879914D01*
X161156428Y-80879914D02*
X161184999Y-80851342D01*
X161184999Y-80851342D02*
X161242142Y-80822771D01*
X161242142Y-80822771D02*
X161384999Y-80822771D01*
X161384999Y-80822771D02*
X161470713Y-80851342D01*
X161727857Y-81422771D02*
X161727857Y-80822771D01*
X161727857Y-80822771D02*
X161956428Y-80822771D01*
X161956428Y-80822771D02*
X162013571Y-80851342D01*
X162013571Y-80851342D02*
X162042142Y-80879914D01*
X162042142Y-80879914D02*
X162070714Y-80937057D01*
X162070714Y-80937057D02*
X162070714Y-81022771D01*
X162070714Y-81022771D02*
X162042142Y-81079914D01*
X162042142Y-81079914D02*
X162013571Y-81108485D01*
X162013571Y-81108485D02*
X161956428Y-81137057D01*
X161956428Y-81137057D02*
X161727857Y-81137057D01*
X162327857Y-81194200D02*
X162785000Y-81194200D01*
X163413571Y-81365628D02*
X163384999Y-81394200D01*
X163384999Y-81394200D02*
X163299285Y-81422771D01*
X163299285Y-81422771D02*
X163242142Y-81422771D01*
X163242142Y-81422771D02*
X163156428Y-81394200D01*
X163156428Y-81394200D02*
X163099285Y-81337057D01*
X163099285Y-81337057D02*
X163070714Y-81279914D01*
X163070714Y-81279914D02*
X163042142Y-81165628D01*
X163042142Y-81165628D02*
X163042142Y-81079914D01*
X163042142Y-81079914D02*
X163070714Y-80965628D01*
X163070714Y-80965628D02*
X163099285Y-80908485D01*
X163099285Y-80908485D02*
X163156428Y-80851342D01*
X163156428Y-80851342D02*
X163242142Y-80822771D01*
X163242142Y-80822771D02*
X163299285Y-80822771D01*
X163299285Y-80822771D02*
X163384999Y-80851342D01*
X163384999Y-80851342D02*
X163413571Y-80879914D01*
X163670714Y-81422771D02*
X163670714Y-80822771D01*
X163670714Y-80822771D02*
X163870714Y-81251342D01*
X163870714Y-81251342D02*
X164070714Y-80822771D01*
X164070714Y-80822771D02*
X164070714Y-81422771D01*
X164299285Y-80822771D02*
X164670713Y-80822771D01*
X164670713Y-80822771D02*
X164470713Y-81051342D01*
X164470713Y-81051342D02*
X164556428Y-81051342D01*
X164556428Y-81051342D02*
X164613571Y-81079914D01*
X164613571Y-81079914D02*
X164642142Y-81108485D01*
X164642142Y-81108485D02*
X164670713Y-81165628D01*
X164670713Y-81165628D02*
X164670713Y-81308485D01*
X164670713Y-81308485D02*
X164642142Y-81365628D01*
X164642142Y-81365628D02*
X164613571Y-81394200D01*
X164613571Y-81394200D02*
X164556428Y-81422771D01*
X164556428Y-81422771D02*
X164384999Y-81422771D01*
X164384999Y-81422771D02*
X164327856Y-81394200D01*
X164327856Y-81394200D02*
X164299285Y-81365628D01*
X162137857Y-82819771D02*
X161937857Y-82534057D01*
X161795000Y-82819771D02*
X161795000Y-82219771D01*
X161795000Y-82219771D02*
X162023571Y-82219771D01*
X162023571Y-82219771D02*
X162080714Y-82248342D01*
X162080714Y-82248342D02*
X162109285Y-82276914D01*
X162109285Y-82276914D02*
X162137857Y-82334057D01*
X162137857Y-82334057D02*
X162137857Y-82419771D01*
X162137857Y-82419771D02*
X162109285Y-82476914D01*
X162109285Y-82476914D02*
X162080714Y-82505485D01*
X162080714Y-82505485D02*
X162023571Y-82534057D01*
X162023571Y-82534057D02*
X161795000Y-82534057D01*
X162395000Y-82505485D02*
X162595000Y-82505485D01*
X162680714Y-82819771D02*
X162395000Y-82819771D01*
X162395000Y-82819771D02*
X162395000Y-82219771D01*
X162395000Y-82219771D02*
X162680714Y-82219771D01*
X162852142Y-82219771D02*
X163052142Y-82819771D01*
X163052142Y-82819771D02*
X163252142Y-82219771D01*
X163452143Y-82762628D02*
X163480714Y-82791200D01*
X163480714Y-82791200D02*
X163452143Y-82819771D01*
X163452143Y-82819771D02*
X163423571Y-82791200D01*
X163423571Y-82791200D02*
X163452143Y-82762628D01*
X163452143Y-82762628D02*
X163452143Y-82819771D01*
X163852142Y-82219771D02*
X163909285Y-82219771D01*
X163909285Y-82219771D02*
X163966428Y-82248342D01*
X163966428Y-82248342D02*
X163995000Y-82276914D01*
X163995000Y-82276914D02*
X164023571Y-82334057D01*
X164023571Y-82334057D02*
X164052142Y-82448342D01*
X164052142Y-82448342D02*
X164052142Y-82591200D01*
X164052142Y-82591200D02*
X164023571Y-82705485D01*
X164023571Y-82705485D02*
X163995000Y-82762628D01*
X163995000Y-82762628D02*
X163966428Y-82791200D01*
X163966428Y-82791200D02*
X163909285Y-82819771D01*
X163909285Y-82819771D02*
X163852142Y-82819771D01*
X163852142Y-82819771D02*
X163795000Y-82791200D01*
X163795000Y-82791200D02*
X163766428Y-82762628D01*
X163766428Y-82762628D02*
X163737857Y-82705485D01*
X163737857Y-82705485D02*
X163709285Y-82591200D01*
X163709285Y-82591200D02*
X163709285Y-82448342D01*
X163709285Y-82448342D02*
X163737857Y-82334057D01*
X163737857Y-82334057D02*
X163766428Y-82276914D01*
X163766428Y-82276914D02*
X163795000Y-82248342D01*
X163795000Y-82248342D02*
X163852142Y-82219771D01*
X164252143Y-82219771D02*
X164623571Y-82219771D01*
X164623571Y-82219771D02*
X164423571Y-82448342D01*
X164423571Y-82448342D02*
X164509286Y-82448342D01*
X164509286Y-82448342D02*
X164566429Y-82476914D01*
X164566429Y-82476914D02*
X164595000Y-82505485D01*
X164595000Y-82505485D02*
X164623571Y-82562628D01*
X164623571Y-82562628D02*
X164623571Y-82705485D01*
X164623571Y-82705485D02*
X164595000Y-82762628D01*
X164595000Y-82762628D02*
X164566429Y-82791200D01*
X164566429Y-82791200D02*
X164509286Y-82819771D01*
X164509286Y-82819771D02*
X164337857Y-82819771D01*
X164337857Y-82819771D02*
X164280714Y-82791200D01*
X164280714Y-82791200D02*
X164252143Y-82762628D01*
X170740428Y-81295771D02*
X170540428Y-81010057D01*
X170397571Y-81295771D02*
X170397571Y-80695771D01*
X170397571Y-80695771D02*
X170626142Y-80695771D01*
X170626142Y-80695771D02*
X170683285Y-80724342D01*
X170683285Y-80724342D02*
X170711856Y-80752914D01*
X170711856Y-80752914D02*
X170740428Y-80810057D01*
X170740428Y-80810057D02*
X170740428Y-80895771D01*
X170740428Y-80895771D02*
X170711856Y-80952914D01*
X170711856Y-80952914D02*
X170683285Y-80981485D01*
X170683285Y-80981485D02*
X170626142Y-81010057D01*
X170626142Y-81010057D02*
X170397571Y-81010057D01*
X170968999Y-81267200D02*
X171054714Y-81295771D01*
X171054714Y-81295771D02*
X171197571Y-81295771D01*
X171197571Y-81295771D02*
X171254714Y-81267200D01*
X171254714Y-81267200D02*
X171283285Y-81238628D01*
X171283285Y-81238628D02*
X171311856Y-81181485D01*
X171311856Y-81181485D02*
X171311856Y-81124342D01*
X171311856Y-81124342D02*
X171283285Y-81067200D01*
X171283285Y-81067200D02*
X171254714Y-81038628D01*
X171254714Y-81038628D02*
X171197571Y-81010057D01*
X171197571Y-81010057D02*
X171083285Y-80981485D01*
X171083285Y-80981485D02*
X171026142Y-80952914D01*
X171026142Y-80952914D02*
X170997571Y-80924342D01*
X170997571Y-80924342D02*
X170968999Y-80867200D01*
X170968999Y-80867200D02*
X170968999Y-80810057D01*
X170968999Y-80810057D02*
X170997571Y-80752914D01*
X170997571Y-80752914D02*
X171026142Y-80724342D01*
X171026142Y-80724342D02*
X171083285Y-80695771D01*
X171083285Y-80695771D02*
X171226142Y-80695771D01*
X171226142Y-80695771D02*
X171311856Y-80724342D01*
X171483285Y-80695771D02*
X171826143Y-80695771D01*
X171654714Y-81295771D02*
X171654714Y-80695771D01*
X132361000Y-100034628D02*
X132332428Y-100063200D01*
X132332428Y-100063200D02*
X132246714Y-100091771D01*
X132246714Y-100091771D02*
X132189571Y-100091771D01*
X132189571Y-100091771D02*
X132103857Y-100063200D01*
X132103857Y-100063200D02*
X132046714Y-100006057D01*
X132046714Y-100006057D02*
X132018143Y-99948914D01*
X132018143Y-99948914D02*
X131989571Y-99834628D01*
X131989571Y-99834628D02*
X131989571Y-99748914D01*
X131989571Y-99748914D02*
X132018143Y-99634628D01*
X132018143Y-99634628D02*
X132046714Y-99577485D01*
X132046714Y-99577485D02*
X132103857Y-99520342D01*
X132103857Y-99520342D02*
X132189571Y-99491771D01*
X132189571Y-99491771D02*
X132246714Y-99491771D01*
X132246714Y-99491771D02*
X132332428Y-99520342D01*
X132332428Y-99520342D02*
X132361000Y-99548914D01*
X132903857Y-99491771D02*
X132618143Y-99491771D01*
X132618143Y-99491771D02*
X132589571Y-99777485D01*
X132589571Y-99777485D02*
X132618143Y-99748914D01*
X132618143Y-99748914D02*
X132675286Y-99720342D01*
X132675286Y-99720342D02*
X132818143Y-99720342D01*
X132818143Y-99720342D02*
X132875286Y-99748914D01*
X132875286Y-99748914D02*
X132903857Y-99777485D01*
X132903857Y-99777485D02*
X132932428Y-99834628D01*
X132932428Y-99834628D02*
X132932428Y-99977485D01*
X132932428Y-99977485D02*
X132903857Y-100034628D01*
X132903857Y-100034628D02*
X132875286Y-100063200D01*
X132875286Y-100063200D02*
X132818143Y-100091771D01*
X132818143Y-100091771D02*
X132675286Y-100091771D01*
X132675286Y-100091771D02*
X132618143Y-100063200D01*
X132618143Y-100063200D02*
X132589571Y-100034628D01*
X153431771Y-84808999D02*
X153146057Y-85008999D01*
X153431771Y-85151856D02*
X152831771Y-85151856D01*
X152831771Y-85151856D02*
X152831771Y-84923285D01*
X152831771Y-84923285D02*
X152860342Y-84866142D01*
X152860342Y-84866142D02*
X152888914Y-84837571D01*
X152888914Y-84837571D02*
X152946057Y-84808999D01*
X152946057Y-84808999D02*
X153031771Y-84808999D01*
X153031771Y-84808999D02*
X153088914Y-84837571D01*
X153088914Y-84837571D02*
X153117485Y-84866142D01*
X153117485Y-84866142D02*
X153146057Y-84923285D01*
X153146057Y-84923285D02*
X153146057Y-85151856D01*
X153031771Y-84294714D02*
X153431771Y-84294714D01*
X152803200Y-84437571D02*
X153231771Y-84580428D01*
X153231771Y-84580428D02*
X153231771Y-84208999D01*
X179490743Y-96275721D02*
X179490743Y-95675721D01*
X179490743Y-95675721D02*
X179633600Y-95675721D01*
X179633600Y-95675721D02*
X179719314Y-95704292D01*
X179719314Y-95704292D02*
X179776457Y-95761435D01*
X179776457Y-95761435D02*
X179805028Y-95818578D01*
X179805028Y-95818578D02*
X179833600Y-95932864D01*
X179833600Y-95932864D02*
X179833600Y-96018578D01*
X179833600Y-96018578D02*
X179805028Y-96132864D01*
X179805028Y-96132864D02*
X179776457Y-96190007D01*
X179776457Y-96190007D02*
X179719314Y-96247150D01*
X179719314Y-96247150D02*
X179633600Y-96275721D01*
X179633600Y-96275721D02*
X179490743Y-96275721D01*
X180405028Y-96275721D02*
X180062171Y-96275721D01*
X180233600Y-96275721D02*
X180233600Y-95675721D01*
X180233600Y-95675721D02*
X180176457Y-95761435D01*
X180176457Y-95761435D02*
X180119314Y-95818578D01*
X180119314Y-95818578D02*
X180062171Y-95847150D01*
X146839000Y-83200771D02*
X146639000Y-82915057D01*
X146496143Y-83200771D02*
X146496143Y-82600771D01*
X146496143Y-82600771D02*
X146724714Y-82600771D01*
X146724714Y-82600771D02*
X146781857Y-82629342D01*
X146781857Y-82629342D02*
X146810428Y-82657914D01*
X146810428Y-82657914D02*
X146839000Y-82715057D01*
X146839000Y-82715057D02*
X146839000Y-82800771D01*
X146839000Y-82800771D02*
X146810428Y-82857914D01*
X146810428Y-82857914D02*
X146781857Y-82886485D01*
X146781857Y-82886485D02*
X146724714Y-82915057D01*
X146724714Y-82915057D02*
X146496143Y-82915057D01*
X147181857Y-82857914D02*
X147124714Y-82829342D01*
X147124714Y-82829342D02*
X147096143Y-82800771D01*
X147096143Y-82800771D02*
X147067571Y-82743628D01*
X147067571Y-82743628D02*
X147067571Y-82715057D01*
X147067571Y-82715057D02*
X147096143Y-82657914D01*
X147096143Y-82657914D02*
X147124714Y-82629342D01*
X147124714Y-82629342D02*
X147181857Y-82600771D01*
X147181857Y-82600771D02*
X147296143Y-82600771D01*
X147296143Y-82600771D02*
X147353286Y-82629342D01*
X147353286Y-82629342D02*
X147381857Y-82657914D01*
X147381857Y-82657914D02*
X147410428Y-82715057D01*
X147410428Y-82715057D02*
X147410428Y-82743628D01*
X147410428Y-82743628D02*
X147381857Y-82800771D01*
X147381857Y-82800771D02*
X147353286Y-82829342D01*
X147353286Y-82829342D02*
X147296143Y-82857914D01*
X147296143Y-82857914D02*
X147181857Y-82857914D01*
X147181857Y-82857914D02*
X147124714Y-82886485D01*
X147124714Y-82886485D02*
X147096143Y-82915057D01*
X147096143Y-82915057D02*
X147067571Y-82972200D01*
X147067571Y-82972200D02*
X147067571Y-83086485D01*
X147067571Y-83086485D02*
X147096143Y-83143628D01*
X147096143Y-83143628D02*
X147124714Y-83172200D01*
X147124714Y-83172200D02*
X147181857Y-83200771D01*
X147181857Y-83200771D02*
X147296143Y-83200771D01*
X147296143Y-83200771D02*
X147353286Y-83172200D01*
X147353286Y-83172200D02*
X147381857Y-83143628D01*
X147381857Y-83143628D02*
X147410428Y-83086485D01*
X147410428Y-83086485D02*
X147410428Y-82972200D01*
X147410428Y-82972200D02*
X147381857Y-82915057D01*
X147381857Y-82915057D02*
X147353286Y-82886485D01*
X147353286Y-82886485D02*
X147296143Y-82857914D01*
X148998000Y-83200771D02*
X148798000Y-82915057D01*
X148655143Y-83200771D02*
X148655143Y-82600771D01*
X148655143Y-82600771D02*
X148883714Y-82600771D01*
X148883714Y-82600771D02*
X148940857Y-82629342D01*
X148940857Y-82629342D02*
X148969428Y-82657914D01*
X148969428Y-82657914D02*
X148998000Y-82715057D01*
X148998000Y-82715057D02*
X148998000Y-82800771D01*
X148998000Y-82800771D02*
X148969428Y-82857914D01*
X148969428Y-82857914D02*
X148940857Y-82886485D01*
X148940857Y-82886485D02*
X148883714Y-82915057D01*
X148883714Y-82915057D02*
X148655143Y-82915057D01*
X149512286Y-82600771D02*
X149398000Y-82600771D01*
X149398000Y-82600771D02*
X149340857Y-82629342D01*
X149340857Y-82629342D02*
X149312286Y-82657914D01*
X149312286Y-82657914D02*
X149255143Y-82743628D01*
X149255143Y-82743628D02*
X149226571Y-82857914D01*
X149226571Y-82857914D02*
X149226571Y-83086485D01*
X149226571Y-83086485D02*
X149255143Y-83143628D01*
X149255143Y-83143628D02*
X149283714Y-83172200D01*
X149283714Y-83172200D02*
X149340857Y-83200771D01*
X149340857Y-83200771D02*
X149455143Y-83200771D01*
X149455143Y-83200771D02*
X149512286Y-83172200D01*
X149512286Y-83172200D02*
X149540857Y-83143628D01*
X149540857Y-83143628D02*
X149569428Y-83086485D01*
X149569428Y-83086485D02*
X149569428Y-82943628D01*
X149569428Y-82943628D02*
X149540857Y-82886485D01*
X149540857Y-82886485D02*
X149512286Y-82857914D01*
X149512286Y-82857914D02*
X149455143Y-82829342D01*
X149455143Y-82829342D02*
X149340857Y-82829342D01*
X149340857Y-82829342D02*
X149283714Y-82857914D01*
X149283714Y-82857914D02*
X149255143Y-82886485D01*
X149255143Y-82886485D02*
X149226571Y-82943628D01*
X179833600Y-92592721D02*
X179633600Y-92307007D01*
X179490743Y-92592721D02*
X179490743Y-91992721D01*
X179490743Y-91992721D02*
X179719314Y-91992721D01*
X179719314Y-91992721D02*
X179776457Y-92021292D01*
X179776457Y-92021292D02*
X179805028Y-92049864D01*
X179805028Y-92049864D02*
X179833600Y-92107007D01*
X179833600Y-92107007D02*
X179833600Y-92192721D01*
X179833600Y-92192721D02*
X179805028Y-92249864D01*
X179805028Y-92249864D02*
X179776457Y-92278435D01*
X179776457Y-92278435D02*
X179719314Y-92307007D01*
X179719314Y-92307007D02*
X179490743Y-92307007D01*
X180033600Y-91992721D02*
X180433600Y-91992721D01*
X180433600Y-91992721D02*
X180176457Y-92592721D01*
X179859000Y-85589628D02*
X179830428Y-85618200D01*
X179830428Y-85618200D02*
X179744714Y-85646771D01*
X179744714Y-85646771D02*
X179687571Y-85646771D01*
X179687571Y-85646771D02*
X179601857Y-85618200D01*
X179601857Y-85618200D02*
X179544714Y-85561057D01*
X179544714Y-85561057D02*
X179516143Y-85503914D01*
X179516143Y-85503914D02*
X179487571Y-85389628D01*
X179487571Y-85389628D02*
X179487571Y-85303914D01*
X179487571Y-85303914D02*
X179516143Y-85189628D01*
X179516143Y-85189628D02*
X179544714Y-85132485D01*
X179544714Y-85132485D02*
X179601857Y-85075342D01*
X179601857Y-85075342D02*
X179687571Y-85046771D01*
X179687571Y-85046771D02*
X179744714Y-85046771D01*
X179744714Y-85046771D02*
X179830428Y-85075342D01*
X179830428Y-85075342D02*
X179859000Y-85103914D01*
X180059000Y-85046771D02*
X180459000Y-85046771D01*
X180459000Y-85046771D02*
X180201857Y-85646771D01*
D11*
X156240237Y-90617318D02*
X156240237Y-89347318D01*
X157570714Y-90496365D02*
X157510238Y-90556842D01*
X157510238Y-90556842D02*
X157328809Y-90617318D01*
X157328809Y-90617318D02*
X157207857Y-90617318D01*
X157207857Y-90617318D02*
X157026428Y-90556842D01*
X157026428Y-90556842D02*
X156905476Y-90435889D01*
X156905476Y-90435889D02*
X156844999Y-90314937D01*
X156844999Y-90314937D02*
X156784523Y-90073032D01*
X156784523Y-90073032D02*
X156784523Y-89891603D01*
X156784523Y-89891603D02*
X156844999Y-89649699D01*
X156844999Y-89649699D02*
X156905476Y-89528746D01*
X156905476Y-89528746D02*
X157026428Y-89407794D01*
X157026428Y-89407794D02*
X157207857Y-89347318D01*
X157207857Y-89347318D02*
X157328809Y-89347318D01*
X157328809Y-89347318D02*
X157510238Y-89407794D01*
X157510238Y-89407794D02*
X157570714Y-89468270D01*
X158780238Y-90617318D02*
X158054523Y-90617318D01*
X158417380Y-90617318D02*
X158417380Y-89347318D01*
X158417380Y-89347318D02*
X158296428Y-89528746D01*
X158296428Y-89528746D02*
X158175476Y-89649699D01*
X158175476Y-89649699D02*
X158054523Y-89710175D01*
D10*
X173890000Y-83962771D02*
X173690000Y-83677057D01*
X173547143Y-83962771D02*
X173547143Y-83362771D01*
X173547143Y-83362771D02*
X173775714Y-83362771D01*
X173775714Y-83362771D02*
X173832857Y-83391342D01*
X173832857Y-83391342D02*
X173861428Y-83419914D01*
X173861428Y-83419914D02*
X173890000Y-83477057D01*
X173890000Y-83477057D02*
X173890000Y-83562771D01*
X173890000Y-83562771D02*
X173861428Y-83619914D01*
X173861428Y-83619914D02*
X173832857Y-83648485D01*
X173832857Y-83648485D02*
X173775714Y-83677057D01*
X173775714Y-83677057D02*
X173547143Y-83677057D01*
X174461428Y-83962771D02*
X174118571Y-83962771D01*
X174290000Y-83962771D02*
X174290000Y-83362771D01*
X174290000Y-83362771D02*
X174232857Y-83448485D01*
X174232857Y-83448485D02*
X174175714Y-83505628D01*
X174175714Y-83505628D02*
X174118571Y-83534200D01*
X149031000Y-90947771D02*
X148831000Y-90662057D01*
X148688143Y-90947771D02*
X148688143Y-90347771D01*
X148688143Y-90347771D02*
X148916714Y-90347771D01*
X148916714Y-90347771D02*
X148973857Y-90376342D01*
X148973857Y-90376342D02*
X149002428Y-90404914D01*
X149002428Y-90404914D02*
X149031000Y-90462057D01*
X149031000Y-90462057D02*
X149031000Y-90547771D01*
X149031000Y-90547771D02*
X149002428Y-90604914D01*
X149002428Y-90604914D02*
X148973857Y-90633485D01*
X148973857Y-90633485D02*
X148916714Y-90662057D01*
X148916714Y-90662057D02*
X148688143Y-90662057D01*
X149259571Y-90404914D02*
X149288143Y-90376342D01*
X149288143Y-90376342D02*
X149345286Y-90347771D01*
X149345286Y-90347771D02*
X149488143Y-90347771D01*
X149488143Y-90347771D02*
X149545286Y-90376342D01*
X149545286Y-90376342D02*
X149573857Y-90404914D01*
X149573857Y-90404914D02*
X149602428Y-90462057D01*
X149602428Y-90462057D02*
X149602428Y-90519200D01*
X149602428Y-90519200D02*
X149573857Y-90604914D01*
X149573857Y-90604914D02*
X149231000Y-90947771D01*
X149231000Y-90947771D02*
X149602428Y-90947771D01*
D11*
X167162237Y-97094318D02*
X167162237Y-95824318D01*
X168492714Y-96973365D02*
X168432238Y-97033842D01*
X168432238Y-97033842D02*
X168250809Y-97094318D01*
X168250809Y-97094318D02*
X168129857Y-97094318D01*
X168129857Y-97094318D02*
X167948428Y-97033842D01*
X167948428Y-97033842D02*
X167827476Y-96912889D01*
X167827476Y-96912889D02*
X167766999Y-96791937D01*
X167766999Y-96791937D02*
X167706523Y-96550032D01*
X167706523Y-96550032D02*
X167706523Y-96368603D01*
X167706523Y-96368603D02*
X167766999Y-96126699D01*
X167766999Y-96126699D02*
X167827476Y-96005746D01*
X167827476Y-96005746D02*
X167948428Y-95884794D01*
X167948428Y-95884794D02*
X168129857Y-95824318D01*
X168129857Y-95824318D02*
X168250809Y-95824318D01*
X168250809Y-95824318D02*
X168432238Y-95884794D01*
X168432238Y-95884794D02*
X168492714Y-95945270D01*
X168976523Y-95945270D02*
X169036999Y-95884794D01*
X169036999Y-95884794D02*
X169157952Y-95824318D01*
X169157952Y-95824318D02*
X169460333Y-95824318D01*
X169460333Y-95824318D02*
X169581285Y-95884794D01*
X169581285Y-95884794D02*
X169641761Y-95945270D01*
X169641761Y-95945270D02*
X169702238Y-96066222D01*
X169702238Y-96066222D02*
X169702238Y-96187175D01*
X169702238Y-96187175D02*
X169641761Y-96368603D01*
X169641761Y-96368603D02*
X168916047Y-97094318D01*
X168916047Y-97094318D02*
X169702238Y-97094318D01*
D10*
X164353771Y-91285999D02*
X164068057Y-91485999D01*
X164353771Y-91628856D02*
X163753771Y-91628856D01*
X163753771Y-91628856D02*
X163753771Y-91400285D01*
X163753771Y-91400285D02*
X163782342Y-91343142D01*
X163782342Y-91343142D02*
X163810914Y-91314571D01*
X163810914Y-91314571D02*
X163868057Y-91285999D01*
X163868057Y-91285999D02*
X163953771Y-91285999D01*
X163953771Y-91285999D02*
X164010914Y-91314571D01*
X164010914Y-91314571D02*
X164039485Y-91343142D01*
X164039485Y-91343142D02*
X164068057Y-91400285D01*
X164068057Y-91400285D02*
X164068057Y-91628856D01*
X163753771Y-90743142D02*
X163753771Y-91028856D01*
X163753771Y-91028856D02*
X164039485Y-91057428D01*
X164039485Y-91057428D02*
X164010914Y-91028856D01*
X164010914Y-91028856D02*
X163982342Y-90971714D01*
X163982342Y-90971714D02*
X163982342Y-90828856D01*
X163982342Y-90828856D02*
X164010914Y-90771714D01*
X164010914Y-90771714D02*
X164039485Y-90743142D01*
X164039485Y-90743142D02*
X164096628Y-90714571D01*
X164096628Y-90714571D02*
X164239485Y-90714571D01*
X164239485Y-90714571D02*
X164296628Y-90743142D01*
X164296628Y-90743142D02*
X164325200Y-90771714D01*
X164325200Y-90771714D02*
X164353771Y-90828856D01*
X164353771Y-90828856D02*
X164353771Y-90971714D01*
X164353771Y-90971714D02*
X164325200Y-91028856D01*
X164325200Y-91028856D02*
X164296628Y-91057428D01*
X124868000Y-98256628D02*
X124839428Y-98285200D01*
X124839428Y-98285200D02*
X124753714Y-98313771D01*
X124753714Y-98313771D02*
X124696571Y-98313771D01*
X124696571Y-98313771D02*
X124610857Y-98285200D01*
X124610857Y-98285200D02*
X124553714Y-98228057D01*
X124553714Y-98228057D02*
X124525143Y-98170914D01*
X124525143Y-98170914D02*
X124496571Y-98056628D01*
X124496571Y-98056628D02*
X124496571Y-97970914D01*
X124496571Y-97970914D02*
X124525143Y-97856628D01*
X124525143Y-97856628D02*
X124553714Y-97799485D01*
X124553714Y-97799485D02*
X124610857Y-97742342D01*
X124610857Y-97742342D02*
X124696571Y-97713771D01*
X124696571Y-97713771D02*
X124753714Y-97713771D01*
X124753714Y-97713771D02*
X124839428Y-97742342D01*
X124839428Y-97742342D02*
X124868000Y-97770914D01*
X125382286Y-97713771D02*
X125268000Y-97713771D01*
X125268000Y-97713771D02*
X125210857Y-97742342D01*
X125210857Y-97742342D02*
X125182286Y-97770914D01*
X125182286Y-97770914D02*
X125125143Y-97856628D01*
X125125143Y-97856628D02*
X125096571Y-97970914D01*
X125096571Y-97970914D02*
X125096571Y-98199485D01*
X125096571Y-98199485D02*
X125125143Y-98256628D01*
X125125143Y-98256628D02*
X125153714Y-98285200D01*
X125153714Y-98285200D02*
X125210857Y-98313771D01*
X125210857Y-98313771D02*
X125325143Y-98313771D01*
X125325143Y-98313771D02*
X125382286Y-98285200D01*
X125382286Y-98285200D02*
X125410857Y-98256628D01*
X125410857Y-98256628D02*
X125439428Y-98199485D01*
X125439428Y-98199485D02*
X125439428Y-98056628D01*
X125439428Y-98056628D02*
X125410857Y-97999485D01*
X125410857Y-97999485D02*
X125382286Y-97970914D01*
X125382286Y-97970914D02*
X125325143Y-97942342D01*
X125325143Y-97942342D02*
X125210857Y-97942342D01*
X125210857Y-97942342D02*
X125153714Y-97970914D01*
X125153714Y-97970914D02*
X125125143Y-97999485D01*
X125125143Y-97999485D02*
X125096571Y-98056628D01*
X146872000Y-90947771D02*
X146672000Y-90662057D01*
X146529143Y-90947771D02*
X146529143Y-90347771D01*
X146529143Y-90347771D02*
X146757714Y-90347771D01*
X146757714Y-90347771D02*
X146814857Y-90376342D01*
X146814857Y-90376342D02*
X146843428Y-90404914D01*
X146843428Y-90404914D02*
X146872000Y-90462057D01*
X146872000Y-90462057D02*
X146872000Y-90547771D01*
X146872000Y-90547771D02*
X146843428Y-90604914D01*
X146843428Y-90604914D02*
X146814857Y-90633485D01*
X146814857Y-90633485D02*
X146757714Y-90662057D01*
X146757714Y-90662057D02*
X146529143Y-90662057D01*
X147072000Y-90347771D02*
X147443428Y-90347771D01*
X147443428Y-90347771D02*
X147243428Y-90576342D01*
X147243428Y-90576342D02*
X147329143Y-90576342D01*
X147329143Y-90576342D02*
X147386286Y-90604914D01*
X147386286Y-90604914D02*
X147414857Y-90633485D01*
X147414857Y-90633485D02*
X147443428Y-90690628D01*
X147443428Y-90690628D02*
X147443428Y-90833485D01*
X147443428Y-90833485D02*
X147414857Y-90890628D01*
X147414857Y-90890628D02*
X147386286Y-90919200D01*
X147386286Y-90919200D02*
X147329143Y-90947771D01*
X147329143Y-90947771D02*
X147157714Y-90947771D01*
X147157714Y-90947771D02*
X147100571Y-90919200D01*
X147100571Y-90919200D02*
X147072000Y-90890628D01*
X167540000Y-83905628D02*
X167511428Y-83934200D01*
X167511428Y-83934200D02*
X167425714Y-83962771D01*
X167425714Y-83962771D02*
X167368571Y-83962771D01*
X167368571Y-83962771D02*
X167282857Y-83934200D01*
X167282857Y-83934200D02*
X167225714Y-83877057D01*
X167225714Y-83877057D02*
X167197143Y-83819914D01*
X167197143Y-83819914D02*
X167168571Y-83705628D01*
X167168571Y-83705628D02*
X167168571Y-83619914D01*
X167168571Y-83619914D02*
X167197143Y-83505628D01*
X167197143Y-83505628D02*
X167225714Y-83448485D01*
X167225714Y-83448485D02*
X167282857Y-83391342D01*
X167282857Y-83391342D02*
X167368571Y-83362771D01*
X167368571Y-83362771D02*
X167425714Y-83362771D01*
X167425714Y-83362771D02*
X167511428Y-83391342D01*
X167511428Y-83391342D02*
X167540000Y-83419914D01*
X168111428Y-83962771D02*
X167768571Y-83962771D01*
X167940000Y-83962771D02*
X167940000Y-83362771D01*
X167940000Y-83362771D02*
X167882857Y-83448485D01*
X167882857Y-83448485D02*
X167825714Y-83505628D01*
X167825714Y-83505628D02*
X167768571Y-83534200D01*
X174997628Y-93952999D02*
X175026200Y-93981571D01*
X175026200Y-93981571D02*
X175054771Y-94067285D01*
X175054771Y-94067285D02*
X175054771Y-94124428D01*
X175054771Y-94124428D02*
X175026200Y-94210142D01*
X175026200Y-94210142D02*
X174969057Y-94267285D01*
X174969057Y-94267285D02*
X174911914Y-94295856D01*
X174911914Y-94295856D02*
X174797628Y-94324428D01*
X174797628Y-94324428D02*
X174711914Y-94324428D01*
X174711914Y-94324428D02*
X174597628Y-94295856D01*
X174597628Y-94295856D02*
X174540485Y-94267285D01*
X174540485Y-94267285D02*
X174483342Y-94210142D01*
X174483342Y-94210142D02*
X174454771Y-94124428D01*
X174454771Y-94124428D02*
X174454771Y-94067285D01*
X174454771Y-94067285D02*
X174483342Y-93981571D01*
X174483342Y-93981571D02*
X174511914Y-93952999D01*
X174511914Y-93724428D02*
X174483342Y-93695856D01*
X174483342Y-93695856D02*
X174454771Y-93638714D01*
X174454771Y-93638714D02*
X174454771Y-93495856D01*
X174454771Y-93495856D02*
X174483342Y-93438714D01*
X174483342Y-93438714D02*
X174511914Y-93410142D01*
X174511914Y-93410142D02*
X174569057Y-93381571D01*
X174569057Y-93381571D02*
X174626200Y-93381571D01*
X174626200Y-93381571D02*
X174711914Y-93410142D01*
X174711914Y-93410142D02*
X175054771Y-93752999D01*
X175054771Y-93752999D02*
X175054771Y-93381571D01*
X124868000Y-99907628D02*
X124839428Y-99936200D01*
X124839428Y-99936200D02*
X124753714Y-99964771D01*
X124753714Y-99964771D02*
X124696571Y-99964771D01*
X124696571Y-99964771D02*
X124610857Y-99936200D01*
X124610857Y-99936200D02*
X124553714Y-99879057D01*
X124553714Y-99879057D02*
X124525143Y-99821914D01*
X124525143Y-99821914D02*
X124496571Y-99707628D01*
X124496571Y-99707628D02*
X124496571Y-99621914D01*
X124496571Y-99621914D02*
X124525143Y-99507628D01*
X124525143Y-99507628D02*
X124553714Y-99450485D01*
X124553714Y-99450485D02*
X124610857Y-99393342D01*
X124610857Y-99393342D02*
X124696571Y-99364771D01*
X124696571Y-99364771D02*
X124753714Y-99364771D01*
X124753714Y-99364771D02*
X124839428Y-99393342D01*
X124839428Y-99393342D02*
X124868000Y-99421914D01*
X125382286Y-99564771D02*
X125382286Y-99964771D01*
X125239428Y-99336200D02*
X125096571Y-99764771D01*
X125096571Y-99764771D02*
X125468000Y-99764771D01*
X132361000Y-98313771D02*
X132161000Y-98028057D01*
X132018143Y-98313771D02*
X132018143Y-97713771D01*
X132018143Y-97713771D02*
X132246714Y-97713771D01*
X132246714Y-97713771D02*
X132303857Y-97742342D01*
X132303857Y-97742342D02*
X132332428Y-97770914D01*
X132332428Y-97770914D02*
X132361000Y-97828057D01*
X132361000Y-97828057D02*
X132361000Y-97913771D01*
X132361000Y-97913771D02*
X132332428Y-97970914D01*
X132332428Y-97970914D02*
X132303857Y-97999485D01*
X132303857Y-97999485D02*
X132246714Y-98028057D01*
X132246714Y-98028057D02*
X132018143Y-98028057D01*
X132646714Y-98313771D02*
X132761000Y-98313771D01*
X132761000Y-98313771D02*
X132818143Y-98285200D01*
X132818143Y-98285200D02*
X132846714Y-98256628D01*
X132846714Y-98256628D02*
X132903857Y-98170914D01*
X132903857Y-98170914D02*
X132932428Y-98056628D01*
X132932428Y-98056628D02*
X132932428Y-97828057D01*
X132932428Y-97828057D02*
X132903857Y-97770914D01*
X132903857Y-97770914D02*
X132875286Y-97742342D01*
X132875286Y-97742342D02*
X132818143Y-97713771D01*
X132818143Y-97713771D02*
X132703857Y-97713771D01*
X132703857Y-97713771D02*
X132646714Y-97742342D01*
X132646714Y-97742342D02*
X132618143Y-97770914D01*
X132618143Y-97770914D02*
X132589571Y-97828057D01*
X132589571Y-97828057D02*
X132589571Y-97970914D01*
X132589571Y-97970914D02*
X132618143Y-98028057D01*
X132618143Y-98028057D02*
X132646714Y-98056628D01*
X132646714Y-98056628D02*
X132703857Y-98085200D01*
X132703857Y-98085200D02*
X132818143Y-98085200D01*
X132818143Y-98085200D02*
X132875286Y-98056628D01*
X132875286Y-98056628D02*
X132903857Y-98028057D01*
X132903857Y-98028057D02*
X132932428Y-97970914D01*
X163948628Y-87602999D02*
X163977200Y-87631571D01*
X163977200Y-87631571D02*
X164005771Y-87717285D01*
X164005771Y-87717285D02*
X164005771Y-87774428D01*
X164005771Y-87774428D02*
X163977200Y-87860142D01*
X163977200Y-87860142D02*
X163920057Y-87917285D01*
X163920057Y-87917285D02*
X163862914Y-87945856D01*
X163862914Y-87945856D02*
X163748628Y-87974428D01*
X163748628Y-87974428D02*
X163662914Y-87974428D01*
X163662914Y-87974428D02*
X163548628Y-87945856D01*
X163548628Y-87945856D02*
X163491485Y-87917285D01*
X163491485Y-87917285D02*
X163434342Y-87860142D01*
X163434342Y-87860142D02*
X163405771Y-87774428D01*
X163405771Y-87774428D02*
X163405771Y-87717285D01*
X163405771Y-87717285D02*
X163434342Y-87631571D01*
X163434342Y-87631571D02*
X163462914Y-87602999D01*
X163405771Y-87402999D02*
X163405771Y-87031571D01*
X163405771Y-87031571D02*
X163634342Y-87231571D01*
X163634342Y-87231571D02*
X163634342Y-87145856D01*
X163634342Y-87145856D02*
X163662914Y-87088714D01*
X163662914Y-87088714D02*
X163691485Y-87060142D01*
X163691485Y-87060142D02*
X163748628Y-87031571D01*
X163748628Y-87031571D02*
X163891485Y-87031571D01*
X163891485Y-87031571D02*
X163948628Y-87060142D01*
X163948628Y-87060142D02*
X163977200Y-87088714D01*
X163977200Y-87088714D02*
X164005771Y-87145856D01*
X164005771Y-87145856D02*
X164005771Y-87317285D01*
X164005771Y-87317285D02*
X163977200Y-87374428D01*
X163977200Y-87374428D02*
X163948628Y-87402999D01*
X122171104Y-91997905D02*
X122171104Y-91521715D01*
X122456819Y-92093143D02*
X121456819Y-91759810D01*
X121456819Y-91759810D02*
X122456819Y-91426477D01*
X121790152Y-91093143D02*
X122456819Y-91093143D01*
X121885390Y-91093143D02*
X121837771Y-91045524D01*
X121837771Y-91045524D02*
X121790152Y-90950286D01*
X121790152Y-90950286D02*
X121790152Y-90807429D01*
X121790152Y-90807429D02*
X121837771Y-90712191D01*
X121837771Y-90712191D02*
X121933009Y-90664572D01*
X121933009Y-90664572D02*
X122456819Y-90664572D01*
X121790152Y-90331238D02*
X121790152Y-89950286D01*
X121456819Y-90188381D02*
X122313961Y-90188381D01*
X122313961Y-90188381D02*
X122409200Y-90140762D01*
X122409200Y-90140762D02*
X122456819Y-90045524D01*
X122456819Y-90045524D02*
X122456819Y-89950286D01*
X122409200Y-89236000D02*
X122456819Y-89331238D01*
X122456819Y-89331238D02*
X122456819Y-89521714D01*
X122456819Y-89521714D02*
X122409200Y-89616952D01*
X122409200Y-89616952D02*
X122313961Y-89664571D01*
X122313961Y-89664571D02*
X121933009Y-89664571D01*
X121933009Y-89664571D02*
X121837771Y-89616952D01*
X121837771Y-89616952D02*
X121790152Y-89521714D01*
X121790152Y-89521714D02*
X121790152Y-89331238D01*
X121790152Y-89331238D02*
X121837771Y-89236000D01*
X121837771Y-89236000D02*
X121933009Y-89188381D01*
X121933009Y-89188381D02*
X122028247Y-89188381D01*
X122028247Y-89188381D02*
X122123485Y-89664571D01*
X121790152Y-88759809D02*
X122456819Y-88759809D01*
X121885390Y-88759809D02*
X121837771Y-88712190D01*
X121837771Y-88712190D02*
X121790152Y-88616952D01*
X121790152Y-88616952D02*
X121790152Y-88474095D01*
X121790152Y-88474095D02*
X121837771Y-88378857D01*
X121837771Y-88378857D02*
X121933009Y-88331238D01*
X121933009Y-88331238D02*
X122456819Y-88331238D01*
X121790152Y-87855047D02*
X122456819Y-87855047D01*
X121885390Y-87855047D02*
X121837771Y-87807428D01*
X121837771Y-87807428D02*
X121790152Y-87712190D01*
X121790152Y-87712190D02*
X121790152Y-87569333D01*
X121790152Y-87569333D02*
X121837771Y-87474095D01*
X121837771Y-87474095D02*
X121933009Y-87426476D01*
X121933009Y-87426476D02*
X122456819Y-87426476D01*
X122456819Y-86521714D02*
X121933009Y-86521714D01*
X121933009Y-86521714D02*
X121837771Y-86569333D01*
X121837771Y-86569333D02*
X121790152Y-86664571D01*
X121790152Y-86664571D02*
X121790152Y-86855047D01*
X121790152Y-86855047D02*
X121837771Y-86950285D01*
X122409200Y-86521714D02*
X122456819Y-86616952D01*
X122456819Y-86616952D02*
X122456819Y-86855047D01*
X122456819Y-86855047D02*
X122409200Y-86950285D01*
X122409200Y-86950285D02*
X122313961Y-86997904D01*
X122313961Y-86997904D02*
X122218723Y-86997904D01*
X122218723Y-86997904D02*
X122123485Y-86950285D01*
X122123485Y-86950285D02*
X122075866Y-86855047D01*
X122075866Y-86855047D02*
X122075866Y-86616952D01*
X122075866Y-86616952D02*
X122028247Y-86521714D01*
X122171104Y-85331237D02*
X122171104Y-84855047D01*
X122456819Y-85426475D02*
X121456819Y-85093142D01*
X121456819Y-85093142D02*
X122456819Y-84759809D01*
X122456819Y-84426475D02*
X121790152Y-84426475D01*
X121980628Y-84426475D02*
X121885390Y-84378856D01*
X121885390Y-84378856D02*
X121837771Y-84331237D01*
X121837771Y-84331237D02*
X121790152Y-84235999D01*
X121790152Y-84235999D02*
X121790152Y-84140761D01*
X122409200Y-83426475D02*
X122456819Y-83521713D01*
X122456819Y-83521713D02*
X122456819Y-83712189D01*
X122456819Y-83712189D02*
X122409200Y-83807427D01*
X122409200Y-83807427D02*
X122313961Y-83855046D01*
X122313961Y-83855046D02*
X121933009Y-83855046D01*
X121933009Y-83855046D02*
X121837771Y-83807427D01*
X121837771Y-83807427D02*
X121790152Y-83712189D01*
X121790152Y-83712189D02*
X121790152Y-83521713D01*
X121790152Y-83521713D02*
X121837771Y-83426475D01*
X121837771Y-83426475D02*
X121933009Y-83378856D01*
X121933009Y-83378856D02*
X122028247Y-83378856D01*
X122028247Y-83378856D02*
X122123485Y-83855046D01*
X122456819Y-82521713D02*
X121933009Y-82521713D01*
X121933009Y-82521713D02*
X121837771Y-82569332D01*
X121837771Y-82569332D02*
X121790152Y-82664570D01*
X121790152Y-82664570D02*
X121790152Y-82855046D01*
X121790152Y-82855046D02*
X121837771Y-82950284D01*
X122409200Y-82521713D02*
X122456819Y-82616951D01*
X122456819Y-82616951D02*
X122456819Y-82855046D01*
X122456819Y-82855046D02*
X122409200Y-82950284D01*
X122409200Y-82950284D02*
X122313961Y-82997903D01*
X122313961Y-82997903D02*
X122218723Y-82997903D01*
X122218723Y-82997903D02*
X122123485Y-82950284D01*
X122123485Y-82950284D02*
X122075866Y-82855046D01*
X122075866Y-82855046D02*
X122075866Y-82616951D01*
X122075866Y-82616951D02*
X122028247Y-82521713D01*
D12*
%TO.C,C5*%
X130161420Y-99185000D02*
X130442580Y-99185000D01*
X130161420Y-100205000D02*
X130442580Y-100205000D01*
%TO.C,R4*%
X154829742Y-84186500D02*
X155304258Y-84186500D01*
X154829742Y-85231500D02*
X155304258Y-85231500D01*
%TO.C,D1*%
X179198600Y-99268950D02*
X180668600Y-99268950D01*
X180668600Y-99268950D02*
X180668600Y-96983950D01*
X179198600Y-96983950D02*
X179198600Y-99268950D01*
%TO.C,R8*%
X146416500Y-85454258D02*
X146416500Y-84979742D01*
X147461500Y-85454258D02*
X147461500Y-84979742D01*
%TO.C,R6*%
X148575500Y-85454258D02*
X148575500Y-84979742D01*
X149620500Y-85454258D02*
X149620500Y-84979742D01*
D13*
%TO.C,S1*%
X173419000Y-80363000D02*
X168719000Y-80363000D01*
X173419000Y-80213000D02*
X173419000Y-80363000D01*
X173419000Y-77013000D02*
X173419000Y-75863000D01*
X173419000Y-75863000D02*
X168719000Y-75863000D01*
X168719000Y-80363000D02*
X168719000Y-80213000D01*
X168719000Y-75863000D02*
X168719000Y-77013000D01*
X167269000Y-79613000D02*
X167269000Y-79613000D01*
X167269000Y-79513000D02*
X167269000Y-79513000D01*
X167269000Y-79513000D02*
G75*
G03*
X167269000Y-79613000I0J-50000D01*
G01*
X167269000Y-79613000D02*
G75*
G03*
X167269000Y-79513000I0J50000D01*
G01*
%TO.C,G2*%
G36*
X177111045Y-85657286D02*
G01*
X170181152Y-85657286D01*
X170181152Y-89014177D01*
X178321254Y-89014177D01*
X178321254Y-85282697D01*
X178681436Y-85282697D01*
X178681436Y-89374359D01*
X169820971Y-89374359D01*
X169820971Y-85282697D01*
X177111045Y-85282697D01*
X177111045Y-85657286D01*
G37*
G36*
X175641504Y-88423480D02*
G01*
X175338952Y-88423480D01*
X175338952Y-87429379D01*
X174575367Y-87429379D01*
X174575367Y-88423480D01*
X174287222Y-88423480D01*
X174287222Y-86320020D01*
X174575367Y-86320020D01*
X174575367Y-87184455D01*
X175338523Y-87184455D01*
X175346155Y-86327223D01*
X175493830Y-86323117D01*
X175641504Y-86319012D01*
X175641504Y-88423480D01*
G37*
G36*
X172652202Y-90503583D02*
G01*
X172699211Y-90528379D01*
X172732307Y-90570937D01*
X172739829Y-90592171D01*
X172741788Y-90649636D01*
X172720817Y-90697650D01*
X172682357Y-90731795D01*
X172631849Y-90747648D01*
X172574736Y-90740789D01*
X172562617Y-90736138D01*
X172523125Y-90705172D01*
X172501524Y-90659584D01*
X172498353Y-90607758D01*
X172514156Y-90558080D01*
X172548637Y-90519511D01*
X172599328Y-90499608D01*
X172652202Y-90503583D01*
G37*
G36*
X171510222Y-89939619D02*
G01*
X171917227Y-89943446D01*
X171917227Y-90101926D01*
X171603869Y-90105808D01*
X171290511Y-90109691D01*
X171290511Y-90498125D01*
X171897054Y-90498125D01*
X171892734Y-90580967D01*
X171888413Y-90663809D01*
X171290511Y-90671597D01*
X171290511Y-91145901D01*
X171611073Y-91149778D01*
X171931635Y-91153656D01*
X171935955Y-91236497D01*
X171940276Y-91319339D01*
X171103217Y-91319339D01*
X171103217Y-89935793D01*
X171510222Y-89939619D01*
G37*
G36*
X173812580Y-90512960D02*
G01*
X173845339Y-90543300D01*
X173869035Y-90587873D01*
X173877550Y-90633601D01*
X173875701Y-90647911D01*
X173850989Y-90695757D01*
X173808945Y-90731136D01*
X173758175Y-90749321D01*
X173707284Y-90745588D01*
X173701667Y-90743480D01*
X173657346Y-90711541D01*
X173632442Y-90665279D01*
X173627652Y-90612273D01*
X173643668Y-90560103D01*
X173680868Y-90516592D01*
X173719404Y-90501597D01*
X173768418Y-90500289D01*
X173812580Y-90512960D01*
G37*
G36*
X174938015Y-90510052D02*
G01*
X174976487Y-90541282D01*
X174999243Y-90584991D01*
X175004500Y-90634353D01*
X174990473Y-90682542D01*
X174955379Y-90722734D01*
X174945967Y-90729034D01*
X174909134Y-90749418D01*
X174881502Y-90755007D01*
X174849343Y-90746618D01*
X174824557Y-90736256D01*
X174782610Y-90705236D01*
X174761262Y-90662434D01*
X174758844Y-90614359D01*
X174773687Y-90567518D01*
X174804123Y-90528417D01*
X174848484Y-90503565D01*
X174885612Y-90498125D01*
X174938015Y-90510052D01*
G37*
G36*
X176066518Y-89939947D02*
G01*
X176167369Y-89943446D01*
X176174889Y-91146452D01*
X176448311Y-91146452D01*
X176448311Y-91319339D01*
X176073270Y-91319339D01*
X175956147Y-91319090D01*
X175864838Y-91318238D01*
X175796346Y-91316627D01*
X175747674Y-91314102D01*
X175715825Y-91310504D01*
X175697801Y-91305679D01*
X175690605Y-91299469D01*
X175690568Y-91299376D01*
X175686791Y-91273257D01*
X175686571Y-91231947D01*
X175687419Y-91216535D01*
X175691929Y-91153656D01*
X175972871Y-91145408D01*
X175972871Y-90114275D01*
X175820945Y-90146253D01*
X175669020Y-90178230D01*
X175673271Y-90089939D01*
X175677522Y-90001647D01*
X175821595Y-89969048D01*
X175934436Y-89948404D01*
X176034277Y-89939831D01*
X176066518Y-89939947D01*
G37*
G36*
X170148736Y-89939473D02*
G01*
X170264735Y-89944220D01*
X170357229Y-89952416D01*
X170431463Y-89965542D01*
X170492680Y-89985082D01*
X170546123Y-90012519D01*
X170597035Y-90049336D01*
X170626359Y-90074572D01*
X170692455Y-90147338D01*
X170742518Y-90233798D01*
X170777534Y-90336978D01*
X170798489Y-90459904D01*
X170806367Y-90605602D01*
X170806483Y-90627791D01*
X170799981Y-90778562D01*
X170779866Y-90906263D01*
X170745220Y-91013688D01*
X170695128Y-91103632D01*
X170628673Y-91178890D01*
X170624629Y-91182564D01*
X170570660Y-91225667D01*
X170513755Y-91258458D01*
X170448786Y-91282380D01*
X170370623Y-91298874D01*
X170274139Y-91309384D01*
X170154206Y-91315352D01*
X170152338Y-91315410D01*
X170074786Y-91317105D01*
X170007507Y-91317248D01*
X169955713Y-91315932D01*
X169924618Y-91313251D01*
X169918220Y-91311221D01*
X169916046Y-91295000D01*
X169914019Y-91252825D01*
X169912182Y-91187559D01*
X169910581Y-91102061D01*
X169909258Y-90999193D01*
X169908260Y-90881816D01*
X169907631Y-90752791D01*
X169907414Y-90616523D01*
X169907414Y-90090747D01*
X170109116Y-90090747D01*
X170109116Y-91165002D01*
X170227976Y-91155567D01*
X170311509Y-91145100D01*
X170378790Y-91126875D01*
X170425767Y-91106364D01*
X170475666Y-91077632D01*
X170509220Y-91046260D01*
X170537599Y-91001086D01*
X170544520Y-90987664D01*
X170577102Y-90900717D01*
X170598942Y-90794173D01*
X170609179Y-90675503D01*
X170606954Y-90552178D01*
X170601331Y-90494523D01*
X170587716Y-90400132D01*
X170572486Y-90328743D01*
X170553634Y-90274546D01*
X170529150Y-90231731D01*
X170497880Y-90195341D01*
X170455340Y-90160101D01*
X170405176Y-90134595D01*
X170341108Y-90116676D01*
X170256853Y-90104198D01*
X170220772Y-90100661D01*
X170109116Y-90090747D01*
X169907414Y-90090747D01*
X169907414Y-89932917D01*
X170148736Y-89939473D01*
G37*
G36*
X174976486Y-89928237D02*
G01*
X175054304Y-89949117D01*
X175118843Y-89986983D01*
X175167576Y-90033812D01*
X175226184Y-90115896D01*
X175270348Y-90213406D01*
X175300652Y-90328827D01*
X175317678Y-90464643D01*
X175322010Y-90623337D01*
X175320613Y-90685407D01*
X175310994Y-90834927D01*
X175292473Y-90959770D01*
X175264094Y-91062956D01*
X175224900Y-91147506D01*
X175173935Y-91216440D01*
X175142825Y-91246800D01*
X175057158Y-91303769D01*
X174960665Y-91336481D01*
X174859337Y-91343775D01*
X174759167Y-91324489D01*
X174753044Y-91322361D01*
X174699464Y-91299349D01*
X174648576Y-91271364D01*
X174629704Y-91258467D01*
X174584744Y-91211686D01*
X174540658Y-91143434D01*
X174501291Y-91060901D01*
X174470487Y-90971279D01*
X174465030Y-90950470D01*
X174452598Y-90878774D01*
X174444279Y-90786798D01*
X174440802Y-90700636D01*
X174635122Y-90700636D01*
X174641142Y-90821447D01*
X174655577Y-90921950D01*
X174678912Y-91005910D01*
X174701614Y-91058466D01*
X174747781Y-91125934D01*
X174803792Y-91169761D01*
X174865981Y-91188644D01*
X174930684Y-91181280D01*
X174979462Y-91157208D01*
X175027941Y-91114570D01*
X175065919Y-91057598D01*
X175094164Y-90983564D01*
X175113440Y-90889743D01*
X175124514Y-90773409D01*
X175128150Y-90631836D01*
X175128153Y-90627791D01*
X175123822Y-90478218D01*
X175110463Y-90354585D01*
X175087526Y-90255288D01*
X175054460Y-90178728D01*
X175010713Y-90123303D01*
X174955737Y-90087413D01*
X174940239Y-90081328D01*
X174899407Y-90069597D01*
X174866571Y-90069666D01*
X174825993Y-90081997D01*
X174818341Y-90084904D01*
X174764430Y-90113904D01*
X174721502Y-90156798D01*
X174688497Y-90216337D01*
X174664355Y-90295272D01*
X174648016Y-90396356D01*
X174638421Y-90522341D01*
X174637034Y-90555754D01*
X174635122Y-90700636D01*
X174440802Y-90700636D01*
X174440077Y-90682668D01*
X174439998Y-90574511D01*
X174444048Y-90470455D01*
X174452231Y-90378627D01*
X174464552Y-90307155D01*
X174464610Y-90306922D01*
X174504348Y-90182527D01*
X174556475Y-90083130D01*
X174621922Y-90007293D01*
X174688910Y-89960177D01*
X174730133Y-89940155D01*
X174769247Y-89928499D01*
X174816717Y-89923097D01*
X174878922Y-89921835D01*
X174976486Y-89928237D01*
G37*
G36*
X172681989Y-89924286D02*
G01*
X172755483Y-89936672D01*
X172798092Y-89951628D01*
X172877849Y-90006184D01*
X172944200Y-90085917D01*
X172996855Y-90190347D01*
X173035524Y-90318996D01*
X173043312Y-90356674D01*
X173053489Y-90433366D01*
X173059195Y-90526791D01*
X173060629Y-90629490D01*
X173057992Y-90734002D01*
X173051483Y-90832868D01*
X173041302Y-90918628D01*
X173027649Y-90983821D01*
X173026398Y-90987972D01*
X172978771Y-91109485D01*
X172919381Y-91205017D01*
X172847862Y-91275052D01*
X172779021Y-91314168D01*
X172730062Y-91327956D01*
X172665224Y-91337771D01*
X172597315Y-91342358D01*
X172539144Y-91340462D01*
X172527560Y-91338817D01*
X172494748Y-91327866D01*
X172449136Y-91306432D01*
X172412393Y-91286031D01*
X172338429Y-91225876D01*
X172276300Y-91142504D01*
X172228933Y-91040102D01*
X172219010Y-91009583D01*
X172193604Y-90897341D01*
X172178680Y-90771333D01*
X172173923Y-90638143D01*
X172176452Y-90571694D01*
X172374687Y-90571694D01*
X172374889Y-90736964D01*
X172387440Y-90876739D01*
X172412294Y-90990906D01*
X172449404Y-91079353D01*
X172498726Y-91141966D01*
X172560213Y-91178631D01*
X172624654Y-91189346D01*
X172666439Y-91181361D01*
X172711062Y-91161318D01*
X172717522Y-91157208D01*
X172766001Y-91114570D01*
X172803979Y-91057598D01*
X172832224Y-90983564D01*
X172851500Y-90889743D01*
X172862574Y-90773409D01*
X172866211Y-90631836D01*
X172866213Y-90627791D01*
X172864973Y-90520855D01*
X172860961Y-90436950D01*
X172853736Y-90370384D01*
X172842857Y-90315468D01*
X172841665Y-90310831D01*
X172807886Y-90215458D01*
X172763356Y-90142935D01*
X172709657Y-90094639D01*
X172648376Y-90071949D01*
X172581096Y-90076244D01*
X172574258Y-90078163D01*
X172516260Y-90104487D01*
X172469538Y-90146668D01*
X172433166Y-90206995D01*
X172406219Y-90287757D01*
X172387771Y-90391243D01*
X172376897Y-90519742D01*
X172374687Y-90571694D01*
X172176452Y-90571694D01*
X172179015Y-90504355D01*
X172193640Y-90376553D01*
X172217483Y-90261322D01*
X172250226Y-90165246D01*
X172260646Y-90143259D01*
X172308581Y-90069407D01*
X172369639Y-90004416D01*
X172435699Y-89956371D01*
X172460639Y-89944149D01*
X172523225Y-89927774D01*
X172600789Y-89921237D01*
X172681989Y-89924286D01*
G37*
G36*
X173851394Y-89931225D02*
G01*
X173938498Y-89959044D01*
X174011182Y-90007439D01*
X174071421Y-90078241D01*
X174121189Y-90173282D01*
X174162459Y-90294392D01*
X174166952Y-90310831D01*
X174179677Y-90379176D01*
X174188243Y-90468133D01*
X174192643Y-90569801D01*
X174192874Y-90676278D01*
X174188932Y-90779663D01*
X174180811Y-90872054D01*
X174168507Y-90945551D01*
X174167319Y-90950470D01*
X174126469Y-91076023D01*
X174072404Y-91176522D01*
X174004511Y-91252821D01*
X173922178Y-91305778D01*
X173909318Y-91311439D01*
X173859876Y-91326359D01*
X173798328Y-91337241D01*
X173736587Y-91342677D01*
X173686564Y-91341263D01*
X173674913Y-91339117D01*
X173574788Y-91304371D01*
X173495925Y-91254021D01*
X173433192Y-91184026D01*
X173394782Y-91118502D01*
X173367122Y-91058476D01*
X173346444Y-91000400D01*
X173331813Y-90938551D01*
X173322296Y-90867204D01*
X173316959Y-90780636D01*
X173314869Y-90673122D01*
X173314838Y-90662919D01*
X173501616Y-90662919D01*
X173508485Y-90781642D01*
X173522825Y-90892933D01*
X173544391Y-90990905D01*
X173572940Y-91069671D01*
X173589801Y-91100080D01*
X173638413Y-91149999D01*
X173700695Y-91178780D01*
X173769240Y-91184931D01*
X173836641Y-91166963D01*
X173859191Y-91154307D01*
X173897225Y-91115706D01*
X173932454Y-91054506D01*
X173962077Y-90976919D01*
X173983297Y-90889161D01*
X173986015Y-90872714D01*
X173993187Y-90802612D01*
X173996652Y-90715922D01*
X173996676Y-90619828D01*
X173993525Y-90521516D01*
X173987463Y-90428169D01*
X173978757Y-90346973D01*
X173967670Y-90285112D01*
X173963799Y-90271008D01*
X173927201Y-90188015D01*
X173878378Y-90126807D01*
X173821302Y-90087767D01*
X173759946Y-90071280D01*
X173698283Y-90077726D01*
X173640286Y-90107491D01*
X173589927Y-90160956D01*
X173553736Y-90231463D01*
X173528278Y-90321037D01*
X173511268Y-90426730D01*
X173502462Y-90542653D01*
X173501616Y-90662919D01*
X173314838Y-90662919D01*
X173314732Y-90627791D01*
X173315958Y-90509718D01*
X173320203Y-90414885D01*
X173328317Y-90337798D01*
X173341149Y-90272963D01*
X173359547Y-90214889D01*
X173384362Y-90158080D01*
X173388714Y-90149281D01*
X173444902Y-90056628D01*
X173509262Y-89990075D01*
X173585547Y-89947250D01*
X173677509Y-89925779D01*
X173747896Y-89922151D01*
X173851394Y-89931225D01*
G37*
G36*
X177185717Y-89925996D02*
G01*
X177260515Y-89936221D01*
X177312746Y-89951732D01*
X177398019Y-90003139D01*
X177464589Y-90069430D01*
X177511192Y-90146274D01*
X177536560Y-90229341D01*
X177539427Y-90314299D01*
X177518528Y-90396820D01*
X177472596Y-90472571D01*
X177466962Y-90479170D01*
X177426217Y-90517269D01*
X177380189Y-90548937D01*
X177366763Y-90555767D01*
X177312478Y-90580071D01*
X177370552Y-90606259D01*
X177432805Y-90645466D01*
X177490596Y-90701315D01*
X177535872Y-90764754D01*
X177558367Y-90817381D01*
X177572281Y-90915325D01*
X177563932Y-91014674D01*
X177535229Y-91108482D01*
X177488080Y-91189807D01*
X177442919Y-91237461D01*
X177380974Y-91275916D01*
X177298730Y-91307466D01*
X177204235Y-91330361D01*
X177105539Y-91342852D01*
X177010693Y-91343190D01*
X176974176Y-91339321D01*
X176910979Y-91328660D01*
X176846917Y-91315373D01*
X176788713Y-91301151D01*
X176743089Y-91287687D01*
X176716767Y-91276673D01*
X176713326Y-91273659D01*
X176708254Y-91251794D01*
X176705010Y-91211366D01*
X176704340Y-91177330D01*
X176704737Y-91137293D01*
X176708861Y-91112902D01*
X176721648Y-91102786D01*
X176748031Y-91105572D01*
X176792945Y-91119888D01*
X176844510Y-91138352D01*
X176948552Y-91166215D01*
X177051560Y-91176462D01*
X177148194Y-91169666D01*
X177233113Y-91146399D01*
X177300977Y-91107234D01*
X177322263Y-91087122D01*
X177352848Y-91037271D01*
X177373374Y-90972475D01*
X177380446Y-90905821D01*
X177377542Y-90874022D01*
X177353448Y-90799633D01*
X177310778Y-90742389D01*
X177247585Y-90700977D01*
X177161925Y-90674084D01*
X177062031Y-90661067D01*
X176938157Y-90652325D01*
X176938157Y-90500992D01*
X177064221Y-90495591D01*
X177159793Y-90486644D01*
X177231440Y-90468167D01*
X177282891Y-90438727D01*
X177316981Y-90398420D01*
X177335508Y-90345199D01*
X177340617Y-90279694D01*
X177332185Y-90215185D01*
X177318994Y-90179318D01*
X177279420Y-90133141D01*
X177217965Y-90101328D01*
X177138050Y-90084453D01*
X177043096Y-90083092D01*
X176936523Y-90097822D01*
X176893639Y-90107770D01*
X176839301Y-90121670D01*
X176794238Y-90133061D01*
X176767148Y-90139748D01*
X176765270Y-90140187D01*
X176752966Y-90137488D01*
X176746285Y-90118648D01*
X176743801Y-90078291D01*
X176743659Y-90058704D01*
X176743659Y-89972260D01*
X176837307Y-89948030D01*
X176916060Y-89932959D01*
X177005624Y-89924304D01*
X177098131Y-89922003D01*
X177185717Y-89925996D01*
G37*
G36*
X178343817Y-89928173D02*
G01*
X178411930Y-89940237D01*
X178425063Y-89944228D01*
X178515805Y-89989213D01*
X178587483Y-90054109D01*
X178637621Y-90135481D01*
X178663745Y-90229896D01*
X178667029Y-90279935D01*
X178657986Y-90371948D01*
X178629121Y-90445171D01*
X178577830Y-90503917D01*
X178502938Y-90551782D01*
X178446901Y-90580053D01*
X178513407Y-90612248D01*
X178591989Y-90665148D01*
X178652731Y-90736825D01*
X178676416Y-90782206D01*
X178689632Y-90834890D01*
X178695417Y-90904501D01*
X178694016Y-90980197D01*
X178685678Y-91051131D01*
X178670650Y-91106461D01*
X178668919Y-91110434D01*
X178622109Y-91183156D01*
X178555261Y-91247542D01*
X178477146Y-91295616D01*
X178455146Y-91304809D01*
X178381681Y-91324458D01*
X178291220Y-91337005D01*
X178194892Y-91341607D01*
X178103827Y-91337420D01*
X178074780Y-91333647D01*
X178010718Y-91322049D01*
X177942414Y-91307521D01*
X177916301Y-91301255D01*
X177838611Y-91281622D01*
X177834310Y-91183412D01*
X177832702Y-91131875D01*
X177834472Y-91103601D01*
X177840974Y-91093111D01*
X177853559Y-91094927D01*
X177855921Y-91095867D01*
X177931849Y-91126216D01*
X177990826Y-91146571D01*
X178042109Y-91158914D01*
X178094954Y-91165226D01*
X178158618Y-91167488D01*
X178191589Y-91167708D01*
X178262492Y-91167135D01*
X178311871Y-91164251D01*
X178346995Y-91157906D01*
X178375133Y-91146947D01*
X178395402Y-91135393D01*
X178446959Y-91096767D01*
X178479253Y-91053465D01*
X178496035Y-90997859D01*
X178501057Y-90922324D01*
X178501063Y-90920646D01*
X178496257Y-90844728D01*
X178478597Y-90788727D01*
X178443947Y-90745097D01*
X178388171Y-90706289D01*
X178381505Y-90702512D01*
X178338550Y-90683390D01*
X178286173Y-90670667D01*
X178215934Y-90662490D01*
X178191207Y-90660716D01*
X178060569Y-90652252D01*
X178064848Y-90578790D01*
X178069127Y-90505329D01*
X178200394Y-90497018D01*
X178284167Y-90488823D01*
X178344360Y-90475875D01*
X178380484Y-90460510D01*
X178433084Y-90415319D01*
X178464916Y-90356878D01*
X178476166Y-90291656D01*
X178467020Y-90226120D01*
X178437665Y-90166737D01*
X178388286Y-90119975D01*
X178370384Y-90109766D01*
X178305316Y-90089853D01*
X178220570Y-90083421D01*
X178121908Y-90090422D01*
X178015096Y-90110812D01*
X178007897Y-90112629D01*
X177874629Y-90146767D01*
X177874629Y-89969501D01*
X177983093Y-89945668D01*
X178069411Y-89931487D01*
X178164006Y-89923826D01*
X178258325Y-89922712D01*
X178343817Y-89928173D01*
G37*
G36*
X171579742Y-86299117D02*
G01*
X171638037Y-86301308D01*
X171681072Y-86306093D01*
X171715617Y-86314327D01*
X171748442Y-86326868D01*
X171758747Y-86331498D01*
X171850182Y-86379880D01*
X171922272Y-86434321D01*
X171984444Y-86502419D01*
X172004951Y-86529967D01*
X172061326Y-86619799D01*
X172106329Y-86717104D01*
X172140984Y-86825948D01*
X172166319Y-86950396D01*
X172183357Y-87094512D01*
X172193124Y-87262361D01*
X172193660Y-87278102D01*
X172195640Y-87473557D01*
X172187727Y-87645162D01*
X172169385Y-87796320D01*
X172140077Y-87930435D01*
X172099267Y-88050911D01*
X172057815Y-88140065D01*
X171985918Y-88251359D01*
X171898397Y-88339638D01*
X171792450Y-88407688D01*
X171785266Y-88411278D01*
X171741560Y-88431787D01*
X171704295Y-88445494D01*
X171665314Y-88453992D01*
X171616463Y-88458868D01*
X171549585Y-88461715D01*
X171522795Y-88462464D01*
X171439775Y-88463481D01*
X171377345Y-88460988D01*
X171327415Y-88454252D01*
X171281893Y-88442542D01*
X171273747Y-88439917D01*
X171182734Y-88403406D01*
X171108490Y-88356972D01*
X171039046Y-88292797D01*
X171024904Y-88277395D01*
X170959333Y-88191873D01*
X170905903Y-88093301D01*
X170863550Y-87978433D01*
X170831211Y-87844027D01*
X170807823Y-87686838D01*
X170798070Y-87585569D01*
X170789624Y-87398808D01*
X170790107Y-87378953D01*
X171098194Y-87378953D01*
X171102027Y-87565047D01*
X171113793Y-87724753D01*
X171133894Y-87859495D01*
X171162730Y-87970697D01*
X171200703Y-88059784D01*
X171248214Y-88128181D01*
X171305664Y-88177312D01*
X171326436Y-88189313D01*
X171409411Y-88223425D01*
X171488072Y-88234262D01*
X171572836Y-88222799D01*
X171601506Y-88215011D01*
X171677586Y-88180149D01*
X171741323Y-88123589D01*
X171793801Y-88043771D01*
X171836099Y-87939135D01*
X171863031Y-87837893D01*
X171871614Y-87792932D01*
X171878098Y-87742840D01*
X171882733Y-87683023D01*
X171885770Y-87608889D01*
X171887460Y-87515845D01*
X171888052Y-87399299D01*
X171888062Y-87378953D01*
X171887096Y-87238841D01*
X171883825Y-87122998D01*
X171877686Y-87026931D01*
X171868116Y-86946149D01*
X171854552Y-86876159D01*
X171836433Y-86812468D01*
X171813195Y-86750583D01*
X171807784Y-86737795D01*
X171757491Y-86652231D01*
X171692356Y-86588255D01*
X171616651Y-86545894D01*
X171534650Y-86525173D01*
X171450624Y-86526119D01*
X171368846Y-86548758D01*
X171293588Y-86593115D01*
X171229122Y-86659217D01*
X171185337Y-86733998D01*
X171155067Y-86814002D01*
X171131802Y-86905257D01*
X171115035Y-87011528D01*
X171104256Y-87136576D01*
X171098958Y-87284165D01*
X171098194Y-87378953D01*
X170790107Y-87378953D01*
X170794071Y-87215840D01*
X170810796Y-87041496D01*
X170839184Y-86880601D01*
X170878621Y-86737983D01*
X170918607Y-86638409D01*
X170973323Y-86546828D01*
X171044525Y-86462168D01*
X171125462Y-86391133D01*
X171209380Y-86340430D01*
X171225679Y-86333419D01*
X171266045Y-86318693D01*
X171304611Y-86308787D01*
X171348694Y-86302773D01*
X171405612Y-86299720D01*
X171482682Y-86298701D01*
X171499417Y-86298661D01*
X171579742Y-86299117D01*
G37*
G36*
X173306031Y-86292250D02*
G01*
X173452676Y-86307746D01*
X173599944Y-86337669D01*
X173692922Y-86364716D01*
X173782967Y-86394405D01*
X173782967Y-86537303D01*
X173782422Y-86597515D01*
X173780953Y-86645199D01*
X173778809Y-86674231D01*
X173777147Y-86680201D01*
X173762467Y-86674379D01*
X173727932Y-86658763D01*
X173679613Y-86636133D01*
X173651084Y-86622528D01*
X173517310Y-86568836D01*
X173386452Y-86536409D01*
X173261666Y-86525150D01*
X173146106Y-86534961D01*
X173042927Y-86565744D01*
X172955284Y-86617399D01*
X172924006Y-86645154D01*
X172869370Y-86715931D01*
X172840209Y-86795445D01*
X172835078Y-86888034D01*
X172836692Y-86907376D01*
X172846998Y-86967919D01*
X172866337Y-87018558D01*
X172897680Y-87061375D01*
X172943998Y-87098448D01*
X173008264Y-87131857D01*
X173093449Y-87163683D01*
X173202525Y-87196006D01*
X173277015Y-87215574D01*
X173417230Y-87254856D01*
X173532437Y-87295502D01*
X173626439Y-87339236D01*
X173703040Y-87387783D01*
X173755796Y-87432643D01*
X173821222Y-87515227D01*
X173868939Y-87615585D01*
X173898335Y-87728301D01*
X173908801Y-87847957D01*
X173899726Y-87969135D01*
X173870500Y-88086419D01*
X173838039Y-88162686D01*
X173772319Y-88260195D01*
X173684246Y-88340042D01*
X173574660Y-88401666D01*
X173444401Y-88444507D01*
X173403295Y-88453258D01*
X173360109Y-88458285D01*
X173296428Y-88461878D01*
X173220530Y-88463977D01*
X173140691Y-88464520D01*
X173065188Y-88463449D01*
X173002298Y-88460703D01*
X172961754Y-88456482D01*
X172901910Y-88444105D01*
X172830495Y-88426513D01*
X172756961Y-88406329D01*
X172690759Y-88386174D01*
X172641342Y-88368670D01*
X172633988Y-88365579D01*
X172572758Y-88338656D01*
X172572758Y-88186570D01*
X172573374Y-88124288D01*
X172575041Y-88074346D01*
X172577487Y-88042679D01*
X172579745Y-88034484D01*
X172594861Y-88041428D01*
X172626519Y-88059339D01*
X172655383Y-88076711D01*
X172775647Y-88140369D01*
X172899448Y-88187054D01*
X173023445Y-88216940D01*
X173144296Y-88230196D01*
X173258659Y-88226995D01*
X173363192Y-88207510D01*
X173454554Y-88171910D01*
X173529402Y-88120370D01*
X173584396Y-88053059D01*
X173597217Y-88028299D01*
X173616637Y-87961367D01*
X173624171Y-87880424D01*
X173619832Y-87797703D01*
X173603629Y-87725437D01*
X173596925Y-87708648D01*
X173573960Y-87666373D01*
X173544624Y-87630660D01*
X173505368Y-87599694D01*
X173452645Y-87571657D01*
X173382904Y-87544733D01*
X173292597Y-87517107D01*
X173178176Y-87486962D01*
X173150149Y-87479993D01*
X173004345Y-87439554D01*
X172884347Y-87395846D01*
X172787183Y-87347072D01*
X172709881Y-87291439D01*
X172649471Y-87227151D01*
X172602980Y-87152413D01*
X172600889Y-87148209D01*
X172585532Y-87114082D01*
X172575361Y-87081260D01*
X172569337Y-87042534D01*
X172566419Y-86990693D01*
X172565568Y-86918526D01*
X172565554Y-86903211D01*
X172565946Y-86828735D01*
X172568022Y-86775375D01*
X172573131Y-86735432D01*
X172582624Y-86701210D01*
X172597849Y-86665010D01*
X172612725Y-86634203D01*
X172679874Y-86529487D01*
X172768895Y-86440023D01*
X172875448Y-86369089D01*
X172995197Y-86319964D01*
X173045305Y-86307263D01*
X173167682Y-86291862D01*
X173306031Y-86292250D01*
G37*
G36*
X177971416Y-84764478D02*
G01*
X178012750Y-84766408D01*
X178034978Y-84770726D01*
X178042953Y-84778334D01*
X178041801Y-84789248D01*
X178037940Y-84805902D01*
X178028461Y-84848547D01*
X178013805Y-84915150D01*
X177994414Y-85003676D01*
X177970728Y-85112090D01*
X177943190Y-85238358D01*
X177912239Y-85380444D01*
X177878318Y-85536315D01*
X177841868Y-85703936D01*
X177803329Y-85881271D01*
X177763144Y-86066287D01*
X177721753Y-86256949D01*
X177679597Y-86451222D01*
X177637119Y-86647071D01*
X177594758Y-86842463D01*
X177552957Y-87035362D01*
X177512156Y-87223733D01*
X177472797Y-87405543D01*
X177435321Y-87578756D01*
X177400170Y-87741338D01*
X177367784Y-87891254D01*
X177338604Y-88026469D01*
X177313073Y-88144950D01*
X177291631Y-88244661D01*
X177274719Y-88323567D01*
X177262779Y-88379635D01*
X177256252Y-88410829D01*
X177255117Y-88416778D01*
X177241737Y-88419617D01*
X177205705Y-88421860D01*
X177153178Y-88423214D01*
X177113873Y-88423480D01*
X176972630Y-88423480D01*
X176836534Y-87825598D01*
X176807557Y-87699018D01*
X176780355Y-87581571D01*
X176755620Y-87476142D01*
X176734042Y-87385615D01*
X176716314Y-87312877D01*
X176703128Y-87260813D01*
X176695174Y-87232309D01*
X176693234Y-87227708D01*
X176688623Y-87241282D01*
X176678389Y-87280085D01*
X176663222Y-87341231D01*
X176643812Y-87421834D01*
X176620850Y-87519009D01*
X176595027Y-87629869D01*
X176567033Y-87751530D01*
X176550146Y-87825590D01*
X176414261Y-88423480D01*
X176272806Y-88423480D01*
X176206591Y-88422083D01*
X176158931Y-88418179D01*
X176134022Y-88412196D01*
X176131351Y-88409050D01*
X176129269Y-88392750D01*
X176123252Y-88350263D01*
X176113638Y-88283895D01*
X176100769Y-88195954D01*
X176084985Y-88088748D01*
X176066626Y-87964584D01*
X176046033Y-87825770D01*
X176023546Y-87674613D01*
X175999504Y-87513420D01*
X175980075Y-87383423D01*
X175955035Y-87215688D01*
X175931290Y-87055924D01*
X175909181Y-86906474D01*
X175889049Y-86769680D01*
X175871237Y-86647885D01*
X175856086Y-86543432D01*
X175843937Y-86458663D01*
X175835132Y-86395922D01*
X175830013Y-86357549D01*
X175828798Y-86346123D01*
X175831589Y-86333925D01*
X175843474Y-86326224D01*
X175869721Y-86322014D01*
X175915599Y-86320289D01*
X175965393Y-86320020D01*
X176028974Y-86320418D01*
X176069425Y-86322467D01*
X176092424Y-86327449D01*
X176103654Y-86336645D01*
X176108795Y-86351339D01*
X176109037Y-86352436D01*
X176112002Y-86372648D01*
X176117909Y-86418699D01*
X176126424Y-86487800D01*
X176137212Y-86577162D01*
X176149942Y-86683996D01*
X176164278Y-86805513D01*
X176179889Y-86938923D01*
X176196440Y-87081439D01*
X176203349Y-87141233D01*
X176220272Y-87287010D01*
X176236504Y-87425100D01*
X176251700Y-87552671D01*
X176265512Y-87666890D01*
X176277593Y-87764926D01*
X176287597Y-87843945D01*
X176295176Y-87901115D01*
X176299984Y-87933605D01*
X176301041Y-87939009D01*
X176305317Y-87943513D01*
X176312192Y-87931105D01*
X176322101Y-87900056D01*
X176335476Y-87848638D01*
X176352753Y-87775121D01*
X176374364Y-87677776D01*
X176400743Y-87554875D01*
X176418488Y-87470773D01*
X176443490Y-87352321D01*
X176467064Y-87241798D01*
X176488462Y-87142623D01*
X176506936Y-87058214D01*
X176521739Y-86991988D01*
X176532123Y-86947365D01*
X176537169Y-86928221D01*
X176543821Y-86913449D01*
X176554881Y-86904126D01*
X176575960Y-86899236D01*
X176612669Y-86897767D01*
X176670619Y-86898705D01*
X176696672Y-86899406D01*
X176844510Y-86903514D01*
X176959673Y-87440184D01*
X176985592Y-87560056D01*
X177009875Y-87670604D01*
X177031820Y-87768771D01*
X177050726Y-87851498D01*
X177065894Y-87915726D01*
X177076623Y-87958397D01*
X177082211Y-87976453D01*
X177082599Y-87976855D01*
X177086507Y-87963047D01*
X177095870Y-87922828D01*
X177110303Y-87858001D01*
X177129420Y-87770372D01*
X177152838Y-87661746D01*
X177180172Y-87533928D01*
X177211037Y-87388722D01*
X177245049Y-87227933D01*
X177281823Y-87053367D01*
X177320975Y-86866827D01*
X177362120Y-86670119D01*
X177404874Y-86465049D01*
X177411818Y-86431676D01*
X177455040Y-86224005D01*
X177496820Y-86023432D01*
X177536760Y-85831859D01*
X177574463Y-85651185D01*
X177609530Y-85483313D01*
X177641564Y-85330142D01*
X177670166Y-85193575D01*
X177694940Y-85075512D01*
X177715486Y-84977854D01*
X177731408Y-84902501D01*
X177742307Y-84851356D01*
X177747785Y-84826319D01*
X177748034Y-84825266D01*
X177762792Y-84764036D01*
X177906125Y-84764036D01*
X177971416Y-84764478D01*
G37*
D12*
%TO.C,R7*%
X179411100Y-94338208D02*
X179411100Y-93863692D01*
X180456100Y-94338208D02*
X180456100Y-93863692D01*
%TO.C,C7*%
X180099580Y-84457000D02*
X179818420Y-84457000D01*
X180099580Y-83437000D02*
X179818420Y-83437000D01*
%TO.C,G1*%
G36*
X159056646Y-79046147D02*
G01*
X159805173Y-79046147D01*
X159805173Y-78347523D01*
X159929927Y-78347523D01*
X159929927Y-79894478D01*
X159805173Y-79894478D01*
X159805173Y-79145951D01*
X159056646Y-79145951D01*
X159056646Y-79894478D01*
X158931892Y-79894478D01*
X158931892Y-78347523D01*
X159056646Y-78347523D01*
X159056646Y-79046147D01*
G37*
G36*
X160957873Y-78352175D02*
G01*
X160981395Y-78369038D01*
X161011464Y-78402471D01*
X161051036Y-78456833D01*
X161103069Y-78536483D01*
X161170523Y-78645780D01*
X161256353Y-78789084D01*
X161363519Y-78970753D01*
X161380817Y-79000219D01*
X161763817Y-79652916D01*
X161770469Y-79000219D01*
X161777121Y-78347523D01*
X161901047Y-78347523D01*
X161901047Y-79894478D01*
X161841243Y-79894478D01*
X161819376Y-79887479D01*
X161791195Y-79864326D01*
X161754617Y-79821780D01*
X161707561Y-79756606D01*
X161647945Y-79665566D01*
X161573686Y-79545423D01*
X161482702Y-79392941D01*
X161372911Y-79204882D01*
X161242231Y-78978010D01*
X161165746Y-78844349D01*
X161003082Y-78559605D01*
X161002949Y-79227041D01*
X161002815Y-79894478D01*
X160878061Y-79894478D01*
X160878061Y-78347523D01*
X160937939Y-78347523D01*
X160957873Y-78352175D01*
G37*
G36*
X160417967Y-78348945D02*
G01*
X160429055Y-78356660D01*
X160437590Y-78375837D01*
X160443907Y-78411648D01*
X160448338Y-78469263D01*
X160451218Y-78553853D01*
X160452880Y-78670588D01*
X160453658Y-78824640D01*
X160453885Y-79021179D01*
X160453896Y-79121000D01*
X160453804Y-79337587D01*
X160453306Y-79509442D01*
X160452069Y-79641737D01*
X160449759Y-79739643D01*
X160446042Y-79808330D01*
X160440584Y-79852968D01*
X160433053Y-79878729D01*
X160423114Y-79890783D01*
X160410434Y-79894302D01*
X160403994Y-79894478D01*
X160390021Y-79893055D01*
X160378933Y-79885341D01*
X160370398Y-79866163D01*
X160364082Y-79830352D01*
X160359650Y-79772737D01*
X160356770Y-79688147D01*
X160355108Y-79571412D01*
X160354331Y-79417360D01*
X160354104Y-79220821D01*
X160354092Y-79121000D01*
X160354184Y-78904414D01*
X160354682Y-78732558D01*
X160355919Y-78600263D01*
X160358229Y-78502357D01*
X160361947Y-78433671D01*
X160367404Y-78389032D01*
X160374935Y-78363271D01*
X160384874Y-78351217D01*
X160397554Y-78347699D01*
X160403994Y-78347523D01*
X160417967Y-78348945D01*
G37*
G36*
X153578152Y-78351421D02*
G01*
X153737104Y-78356650D01*
X153855429Y-78365838D01*
X153942393Y-78382266D01*
X154007268Y-78409217D01*
X154059321Y-78449974D01*
X154107821Y-78507820D01*
X154137243Y-78549424D01*
X154169447Y-78604501D01*
X154185497Y-78660986D01*
X154188960Y-78737234D01*
X154186374Y-78802079D01*
X154169017Y-78935103D01*
X154128867Y-79032975D01*
X154058426Y-79108040D01*
X153966156Y-79164664D01*
X153906053Y-79191396D01*
X153843303Y-79208206D01*
X153764007Y-79217221D01*
X153654262Y-79220572D01*
X153599591Y-79220804D01*
X153342894Y-79220804D01*
X153342894Y-79894478D01*
X153218140Y-79894478D01*
X153218140Y-79121000D01*
X153342894Y-79121000D01*
X153582394Y-79121000D01*
X153738728Y-79115928D01*
X153849422Y-79100455D01*
X153901614Y-79083171D01*
X153992458Y-79013986D01*
X154048235Y-78911508D01*
X154066470Y-78785312D01*
X154055764Y-78664119D01*
X154020362Y-78573612D01*
X153955331Y-78510267D01*
X153855742Y-78470559D01*
X153716663Y-78450963D01*
X153593642Y-78447326D01*
X153342894Y-78447326D01*
X153342894Y-79121000D01*
X153218140Y-79121000D01*
X153218140Y-78342844D01*
X153578152Y-78351421D01*
G37*
G36*
X158302968Y-78347719D02*
G01*
X158429001Y-78348737D01*
X158517992Y-78351218D01*
X158576373Y-78355807D01*
X158610573Y-78363147D01*
X158627023Y-78373879D01*
X158632152Y-78388648D01*
X158632481Y-78397425D01*
X158628729Y-78421133D01*
X158611141Y-78435866D01*
X158570218Y-78443732D01*
X158496464Y-78446843D01*
X158407923Y-78447326D01*
X158183365Y-78447326D01*
X158183365Y-79170902D01*
X158183263Y-79379633D01*
X158182708Y-79543807D01*
X158181333Y-79668771D01*
X158178770Y-79759869D01*
X158174649Y-79822447D01*
X158168601Y-79861851D01*
X158160259Y-79883425D01*
X158149254Y-79892516D01*
X158135216Y-79894469D01*
X158133464Y-79894478D01*
X158119068Y-79892985D01*
X158107746Y-79884945D01*
X158099128Y-79865012D01*
X158092845Y-79827840D01*
X158088530Y-79768084D01*
X158085812Y-79680398D01*
X158084324Y-79559437D01*
X158083697Y-79399855D01*
X158083562Y-79196308D01*
X158083562Y-78447326D01*
X157859004Y-78447326D01*
X157752314Y-78446492D01*
X157686018Y-78442584D01*
X157650620Y-78433490D01*
X157636621Y-78417100D01*
X157634446Y-78397425D01*
X157636409Y-78380474D01*
X157646584Y-78367871D01*
X157671402Y-78358972D01*
X157717292Y-78353134D01*
X157790686Y-78349714D01*
X157898012Y-78348069D01*
X158045702Y-78347556D01*
X158133464Y-78347523D01*
X158302968Y-78347719D01*
G37*
G36*
X149684821Y-77732873D02*
G01*
X149706303Y-77736165D01*
X149883935Y-77788165D01*
X150036821Y-77881645D01*
X150160268Y-78012388D01*
X150249581Y-78176179D01*
X150273416Y-78245599D01*
X150309812Y-78404757D01*
X150336686Y-78595709D01*
X150354179Y-78809002D01*
X150362432Y-79035181D01*
X150361585Y-79264793D01*
X150351779Y-79488384D01*
X150333155Y-79696501D01*
X150305853Y-79879689D01*
X150270014Y-80028495D01*
X150245917Y-80094085D01*
X150155346Y-80244292D01*
X150031308Y-80368570D01*
X149883818Y-80459115D01*
X149722887Y-80508127D01*
X149712620Y-80509632D01*
X149642439Y-80516279D01*
X149608963Y-80509093D01*
X149600264Y-80485429D01*
X149600261Y-80484690D01*
X149622662Y-80449000D01*
X149668876Y-80429666D01*
X149851285Y-80373345D01*
X149994677Y-80288689D01*
X150102889Y-80171730D01*
X150179760Y-80018499D01*
X150223425Y-79856260D01*
X150246398Y-79698351D01*
X150261548Y-79509719D01*
X150269144Y-79300814D01*
X150269453Y-79082083D01*
X150262743Y-78863978D01*
X150249283Y-78656947D01*
X150229341Y-78471439D01*
X150203185Y-78317904D01*
X150181859Y-78236700D01*
X150117914Y-78106865D01*
X150020426Y-77991908D01*
X149900594Y-77900586D01*
X149769622Y-77841659D01*
X149653506Y-77823554D01*
X149609957Y-77807963D01*
X149600261Y-77771459D01*
X149605233Y-77739640D01*
X149628996Y-77728250D01*
X149684821Y-77732873D01*
G37*
G36*
X155139349Y-78347748D02*
G01*
X155258304Y-78348905D01*
X155340724Y-78351717D01*
X155393293Y-78356906D01*
X155422696Y-78365194D01*
X155435614Y-78377305D01*
X155438732Y-78393961D01*
X155438768Y-78397425D01*
X155436437Y-78416084D01*
X155424657Y-78429403D01*
X155396247Y-78438280D01*
X155344027Y-78443612D01*
X155260814Y-78446296D01*
X155139430Y-78447231D01*
X155039554Y-78447326D01*
X154640340Y-78447326D01*
X154640340Y-79044739D01*
X154983105Y-79051681D01*
X155121288Y-79055114D01*
X155217332Y-79059603D01*
X155278998Y-79066268D01*
X155314051Y-79076226D01*
X155330251Y-79090596D01*
X155334247Y-79102287D01*
X155333726Y-79119572D01*
X155319500Y-79131605D01*
X155284213Y-79139322D01*
X155220512Y-79143660D01*
X155121040Y-79145557D01*
X154991482Y-79145951D01*
X154640340Y-79145951D01*
X154640340Y-79794674D01*
X155039554Y-79794674D01*
X155188827Y-79794965D01*
X155295381Y-79796438D01*
X155366395Y-79799989D01*
X155409050Y-79806517D01*
X155430528Y-79816918D01*
X155438009Y-79832091D01*
X155438768Y-79844576D01*
X155436685Y-79862108D01*
X155425981Y-79874968D01*
X155399972Y-79883878D01*
X155351974Y-79889561D01*
X155275304Y-79892740D01*
X155163279Y-79894137D01*
X155009215Y-79894474D01*
X154977177Y-79894478D01*
X154515585Y-79894478D01*
X154515585Y-78347523D01*
X154977177Y-78347523D01*
X155139349Y-78347748D01*
G37*
G36*
X148197105Y-77736837D02*
G01*
X148203009Y-77769497D01*
X148203012Y-77770876D01*
X148191415Y-77810126D01*
X148147892Y-77823208D01*
X148133058Y-77823554D01*
X148040966Y-77841356D01*
X147934513Y-77888297D01*
X147830673Y-77954678D01*
X147746418Y-78030801D01*
X147726006Y-78056128D01*
X147674982Y-78138748D01*
X147634736Y-78234601D01*
X147603039Y-78352387D01*
X147577660Y-78500809D01*
X147556369Y-78688566D01*
X147552168Y-78734261D01*
X147538650Y-78956621D01*
X147536124Y-79184732D01*
X147543855Y-79409152D01*
X147561107Y-79620440D01*
X147587147Y-79809154D01*
X147621239Y-79965853D01*
X147655848Y-80066481D01*
X147744756Y-80217432D01*
X147860208Y-80326491D01*
X148003950Y-80395071D01*
X148086186Y-80414489D01*
X148166305Y-80438573D01*
X148198388Y-80475239D01*
X148185257Y-80506924D01*
X148133582Y-80516536D01*
X148049612Y-80504007D01*
X147963118Y-80477900D01*
X147812480Y-80398693D01*
X147685245Y-80278819D01*
X147585529Y-80123631D01*
X147517448Y-79938488D01*
X147504415Y-79880999D01*
X147482340Y-79732275D01*
X147467419Y-79552960D01*
X147459371Y-79352532D01*
X147457917Y-79140467D01*
X147462777Y-78926245D01*
X147473672Y-78719342D01*
X147490320Y-78529237D01*
X147512443Y-78365408D01*
X147539761Y-78237332D01*
X147554268Y-78192309D01*
X147642386Y-78026932D01*
X147767093Y-77892428D01*
X147922292Y-77793821D01*
X148101886Y-77736136D01*
X148109446Y-77734759D01*
X148170540Y-77727042D01*
X148197105Y-77736837D01*
G37*
G36*
X155893130Y-78352073D02*
G01*
X155916500Y-78368636D01*
X155946269Y-78401581D01*
X155985395Y-78455275D01*
X156036837Y-78534088D01*
X156103552Y-78642387D01*
X156188499Y-78784541D01*
X156294636Y-78964919D01*
X156316080Y-79001546D01*
X156698788Y-79655569D01*
X156712092Y-78347523D01*
X156836018Y-78347523D01*
X156836018Y-79897792D01*
X156770726Y-79889897D01*
X156748976Y-79882927D01*
X156724047Y-79864139D01*
X156692884Y-79829034D01*
X156652432Y-79773115D01*
X156599637Y-79691882D01*
X156531441Y-79580838D01*
X156444792Y-79435483D01*
X156336632Y-79251319D01*
X156334138Y-79247054D01*
X156239051Y-79085032D01*
X156151274Y-78936575D01*
X156074173Y-78807291D01*
X156011114Y-78702785D01*
X155965466Y-78628666D01*
X155940593Y-78590538D01*
X155937838Y-78587103D01*
X155929259Y-78602289D01*
X155922481Y-78666881D01*
X155917499Y-78780987D01*
X155914310Y-78944715D01*
X155912908Y-79158174D01*
X155912835Y-79228289D01*
X155912716Y-79427646D01*
X155912082Y-79582672D01*
X155910515Y-79698936D01*
X155907599Y-79782009D01*
X155902915Y-79837460D01*
X155896046Y-79870859D01*
X155886577Y-79887777D01*
X155874088Y-79893783D01*
X155862933Y-79894478D01*
X155848960Y-79893055D01*
X155837872Y-79885341D01*
X155829337Y-79866163D01*
X155823021Y-79830352D01*
X155818589Y-79772737D01*
X155815709Y-79688147D01*
X155814047Y-79571412D01*
X155813270Y-79417360D01*
X155813043Y-79220821D01*
X155813031Y-79121000D01*
X155813031Y-78347523D01*
X155873202Y-78347523D01*
X155893130Y-78352073D01*
G37*
G36*
X152451286Y-78360672D02*
G01*
X152580275Y-78433595D01*
X152691256Y-78543425D01*
X152771553Y-78678330D01*
X152796758Y-78740668D01*
X152813564Y-78801790D01*
X152823606Y-78874091D01*
X152828518Y-78969963D01*
X152829936Y-79101800D01*
X152829949Y-79121000D01*
X152828847Y-79258088D01*
X152824450Y-79357695D01*
X152815123Y-79432214D01*
X152799232Y-79494038D01*
X152775142Y-79555562D01*
X152771553Y-79563670D01*
X152681007Y-79711342D01*
X152561463Y-79821836D01*
X152419652Y-79892232D01*
X152262306Y-79919609D01*
X152096155Y-79901048D01*
X152036086Y-79882773D01*
X151910070Y-79812533D01*
X151802788Y-79702114D01*
X151722390Y-79560107D01*
X151716899Y-79546450D01*
X151682456Y-79417711D01*
X151663099Y-79258343D01*
X151658806Y-79085274D01*
X151663571Y-79009974D01*
X151776262Y-79009974D01*
X151776989Y-79208328D01*
X151799839Y-79405824D01*
X151845750Y-79561597D01*
X151916353Y-79678989D01*
X152013276Y-79761344D01*
X152057923Y-79784403D01*
X152167250Y-79812643D01*
X152293358Y-79815325D01*
X152410117Y-79792366D01*
X152427915Y-79785591D01*
X152539773Y-79712303D01*
X152625206Y-79597740D01*
X152683580Y-79443347D01*
X152714263Y-79250570D01*
X152719122Y-79121000D01*
X152704799Y-78904844D01*
X152662203Y-78727854D01*
X152591895Y-78590766D01*
X152494436Y-78494315D01*
X152370388Y-78439235D01*
X152220311Y-78426261D01*
X152190386Y-78428472D01*
X152051586Y-78463908D01*
X151940413Y-78540458D01*
X151857227Y-78657440D01*
X151802390Y-78814172D01*
X151776262Y-79009974D01*
X151663571Y-79009974D01*
X151669553Y-78915434D01*
X151695319Y-78765752D01*
X151718027Y-78692537D01*
X151797999Y-78546135D01*
X151904839Y-78436035D01*
X152031066Y-78362338D01*
X152169203Y-78325144D01*
X152311769Y-78324556D01*
X152451286Y-78360672D01*
G37*
G36*
X149117301Y-78491407D02*
G01*
X149264582Y-78511394D01*
X149374031Y-78550220D01*
X149451248Y-78612669D01*
X149501834Y-78703526D01*
X149531388Y-78827574D01*
X149545511Y-78989596D01*
X149546556Y-79015051D01*
X149549396Y-79230206D01*
X149537459Y-79401318D01*
X149506574Y-79533108D01*
X149452567Y-79630296D01*
X149371267Y-79697601D01*
X149258501Y-79739743D01*
X149110097Y-79761442D01*
X148921883Y-79767417D01*
X148881695Y-79767169D01*
X148766365Y-79764021D01*
X148660780Y-79757735D01*
X148581139Y-79749416D01*
X148556932Y-79745036D01*
X148449005Y-79700284D01*
X148367264Y-79621356D01*
X148309666Y-79504826D01*
X148274165Y-79347268D01*
X148264270Y-79254739D01*
X148263966Y-79243186D01*
X148356159Y-79243186D01*
X148369227Y-79391354D01*
X148399637Y-79502002D01*
X148450025Y-79580580D01*
X148523028Y-79632537D01*
X148621282Y-79663324D01*
X148656379Y-79669290D01*
X148795468Y-79685724D01*
X148917740Y-79689689D01*
X149048602Y-79681277D01*
X149136144Y-79671062D01*
X149257926Y-79648561D01*
X149342298Y-79611960D01*
X149397938Y-79552194D01*
X149433521Y-79460200D01*
X149456397Y-79336515D01*
X149467748Y-79204682D01*
X149467874Y-79064839D01*
X149458016Y-78928961D01*
X149439415Y-78809025D01*
X149413313Y-78717007D01*
X149387436Y-78671063D01*
X149332143Y-78628715D01*
X149250954Y-78599333D01*
X149137097Y-78581561D01*
X148983800Y-78574038D01*
X148901637Y-78573628D01*
X148725722Y-78578532D01*
X148593050Y-78594998D01*
X148497329Y-78628564D01*
X148432265Y-78684765D01*
X148391566Y-78769138D01*
X148368938Y-78887218D01*
X148358088Y-79044541D01*
X148357798Y-79052047D01*
X148356159Y-79243186D01*
X148263966Y-79243186D01*
X148259359Y-79067932D01*
X148273457Y-78898497D01*
X148305038Y-78755991D01*
X148352576Y-78649970D01*
X148363282Y-78634746D01*
X148416440Y-78577691D01*
X148481218Y-78536519D01*
X148565988Y-78509012D01*
X148679120Y-78492950D01*
X148828988Y-78486115D01*
X148926587Y-78485476D01*
X149117301Y-78491407D01*
G37*
G36*
X163041866Y-78345743D02*
G01*
X163182476Y-78410654D01*
X163240318Y-78454535D01*
X163306573Y-78526285D01*
X163357412Y-78606834D01*
X163389937Y-78686411D01*
X163401251Y-78755243D01*
X163388456Y-78803560D01*
X163349160Y-78821590D01*
X163310781Y-78805820D01*
X163282518Y-78752452D01*
X163273651Y-78722920D01*
X163216476Y-78591594D01*
X163126601Y-78497529D01*
X163005645Y-78441756D01*
X162855223Y-78425307D01*
X162810758Y-78427659D01*
X162668929Y-78460029D01*
X162555794Y-78531677D01*
X162470853Y-78643308D01*
X162413603Y-78795625D01*
X162383543Y-78989331D01*
X162380892Y-79030332D01*
X162381576Y-79260698D01*
X162410150Y-79450117D01*
X162467017Y-79599289D01*
X162552580Y-79708916D01*
X162667241Y-79779697D01*
X162811402Y-79812335D01*
X162830736Y-79813723D01*
X162982308Y-79803710D01*
X163103650Y-79754341D01*
X163195150Y-79665245D01*
X163257192Y-79536052D01*
X163289411Y-79373835D01*
X163305406Y-79220804D01*
X163089769Y-79220804D01*
X162982726Y-79219248D01*
X162916870Y-79213580D01*
X162883556Y-79202299D01*
X162874136Y-79183906D01*
X162874132Y-79183377D01*
X162882163Y-79166286D01*
X162911629Y-79155168D01*
X162970585Y-79148872D01*
X163067086Y-79146247D01*
X163136116Y-79145951D01*
X163398100Y-79145951D01*
X163398100Y-79520214D01*
X163397447Y-79666387D01*
X163395014Y-79769666D01*
X163390088Y-79837051D01*
X163381959Y-79875537D01*
X163369916Y-79892123D01*
X163360050Y-79894478D01*
X163327438Y-79872035D01*
X163307029Y-79819625D01*
X163288238Y-79760492D01*
X163261805Y-79749156D01*
X163222418Y-79783568D01*
X163220261Y-79786153D01*
X163139162Y-79849545D01*
X163025484Y-79892856D01*
X162893289Y-79913739D01*
X162756644Y-79909846D01*
X162640523Y-79882880D01*
X162506177Y-79810503D01*
X162400921Y-79699070D01*
X162324138Y-79547673D01*
X162275212Y-79355405D01*
X162273018Y-79341708D01*
X162254903Y-79122867D01*
X162268708Y-78917893D01*
X162312756Y-78734474D01*
X162385370Y-78580295D01*
X162459533Y-78486502D01*
X162586754Y-78392126D01*
X162733332Y-78336916D01*
X162888594Y-78321309D01*
X163041866Y-78345743D01*
G37*
G36*
X164381448Y-78338408D02*
G01*
X164459296Y-78350844D01*
X164522301Y-78375889D01*
X164549422Y-78391580D01*
X164615220Y-78446019D01*
X164668116Y-78514237D01*
X164704403Y-78586062D01*
X164720371Y-78651325D01*
X164712314Y-78699854D01*
X164676522Y-78721481D01*
X164669812Y-78721786D01*
X164622365Y-78702972D01*
X164605591Y-78678122D01*
X164545182Y-78556499D01*
X164453126Y-78472102D01*
X164333762Y-78428182D01*
X164264342Y-78422414D01*
X164129579Y-78440472D01*
X164024492Y-78492054D01*
X163954014Y-78573088D01*
X163923080Y-78679503D01*
X163922069Y-78704882D01*
X163942175Y-78801307D01*
X164004151Y-78884978D01*
X164110486Y-78958145D01*
X164263668Y-79023056D01*
X164280247Y-79028707D01*
X164441714Y-79087812D01*
X164561110Y-79144432D01*
X164645718Y-79203444D01*
X164702823Y-79269723D01*
X164734080Y-79332509D01*
X164764011Y-79470677D01*
X164751269Y-79604193D01*
X164699221Y-79723126D01*
X164611235Y-79817547D01*
X164558316Y-79850689D01*
X164445877Y-79889666D01*
X164309377Y-79909955D01*
X164170521Y-79910176D01*
X164051015Y-79888947D01*
X164036292Y-79883898D01*
X163918620Y-79818920D01*
X163827875Y-79726444D01*
X163774944Y-79617895D01*
X163772179Y-79606724D01*
X163759635Y-79527784D01*
X163769365Y-79485614D01*
X163804459Y-79470916D01*
X163817500Y-79470443D01*
X163855317Y-79495121D01*
X163891087Y-79569186D01*
X163897118Y-79587135D01*
X163944945Y-79691314D01*
X164014621Y-79760049D01*
X164114750Y-79799230D01*
X164227986Y-79813571D01*
X164375537Y-79807216D01*
X164488253Y-79768039D01*
X164570615Y-79693945D01*
X164604554Y-79637646D01*
X164636799Y-79521897D01*
X164622463Y-79410533D01*
X164563137Y-79313065D01*
X164547690Y-79297625D01*
X164494006Y-79261136D01*
X164407301Y-79216585D01*
X164302093Y-79171074D01*
X164243973Y-79149056D01*
X164081220Y-79085416D01*
X163961710Y-79024375D01*
X163879516Y-78960031D01*
X163828710Y-78886478D01*
X163803363Y-78797814D01*
X163797408Y-78704312D01*
X163816837Y-78569154D01*
X163875065Y-78464861D01*
X163972356Y-78391228D01*
X164108971Y-78348050D01*
X164271381Y-78335047D01*
X164381448Y-78338408D01*
G37*
D14*
%TO.C,IC1*%
X153805000Y-85893000D02*
X155280000Y-85893000D01*
X155630000Y-86143000D02*
X159330000Y-86143000D01*
X155630000Y-93943000D02*
X155630000Y-86143000D01*
X159330000Y-86143000D02*
X159330000Y-93943000D01*
X159330000Y-93943000D02*
X155630000Y-93943000D01*
D12*
%TO.C,R1*%
X174227258Y-82945500D02*
X173752742Y-82945500D01*
X174227258Y-81900500D02*
X173752742Y-81900500D01*
%TO.C,R2*%
X148575500Y-88883258D02*
X148575500Y-88408742D01*
X149620500Y-88883258D02*
X149620500Y-88408742D01*
D14*
%TO.C,IC2*%
X164727000Y-92370000D02*
X166202000Y-92370000D01*
X166552000Y-92620000D02*
X170252000Y-92620000D01*
X166552000Y-100420000D02*
X166552000Y-92620000D01*
X170252000Y-92620000D02*
X170252000Y-100420000D01*
X170252000Y-100420000D02*
X166552000Y-100420000D01*
D12*
%TO.C,R5*%
X165751742Y-90663500D02*
X166226258Y-90663500D01*
X165751742Y-91708500D02*
X166226258Y-91708500D01*
%TO.C,C6*%
X127267580Y-98554000D02*
X126986420Y-98554000D01*
X127267580Y-97534000D02*
X126986420Y-97534000D01*
%TO.C,R3*%
X146416500Y-88883258D02*
X146416500Y-88408742D01*
X147461500Y-88883258D02*
X147461500Y-88408742D01*
%TO.C,C1*%
X167780580Y-82933000D02*
X167499420Y-82933000D01*
X167780580Y-81913000D02*
X167499420Y-81913000D01*
%TO.C,C2*%
X173865000Y-93712420D02*
X173865000Y-93993580D01*
X172845000Y-93712420D02*
X172845000Y-93993580D01*
%TO.C,C4*%
X127267580Y-100205000D02*
X126986420Y-100205000D01*
X127267580Y-99185000D02*
X126986420Y-99185000D01*
%TO.C,R9*%
X130064742Y-97521500D02*
X130539258Y-97521500D01*
X130064742Y-98566500D02*
X130539258Y-98566500D01*
%TO.C,C3*%
X162816000Y-87362420D02*
X162816000Y-87643580D01*
X161796000Y-87362420D02*
X161796000Y-87643580D01*
%TO.C,U2*%
X119002000Y-96236000D02*
X125752000Y-96236000D01*
X119002000Y-96236000D02*
X119002000Y-78236000D01*
X143752000Y-96236000D02*
X144502000Y-96236000D01*
X144502000Y-96236000D02*
X144502000Y-95236000D01*
X119002000Y-78236000D02*
X125752000Y-78236000D01*
X124942000Y-78236000D02*
X124942000Y-96236000D01*
X143752000Y-78236000D02*
X144502000Y-78236000D01*
X144502000Y-78236000D02*
X144502000Y-79236000D01*
%TD*%
%LPC*%
D15*
%TO.C,C5*%
X129527000Y-99695000D03*
X131077000Y-99695000D03*
%TD*%
D16*
%TO.C,R4*%
X154242000Y-84709000D03*
X155892000Y-84709000D03*
%TD*%
D17*
%TO.C,D1*%
X179933600Y-98571450D03*
X179933600Y-96996450D03*
%TD*%
D18*
%TO.C,R8*%
X146939000Y-86042000D03*
X146939000Y-84392000D03*
%TD*%
%TO.C,R6*%
X149098000Y-86042000D03*
X149098000Y-84392000D03*
%TD*%
D19*
%TO.C,S1*%
X168444000Y-79463000D03*
X168444000Y-77763000D03*
X173694000Y-79463000D03*
X173694000Y-77763000D03*
%TD*%
D18*
%TO.C,R7*%
X179933600Y-94925950D03*
X179933600Y-93275950D03*
%TD*%
D20*
%TO.C,J1*%
X117350000Y-102080000D03*
X180950000Y-102080000D03*
D21*
X117500000Y-106680000D03*
X118100000Y-106680000D03*
X118700000Y-106680000D03*
X119300000Y-106680000D03*
X119900000Y-106680000D03*
X120500000Y-106680000D03*
X121100000Y-106680000D03*
X121700000Y-106680000D03*
X122300000Y-106680000D03*
X122900000Y-106680000D03*
X123500000Y-106680000D03*
X124100000Y-106680000D03*
X124700000Y-106680000D03*
X125300000Y-106680000D03*
X125900000Y-106680000D03*
X126500000Y-106680000D03*
X127100000Y-106680000D03*
X127700000Y-106680000D03*
X128300000Y-106680000D03*
X128900000Y-106680000D03*
X133100000Y-106680000D03*
X133700000Y-106680000D03*
X134300000Y-106680000D03*
X134900000Y-106680000D03*
X135500000Y-106680000D03*
X136100000Y-106680000D03*
X136700000Y-106680000D03*
X137300000Y-106680000D03*
X137900000Y-106680000D03*
X138500000Y-106680000D03*
X139100000Y-106680000D03*
X139700000Y-106680000D03*
X140300000Y-106680000D03*
X140900000Y-106680000D03*
X141500000Y-106680000D03*
X142100000Y-106680000D03*
X142700000Y-106680000D03*
X143300000Y-106680000D03*
X143900000Y-106680000D03*
X144500000Y-106680000D03*
X145100000Y-106680000D03*
X145700000Y-106680000D03*
X146300000Y-106680000D03*
X146900000Y-106680000D03*
X147500000Y-106680000D03*
X148100000Y-106680000D03*
X148700000Y-106680000D03*
X149300000Y-106680000D03*
X149900000Y-106680000D03*
X150500000Y-106680000D03*
X151100000Y-106680000D03*
X151700000Y-106680000D03*
X152300000Y-106680000D03*
X152900000Y-106680000D03*
X153500000Y-106680000D03*
X154100000Y-106680000D03*
X154700000Y-106680000D03*
X155300000Y-106680000D03*
X155900000Y-106680000D03*
X156500000Y-106680000D03*
X157100000Y-106680000D03*
X157700000Y-106680000D03*
X158300000Y-106680000D03*
X158900000Y-106680000D03*
X159500000Y-106680000D03*
X160100000Y-106680000D03*
X160700000Y-106680000D03*
X161300000Y-106680000D03*
X161900000Y-106680000D03*
X162500000Y-106680000D03*
X163100000Y-106680000D03*
X163700000Y-106680000D03*
X164300000Y-106680000D03*
X164900000Y-106680000D03*
X165500000Y-106680000D03*
X166100000Y-106680000D03*
X166700000Y-106680000D03*
X167300000Y-106680000D03*
X167900000Y-106680000D03*
X168500000Y-106680000D03*
X169100000Y-106680000D03*
X169700000Y-106680000D03*
X170300000Y-106680000D03*
X170900000Y-106680000D03*
X171500000Y-106680000D03*
X172100000Y-106680000D03*
X172700000Y-106680000D03*
X173300000Y-106680000D03*
X173900000Y-106680000D03*
X174500000Y-106680000D03*
X175100000Y-106680000D03*
X175700000Y-106680000D03*
X176300000Y-106680000D03*
X176900000Y-106680000D03*
X177500000Y-106680000D03*
X178100000Y-106680000D03*
X178700000Y-106680000D03*
X179300000Y-106680000D03*
X179900000Y-106680000D03*
X180500000Y-106680000D03*
%TD*%
D22*
%TO.C,C7*%
X180734000Y-83947000D03*
X179184000Y-83947000D03*
%TD*%
D23*
%TO.C,IC1*%
X154542000Y-86468000D03*
X154542000Y-87118000D03*
X154542000Y-87768000D03*
X154542000Y-88418000D03*
X154542000Y-89068000D03*
X154542000Y-89718000D03*
X154542000Y-90368000D03*
X154542000Y-91018000D03*
X154542000Y-91668000D03*
X154542000Y-92318000D03*
X154542000Y-92968000D03*
X154542000Y-93618000D03*
X160418000Y-93618000D03*
X160418000Y-92968000D03*
X160418000Y-92318000D03*
X160418000Y-91668000D03*
X160418000Y-91018000D03*
X160418000Y-90368000D03*
X160418000Y-89718000D03*
X160418000Y-89068000D03*
X160418000Y-88418000D03*
X160418000Y-87768000D03*
X160418000Y-87118000D03*
X160418000Y-86468000D03*
%TD*%
D24*
%TO.C,R1*%
X174815000Y-82423000D03*
X173165000Y-82423000D03*
%TD*%
D18*
%TO.C,R2*%
X149098000Y-89471000D03*
X149098000Y-87821000D03*
%TD*%
D23*
%TO.C,IC2*%
X165464000Y-92945000D03*
X165464000Y-93595000D03*
X165464000Y-94245000D03*
X165464000Y-94895000D03*
X165464000Y-95545000D03*
X165464000Y-96195000D03*
X165464000Y-96845000D03*
X165464000Y-97495000D03*
X165464000Y-98145000D03*
X165464000Y-98795000D03*
X165464000Y-99445000D03*
X165464000Y-100095000D03*
X171340000Y-100095000D03*
X171340000Y-99445000D03*
X171340000Y-98795000D03*
X171340000Y-98145000D03*
X171340000Y-97495000D03*
X171340000Y-96845000D03*
X171340000Y-96195000D03*
X171340000Y-95545000D03*
X171340000Y-94895000D03*
X171340000Y-94245000D03*
X171340000Y-93595000D03*
X171340000Y-92945000D03*
%TD*%
D16*
%TO.C,R5*%
X165164000Y-91186000D03*
X166814000Y-91186000D03*
%TD*%
D22*
%TO.C,C6*%
X127902000Y-98044000D03*
X126352000Y-98044000D03*
%TD*%
D18*
%TO.C,R3*%
X146939000Y-89471000D03*
X146939000Y-87821000D03*
%TD*%
D22*
%TO.C,C1*%
X168415000Y-82423000D03*
X166865000Y-82423000D03*
%TD*%
D25*
%TO.C,C2*%
X173355000Y-93078000D03*
X173355000Y-94628000D03*
%TD*%
D26*
%TO.C,H1*%
X177899109Y-79975109D03*
X178492218Y-78543218D03*
X178492218Y-81407000D03*
X179924109Y-77950109D03*
D27*
X179924109Y-79975109D03*
D26*
X179924109Y-82000109D03*
X181356000Y-78543218D03*
X181356000Y-81407000D03*
X181949109Y-79975109D03*
%TD*%
D22*
%TO.C,C4*%
X127902000Y-99695000D03*
X126352000Y-99695000D03*
%TD*%
D16*
%TO.C,R9*%
X129477000Y-98044000D03*
X131127000Y-98044000D03*
%TD*%
D25*
%TO.C,C3*%
X162306000Y-86728000D03*
X162306000Y-88278000D03*
%TD*%
D28*
%TO.C,U2*%
X126492000Y-95986000D03*
X127762000Y-95986000D03*
X129032000Y-95986000D03*
X130302000Y-95986000D03*
X131572000Y-95986000D03*
X132842000Y-95986000D03*
X134112000Y-95986000D03*
X135382000Y-95986000D03*
X136652000Y-95986000D03*
X137922000Y-95986000D03*
X139192000Y-95986000D03*
X140462000Y-95986000D03*
X141732000Y-95986000D03*
X143002000Y-95986000D03*
D29*
X144252000Y-94221000D03*
X144252000Y-92951000D03*
X144252000Y-91681000D03*
X144252000Y-90411000D03*
X144252000Y-89141000D03*
X144252000Y-87871000D03*
X144252000Y-86601000D03*
X144252000Y-85331000D03*
X144252000Y-84061000D03*
X144252000Y-82791000D03*
X144252000Y-81521000D03*
X144252000Y-80251000D03*
D28*
X143002000Y-78486000D03*
X141732000Y-78486000D03*
X140462000Y-78486000D03*
X139192000Y-78486000D03*
X137922000Y-78486000D03*
X136652000Y-78486000D03*
X135382000Y-78486000D03*
X134112000Y-78486000D03*
X132842000Y-78486000D03*
X131572000Y-78486000D03*
X130302000Y-78486000D03*
X129032000Y-78486000D03*
X127762000Y-78486000D03*
X126492000Y-78486000D03*
D30*
X132812000Y-90136000D03*
X134212000Y-90136000D03*
X135612000Y-90136000D03*
X132812000Y-88736000D03*
X134212000Y-88736000D03*
X135612000Y-88736000D03*
X132812000Y-87336000D03*
X134212000Y-87336000D03*
X135612000Y-87336000D03*
%TD*%
G36*
X131118385Y-105429685D02*
G01*
X131164140Y-105482489D01*
X131175346Y-105534000D01*
X131175346Y-107952990D01*
X131155661Y-108020029D01*
X131102857Y-108065784D01*
X131051335Y-108076990D01*
X116178830Y-108075692D01*
X116171885Y-108075301D01*
X116022493Y-108058463D01*
X115995477Y-108052302D01*
X115863444Y-108006164D01*
X115838446Y-107994142D01*
X115719988Y-107919818D01*
X115698289Y-107902542D01*
X115599315Y-107803747D01*
X115581998Y-107782077D01*
X115507461Y-107663750D01*
X115495395Y-107638774D01*
X115450015Y-107509654D01*
X115443000Y-107468539D01*
X115443000Y-105534000D01*
X115462685Y-105466961D01*
X115515489Y-105421206D01*
X115567000Y-105410000D01*
X131051346Y-105410000D01*
X131118385Y-105429685D01*
G37*
G36*
X182958896Y-105429685D02*
G01*
X183004651Y-105482489D01*
X183015855Y-105533344D01*
X183025327Y-107323347D01*
X183024936Y-107330632D01*
X183008102Y-107479851D01*
X183001941Y-107506860D01*
X182955798Y-107638892D01*
X182943777Y-107663887D01*
X182869454Y-107782340D01*
X182852179Y-107804036D01*
X182753380Y-107903015D01*
X182731712Y-107920331D01*
X182613391Y-107994868D01*
X182588419Y-108006934D01*
X182456490Y-108053309D01*
X182429460Y-108059523D01*
X182280168Y-108076598D01*
X182273117Y-108077000D01*
X132299346Y-108077000D01*
X132232307Y-108057315D01*
X132186552Y-108004511D01*
X132175346Y-107953000D01*
X132175346Y-105534000D01*
X132195031Y-105466961D01*
X132247835Y-105421206D01*
X132299346Y-105410000D01*
X182891857Y-105410000D01*
X182958896Y-105429685D01*
G37*
%LPD*%
M02*
