M48
INCH
T1C0.0118
T2C0.0157
T3C0.0197
T4C0.1063
%
G90
G05
T1
X4.63Y-4.135
X4.66Y-4.08
X4.69Y-4.08
X4.7Y-4.135
X4.725Y-4.08
X4.755Y-4.08
X4.77Y-4.135
X4.84Y-4.135
X4.9Y-4.095
X4.9114Y-4.122
X4.93Y-4.1
X4.94Y-3.06
X4.94Y-3.1
X4.94Y-3.14
X4.94Y-3.18
X4.94Y-3.22
X4.94Y-3.26
X4.94Y-3.3
X4.94Y-3.34
X4.94Y-3.38
X4.94Y-3.42
X4.94Y-3.46
X4.94Y-3.5
X4.94Y-3.54
X4.94Y-3.58
X4.94Y-3.62
X4.94Y-3.66
X4.94Y-3.7
X4.94Y-3.74
X4.94Y-3.78
X4.94Y-3.83
X4.94Y-3.895
X4.9505Y-4.0847
X4.97Y-3.135
X4.98Y-3.6
X4.9854Y-4.1275
X5.0Y-3.625
X5.008Y-4.108
X5.02Y-3.65
X5.025Y-3.17
X5.025Y-3.68
X5.03Y-3.73
X5.03Y-4.085
X5.035Y-3.825
X5.035Y-3.96
X5.05Y-3.985
X5.08Y-3.17
X5.09Y-3.705
X5.1Y-3.985
X5.11Y-4.105
X5.11Y-4.1306
X5.125Y-3.57
X5.13Y-3.735
X5.15Y-3.3
X5.165Y-3.99
X5.19Y-3.875
X5.19Y-3.905
X5.2Y-3.3
X5.225Y-4.14
X5.23Y-3.465
X5.23Y-3.52
X5.255Y-3.44
X5.255Y-3.495
X5.255Y-3.55
X5.26Y-4.134
X5.285Y-3.465
X5.285Y-3.52
X5.31Y-3.44
X5.31Y-3.495
X5.31Y-3.55
X5.33Y-3.835
X5.34Y-3.465
X5.34Y-3.52
X5.34Y-4.095
X5.34Y-4.14
X5.38Y-3.835
X5.4Y-3.25
X5.405Y-4.095
X5.41Y-3.485
X5.412Y-4.138
X5.43Y-4.065
X5.455Y-3.665
X5.4556Y-4.0647
X5.48Y-3.84
X5.48Y-4.136
X5.485Y-3.485
X5.4953Y-4.03
X5.5Y-3.25
X5.5Y-3.68
X5.53Y-3.71
X5.545Y-4.11
X5.552Y-4.136
X5.555Y-3.485
X5.575Y-4.1
X5.59Y-3.715
X5.6Y-3.25
X5.61Y-4.065
X5.6196Y-3.715
X5.6222Y-4.1362
X5.625Y-3.46
X5.625Y-3.51
X5.625Y-3.56
X5.625Y-3.605
X5.6901Y-4.1391
X5.735Y-3.4
X5.735Y-3.505
X5.745Y-3.46
X5.75Y-3.09
X5.765Y-4.14
X5.785Y-3.29
X5.8Y-3.05
X5.825Y-3.595
X5.83Y-3.39
X5.8371Y-4.1396
X5.85Y-3.1
X5.87Y-3.29
X5.9Y-3.05
X5.9Y-3.15
X5.9Y-3.25
X5.9051Y-4.1397
X5.91Y-3.455
X5.91Y-3.525
X5.925Y-3.3844
X5.925Y-3.41
X5.95Y-3.1
X5.95Y-3.3
X5.95Y-3.455
X5.965Y-3.43
X5.9751Y-4.1394
X5.9789Y-3.4839
X6.0Y-3.05
X6.0Y-3.15
X6.0Y-3.25
X6.0Y-3.87
X6.02Y-3.74
X6.03Y-3.9
X6.035Y-3.58
X6.035Y-3.61
X6.035Y-3.64
X6.035Y-3.67
X6.035Y-3.7
X6.0451Y-4.1392
X6.05Y-3.1
X6.07Y-3.74
X6.07Y-3.79
X6.1Y-3.05
X6.1Y-3.15
X6.1Y-3.25
X6.1201Y-4.1378
X6.15Y-3.1
X6.15Y-3.495
X6.175Y-3.335
X6.1851Y-4.139
X6.2Y-3.05
X6.2Y-3.15
X6.2Y-3.25
X6.25Y-3.1
X6.25Y-3.3
X6.26Y-3.485
X6.26Y-4.1389
X6.265Y-3.43
X6.3Y-3.05
X6.3Y-3.15
X6.3Y-3.25
X6.3301Y-4.1396
X6.35Y-3.1
X6.35Y-3.3
X6.4Y-3.05
X6.4Y-3.15
X6.4Y-3.25
X6.4001Y-4.1394
X6.41Y-3.555
X6.43Y-3.41
X6.43Y-3.48
X6.45Y-3.1
X6.45Y-3.3
X6.4547Y-3.815
X6.455Y-3.845
X6.455Y-3.875
X6.455Y-3.91
X6.455Y-3.94
X6.455Y-3.7894
X6.47Y-3.56
X6.4701Y-4.1392
X6.48Y-3.965
X6.5Y-3.05
X6.5Y-3.15
X6.5Y-3.25
X6.53Y-3.245
X6.535Y-3.98
X6.5401Y-4.1391
X6.55Y-3.35
X6.56Y-3.685
X6.56Y-3.72
X6.5662Y-3.9795
X6.58Y-3.195
X6.59Y-3.62
X6.5949Y-3.98
X6.6Y-3.4
X6.6105Y-4.1389
X6.625Y-3.98
X6.65Y-3.35
X6.65Y-3.45
X6.655Y-3.98
X6.68Y-3.065
X6.6801Y-4.139
X6.684Y-3.979
X6.7Y-3.745
X6.7047Y-4.115
X6.7129Y-3.9779
X6.7343Y-4.115
X6.745Y-3.98
X6.75Y-3.35
X6.75Y-3.635
X6.76Y-4.14
X6.78Y-3.245
X6.79Y-3.065
X6.85Y-3.35
X6.85Y-3.8
X6.85Y-3.9
X6.85Y-4.0
X6.8628Y-3.665
X6.8628Y-3.73
X6.9Y-3.1
X6.9Y-3.2
X6.9Y-4.14
X6.935Y-3.35
X6.95Y-3.05
X6.95Y-3.25
X6.95Y-3.55
X6.95Y-3.65
X6.95Y-3.75
X6.95Y-3.85
X6.95Y-3.95
X6.95Y-4.05
X6.97Y-4.14
X7.0Y-3.3
X7.0Y-3.6
X7.0Y-3.7
X7.0Y-3.8
X7.0Y-3.9
X7.0Y-4.0
X7.01Y-4.09
X7.015Y-4.115
X7.0384Y-4.115
X7.039Y-3.6698
X7.045Y-4.09
X7.05Y-3.395
X7.05Y-3.45
X7.05Y-3.55
X7.065Y-4.14
X7.1Y-3.4
X7.1Y-3.5
X7.1Y-3.6
X7.15Y-3.35
X7.15Y-3.55
T2
X7.084Y-3.9298
T3
X7.0039Y-3.1486
X7.0273Y-3.0923
X7.0273Y-3.205
X7.0836Y-3.0689
X7.0836Y-3.2284
X7.14Y-3.0923
X7.14Y-3.205
X7.1634Y-3.1486
T4
X7.0836Y-3.1486
T0
M30
