%TF.GenerationSoftware,KiCad,Pcbnew,7.0.8*%
%TF.CreationDate,2024-03-21T14:52:22+01:00*%
%TF.ProjectId,so-dimm-esp32-cm,736f2d64-696d-46d2-9d65-737033322d63,REV.03*%
%TF.SameCoordinates,Original*%
%TF.FileFunction,Profile,NP*%
%FSLAX46Y46*%
G04 Gerber Fmt 4.6, Leading zero omitted, Abs format (unit mm)*
G04 Created by KiCad (PCBNEW 7.0.8) date 2024-03-21 14:52:22*
%MOMM*%
%LPD*%
G01*
G04 APERTURE LIST*
%TA.AperFunction,Profile*%
%ADD10C,0.100000*%
%TD*%
%TA.AperFunction,Profile*%
%ADD11C,0.150000*%
%TD*%
G04 APERTURE END LIST*
D10*
X182276655Y-108077045D02*
G75*
G03*
X183025346Y-107327001I-1355J750045D01*
G01*
X117391113Y-94030348D02*
G75*
G03*
X116484400Y-93124113I-855913J50348D01*
G01*
X116484400Y-99059998D02*
G75*
G03*
X117398798Y-98145600I50800J863598D01*
G01*
X132175346Y-104577001D02*
G75*
G03*
X131175346Y-104577001I-500000J0D01*
G01*
D11*
X116174037Y-76927047D02*
G75*
G03*
X115425346Y-77677001I1263J-749953D01*
G01*
D10*
X115417600Y-99060000D02*
X115425346Y-107327001D01*
X132175346Y-108077001D02*
X182276655Y-108077000D01*
X181000401Y-98145600D02*
X181000401Y-94030800D01*
X116484400Y-99059999D02*
X115417600Y-99060000D01*
X115425309Y-107327001D02*
G75*
G03*
X116175345Y-108075692I749991J1301D01*
G01*
X132175346Y-108077001D02*
X132175346Y-104577001D01*
X181008087Y-98146052D02*
G75*
G03*
X181914800Y-99052287I855913J-50348D01*
G01*
D11*
X116174037Y-76927001D02*
X182275346Y-76927001D01*
D10*
X183025346Y-107327001D02*
X182981600Y-99060000D01*
X181914800Y-93116402D02*
G75*
G03*
X181000402Y-94030800I-50800J-863598D01*
G01*
X117398799Y-94030800D02*
X117398799Y-98145600D01*
X181914800Y-99052287D02*
X182981600Y-99060000D01*
X115425346Y-90077001D02*
X115417600Y-93116400D01*
D11*
X183025345Y-77677001D02*
X183025346Y-86077001D01*
X183025346Y-93116400D02*
X183025346Y-90077001D01*
D10*
X131175346Y-108077001D02*
X131175346Y-104577001D01*
D11*
X183025299Y-77677001D02*
G75*
G03*
X182275346Y-76927001I-749999J1D01*
G01*
D10*
X181914800Y-93116401D02*
X183025346Y-93116400D01*
X131175346Y-108077001D02*
X116175345Y-108075692D01*
D11*
X115425346Y-77677001D02*
X115425346Y-86077001D01*
X115425346Y-90076999D02*
G75*
G03*
X115425346Y-86077001I4J1999999D01*
G01*
D10*
X116484400Y-93124113D02*
X115417600Y-93116400D01*
D11*
X183025346Y-86076999D02*
G75*
G03*
X183025346Y-90077001I-46J-2000001D01*
G01*
M02*
