%TF.GenerationSoftware,KiCad,Pcbnew,7.0.8*%
%TF.CreationDate,2024-03-21T14:52:22+01:00*%
%TF.ProjectId,so-dimm-esp32-cm,736f2d64-696d-46d2-9d65-737033322d63,REV.03*%
%TF.SameCoordinates,Original*%
%TF.FileFunction,Soldermask,Bot*%
%TF.FilePolarity,Negative*%
%FSLAX46Y46*%
G04 Gerber Fmt 4.6, Leading zero omitted, Abs format (unit mm)*
G04 Created by KiCad (PCBNEW 7.0.8) date 2024-03-21 14:52:22*
%MOMM*%
%LPD*%
G01*
G04 APERTURE LIST*
G04 Aperture macros list*
%AMFreePoly0*
4,1,19,0.550000,-0.750000,0.000000,-0.750000,0.000000,-0.744911,-0.071157,-0.744911,-0.207708,-0.704816,-0.327430,-0.627875,-0.420627,-0.520320,-0.479746,-0.390866,-0.500000,-0.250000,-0.500000,0.250000,-0.479746,0.390866,-0.420627,0.520320,-0.327430,0.627875,-0.207708,0.704816,-0.071157,0.744911,0.000000,0.744911,0.000000,0.750000,0.550000,0.750000,0.550000,-0.750000,0.550000,-0.750000,
$1*%
%AMFreePoly1*
4,1,19,0.000000,0.744911,0.071157,0.744911,0.207708,0.704816,0.327430,0.627875,0.420627,0.520320,0.479746,0.390866,0.500000,0.250000,0.500000,-0.250000,0.479746,-0.390866,0.420627,-0.520320,0.327430,-0.627875,0.207708,-0.704816,0.071157,-0.744911,0.000000,-0.744911,0.000000,-0.750000,-0.550000,-0.750000,-0.550000,0.750000,0.000000,0.750000,0.000000,0.744911,0.000000,0.744911,
$1*%
G04 Aperture macros list end*
%ADD10C,1.800000*%
%ADD11R,0.450000X2.300000*%
%ADD12C,0.800000*%
%ADD13C,5.400000*%
%ADD14C,1.000000*%
%ADD15FreePoly0,0.000000*%
%ADD16R,1.000000X1.500000*%
%ADD17FreePoly1,0.000000*%
G04 APERTURE END LIST*
D10*
%TO.C,J1*%
X117350000Y-102080000D03*
X180950000Y-102080000D03*
D11*
X117850000Y-106680000D03*
X118450000Y-106680000D03*
X119050000Y-106680000D03*
X119650000Y-106680000D03*
X120250000Y-106680000D03*
X120850000Y-106680000D03*
X121450000Y-106680000D03*
X122050000Y-106680000D03*
X122650000Y-106680000D03*
X123250000Y-106680000D03*
X123850000Y-106680000D03*
X124450000Y-106680000D03*
X125050000Y-106680000D03*
X125650000Y-106680000D03*
X126250000Y-106680000D03*
X126850000Y-106680000D03*
X127450000Y-106680000D03*
X128050000Y-106680000D03*
X128650000Y-106680000D03*
X129250000Y-106680000D03*
X133450000Y-106680000D03*
X134050000Y-106680000D03*
X134650000Y-106680000D03*
X135250000Y-106680000D03*
X135850000Y-106680000D03*
X136450000Y-106680000D03*
X137050000Y-106680000D03*
X137650000Y-106680000D03*
X138250000Y-106680000D03*
X138850000Y-106680000D03*
X139450000Y-106680000D03*
X140050000Y-106680000D03*
X140650000Y-106680000D03*
X141250000Y-106680000D03*
X141850000Y-106680000D03*
X142450000Y-106680000D03*
X143050000Y-106680000D03*
X143650000Y-106680000D03*
X144250000Y-106680000D03*
X144850000Y-106680000D03*
X145450000Y-106680000D03*
X146050000Y-106680000D03*
X146650000Y-106680000D03*
X147250000Y-106680000D03*
X147850000Y-106680000D03*
X148450000Y-106680000D03*
X149050000Y-106680000D03*
X149650000Y-106680000D03*
X150250000Y-106680000D03*
X150850000Y-106680000D03*
X151450000Y-106680000D03*
X152050000Y-106680000D03*
X152650000Y-106680000D03*
X153250000Y-106680000D03*
X153850000Y-106680000D03*
X154450000Y-106680000D03*
X155050000Y-106680000D03*
X155650000Y-106680000D03*
X156250000Y-106680000D03*
X156850000Y-106680000D03*
X157450000Y-106680000D03*
X158050000Y-106680000D03*
X158650000Y-106680000D03*
X159250000Y-106680000D03*
X159850000Y-106680000D03*
X160450000Y-106680000D03*
X161050000Y-106680000D03*
X161650000Y-106680000D03*
X162250000Y-106680000D03*
X162850000Y-106680000D03*
X163450000Y-106680000D03*
X164050000Y-106680000D03*
X164650000Y-106680000D03*
X165250000Y-106680000D03*
X165850000Y-106680000D03*
X166450000Y-106680000D03*
X167050000Y-106680000D03*
X167650000Y-106680000D03*
X168250000Y-106680000D03*
X168850000Y-106680000D03*
X169450000Y-106680000D03*
X170050000Y-106680000D03*
X170650000Y-106680000D03*
X171250000Y-106680000D03*
X171850000Y-106680000D03*
X172450000Y-106680000D03*
X173050000Y-106680000D03*
X173650000Y-106680000D03*
X174250000Y-106680000D03*
X174850000Y-106680000D03*
X175450000Y-106680000D03*
X176050000Y-106680000D03*
X176650000Y-106680000D03*
X177250000Y-106680000D03*
X177850000Y-106680000D03*
X178450000Y-106680000D03*
X179050000Y-106680000D03*
X179650000Y-106680000D03*
X180250000Y-106680000D03*
X180850000Y-106680000D03*
%TD*%
D12*
%TO.C,H1*%
X177899109Y-79975109D03*
X178492218Y-78543218D03*
X178492218Y-81407000D03*
X179924109Y-77950109D03*
D13*
X179924109Y-79975109D03*
D12*
X179924109Y-82000109D03*
X181356000Y-78543218D03*
X181356000Y-81407000D03*
X181949109Y-79975109D03*
%TD*%
D14*
%TO.C,TP4*%
X131445000Y-86233000D03*
%TD*%
%TO.C,TP10*%
X135763000Y-86233000D03*
%TD*%
%TO.C,TP2*%
X146812000Y-79502000D03*
%TD*%
%TO.C,TP13*%
X142240000Y-86233000D03*
%TD*%
%TO.C,TP8*%
X178002257Y-86233000D03*
%TD*%
%TO.C,TP11*%
X137922000Y-86233000D03*
%TD*%
%TO.C,TP6*%
X175768000Y-86233000D03*
%TD*%
%TO.C,TP3*%
X133604000Y-86233000D03*
%TD*%
D15*
%TO.C,JP1*%
X154783000Y-90170000D03*
D16*
X156083000Y-90170000D03*
D17*
X157383000Y-90170000D03*
%TD*%
D15*
%TO.C,JP2*%
X154783000Y-87503000D03*
D16*
X156083000Y-87503000D03*
D17*
X157383000Y-87503000D03*
%TD*%
D14*
%TO.C,TP1*%
X129286000Y-86233000D03*
%TD*%
%TO.C,TP12*%
X140081000Y-86233000D03*
%TD*%
G36*
X131118385Y-105429685D02*
G01*
X131164140Y-105482489D01*
X131175346Y-105534000D01*
X131175346Y-107952990D01*
X131155661Y-108020029D01*
X131102857Y-108065784D01*
X131051335Y-108076990D01*
X116178830Y-108075692D01*
X116171885Y-108075301D01*
X116022493Y-108058463D01*
X115995477Y-108052302D01*
X115863444Y-108006164D01*
X115838446Y-107994142D01*
X115719988Y-107919818D01*
X115698289Y-107902542D01*
X115599315Y-107803747D01*
X115581998Y-107782077D01*
X115507461Y-107663750D01*
X115495395Y-107638774D01*
X115450015Y-107509654D01*
X115443000Y-107468539D01*
X115443000Y-105534000D01*
X115462685Y-105466961D01*
X115515489Y-105421206D01*
X115567000Y-105410000D01*
X131051346Y-105410000D01*
X131118385Y-105429685D01*
G37*
G36*
X182958896Y-105429685D02*
G01*
X183004651Y-105482489D01*
X183015855Y-105533344D01*
X183025327Y-107323347D01*
X183024936Y-107330632D01*
X183008102Y-107479851D01*
X183001941Y-107506860D01*
X182955798Y-107638892D01*
X182943777Y-107663887D01*
X182869454Y-107782340D01*
X182852179Y-107804036D01*
X182753380Y-107903015D01*
X182731712Y-107920331D01*
X182613391Y-107994868D01*
X182588419Y-108006934D01*
X182456490Y-108053309D01*
X182429460Y-108059523D01*
X182280168Y-108076598D01*
X182273117Y-108077000D01*
X132299346Y-108077000D01*
X132232307Y-108057315D01*
X132186552Y-108004511D01*
X132175346Y-107953000D01*
X132175346Y-105534000D01*
X132195031Y-105466961D01*
X132247835Y-105421206D01*
X132299346Y-105410000D01*
X182891857Y-105410000D01*
X182958896Y-105429685D01*
G37*
M02*
