%TF.GenerationSoftware,KiCad,Pcbnew,7.0.8*%
%TF.CreationDate,2024-03-21T14:52:22+01:00*%
%TF.ProjectId,so-dimm-esp32-cm,736f2d64-696d-46d2-9d65-737033322d63,REV.03*%
%TF.SameCoordinates,Original*%
%TF.FileFunction,Copper,L3,Inr*%
%TF.FilePolarity,Positive*%
%FSLAX46Y46*%
G04 Gerber Fmt 4.6, Leading zero omitted, Abs format (unit mm)*
G04 Created by KiCad (PCBNEW 7.0.8) date 2024-03-21 14:52:22*
%MOMM*%
%LPD*%
G01*
G04 APERTURE LIST*
%TA.AperFunction,ComponentPad*%
%ADD10C,0.800000*%
%TD*%
%TA.AperFunction,ComponentPad*%
%ADD11C,5.400000*%
%TD*%
%TA.AperFunction,ViaPad*%
%ADD12C,0.500000*%
%TD*%
%TA.AperFunction,ViaPad*%
%ADD13C,0.800000*%
%TD*%
%TA.AperFunction,Conductor*%
%ADD14C,0.200000*%
%TD*%
G04 APERTURE END LIST*
D10*
%TO.N,Net-(C7-Pad1)*%
%TO.C,H1*%
X177899109Y-79975109D03*
X178492218Y-78543218D03*
X178492218Y-81407000D03*
X179924109Y-77950109D03*
D11*
X179924109Y-79975109D03*
D10*
X179924109Y-82000109D03*
X181356000Y-78543218D03*
X181356000Y-81407000D03*
X181949109Y-79975109D03*
%TD*%
D12*
%TO.N,+3V3*%
X150114000Y-87757000D03*
X127762000Y-94742000D03*
X178943000Y-103886000D03*
X131826000Y-98425000D03*
X178181000Y-104521000D03*
X172212000Y-82423000D03*
X178054000Y-103886000D03*
X145923000Y-87884000D03*
X163322000Y-86614000D03*
X129794000Y-104916503D03*
X132715000Y-105156000D03*
X167386000Y-91948000D03*
X149098000Y-83566000D03*
X178790600Y-93211950D03*
X170180000Y-95123000D03*
X156845000Y-84709000D03*
X174315500Y-93091000D03*
X127889000Y-100584000D03*
X171450000Y-92329000D03*
X127889000Y-97155000D03*
X146939000Y-83566000D03*
X179070000Y-86233000D03*
X178775346Y-104521000D03*
%TO.N,GND*%
X157480000Y-80010000D03*
X125476000Y-97282000D03*
X180340000Y-86360000D03*
X149860000Y-80010000D03*
X142803817Y-105059417D03*
X169675306Y-105130499D03*
D13*
X179933600Y-99815950D03*
D12*
X173990000Y-101600000D03*
X132842000Y-88011000D03*
X125476000Y-79756000D03*
X122936000Y-105029000D03*
X151130000Y-87757000D03*
X179451000Y-105156000D03*
X125476000Y-92964000D03*
X168910000Y-85090000D03*
X133477000Y-88773000D03*
X180340000Y-91440000D03*
X134239000Y-88011000D03*
X125476000Y-89916000D03*
X144528978Y-105134162D03*
X177038000Y-105156000D03*
X158750000Y-83820000D03*
X166624000Y-93599000D03*
X125476000Y-78740000D03*
X142240000Y-82550000D03*
X176530000Y-97790000D03*
X169672000Y-77851000D03*
X160020000Y-80010000D03*
X121158000Y-105029000D03*
X177800000Y-93980000D03*
X125476000Y-80772000D03*
X125476000Y-93980000D03*
X129794000Y-104267000D03*
X157480000Y-82550000D03*
X175260000Y-78740000D03*
X165862000Y-82423000D03*
X177800000Y-83820000D03*
X158750000Y-78740000D03*
X177800000Y-101600000D03*
X135636000Y-105156000D03*
X153546465Y-105136942D03*
X141020800Y-105054400D03*
X154178000Y-96266000D03*
X152400000Y-80010000D03*
X125476000Y-83820000D03*
X174315500Y-94742000D03*
X163830000Y-78740000D03*
X154940000Y-77470000D03*
X152400000Y-77470000D03*
X154178000Y-94996000D03*
X152908000Y-94996000D03*
X146431000Y-105156000D03*
X176530000Y-90170000D03*
X161290000Y-83820000D03*
X139192000Y-105054400D03*
X176530000Y-92710000D03*
X135636000Y-89408000D03*
X125476000Y-82804000D03*
X164341361Y-105136049D03*
X165100000Y-80010000D03*
X135636000Y-88011000D03*
X151130000Y-78740000D03*
X125476000Y-91948000D03*
X181610000Y-90170000D03*
X125476000Y-77724000D03*
X133477000Y-87376000D03*
X154940000Y-82550000D03*
X126627925Y-104837475D03*
X153162000Y-99060000D03*
X176530000Y-95250000D03*
X153670000Y-78740000D03*
X125476000Y-84836000D03*
X134874000Y-88773000D03*
X157102040Y-105131415D03*
X160020000Y-82550000D03*
X133604308Y-105003600D03*
X176530000Y-82550000D03*
X134874000Y-90170000D03*
X125476000Y-94996000D03*
X165100000Y-77470000D03*
X157480000Y-77470000D03*
X148263233Y-105144884D03*
X137464800Y-105105200D03*
X148590000Y-78740000D03*
X163322000Y-88392000D03*
X160784887Y-105145909D03*
X125476000Y-98933000D03*
X149860000Y-77470000D03*
X131826000Y-99187000D03*
X154940000Y-80010000D03*
X172466000Y-77851000D03*
X155450000Y-105100000D03*
X149989608Y-105147291D03*
X151511000Y-87122000D03*
X152400000Y-98298000D03*
X163830000Y-83820000D03*
X162563538Y-105140433D03*
X119380000Y-105029000D03*
X125476000Y-86868000D03*
X171704000Y-105156000D03*
X125476000Y-96012000D03*
X166118535Y-105132878D03*
X176530000Y-102870000D03*
X162560000Y-77470000D03*
X171450000Y-85090000D03*
X173990000Y-96520000D03*
X180340000Y-88900000D03*
X152400000Y-82550000D03*
X175260000Y-105156000D03*
X165100000Y-82550000D03*
X177800000Y-91440000D03*
X162560000Y-80010000D03*
X139700000Y-82550000D03*
X117602000Y-105029000D03*
X181610000Y-85090000D03*
X125476000Y-81788000D03*
X137160000Y-82550000D03*
X162560000Y-82550000D03*
X125476000Y-90932000D03*
X173990000Y-85090000D03*
X153289000Y-93980000D03*
X160020000Y-77470000D03*
X156210000Y-78740000D03*
X161290000Y-78740000D03*
X168910000Y-87630000D03*
X125476000Y-87884000D03*
X176530000Y-77470000D03*
X149860000Y-82550000D03*
X134874000Y-87376000D03*
X167907617Y-105127499D03*
X125476000Y-88900000D03*
X151130000Y-83820000D03*
X147320000Y-77470000D03*
X176149000Y-85090000D03*
X132842000Y-89408000D03*
X164592000Y-100711000D03*
X176530000Y-100330000D03*
X126238000Y-79629000D03*
X175260000Y-81280000D03*
X133477000Y-90170000D03*
X173990000Y-99060000D03*
X151768468Y-105141586D03*
X179070000Y-87630000D03*
X124750500Y-104698800D03*
X166370000Y-85090000D03*
X177800000Y-96520000D03*
X125476000Y-85852000D03*
X167640000Y-86360000D03*
X179070000Y-90170000D03*
X177800000Y-99060000D03*
X134239000Y-89408000D03*
X166624000Y-94488000D03*
X159004000Y-105127499D03*
%TO.N,/SCL*%
X159004000Y-88519000D03*
X162814000Y-90297000D03*
%TO.N,/SDA*%
X159131000Y-87122000D03*
%TO.N,/~{E2_INT}*%
X164338000Y-90424000D03*
X145669000Y-86360000D03*
%TO.N,E2_IO0_2*%
X163957161Y-96251538D03*
%TO.N,E2_IO0_3*%
X163949923Y-96901000D03*
%TO.N,E2_IO0_4*%
X163957000Y-97663000D03*
%TO.N,E2_IO0_5*%
X163957000Y-98425000D03*
%TO.N,E2_IO0_6*%
X163957000Y-99314000D03*
%TO.N,E2_IO0_7*%
X163957000Y-100076000D03*
%TO.N,E2_IO1_0*%
X171323000Y-101092000D03*
%TO.N,E2_IO1_1*%
X170508188Y-101038056D03*
%TO.N,E2_IO1_2*%
X169773422Y-101066422D03*
%TO.N,E2_IO1_3*%
X169037000Y-101092000D03*
%TO.N,E2_IO1_4*%
X168275000Y-101092000D03*
%TO.N,E2_IO1_5*%
X167511269Y-101092000D03*
%TO.N,E2_IO1_6*%
X166782447Y-101079066D03*
%TO.N,E2_IO1_7*%
X165989000Y-101090812D03*
%TO.N,/SDA0*%
X118364000Y-103632000D03*
X147955000Y-91313000D03*
X150114000Y-89535000D03*
X142875000Y-91567000D03*
X126492000Y-91440000D03*
X137414000Y-88519000D03*
%TO.N,/ESP32-CM/ESP_EN{slash}CM_RUN*%
X167132000Y-81153000D03*
X129286000Y-94107000D03*
%TO.N,/ESP32-CM/RXD0*%
X137287000Y-104013000D03*
X132080000Y-83820000D03*
%TO.N,/ESP32-CM/TXD0*%
X130810000Y-83820000D03*
X135636000Y-104013000D03*
%TO.N,E1_IO0_4*%
X153289000Y-90932000D03*
%TO.N,E1_IO0_5*%
X153289000Y-91694000D03*
%TO.N,E1_IO0_6*%
X153289000Y-92456000D03*
%TO.N,E1_IO0_7*%
X153289000Y-93218000D03*
%TO.N,/SCL0*%
X142875000Y-90424000D03*
X127000000Y-92075000D03*
X151864200Y-88491200D03*
X119126000Y-103632000D03*
X139319000Y-88519000D03*
%TO.N,/ESP32-CM/IO0*%
X124460000Y-104013000D03*
X130175000Y-90678000D03*
X146050000Y-78486000D03*
%TO.N,/ESP32-CM/USB_D-*%
X141987000Y-94361000D03*
X171050346Y-104521000D03*
%TO.N,/ESP32-CM/USB_D+*%
X142737000Y-94361000D03*
X170300346Y-104521000D03*
%TO.N,/ESP32-CM/V1SPI_CLK*%
X140462000Y-94234000D03*
X142494000Y-103251000D03*
%TO.N,/ESP32-CM/V1SPI_MOSI*%
X139700000Y-93472000D03*
X141605000Y-104140000D03*
%TO.N,/ESP32-CM/V1SPI_MISO*%
X138557000Y-93091000D03*
X140843000Y-104394000D03*
%TO.N,/ESP32-CM/V1SPI_CS*%
X139192000Y-97536000D03*
X139581500Y-102362000D03*
%TO.N,/ESP32-CM/V0SPI_CLK*%
X129540000Y-101219000D03*
X127762000Y-103759000D03*
X129032000Y-80518000D03*
%TO.N,/ESP32-CM/V0SPI_MOSI*%
X131191000Y-101346000D03*
X127203200Y-104343200D03*
%TO.N,/ESP32-CM/V0SPI_MISO*%
X128270000Y-101219000D03*
X127635000Y-80518000D03*
X125741602Y-103750298D03*
%TO.N,/ESP32-CM/V0SPI_CS*%
X125222000Y-104140000D03*
X130302000Y-94869000D03*
%TO.N,/ESP32-CM/GPIO15{slash}RTS*%
X135382000Y-97409000D03*
X137922000Y-103251000D03*
%TO.N,/ESP32-CM/GPIO16{slash}CTS*%
X136652000Y-97409000D03*
X138571444Y-103242260D03*
%TO.N,/SDA1*%
X120015000Y-103632000D03*
X141097000Y-88519000D03*
X142875000Y-89154000D03*
X127508000Y-92710000D03*
X150494521Y-85964498D03*
X145669000Y-89027000D03*
X148082000Y-86106000D03*
%TO.N,/SCL1*%
X120777000Y-103632000D03*
X127635000Y-93472000D03*
X156210000Y-88773000D03*
X142875000Y-87884000D03*
X150495000Y-86614000D03*
%TD*%
D14*
%TO.N,/ESP32-CM/RXD0*%
X132080000Y-95123000D02*
X132080000Y-83820000D01*
X137287000Y-100330000D02*
X132080000Y-95123000D01*
X137287000Y-104013000D02*
X137287000Y-100330000D01*
%TO.N,/ESP32-CM/TXD0*%
X135636000Y-99314000D02*
X130810000Y-94488000D01*
X130810000Y-94488000D02*
X130810000Y-83820000D01*
X135636000Y-104013000D02*
X135636000Y-99314000D01*
%TO.N,/ESP32-CM/IO0*%
X126940788Y-100262212D02*
X126940788Y-97341212D01*
X130175000Y-94107000D02*
X130175000Y-90678000D01*
X126940788Y-97341212D02*
X130175000Y-94107000D01*
X124460000Y-104013000D02*
X124460000Y-102743000D01*
X124460000Y-102743000D02*
X126940788Y-100262212D01*
%TO.N,/ESP32-CM/USB_D-*%
X142136999Y-93891801D02*
X142136999Y-94211001D01*
X142136999Y-94211001D02*
X141987000Y-94361000D01*
X164125000Y-102635000D02*
X164125000Y-101551676D01*
X161275000Y-101551676D02*
X161275000Y-102010000D01*
X162525000Y-102918345D02*
X162525000Y-102460000D01*
X160300000Y-102010000D02*
X158335200Y-102010000D01*
X161275000Y-102010000D02*
X161275000Y-102918345D01*
X149572200Y-93247000D02*
X142781800Y-93247000D01*
X171050346Y-104521000D02*
X168539346Y-102010000D01*
X164125000Y-102918345D02*
X164125000Y-102635000D01*
X164475000Y-102635000D02*
X164475000Y-102918345D01*
X162875000Y-102010000D02*
X162875000Y-102918345D01*
X166075000Y-102635000D02*
X166075000Y-102918345D01*
X142781800Y-93247000D02*
X142136999Y-93891801D01*
X165725000Y-102918345D02*
X165725000Y-102635000D01*
X162875000Y-101551676D02*
X162875000Y-102010000D01*
X162525000Y-102460000D02*
X162525000Y-101551676D01*
X168539346Y-102010000D02*
X166700000Y-102010000D01*
X158335200Y-102010000D02*
X149572200Y-93247000D01*
X160925000Y-102918345D02*
X160925000Y-102635000D01*
X165100000Y-102010000D02*
G75*
G03*
X164475000Y-102635000I0J-625000D01*
G01*
X161900000Y-100926700D02*
G75*
G03*
X161275000Y-101551676I0J-625000D01*
G01*
X165725000Y-102635000D02*
G75*
G03*
X165100000Y-102010000I-625000J0D01*
G01*
X160925000Y-102635000D02*
G75*
G03*
X160300000Y-102010000I-625000J0D01*
G01*
X162525024Y-101551676D02*
G75*
G03*
X161900000Y-100926676I-625024J-24D01*
G01*
X162700000Y-103093300D02*
G75*
G03*
X162875000Y-102918345I0J175000D01*
G01*
X165900000Y-103093300D02*
G75*
G03*
X166075000Y-102918345I0J175000D01*
G01*
X166700000Y-102010000D02*
G75*
G03*
X166075000Y-102635000I0J-625000D01*
G01*
X164125024Y-101551676D02*
G75*
G03*
X163500000Y-100926676I-625024J-24D01*
G01*
X162524955Y-102918345D02*
G75*
G03*
X162700000Y-103093345I175045J45D01*
G01*
X160924955Y-102918345D02*
G75*
G03*
X161100000Y-103093345I175045J45D01*
G01*
X165724955Y-102918345D02*
G75*
G03*
X165900000Y-103093345I175045J45D01*
G01*
X163500000Y-100926700D02*
G75*
G03*
X162875000Y-101551676I0J-625000D01*
G01*
X164124955Y-102918345D02*
G75*
G03*
X164300000Y-103093345I175045J45D01*
G01*
X164300000Y-103093300D02*
G75*
G03*
X164475000Y-102918345I0J175000D01*
G01*
X161100000Y-103093300D02*
G75*
G03*
X161275000Y-102918345I0J175000D01*
G01*
%TO.N,/ESP32-CM/USB_D+*%
X163325000Y-102010000D02*
X163325000Y-102918345D01*
X163325000Y-101551676D02*
X163325000Y-102010000D01*
X142587001Y-94078199D02*
X142587001Y-94211001D01*
X163675000Y-102918345D02*
X163675000Y-102635000D01*
X170300346Y-104521000D02*
X170300346Y-104407397D01*
X160300000Y-102460000D02*
X158148800Y-102460000D01*
X165275000Y-102918345D02*
X165275000Y-102635000D01*
X158148800Y-102460000D02*
X149385800Y-93697000D01*
X164925000Y-102635000D02*
X164925000Y-102918345D01*
X161725000Y-102010000D02*
X161725000Y-102918345D01*
X162075000Y-102460000D02*
X162075000Y-101551676D01*
X149385800Y-93697000D02*
X142968200Y-93697000D01*
X160475000Y-102918345D02*
X160475000Y-102635000D01*
X168352949Y-102460000D02*
X166700000Y-102460000D01*
X161725000Y-101551676D02*
X161725000Y-102010000D01*
X163675000Y-102635000D02*
X163675000Y-101551676D01*
X142968200Y-93697000D02*
X142587001Y-94078199D01*
X170300346Y-104407397D02*
X168352949Y-102460000D01*
X162075000Y-102918345D02*
X162075000Y-102460000D01*
X166525000Y-102635000D02*
X166525000Y-102918345D01*
X142587001Y-94211001D02*
X142737000Y-94361000D01*
X163674955Y-102918345D02*
G75*
G03*
X164300000Y-103543345I625045J45D01*
G01*
X163500000Y-101376700D02*
G75*
G03*
X163325000Y-101551676I0J-175000D01*
G01*
X165100000Y-102460000D02*
G75*
G03*
X164925000Y-102635000I0J-175000D01*
G01*
X163675024Y-101551676D02*
G75*
G03*
X163500000Y-101376676I-175024J-24D01*
G01*
X166700000Y-102460000D02*
G75*
G03*
X166525000Y-102635000I0J-175000D01*
G01*
X160474955Y-102918345D02*
G75*
G03*
X161100000Y-103543345I625045J45D01*
G01*
X161900000Y-101376700D02*
G75*
G03*
X161725000Y-101551676I0J-175000D01*
G01*
X162074955Y-102918345D02*
G75*
G03*
X162700000Y-103543345I625045J45D01*
G01*
X164300000Y-103543300D02*
G75*
G03*
X164925000Y-102918345I0J625000D01*
G01*
X160475000Y-102635000D02*
G75*
G03*
X160300000Y-102460000I-175000J0D01*
G01*
X165900000Y-103543300D02*
G75*
G03*
X166525000Y-102918345I0J625000D01*
G01*
X165275000Y-102635000D02*
G75*
G03*
X165100000Y-102460000I-175000J0D01*
G01*
X165274955Y-102918345D02*
G75*
G03*
X165900000Y-103543345I625045J45D01*
G01*
X162075024Y-101551676D02*
G75*
G03*
X161900000Y-101376676I-175024J-24D01*
G01*
X162700000Y-103543300D02*
G75*
G03*
X163325000Y-102918345I0J625000D01*
G01*
X161100000Y-103543300D02*
G75*
G03*
X161725000Y-102918345I0J625000D01*
G01*
%TO.N,/ESP32-CM/V1SPI_CLK*%
X142494000Y-103251000D02*
X140843000Y-101600000D01*
X140843000Y-101600000D02*
X140843000Y-94615000D01*
X140843000Y-94615000D02*
X140462000Y-94234000D01*
%TO.N,/ESP32-CM/V1SPI_MOSI*%
X140462000Y-94996000D02*
X139700000Y-94234000D01*
X141605000Y-104140000D02*
X140462000Y-102997000D01*
X139700000Y-94234000D02*
X139700000Y-93472000D01*
X140462000Y-102997000D02*
X140462000Y-94996000D01*
%TO.N,/ESP32-CM/V1SPI_MISO*%
X138557000Y-94079567D02*
X138557000Y-93091000D01*
X140843000Y-104394000D02*
X140081000Y-103632000D01*
X140081000Y-103632000D02*
X140081000Y-95603567D01*
X140081000Y-95603567D02*
X138557000Y-94079567D01*
%TO.N,/ESP32-CM/V1SPI_CS*%
X139192000Y-97536000D02*
X139700000Y-98044000D01*
X139700000Y-102243500D02*
X139581500Y-102362000D01*
X139700000Y-98044000D02*
X139700000Y-102243500D01*
%TO.N,/ESP32-CM/V0SPI_CLK*%
X127762000Y-103759000D02*
X127762000Y-102997000D01*
X127762000Y-102997000D02*
X129540000Y-101219000D01*
%TO.N,/ESP32-CM/V0SPI_MOSI*%
X127203200Y-104343200D02*
X128193800Y-104343200D01*
X128193800Y-104343200D02*
X131191000Y-101346000D01*
%TO.N,/ESP32-CM/V0SPI_MISO*%
X128270000Y-101221900D02*
X128270000Y-101219000D01*
X125741602Y-103750298D02*
X128270000Y-101221900D01*
%TO.N,/ESP32-CM/V0SPI_CS*%
X127290299Y-100691701D02*
X127290299Y-100277899D01*
X125222000Y-104140000D02*
X125222000Y-102760000D01*
X127290299Y-100277899D02*
X130302000Y-97266198D01*
X130302000Y-97266198D02*
X130302000Y-94869000D01*
X125222000Y-102760000D02*
X127290299Y-100691701D01*
%TO.N,/ESP32-CM/GPIO15{slash}RTS*%
X135382000Y-97409000D02*
X137922000Y-99949000D01*
X137922000Y-99949000D02*
X137922000Y-103251000D01*
%TO.N,/ESP32-CM/GPIO16{slash}CTS*%
X136652000Y-97409000D02*
X138571444Y-99328444D01*
X138571444Y-99328444D02*
X138571444Y-103242260D01*
%TO.N,/SDA1*%
X147828000Y-86360000D02*
X147701000Y-86487000D01*
X148082000Y-86106000D02*
X147828000Y-86360000D01*
X147701000Y-86487000D02*
X147701000Y-87630000D01*
X147701000Y-87630000D02*
X146304000Y-89027000D01*
X146304000Y-89027000D02*
X145669000Y-89027000D01*
%TO.N,/SCL1*%
X154051000Y-86614000D02*
X150495000Y-86614000D01*
X156210000Y-88773000D02*
X154051000Y-86614000D01*
%TD*%
%TA.AperFunction,Conductor*%
%TO.N,+3V3*%
G36*
X146816689Y-77097503D02*
G01*
X146863182Y-77151159D01*
X146873286Y-77221433D01*
X146863182Y-77255843D01*
X146836052Y-77315250D01*
X146830958Y-77326404D01*
X146810312Y-77470000D01*
X146830958Y-77613596D01*
X146891223Y-77745558D01*
X146986225Y-77855196D01*
X147108268Y-77933629D01*
X147247464Y-77974500D01*
X147392536Y-77974500D01*
X147531732Y-77933629D01*
X147653775Y-77855196D01*
X147748777Y-77745558D01*
X147809042Y-77613596D01*
X147829688Y-77470000D01*
X147809042Y-77326404D01*
X147778886Y-77260371D01*
X147776818Y-77255843D01*
X147766715Y-77185569D01*
X147796208Y-77120988D01*
X147855934Y-77082605D01*
X147891432Y-77077501D01*
X149288568Y-77077501D01*
X149356689Y-77097503D01*
X149403182Y-77151159D01*
X149413286Y-77221433D01*
X149403182Y-77255843D01*
X149376052Y-77315250D01*
X149370958Y-77326404D01*
X149350312Y-77470000D01*
X149370958Y-77613596D01*
X149431223Y-77745558D01*
X149526225Y-77855196D01*
X149648268Y-77933629D01*
X149787464Y-77974500D01*
X149932536Y-77974500D01*
X150071732Y-77933629D01*
X150193775Y-77855196D01*
X150288777Y-77745558D01*
X150349042Y-77613596D01*
X150369688Y-77470000D01*
X150349042Y-77326404D01*
X150318886Y-77260371D01*
X150316818Y-77255843D01*
X150306715Y-77185569D01*
X150336208Y-77120988D01*
X150395934Y-77082605D01*
X150431432Y-77077501D01*
X151828568Y-77077501D01*
X151896689Y-77097503D01*
X151943182Y-77151159D01*
X151953286Y-77221433D01*
X151943182Y-77255843D01*
X151916052Y-77315250D01*
X151910958Y-77326404D01*
X151890312Y-77470000D01*
X151910958Y-77613596D01*
X151971223Y-77745558D01*
X152066225Y-77855196D01*
X152188268Y-77933629D01*
X152327464Y-77974500D01*
X152472536Y-77974500D01*
X152611732Y-77933629D01*
X152733775Y-77855196D01*
X152828777Y-77745558D01*
X152889042Y-77613596D01*
X152909688Y-77470000D01*
X152889042Y-77326404D01*
X152858886Y-77260371D01*
X152856818Y-77255843D01*
X152846715Y-77185569D01*
X152876208Y-77120988D01*
X152935934Y-77082605D01*
X152971432Y-77077501D01*
X154368568Y-77077501D01*
X154436689Y-77097503D01*
X154483182Y-77151159D01*
X154493286Y-77221433D01*
X154483182Y-77255843D01*
X154456052Y-77315250D01*
X154450958Y-77326404D01*
X154430312Y-77470000D01*
X154450958Y-77613596D01*
X154511223Y-77745558D01*
X154606225Y-77855196D01*
X154728268Y-77933629D01*
X154867464Y-77974500D01*
X155012536Y-77974500D01*
X155151732Y-77933629D01*
X155273775Y-77855196D01*
X155368777Y-77745558D01*
X155429042Y-77613596D01*
X155449688Y-77470000D01*
X155429042Y-77326404D01*
X155398886Y-77260371D01*
X155396818Y-77255843D01*
X155386715Y-77185569D01*
X155416208Y-77120988D01*
X155475934Y-77082605D01*
X155511432Y-77077501D01*
X156908568Y-77077501D01*
X156976689Y-77097503D01*
X157023182Y-77151159D01*
X157033286Y-77221433D01*
X157023182Y-77255843D01*
X156996052Y-77315250D01*
X156990958Y-77326404D01*
X156970312Y-77470000D01*
X156990958Y-77613596D01*
X157051223Y-77745558D01*
X157146225Y-77855196D01*
X157268268Y-77933629D01*
X157407464Y-77974500D01*
X157552536Y-77974500D01*
X157691732Y-77933629D01*
X157813775Y-77855196D01*
X157908777Y-77745558D01*
X157969042Y-77613596D01*
X157989688Y-77470000D01*
X157969042Y-77326404D01*
X157938886Y-77260371D01*
X157936818Y-77255843D01*
X157926715Y-77185569D01*
X157956208Y-77120988D01*
X158015934Y-77082605D01*
X158051432Y-77077501D01*
X159448568Y-77077501D01*
X159516689Y-77097503D01*
X159563182Y-77151159D01*
X159573286Y-77221433D01*
X159563182Y-77255843D01*
X159536052Y-77315250D01*
X159530958Y-77326404D01*
X159510312Y-77470000D01*
X159530958Y-77613596D01*
X159591223Y-77745558D01*
X159686225Y-77855196D01*
X159808268Y-77933629D01*
X159947464Y-77974500D01*
X160092536Y-77974500D01*
X160231732Y-77933629D01*
X160353775Y-77855196D01*
X160448777Y-77745558D01*
X160509042Y-77613596D01*
X160529688Y-77470000D01*
X160509042Y-77326404D01*
X160478886Y-77260371D01*
X160476818Y-77255843D01*
X160466715Y-77185569D01*
X160496208Y-77120988D01*
X160555934Y-77082605D01*
X160591432Y-77077501D01*
X161988568Y-77077501D01*
X162056689Y-77097503D01*
X162103182Y-77151159D01*
X162113286Y-77221433D01*
X162103182Y-77255843D01*
X162076052Y-77315250D01*
X162070958Y-77326404D01*
X162050312Y-77470000D01*
X162070958Y-77613596D01*
X162131223Y-77745558D01*
X162226225Y-77855196D01*
X162348268Y-77933629D01*
X162487464Y-77974500D01*
X162632536Y-77974500D01*
X162771732Y-77933629D01*
X162893775Y-77855196D01*
X162988777Y-77745558D01*
X163049042Y-77613596D01*
X163069688Y-77470000D01*
X163049042Y-77326404D01*
X163018886Y-77260371D01*
X163016818Y-77255843D01*
X163006715Y-77185569D01*
X163036208Y-77120988D01*
X163095934Y-77082605D01*
X163131432Y-77077501D01*
X164528568Y-77077501D01*
X164596689Y-77097503D01*
X164643182Y-77151159D01*
X164653286Y-77221433D01*
X164643182Y-77255843D01*
X164616052Y-77315250D01*
X164610958Y-77326404D01*
X164590312Y-77470000D01*
X164610958Y-77613596D01*
X164671223Y-77745558D01*
X164766225Y-77855196D01*
X164888268Y-77933629D01*
X165027464Y-77974500D01*
X165172536Y-77974500D01*
X165311732Y-77933629D01*
X165433775Y-77855196D01*
X165437411Y-77851000D01*
X169162312Y-77851000D01*
X169182958Y-77994596D01*
X169243223Y-78126558D01*
X169338225Y-78236196D01*
X169460268Y-78314629D01*
X169599464Y-78355500D01*
X169744536Y-78355500D01*
X169883732Y-78314629D01*
X170005775Y-78236196D01*
X170100777Y-78126558D01*
X170161042Y-77994596D01*
X170181688Y-77851000D01*
X171956312Y-77851000D01*
X171976958Y-77994596D01*
X172037223Y-78126558D01*
X172132225Y-78236196D01*
X172254268Y-78314629D01*
X172393464Y-78355500D01*
X172538536Y-78355500D01*
X172677732Y-78314629D01*
X172799775Y-78236196D01*
X172894777Y-78126558D01*
X172955042Y-77994596D01*
X172975688Y-77851000D01*
X172955042Y-77707404D01*
X172894777Y-77575442D01*
X172799775Y-77465804D01*
X172799774Y-77465803D01*
X172704973Y-77404878D01*
X172677732Y-77387371D01*
X172677731Y-77387370D01*
X172677730Y-77387370D01*
X172538536Y-77346500D01*
X172393464Y-77346500D01*
X172254269Y-77387370D01*
X172254266Y-77387372D01*
X172132225Y-77465803D01*
X172037223Y-77575441D01*
X171989040Y-77680949D01*
X171976958Y-77707404D01*
X171956312Y-77851000D01*
X170181688Y-77851000D01*
X170161042Y-77707404D01*
X170100777Y-77575442D01*
X170005775Y-77465804D01*
X170005774Y-77465803D01*
X169910973Y-77404878D01*
X169883732Y-77387371D01*
X169883731Y-77387370D01*
X169883730Y-77387370D01*
X169744536Y-77346500D01*
X169599464Y-77346500D01*
X169460269Y-77387370D01*
X169460266Y-77387372D01*
X169338225Y-77465803D01*
X169243223Y-77575441D01*
X169195040Y-77680949D01*
X169182958Y-77707404D01*
X169162312Y-77851000D01*
X165437411Y-77851000D01*
X165528777Y-77745558D01*
X165589042Y-77613596D01*
X165609688Y-77470000D01*
X165589042Y-77326404D01*
X165558886Y-77260371D01*
X165556818Y-77255843D01*
X165546715Y-77185569D01*
X165576208Y-77120988D01*
X165635934Y-77082605D01*
X165671432Y-77077501D01*
X175958568Y-77077501D01*
X176026689Y-77097503D01*
X176073182Y-77151159D01*
X176083286Y-77221433D01*
X176073182Y-77255843D01*
X176046052Y-77315250D01*
X176040958Y-77326404D01*
X176020312Y-77470000D01*
X176040958Y-77613596D01*
X176101223Y-77745558D01*
X176196225Y-77855196D01*
X176318268Y-77933629D01*
X176457464Y-77974500D01*
X176602536Y-77974500D01*
X176741732Y-77933629D01*
X176863775Y-77855196D01*
X176958777Y-77745558D01*
X177019042Y-77613596D01*
X177039688Y-77470000D01*
X177019042Y-77326404D01*
X176988886Y-77260371D01*
X176986818Y-77255843D01*
X176976715Y-77185569D01*
X177006208Y-77120988D01*
X177065934Y-77082605D01*
X177101432Y-77077501D01*
X178578963Y-77077501D01*
X178647084Y-77097503D01*
X178693577Y-77151159D01*
X178703681Y-77221433D01*
X178674187Y-77286013D01*
X178635514Y-77316097D01*
X178458737Y-77404878D01*
X178444347Y-77412105D01*
X178156818Y-77601216D01*
X177893175Y-77822438D01*
X177656991Y-78072778D01*
X177451488Y-78348817D01*
X177451470Y-78348844D01*
X177279398Y-78646882D01*
X177279395Y-78646887D01*
X177143085Y-78962890D01*
X177143083Y-78962896D01*
X177044376Y-79292599D01*
X176984612Y-79631535D01*
X176984612Y-79631541D01*
X176964602Y-79975109D01*
X176984612Y-80318676D01*
X176984612Y-80318682D01*
X176996624Y-80386804D01*
X177044376Y-80657618D01*
X177143082Y-80987320D01*
X177143084Y-80987326D01*
X177143085Y-80987327D01*
X177279395Y-81303330D01*
X177279398Y-81303335D01*
X177400125Y-81512441D01*
X177451477Y-81601385D01*
X177451486Y-81601397D01*
X177451488Y-81601400D01*
X177656991Y-81877439D01*
X177656995Y-81877443D01*
X177854108Y-82086371D01*
X177893175Y-82127779D01*
X178040774Y-82251629D01*
X178156033Y-82348343D01*
X178156818Y-82349001D01*
X178444347Y-82538112D01*
X178444355Y-82538117D01*
X178751908Y-82692576D01*
X179075313Y-82810286D01*
X179410196Y-82889654D01*
X179605529Y-82912485D01*
X179752026Y-82929609D01*
X179752029Y-82929609D01*
X180096192Y-82929609D01*
X180224376Y-82914625D01*
X180438022Y-82889654D01*
X180772905Y-82810286D01*
X181096310Y-82692576D01*
X181403863Y-82538117D01*
X181691404Y-82348998D01*
X181955046Y-82127776D01*
X182191223Y-81877443D01*
X182396741Y-81601385D01*
X182568821Y-81303333D01*
X182633150Y-81154199D01*
X182678497Y-81099574D01*
X182746179Y-81078135D01*
X182814708Y-81096692D01*
X182862326Y-81149352D01*
X182874845Y-81204107D01*
X182874845Y-85817251D01*
X182854843Y-85885372D01*
X182801187Y-85931865D01*
X182765289Y-85942173D01*
X182604908Y-85963284D01*
X182604887Y-85963288D01*
X182332604Y-86036241D01*
X182072145Y-86144122D01*
X182072135Y-86144127D01*
X181828009Y-86285068D01*
X181604358Y-86456678D01*
X181604347Y-86456687D01*
X181405017Y-86656013D01*
X181405013Y-86656018D01*
X181233395Y-86879671D01*
X181092447Y-87123793D01*
X181092443Y-87123801D01*
X181023754Y-87289629D01*
X180984560Y-87384251D01*
X180912344Y-87653763D01*
X180911594Y-87656561D01*
X180874799Y-87936044D01*
X180874799Y-88217955D01*
X180902094Y-88425277D01*
X180891155Y-88495425D01*
X180844027Y-88548524D01*
X180775673Y-88567714D01*
X180707795Y-88546903D01*
X180681948Y-88524236D01*
X180673774Y-88514803D01*
X180605435Y-88470884D01*
X180551732Y-88436371D01*
X180551731Y-88436370D01*
X180551730Y-88436370D01*
X180412536Y-88395500D01*
X180267464Y-88395500D01*
X180128269Y-88436370D01*
X180128266Y-88436372D01*
X180006225Y-88514803D01*
X179911223Y-88624441D01*
X179850958Y-88756403D01*
X179833706Y-88876396D01*
X179830312Y-88900000D01*
X179850958Y-89043596D01*
X179911223Y-89175558D01*
X180006225Y-89285196D01*
X180128268Y-89363629D01*
X180267464Y-89404500D01*
X180412536Y-89404500D01*
X180551732Y-89363629D01*
X180673775Y-89285196D01*
X180768777Y-89175558D01*
X180829042Y-89043596D01*
X180832978Y-89016213D01*
X180862471Y-88951635D01*
X180922196Y-88913250D01*
X180993193Y-88913249D01*
X181052919Y-88951632D01*
X181074104Y-88985927D01*
X181092436Y-89030185D01*
X181092447Y-89030206D01*
X181232334Y-89272490D01*
X181233398Y-89274333D01*
X181405014Y-89497983D01*
X181405018Y-89497987D01*
X181405024Y-89497994D01*
X181418673Y-89511643D01*
X181452699Y-89573955D01*
X181447634Y-89644770D01*
X181405087Y-89701606D01*
X181397700Y-89706735D01*
X181276226Y-89784802D01*
X181276225Y-89784802D01*
X181181223Y-89894441D01*
X181123225Y-90021441D01*
X181120958Y-90026404D01*
X181100312Y-90170000D01*
X181120958Y-90313596D01*
X181181223Y-90445558D01*
X181276225Y-90555196D01*
X181398268Y-90633629D01*
X181537464Y-90674500D01*
X181682536Y-90674500D01*
X181821732Y-90633629D01*
X181943775Y-90555196D01*
X182038777Y-90445558D01*
X182099042Y-90313596D01*
X182115661Y-90198004D01*
X182145153Y-90133427D01*
X182204879Y-90095043D01*
X182275876Y-90095043D01*
X182288588Y-90099527D01*
X182332598Y-90117756D01*
X182332600Y-90117756D01*
X182332601Y-90117757D01*
X182604887Y-90190711D01*
X182604890Y-90190711D01*
X182604900Y-90190714D01*
X182765293Y-90211826D01*
X182830217Y-90240545D01*
X182869310Y-90299809D01*
X182874846Y-90336747D01*
X182874846Y-92839900D01*
X182854844Y-92908021D01*
X182801188Y-92954514D01*
X182748846Y-92965900D01*
X181921105Y-92965900D01*
X181917374Y-92965789D01*
X181837844Y-92961072D01*
X181667021Y-92979952D01*
X181667004Y-92979955D01*
X181501777Y-93027271D01*
X181501770Y-93027274D01*
X181346835Y-93101685D01*
X181206602Y-93201073D01*
X181085073Y-93322602D01*
X180985685Y-93462835D01*
X180911274Y-93617770D01*
X180911271Y-93617777D01*
X180863955Y-93783004D01*
X180863952Y-93783021D01*
X180845072Y-93953844D01*
X180849790Y-94033375D01*
X180849901Y-94037106D01*
X180849901Y-98165414D01*
X180849902Y-98165417D01*
X180850979Y-98173597D01*
X180850613Y-98173645D01*
X180853771Y-98204866D01*
X180852144Y-98231894D01*
X180852144Y-98231901D01*
X180876529Y-98420038D01*
X180935581Y-98600319D01*
X180935583Y-98600323D01*
X181027231Y-98766426D01*
X181027231Y-98766427D01*
X181148256Y-98912516D01*
X181148259Y-98912519D01*
X181294415Y-99033469D01*
X181460568Y-99125030D01*
X181640885Y-99183989D01*
X181829036Y-99208274D01*
X181916702Y-99202948D01*
X181920931Y-99202835D01*
X182707460Y-99208521D01*
X182775433Y-99229015D01*
X182821537Y-99283006D01*
X182832546Y-99333851D01*
X182845271Y-101738558D01*
X182864029Y-105283334D01*
X182844389Y-105351559D01*
X182790980Y-105398335D01*
X182738032Y-105410000D01*
X180069580Y-105410000D01*
X180001459Y-105389998D01*
X179954966Y-105336342D01*
X179944862Y-105266069D01*
X179946064Y-105257716D01*
X179953887Y-105203300D01*
X179960688Y-105156000D01*
X179940042Y-105012404D01*
X179879777Y-104880442D01*
X179784775Y-104770804D01*
X179784774Y-104770803D01*
X179712946Y-104724642D01*
X179662732Y-104692371D01*
X179662731Y-104692370D01*
X179662730Y-104692370D01*
X179523536Y-104651500D01*
X179378464Y-104651500D01*
X179239269Y-104692370D01*
X179239266Y-104692372D01*
X179117225Y-104770803D01*
X179022223Y-104880441D01*
X178965936Y-105003694D01*
X178961958Y-105012404D01*
X178942565Y-105147291D01*
X178941312Y-105156003D01*
X178957137Y-105266068D01*
X178947034Y-105336342D01*
X178900541Y-105389998D01*
X178832420Y-105410000D01*
X177656580Y-105410000D01*
X177588459Y-105389998D01*
X177541966Y-105336342D01*
X177531862Y-105266069D01*
X177531863Y-105266068D01*
X177547688Y-105156003D01*
X177547041Y-105151500D01*
X177527042Y-105012404D01*
X177466777Y-104880442D01*
X177371775Y-104770804D01*
X177371774Y-104770803D01*
X177299946Y-104724642D01*
X177249732Y-104692371D01*
X177249731Y-104692370D01*
X177249730Y-104692370D01*
X177110536Y-104651500D01*
X176965464Y-104651500D01*
X176826269Y-104692370D01*
X176826266Y-104692372D01*
X176704225Y-104770803D01*
X176609223Y-104880441D01*
X176552936Y-105003694D01*
X176548958Y-105012404D01*
X176529565Y-105147291D01*
X176528312Y-105156003D01*
X176544137Y-105266068D01*
X176534034Y-105336342D01*
X176487541Y-105389998D01*
X176419420Y-105410000D01*
X175878580Y-105410000D01*
X175810459Y-105389998D01*
X175763966Y-105336342D01*
X175753862Y-105266069D01*
X175753863Y-105266068D01*
X175769688Y-105156003D01*
X175769041Y-105151500D01*
X175749042Y-105012404D01*
X175688777Y-104880442D01*
X175593775Y-104770804D01*
X175593774Y-104770803D01*
X175521946Y-104724642D01*
X175471732Y-104692371D01*
X175471731Y-104692370D01*
X175471730Y-104692370D01*
X175332536Y-104651500D01*
X175187464Y-104651500D01*
X175048269Y-104692370D01*
X175048266Y-104692372D01*
X174926225Y-104770803D01*
X174831223Y-104880441D01*
X174774936Y-105003694D01*
X174770958Y-105012404D01*
X174751565Y-105147291D01*
X174750312Y-105156003D01*
X174766137Y-105266068D01*
X174756034Y-105336342D01*
X174709541Y-105389998D01*
X174641420Y-105410000D01*
X172322580Y-105410000D01*
X172254459Y-105389998D01*
X172207966Y-105336342D01*
X172197862Y-105266069D01*
X172197863Y-105266068D01*
X172213688Y-105156003D01*
X172213041Y-105151500D01*
X172193042Y-105012404D01*
X172132777Y-104880442D01*
X172037775Y-104770804D01*
X172037774Y-104770803D01*
X171965946Y-104724642D01*
X171915732Y-104692371D01*
X171915731Y-104692370D01*
X171915730Y-104692370D01*
X171776536Y-104651500D01*
X171686034Y-104651500D01*
X171617913Y-104631498D01*
X171571420Y-104577842D01*
X171560034Y-104525500D01*
X171560034Y-104521003D01*
X171559592Y-104517928D01*
X171539388Y-104377404D01*
X171479123Y-104245442D01*
X171384121Y-104135804D01*
X171384120Y-104135803D01*
X171321605Y-104095627D01*
X171262078Y-104057371D01*
X171262077Y-104057370D01*
X171262076Y-104057370D01*
X171122882Y-104016500D01*
X171099375Y-104016500D01*
X171031254Y-103996498D01*
X171010280Y-103979595D01*
X169900685Y-102870000D01*
X176020312Y-102870000D01*
X176040958Y-103013596D01*
X176101223Y-103145558D01*
X176196225Y-103255196D01*
X176318268Y-103333629D01*
X176457464Y-103374500D01*
X176602536Y-103374500D01*
X176741732Y-103333629D01*
X176863775Y-103255196D01*
X176958777Y-103145558D01*
X177019042Y-103013596D01*
X177039688Y-102870000D01*
X177019042Y-102726404D01*
X176958777Y-102594442D01*
X176863775Y-102484804D01*
X176863774Y-102484803D01*
X176802753Y-102445587D01*
X176741732Y-102406371D01*
X176741731Y-102406370D01*
X176741730Y-102406370D01*
X176602536Y-102365500D01*
X176457464Y-102365500D01*
X176318269Y-102406370D01*
X176318266Y-102406372D01*
X176196225Y-102484803D01*
X176101223Y-102594441D01*
X176040958Y-102726403D01*
X176032837Y-102782884D01*
X176020312Y-102870000D01*
X169900685Y-102870000D01*
X169217295Y-102186610D01*
X179799500Y-102186610D01*
X179817669Y-102283804D01*
X179838679Y-102396199D01*
X179842620Y-102406371D01*
X179915702Y-102595019D01*
X179915703Y-102595020D01*
X179915705Y-102595025D01*
X180027945Y-102776298D01*
X180027946Y-102776300D01*
X180113366Y-102870000D01*
X180171593Y-102933872D01*
X180341745Y-103062366D01*
X180532611Y-103157405D01*
X180737690Y-103215756D01*
X180896806Y-103230500D01*
X180896813Y-103230500D01*
X181003187Y-103230500D01*
X181003194Y-103230500D01*
X181162310Y-103215756D01*
X181367389Y-103157405D01*
X181558255Y-103062366D01*
X181728407Y-102933872D01*
X181872052Y-102776302D01*
X181984298Y-102595019D01*
X182061321Y-102396198D01*
X182100500Y-102186610D01*
X182100500Y-101973390D01*
X182061321Y-101763802D01*
X181984298Y-101564981D01*
X181978507Y-101555629D01*
X181872054Y-101383701D01*
X181872053Y-101383699D01*
X181728408Y-101226129D01*
X181714333Y-101215500D01*
X181558255Y-101097634D01*
X181367389Y-101002595D01*
X181367386Y-101002594D01*
X181367384Y-101002593D01*
X181162311Y-100944244D01*
X181142420Y-100942401D01*
X181003194Y-100929500D01*
X180896806Y-100929500D01*
X180773049Y-100940967D01*
X180737688Y-100944244D01*
X180532615Y-101002593D01*
X180532611Y-101002595D01*
X180341745Y-101097634D01*
X180341744Y-101097635D01*
X180171591Y-101226129D01*
X180027946Y-101383699D01*
X180027945Y-101383701D01*
X179915705Y-101564974D01*
X179915704Y-101564977D01*
X179915702Y-101564981D01*
X179888384Y-101635498D01*
X179838679Y-101763800D01*
X179830113Y-101809627D01*
X179799500Y-101973390D01*
X179799500Y-102186610D01*
X169217295Y-102186610D01*
X168836055Y-101805370D01*
X168802029Y-101743058D01*
X168807094Y-101672243D01*
X168849641Y-101615407D01*
X168890948Y-101600000D01*
X173480312Y-101600000D01*
X173500958Y-101743596D01*
X173561223Y-101875558D01*
X173656225Y-101985196D01*
X173778268Y-102063629D01*
X173917464Y-102104500D01*
X174062536Y-102104500D01*
X174201732Y-102063629D01*
X174323775Y-101985196D01*
X174418777Y-101875558D01*
X174479042Y-101743596D01*
X174499688Y-101600000D01*
X177290312Y-101600000D01*
X177310958Y-101743596D01*
X177371223Y-101875558D01*
X177466225Y-101985196D01*
X177588268Y-102063629D01*
X177727464Y-102104500D01*
X177872536Y-102104500D01*
X178011732Y-102063629D01*
X178133775Y-101985196D01*
X178228777Y-101875558D01*
X178289042Y-101743596D01*
X178309688Y-101600000D01*
X178289042Y-101456404D01*
X178228777Y-101324442D01*
X178133775Y-101214804D01*
X178133774Y-101214803D01*
X178071259Y-101174627D01*
X178011732Y-101136371D01*
X178011731Y-101136370D01*
X178011730Y-101136370D01*
X177872536Y-101095500D01*
X177727464Y-101095500D01*
X177588269Y-101136370D01*
X177588266Y-101136372D01*
X177466225Y-101214803D01*
X177371223Y-101324441D01*
X177310958Y-101456403D01*
X177300369Y-101530049D01*
X177290312Y-101600000D01*
X174499688Y-101600000D01*
X174479042Y-101456404D01*
X174418777Y-101324442D01*
X174323775Y-101214804D01*
X174323774Y-101214803D01*
X174261259Y-101174627D01*
X174201732Y-101136371D01*
X174201731Y-101136370D01*
X174201730Y-101136370D01*
X174062536Y-101095500D01*
X173917464Y-101095500D01*
X173778269Y-101136370D01*
X173778266Y-101136372D01*
X173656225Y-101214803D01*
X173561223Y-101324441D01*
X173500958Y-101456403D01*
X173490369Y-101530049D01*
X173480312Y-101600000D01*
X168890948Y-101600000D01*
X168916161Y-101590596D01*
X168960647Y-101595379D01*
X168964464Y-101596500D01*
X168964467Y-101596500D01*
X169109536Y-101596500D01*
X169248732Y-101555629D01*
X169356989Y-101486055D01*
X169425109Y-101466053D01*
X169493230Y-101486054D01*
X169493231Y-101486055D01*
X169503280Y-101492513D01*
X169561690Y-101530051D01*
X169700886Y-101570922D01*
X169845958Y-101570922D01*
X169985154Y-101530051D01*
X170094755Y-101459613D01*
X170162871Y-101439612D01*
X170230990Y-101459612D01*
X170241012Y-101466053D01*
X170296452Y-101501683D01*
X170296454Y-101501683D01*
X170296456Y-101501685D01*
X170435652Y-101542556D01*
X170580724Y-101542556D01*
X170719920Y-101501685D01*
X170814680Y-101440785D01*
X170882800Y-101420783D01*
X170950921Y-101440784D01*
X170978023Y-101464268D01*
X170989225Y-101477196D01*
X171111268Y-101555629D01*
X171250464Y-101596500D01*
X171395536Y-101596500D01*
X171534732Y-101555629D01*
X171656775Y-101477196D01*
X171751777Y-101367558D01*
X171812042Y-101235596D01*
X171832688Y-101092000D01*
X171812042Y-100948404D01*
X171751777Y-100816442D01*
X171656775Y-100706804D01*
X171656774Y-100706803D01*
X171534735Y-100628373D01*
X171534732Y-100628371D01*
X171534731Y-100628370D01*
X171534730Y-100628370D01*
X171395536Y-100587500D01*
X171250464Y-100587500D01*
X171111269Y-100628370D01*
X171111266Y-100628372D01*
X171016507Y-100689270D01*
X170948386Y-100709272D01*
X170880265Y-100689270D01*
X170853163Y-100665785D01*
X170841963Y-100652860D01*
X170719920Y-100574427D01*
X170719919Y-100574426D01*
X170719918Y-100574426D01*
X170580724Y-100533556D01*
X170435652Y-100533556D01*
X170296457Y-100574426D01*
X170296450Y-100574429D01*
X170186855Y-100644862D01*
X170118735Y-100664864D01*
X170050614Y-100644862D01*
X170023105Y-100627183D01*
X169985154Y-100602793D01*
X169985153Y-100602792D01*
X169985152Y-100602792D01*
X169845958Y-100561922D01*
X169700886Y-100561922D01*
X169561691Y-100602792D01*
X169561688Y-100602794D01*
X169453432Y-100672366D01*
X169385311Y-100692368D01*
X169317191Y-100672366D01*
X169248737Y-100628373D01*
X169248730Y-100628370D01*
X169109536Y-100587500D01*
X168964464Y-100587500D01*
X168825269Y-100628370D01*
X168825266Y-100628372D01*
X168724121Y-100693374D01*
X168656000Y-100713376D01*
X168587879Y-100693374D01*
X168486735Y-100628373D01*
X168486732Y-100628371D01*
X168486731Y-100628370D01*
X168486730Y-100628370D01*
X168347536Y-100587500D01*
X168202464Y-100587500D01*
X168063269Y-100628370D01*
X168063266Y-100628372D01*
X167961255Y-100693931D01*
X167893134Y-100713933D01*
X167825013Y-100693931D01*
X167824918Y-100693870D01*
X167723001Y-100628371D01*
X167723000Y-100628370D01*
X167722999Y-100628370D01*
X167583805Y-100587500D01*
X167438733Y-100587500D01*
X167299538Y-100628370D01*
X167299535Y-100628372D01*
X167225042Y-100676246D01*
X167156921Y-100696248D01*
X167088800Y-100676246D01*
X167023714Y-100634418D01*
X166994179Y-100615437D01*
X166994178Y-100615436D01*
X166994177Y-100615436D01*
X166854983Y-100574566D01*
X166709911Y-100574566D01*
X166570716Y-100615436D01*
X166570713Y-100615438D01*
X166444706Y-100696418D01*
X166376585Y-100716420D01*
X166308464Y-100696418D01*
X166228241Y-100644862D01*
X166200732Y-100627183D01*
X166200731Y-100627182D01*
X166200730Y-100627182D01*
X166061536Y-100586312D01*
X165916464Y-100586312D01*
X165777269Y-100627182D01*
X165777266Y-100627184D01*
X165655225Y-100705615D01*
X165560223Y-100815253D01*
X165499958Y-100947215D01*
X165498677Y-100956123D01*
X165479312Y-101090812D01*
X165499958Y-101234408D01*
X165560223Y-101366370D01*
X165655225Y-101476008D01*
X165777268Y-101554441D01*
X165916464Y-101595312D01*
X166070548Y-101595312D01*
X166070548Y-101598798D01*
X166124163Y-101606476D01*
X166177845Y-101652939D01*
X166197885Y-101721048D01*
X166177921Y-101789180D01*
X166139883Y-101825477D01*
X166140543Y-101826419D01*
X166136035Y-101829574D01*
X166004740Y-101939745D01*
X166004738Y-101939747D01*
X165996520Y-101949542D01*
X165937409Y-101988868D01*
X165866422Y-101989992D01*
X165806095Y-101952560D01*
X165803480Y-101949542D01*
X165795261Y-101939747D01*
X165795259Y-101939745D01*
X165663964Y-101829574D01*
X165663961Y-101829572D01*
X165515540Y-101743882D01*
X165515532Y-101743878D01*
X165354482Y-101685261D01*
X165354480Y-101685260D01*
X165221825Y-101661870D01*
X165185695Y-101655500D01*
X165156147Y-101655500D01*
X165100000Y-101655500D01*
X165014305Y-101655500D01*
X164984545Y-101660747D01*
X164845519Y-101685260D01*
X164845517Y-101685261D01*
X164684467Y-101743878D01*
X164684462Y-101743880D01*
X164668499Y-101753097D01*
X164599503Y-101769834D01*
X164532412Y-101746613D01*
X164488525Y-101690805D01*
X164479500Y-101643977D01*
X164479500Y-101617976D01*
X164479501Y-101617951D01*
X164479501Y-101607813D01*
X164479502Y-101607810D01*
X164479501Y-101603879D01*
X164479525Y-101603797D01*
X164479523Y-101551662D01*
X164479524Y-101551662D01*
X164479521Y-101465967D01*
X164479222Y-101464271D01*
X164461430Y-101363384D01*
X164469297Y-101292824D01*
X164514062Y-101237719D01*
X164581513Y-101215564D01*
X164585515Y-101215500D01*
X164664536Y-101215500D01*
X164803732Y-101174629D01*
X164925775Y-101096196D01*
X165020777Y-100986558D01*
X165081042Y-100854596D01*
X165101688Y-100711000D01*
X165081042Y-100567404D01*
X165020777Y-100435442D01*
X164929411Y-100330000D01*
X176020312Y-100330000D01*
X176040958Y-100473596D01*
X176101223Y-100605558D01*
X176196225Y-100715196D01*
X176318268Y-100793629D01*
X176457464Y-100834500D01*
X176602536Y-100834500D01*
X176741732Y-100793629D01*
X176863775Y-100715196D01*
X176958777Y-100605558D01*
X177019042Y-100473596D01*
X177039688Y-100330000D01*
X177019042Y-100186404D01*
X176958777Y-100054442D01*
X176863775Y-99944804D01*
X176863774Y-99944803D01*
X176802753Y-99905587D01*
X176741732Y-99866371D01*
X176741731Y-99866370D01*
X176741730Y-99866370D01*
X176602536Y-99825500D01*
X176457464Y-99825500D01*
X176318269Y-99866370D01*
X176318266Y-99866372D01*
X176196225Y-99944803D01*
X176101223Y-100054441D01*
X176040958Y-100186403D01*
X176031361Y-100253151D01*
X176020312Y-100330000D01*
X164929411Y-100330000D01*
X164925775Y-100325804D01*
X164925774Y-100325803D01*
X164864753Y-100286587D01*
X164803732Y-100247371D01*
X164803731Y-100247370D01*
X164803730Y-100247370D01*
X164664536Y-100206500D01*
X164592688Y-100206500D01*
X164524567Y-100186498D01*
X164478074Y-100132842D01*
X164466688Y-100080500D01*
X164466688Y-100076003D01*
X164463588Y-100054441D01*
X164446042Y-99932404D01*
X164392861Y-99815953D01*
X179274293Y-99815953D01*
X179293449Y-99973729D01*
X179342047Y-100101869D01*
X179349813Y-100122345D01*
X179440102Y-100253151D01*
X179559071Y-100358549D01*
X179559072Y-100358549D01*
X179559074Y-100358551D01*
X179614865Y-100387832D01*
X179699807Y-100432413D01*
X179854129Y-100470450D01*
X179854130Y-100470450D01*
X180013070Y-100470450D01*
X180013071Y-100470450D01*
X180167393Y-100432413D01*
X180308129Y-100358549D01*
X180427098Y-100253151D01*
X180517387Y-100122345D01*
X180573749Y-99973732D01*
X180573749Y-99973731D01*
X180573750Y-99973729D01*
X180592907Y-99815953D01*
X180592907Y-99815946D01*
X180573750Y-99658170D01*
X180556424Y-99612487D01*
X180517387Y-99509555D01*
X180427098Y-99378749D01*
X180308129Y-99273351D01*
X180308128Y-99273350D01*
X180308125Y-99273348D01*
X180167397Y-99199489D01*
X180167395Y-99199488D01*
X180167393Y-99199487D01*
X180167391Y-99199486D01*
X180167390Y-99199486D01*
X180013072Y-99161450D01*
X180013071Y-99161450D01*
X179854129Y-99161450D01*
X179854127Y-99161450D01*
X179699809Y-99199486D01*
X179699802Y-99199489D01*
X179559074Y-99273348D01*
X179559069Y-99273352D01*
X179440101Y-99378750D01*
X179349815Y-99509551D01*
X179349812Y-99509557D01*
X179293449Y-99658170D01*
X179274293Y-99815946D01*
X179274293Y-99815953D01*
X164392861Y-99815953D01*
X164385777Y-99800442D01*
X164365907Y-99777511D01*
X164336415Y-99712934D01*
X164346517Y-99642660D01*
X164365904Y-99612491D01*
X164385777Y-99589558D01*
X164446042Y-99457596D01*
X164466688Y-99314000D01*
X164446042Y-99170404D01*
X164395622Y-99060000D01*
X173480312Y-99060000D01*
X173500958Y-99203596D01*
X173561223Y-99335558D01*
X173656225Y-99445196D01*
X173778268Y-99523629D01*
X173917464Y-99564500D01*
X174062536Y-99564500D01*
X174201732Y-99523629D01*
X174323775Y-99445196D01*
X174418777Y-99335558D01*
X174479042Y-99203596D01*
X174499688Y-99060000D01*
X177290312Y-99060000D01*
X177310958Y-99203596D01*
X177371223Y-99335558D01*
X177466225Y-99445196D01*
X177588268Y-99523629D01*
X177727464Y-99564500D01*
X177872536Y-99564500D01*
X178011732Y-99523629D01*
X178133775Y-99445196D01*
X178228777Y-99335558D01*
X178289042Y-99203596D01*
X178309688Y-99060000D01*
X178289042Y-98916404D01*
X178228777Y-98784442D01*
X178133775Y-98674804D01*
X178133774Y-98674803D01*
X178017881Y-98600323D01*
X178011732Y-98596371D01*
X178011731Y-98596370D01*
X178011730Y-98596370D01*
X177872536Y-98555500D01*
X177727464Y-98555500D01*
X177588269Y-98596370D01*
X177588266Y-98596372D01*
X177466225Y-98674803D01*
X177371223Y-98784441D01*
X177311753Y-98914664D01*
X177310958Y-98916404D01*
X177290312Y-99060000D01*
X174499688Y-99060000D01*
X174479042Y-98916404D01*
X174418777Y-98784442D01*
X174323775Y-98674804D01*
X174323774Y-98674803D01*
X174207881Y-98600323D01*
X174201732Y-98596371D01*
X174201731Y-98596370D01*
X174201730Y-98596370D01*
X174062536Y-98555500D01*
X173917464Y-98555500D01*
X173778269Y-98596370D01*
X173778266Y-98596372D01*
X173656225Y-98674803D01*
X173561223Y-98784441D01*
X173501753Y-98914664D01*
X173500958Y-98916404D01*
X173480312Y-99060000D01*
X164395622Y-99060000D01*
X164385777Y-99038442D01*
X164310884Y-98952011D01*
X164281392Y-98887432D01*
X164291495Y-98817158D01*
X164310882Y-98786990D01*
X164385777Y-98700558D01*
X164446042Y-98568596D01*
X164466688Y-98425000D01*
X164446042Y-98281404D01*
X164385777Y-98149442D01*
X164365907Y-98126511D01*
X164336415Y-98061934D01*
X164346517Y-97991660D01*
X164365904Y-97961491D01*
X164385777Y-97938558D01*
X164446042Y-97806596D01*
X164448428Y-97790000D01*
X176020312Y-97790000D01*
X176040958Y-97933596D01*
X176101223Y-98065558D01*
X176196225Y-98175196D01*
X176318268Y-98253629D01*
X176457464Y-98294500D01*
X176602536Y-98294500D01*
X176741732Y-98253629D01*
X176863775Y-98175196D01*
X176958777Y-98065558D01*
X177019042Y-97933596D01*
X177039688Y-97790000D01*
X177019042Y-97646404D01*
X176958777Y-97514442D01*
X176863775Y-97404804D01*
X176863774Y-97404803D01*
X176760488Y-97338425D01*
X176741732Y-97326371D01*
X176741731Y-97326370D01*
X176741730Y-97326370D01*
X176602536Y-97285500D01*
X176457464Y-97285500D01*
X176318269Y-97326370D01*
X176318266Y-97326372D01*
X176196225Y-97404803D01*
X176101223Y-97514441D01*
X176040958Y-97646403D01*
X176032731Y-97703626D01*
X176020312Y-97790000D01*
X164448428Y-97790000D01*
X164466688Y-97663000D01*
X164446042Y-97519404D01*
X164385777Y-97387442D01*
X164362369Y-97360428D01*
X164332877Y-97295848D01*
X164342980Y-97225574D01*
X164362371Y-97195402D01*
X164378700Y-97176558D01*
X164438965Y-97044596D01*
X164459611Y-96901000D01*
X164438965Y-96757404D01*
X164383765Y-96636534D01*
X164373663Y-96566261D01*
X164383766Y-96531851D01*
X164385938Y-96527096D01*
X164389179Y-96520000D01*
X173480312Y-96520000D01*
X173500958Y-96663596D01*
X173561223Y-96795558D01*
X173656225Y-96905196D01*
X173778268Y-96983629D01*
X173917464Y-97024500D01*
X174062536Y-97024500D01*
X174201732Y-96983629D01*
X174323775Y-96905196D01*
X174418777Y-96795558D01*
X174479042Y-96663596D01*
X174499688Y-96520000D01*
X177290312Y-96520000D01*
X177310958Y-96663596D01*
X177371223Y-96795558D01*
X177466225Y-96905196D01*
X177588268Y-96983629D01*
X177727464Y-97024500D01*
X177872536Y-97024500D01*
X178011732Y-96983629D01*
X178133775Y-96905196D01*
X178228777Y-96795558D01*
X178289042Y-96663596D01*
X178309688Y-96520000D01*
X178289042Y-96376404D01*
X178228777Y-96244442D01*
X178133775Y-96134804D01*
X178133774Y-96134803D01*
X178072753Y-96095587D01*
X178011732Y-96056371D01*
X178011731Y-96056370D01*
X178011730Y-96056370D01*
X177872536Y-96015500D01*
X177727464Y-96015500D01*
X177588269Y-96056370D01*
X177588266Y-96056372D01*
X177466225Y-96134803D01*
X177371223Y-96244441D01*
X177310958Y-96376403D01*
X177302731Y-96433626D01*
X177290312Y-96520000D01*
X174499688Y-96520000D01*
X174479042Y-96376404D01*
X174418777Y-96244442D01*
X174323775Y-96134804D01*
X174323774Y-96134803D01*
X174262753Y-96095587D01*
X174201732Y-96056371D01*
X174201731Y-96056370D01*
X174201730Y-96056370D01*
X174062536Y-96015500D01*
X173917464Y-96015500D01*
X173778269Y-96056370D01*
X173778266Y-96056372D01*
X173656225Y-96134803D01*
X173561223Y-96244441D01*
X173500958Y-96376403D01*
X173492731Y-96433626D01*
X173480312Y-96520000D01*
X164389179Y-96520000D01*
X164446203Y-96395134D01*
X164466849Y-96251538D01*
X164446203Y-96107942D01*
X164385938Y-95975980D01*
X164290936Y-95866342D01*
X164290935Y-95866341D01*
X164191746Y-95802596D01*
X164168893Y-95787909D01*
X164168892Y-95787908D01*
X164168891Y-95787908D01*
X164029697Y-95747038D01*
X163884625Y-95747038D01*
X163745430Y-95787908D01*
X163745427Y-95787910D01*
X163623386Y-95866341D01*
X163528384Y-95975979D01*
X163468119Y-96107941D01*
X163447473Y-96251538D01*
X163468119Y-96395134D01*
X163523318Y-96516002D01*
X163533422Y-96586276D01*
X163523318Y-96620686D01*
X163460881Y-96757403D01*
X163440235Y-96901000D01*
X163460881Y-97044596D01*
X163521146Y-97176558D01*
X163544552Y-97203570D01*
X163574045Y-97268151D01*
X163563942Y-97338425D01*
X163544556Y-97368592D01*
X163528223Y-97387442D01*
X163467958Y-97519403D01*
X163447312Y-97663000D01*
X163467958Y-97806596D01*
X163528223Y-97938558D01*
X163548091Y-97961487D01*
X163577584Y-98026068D01*
X163567481Y-98096342D01*
X163548091Y-98126513D01*
X163528223Y-98149441D01*
X163467958Y-98281403D01*
X163447312Y-98425000D01*
X163467958Y-98568596D01*
X163528223Y-98700558D01*
X163528226Y-98700562D01*
X163603114Y-98786988D01*
X163632607Y-98851568D01*
X163622504Y-98921842D01*
X163603114Y-98952012D01*
X163528226Y-99038437D01*
X163528223Y-99038441D01*
X163467958Y-99170403D01*
X163447312Y-99314000D01*
X163467958Y-99457596D01*
X163528223Y-99589558D01*
X163548091Y-99612487D01*
X163577584Y-99677068D01*
X163567481Y-99747342D01*
X163548091Y-99777513D01*
X163528223Y-99800441D01*
X163467958Y-99932403D01*
X163447312Y-100076000D01*
X163467958Y-100219596D01*
X163528223Y-100351558D01*
X163538712Y-100363663D01*
X163568205Y-100428244D01*
X163558102Y-100498518D01*
X163511609Y-100552174D01*
X163453230Y-100569315D01*
X163453443Y-100570682D01*
X163453295Y-100570705D01*
X163446787Y-100571207D01*
X163443489Y-100572176D01*
X163434244Y-100572176D01*
X163433946Y-100572199D01*
X163414307Y-100572199D01*
X163368334Y-100580305D01*
X163245527Y-100601959D01*
X163245524Y-100601959D01*
X163245524Y-100601960D01*
X163243233Y-100602794D01*
X163084474Y-100660575D01*
X163084472Y-100660576D01*
X162936051Y-100746265D01*
X162936039Y-100746273D01*
X162804758Y-100856427D01*
X162796532Y-100866230D01*
X162737420Y-100905553D01*
X162666432Y-100906675D01*
X162606107Y-100869240D01*
X162603516Y-100866250D01*
X162595261Y-100856413D01*
X162595258Y-100856411D01*
X162595257Y-100856409D01*
X162463974Y-100746253D01*
X162463969Y-100746249D01*
X162463966Y-100746247D01*
X162463961Y-100746244D01*
X162463958Y-100746242D01*
X162377657Y-100696418D01*
X162315537Y-100660554D01*
X162154482Y-100601936D01*
X162154481Y-100601935D01*
X162154476Y-100601934D01*
X162031665Y-100580280D01*
X161985695Y-100572175D01*
X161985693Y-100572175D01*
X161900000Y-100572176D01*
X161834244Y-100572176D01*
X161833946Y-100572199D01*
X161814307Y-100572199D01*
X161768334Y-100580305D01*
X161645527Y-100601959D01*
X161645524Y-100601959D01*
X161645524Y-100601960D01*
X161643233Y-100602794D01*
X161484474Y-100660575D01*
X161484472Y-100660576D01*
X161336051Y-100746265D01*
X161336039Y-100746273D01*
X161204757Y-100856428D01*
X161094589Y-100987716D01*
X161051740Y-101061928D01*
X161008892Y-101136139D01*
X160994882Y-101174627D01*
X160950268Y-101297189D01*
X160920502Y-101465967D01*
X160920502Y-101487416D01*
X160920500Y-101487450D01*
X160920500Y-101492520D01*
X160920500Y-101539622D01*
X160920500Y-101551662D01*
X160920499Y-101600000D01*
X160920498Y-101617951D01*
X160920500Y-101617976D01*
X160920500Y-101643977D01*
X160900498Y-101712098D01*
X160846842Y-101758591D01*
X160776568Y-101768695D01*
X160731501Y-101753097D01*
X160715537Y-101743880D01*
X160715532Y-101743878D01*
X160554482Y-101685261D01*
X160554480Y-101685260D01*
X160421825Y-101661870D01*
X160385695Y-101655500D01*
X160385694Y-101655500D01*
X158534229Y-101655500D01*
X158466108Y-101635498D01*
X158445134Y-101618595D01*
X153092539Y-96266000D01*
X153668312Y-96266000D01*
X153688958Y-96409596D01*
X153749223Y-96541558D01*
X153844225Y-96651196D01*
X153966268Y-96729629D01*
X154105464Y-96770500D01*
X154250536Y-96770500D01*
X154389732Y-96729629D01*
X154511775Y-96651196D01*
X154606777Y-96541558D01*
X154667042Y-96409596D01*
X154687688Y-96266000D01*
X154667042Y-96122404D01*
X154606777Y-95990442D01*
X154511775Y-95880804D01*
X154511774Y-95880803D01*
X154390082Y-95802596D01*
X154389732Y-95802371D01*
X154389731Y-95802370D01*
X154389730Y-95802370D01*
X154250536Y-95761500D01*
X154105464Y-95761500D01*
X153966269Y-95802370D01*
X153966266Y-95802372D01*
X153844225Y-95880803D01*
X153749223Y-95990441D01*
X153695563Y-96107942D01*
X153688958Y-96122404D01*
X153668312Y-96266000D01*
X153092539Y-96266000D01*
X151822539Y-94996000D01*
X152398312Y-94996000D01*
X152418958Y-95139596D01*
X152479223Y-95271558D01*
X152574225Y-95381196D01*
X152696268Y-95459629D01*
X152835464Y-95500500D01*
X152980536Y-95500500D01*
X153119732Y-95459629D01*
X153241775Y-95381196D01*
X153336777Y-95271558D01*
X153397042Y-95139596D01*
X153417688Y-94996000D01*
X153417687Y-94995997D01*
X153417688Y-94995996D01*
X153668311Y-94995996D01*
X153684186Y-95106404D01*
X153688958Y-95139596D01*
X153749223Y-95271558D01*
X153844225Y-95381196D01*
X153966268Y-95459629D01*
X154105464Y-95500500D01*
X154250536Y-95500500D01*
X154389732Y-95459629D01*
X154511775Y-95381196D01*
X154606777Y-95271558D01*
X154616622Y-95250000D01*
X176020312Y-95250000D01*
X176040958Y-95393596D01*
X176101223Y-95525558D01*
X176196225Y-95635196D01*
X176318268Y-95713629D01*
X176457464Y-95754500D01*
X176602536Y-95754500D01*
X176741732Y-95713629D01*
X176863775Y-95635196D01*
X176958777Y-95525558D01*
X177019042Y-95393596D01*
X177039688Y-95250000D01*
X177019042Y-95106404D01*
X176958777Y-94974442D01*
X176863775Y-94864804D01*
X176863774Y-94864803D01*
X176801259Y-94824627D01*
X176741732Y-94786371D01*
X176741731Y-94786370D01*
X176741730Y-94786370D01*
X176602536Y-94745500D01*
X176457464Y-94745500D01*
X176318269Y-94786370D01*
X176318266Y-94786372D01*
X176196225Y-94864803D01*
X176101223Y-94974441D01*
X176040958Y-95106403D01*
X176036361Y-95138378D01*
X176020312Y-95250000D01*
X154616622Y-95250000D01*
X154667042Y-95139596D01*
X154687688Y-94996000D01*
X154667042Y-94852404D01*
X154606777Y-94720442D01*
X154511775Y-94610804D01*
X154511774Y-94610803D01*
X154438732Y-94563862D01*
X154389732Y-94532371D01*
X154389731Y-94532370D01*
X154389730Y-94532370D01*
X154250536Y-94491500D01*
X154105464Y-94491500D01*
X153966269Y-94532370D01*
X153966266Y-94532372D01*
X153844225Y-94610803D01*
X153749223Y-94720441D01*
X153688958Y-94852403D01*
X153688956Y-94852410D01*
X153668311Y-94995996D01*
X153417688Y-94995996D01*
X153397043Y-94852410D01*
X153397042Y-94852409D01*
X153397042Y-94852404D01*
X153336777Y-94720442D01*
X153313167Y-94693195D01*
X153307212Y-94686322D01*
X153277719Y-94621741D01*
X153287822Y-94551467D01*
X153334315Y-94497811D01*
X153355798Y-94488000D01*
X166114312Y-94488000D01*
X166134958Y-94631596D01*
X166195223Y-94763558D01*
X166290225Y-94873196D01*
X166412268Y-94951629D01*
X166551464Y-94992500D01*
X166696536Y-94992500D01*
X166835732Y-94951629D01*
X166957775Y-94873196D01*
X167052777Y-94763558D01*
X167062622Y-94742000D01*
X173805812Y-94742000D01*
X173826458Y-94885596D01*
X173886723Y-95017558D01*
X173981725Y-95127196D01*
X174103768Y-95205629D01*
X174242964Y-95246500D01*
X174388036Y-95246500D01*
X174527232Y-95205629D01*
X174649275Y-95127196D01*
X174744277Y-95017558D01*
X174804542Y-94885596D01*
X174825188Y-94742000D01*
X174804542Y-94598404D01*
X174744277Y-94466442D01*
X174649275Y-94356804D01*
X174649274Y-94356803D01*
X174561377Y-94300315D01*
X174527232Y-94278371D01*
X174527231Y-94278370D01*
X174527230Y-94278370D01*
X174388036Y-94237500D01*
X174242964Y-94237500D01*
X174103769Y-94278370D01*
X174103766Y-94278372D01*
X173981725Y-94356803D01*
X173886723Y-94466441D01*
X173826458Y-94598403D01*
X173807865Y-94727722D01*
X173805812Y-94742000D01*
X167062622Y-94742000D01*
X167113042Y-94631596D01*
X167133688Y-94488000D01*
X167113042Y-94344404D01*
X167052777Y-94212442D01*
X166977884Y-94126011D01*
X166948392Y-94061432D01*
X166958495Y-93991158D01*
X166965666Y-93980000D01*
X177290312Y-93980000D01*
X177310958Y-94123596D01*
X177371223Y-94255558D01*
X177466225Y-94365196D01*
X177588268Y-94443629D01*
X177727464Y-94484500D01*
X177872536Y-94484500D01*
X178011732Y-94443629D01*
X178133775Y-94365196D01*
X178228777Y-94255558D01*
X178289042Y-94123596D01*
X178309688Y-93980000D01*
X178289042Y-93836404D01*
X178228777Y-93704442D01*
X178133775Y-93594804D01*
X178133774Y-93594803D01*
X178058862Y-93546660D01*
X178011732Y-93516371D01*
X178011731Y-93516370D01*
X178011730Y-93516370D01*
X177872536Y-93475500D01*
X177727464Y-93475500D01*
X177588269Y-93516370D01*
X177588266Y-93516372D01*
X177466225Y-93594803D01*
X177371223Y-93704441D01*
X177310958Y-93836403D01*
X177292698Y-93963403D01*
X177290312Y-93980000D01*
X166965666Y-93980000D01*
X166977882Y-93960990D01*
X167052777Y-93874558D01*
X167113042Y-93742596D01*
X167133688Y-93599000D01*
X167113042Y-93455404D01*
X167052777Y-93323442D01*
X166957775Y-93213804D01*
X166957774Y-93213803D01*
X166895259Y-93173627D01*
X166835732Y-93135371D01*
X166835731Y-93135370D01*
X166835730Y-93135370D01*
X166696536Y-93094500D01*
X166551464Y-93094500D01*
X166412269Y-93135370D01*
X166412266Y-93135372D01*
X166290225Y-93213803D01*
X166195223Y-93323441D01*
X166134958Y-93455403D01*
X166114312Y-93599000D01*
X166134958Y-93742596D01*
X166195223Y-93874558D01*
X166195226Y-93874562D01*
X166270114Y-93960988D01*
X166299607Y-94025568D01*
X166289504Y-94095842D01*
X166270114Y-94126012D01*
X166195226Y-94212437D01*
X166195223Y-94212441D01*
X166134958Y-94344403D01*
X166124774Y-94415232D01*
X166114312Y-94488000D01*
X153355798Y-94488000D01*
X153366935Y-94482914D01*
X153500732Y-94443629D01*
X153622775Y-94365196D01*
X153717777Y-94255558D01*
X153778042Y-94123596D01*
X153798688Y-93980000D01*
X153778042Y-93836404D01*
X153717777Y-93704442D01*
X153697907Y-93681511D01*
X153668415Y-93616934D01*
X153678517Y-93546660D01*
X153697904Y-93516491D01*
X153717777Y-93493558D01*
X153778042Y-93361596D01*
X153798688Y-93218000D01*
X153778042Y-93074404D01*
X153717777Y-92942442D01*
X153697907Y-92919511D01*
X153668415Y-92854934D01*
X153678517Y-92784660D01*
X153697904Y-92754491D01*
X153717777Y-92731558D01*
X153727622Y-92710000D01*
X176020312Y-92710000D01*
X176040958Y-92853596D01*
X176101223Y-92985558D01*
X176196225Y-93095196D01*
X176318268Y-93173629D01*
X176457464Y-93214500D01*
X176602536Y-93214500D01*
X176741732Y-93173629D01*
X176863775Y-93095196D01*
X176958777Y-92985558D01*
X177019042Y-92853596D01*
X177039688Y-92710000D01*
X177019042Y-92566404D01*
X176958777Y-92434442D01*
X176863775Y-92324804D01*
X176863774Y-92324803D01*
X176802753Y-92285587D01*
X176741732Y-92246371D01*
X176741731Y-92246370D01*
X176741730Y-92246370D01*
X176602536Y-92205500D01*
X176457464Y-92205500D01*
X176318269Y-92246370D01*
X176318266Y-92246372D01*
X176196225Y-92324803D01*
X176101223Y-92434441D01*
X176053642Y-92538630D01*
X176040958Y-92566404D01*
X176020312Y-92710000D01*
X153727622Y-92710000D01*
X153778042Y-92599596D01*
X153798688Y-92456000D01*
X153778042Y-92312404D01*
X153717777Y-92180442D01*
X153697907Y-92157511D01*
X153668415Y-92092934D01*
X153678517Y-92022660D01*
X153697904Y-91992491D01*
X153717777Y-91969558D01*
X153778042Y-91837596D01*
X153798688Y-91694000D01*
X153778042Y-91550404D01*
X153727622Y-91440000D01*
X177290312Y-91440000D01*
X177310958Y-91583596D01*
X177371223Y-91715558D01*
X177466225Y-91825196D01*
X177588268Y-91903629D01*
X177727464Y-91944500D01*
X177872536Y-91944500D01*
X178011732Y-91903629D01*
X178133775Y-91825196D01*
X178228777Y-91715558D01*
X178289042Y-91583596D01*
X178309688Y-91440000D01*
X179830312Y-91440000D01*
X179850958Y-91583596D01*
X179911223Y-91715558D01*
X180006225Y-91825196D01*
X180128268Y-91903629D01*
X180267464Y-91944500D01*
X180412536Y-91944500D01*
X180551732Y-91903629D01*
X180673775Y-91825196D01*
X180768777Y-91715558D01*
X180829042Y-91583596D01*
X180849688Y-91440000D01*
X180829042Y-91296404D01*
X180768777Y-91164442D01*
X180673775Y-91054804D01*
X180673774Y-91054803D01*
X180612753Y-91015587D01*
X180551732Y-90976371D01*
X180551731Y-90976370D01*
X180551730Y-90976370D01*
X180412536Y-90935500D01*
X180267464Y-90935500D01*
X180128269Y-90976370D01*
X180128266Y-90976372D01*
X180006225Y-91054803D01*
X179911223Y-91164441D01*
X179850958Y-91296403D01*
X179845993Y-91330934D01*
X179830312Y-91440000D01*
X178309688Y-91440000D01*
X178289042Y-91296404D01*
X178228777Y-91164442D01*
X178133775Y-91054804D01*
X178133774Y-91054803D01*
X178072753Y-91015587D01*
X178011732Y-90976371D01*
X178011731Y-90976370D01*
X178011730Y-90976370D01*
X177872536Y-90935500D01*
X177727464Y-90935500D01*
X177588269Y-90976370D01*
X177588266Y-90976372D01*
X177466225Y-91054803D01*
X177371223Y-91164441D01*
X177310958Y-91296403D01*
X177305993Y-91330934D01*
X177290312Y-91440000D01*
X153727622Y-91440000D01*
X153717777Y-91418442D01*
X153697907Y-91395511D01*
X153668415Y-91330934D01*
X153678517Y-91260660D01*
X153697904Y-91230491D01*
X153717777Y-91207558D01*
X153778042Y-91075596D01*
X153798688Y-90932000D01*
X153778042Y-90788404D01*
X153717777Y-90656442D01*
X153622775Y-90546804D01*
X153622774Y-90546803D01*
X153561753Y-90507587D01*
X153500732Y-90468371D01*
X153500731Y-90468370D01*
X153500730Y-90468370D01*
X153361536Y-90427500D01*
X153216464Y-90427500D01*
X153077269Y-90468370D01*
X153077266Y-90468372D01*
X152955225Y-90546803D01*
X152860223Y-90656441D01*
X152799958Y-90788403D01*
X152779312Y-90932000D01*
X152799958Y-91075596D01*
X152860223Y-91207558D01*
X152880091Y-91230487D01*
X152909584Y-91295068D01*
X152899481Y-91365342D01*
X152880091Y-91395513D01*
X152860223Y-91418441D01*
X152799958Y-91550403D01*
X152779312Y-91694000D01*
X152799958Y-91837596D01*
X152860223Y-91969558D01*
X152880091Y-91992487D01*
X152909584Y-92057068D01*
X152899481Y-92127342D01*
X152880091Y-92157513D01*
X152860223Y-92180441D01*
X152799958Y-92312403D01*
X152779312Y-92456000D01*
X152799958Y-92599596D01*
X152860223Y-92731558D01*
X152880091Y-92754487D01*
X152909584Y-92819068D01*
X152899481Y-92889342D01*
X152880091Y-92919513D01*
X152860223Y-92942441D01*
X152799958Y-93074403D01*
X152779312Y-93218000D01*
X152799958Y-93361596D01*
X152860223Y-93493558D01*
X152880091Y-93516487D01*
X152909584Y-93581068D01*
X152899481Y-93651342D01*
X152880091Y-93681513D01*
X152860223Y-93704441D01*
X152799958Y-93836403D01*
X152779312Y-93980000D01*
X152799958Y-94123596D01*
X152860223Y-94255558D01*
X152889788Y-94289678D01*
X152919281Y-94354258D01*
X152909177Y-94424532D01*
X152862684Y-94478188D01*
X152830061Y-94493086D01*
X152696270Y-94532370D01*
X152696266Y-94532372D01*
X152574225Y-94610803D01*
X152479223Y-94720441D01*
X152418958Y-94852403D01*
X152414186Y-94885596D01*
X152398312Y-94996000D01*
X151822539Y-94996000D01*
X149858109Y-93031570D01*
X149841719Y-93011387D01*
X149836621Y-93003584D01*
X149833955Y-93001509D01*
X149810380Y-92983160D01*
X149804536Y-92977997D01*
X149802097Y-92975558D01*
X149785909Y-92964000D01*
X149784149Y-92962743D01*
X149743256Y-92930914D01*
X149736734Y-92927385D01*
X149730044Y-92924114D01*
X149680368Y-92909325D01*
X149631354Y-92892499D01*
X149624027Y-92891277D01*
X149616653Y-92890357D01*
X149564875Y-92892500D01*
X142831634Y-92892500D01*
X142805777Y-92889818D01*
X142803507Y-92889342D01*
X142796651Y-92887904D01*
X142775022Y-92890601D01*
X142763668Y-92892016D01*
X142755878Y-92892500D01*
X142752422Y-92892500D01*
X142741543Y-92894315D01*
X142730663Y-92896130D01*
X142726386Y-92896663D01*
X142679246Y-92902539D01*
X142672095Y-92904668D01*
X142665109Y-92907067D01*
X142619510Y-92931744D01*
X142572955Y-92954503D01*
X142566938Y-92958797D01*
X142561052Y-92963378D01*
X142525951Y-93001509D01*
X141921568Y-93605891D01*
X141901396Y-93622274D01*
X141893585Y-93627377D01*
X141893584Y-93627378D01*
X141873171Y-93653604D01*
X141868005Y-93659454D01*
X141865560Y-93661899D01*
X141852740Y-93679852D01*
X141820911Y-93720748D01*
X141817377Y-93727277D01*
X141814114Y-93733953D01*
X141799324Y-93783631D01*
X141782499Y-93832644D01*
X141780314Y-93845736D01*
X141778627Y-93853098D01*
X141777525Y-93856855D01*
X141774263Y-93855898D01*
X141753026Y-93904788D01*
X141724406Y-93930057D01*
X141653226Y-93975802D01*
X141653225Y-93975802D01*
X141558223Y-94085441D01*
X141497958Y-94217403D01*
X141486986Y-94293714D01*
X141477312Y-94361000D01*
X141497958Y-94504596D01*
X141558223Y-94636558D01*
X141653225Y-94746196D01*
X141775268Y-94824629D01*
X141914464Y-94865500D01*
X142059536Y-94865500D01*
X142198732Y-94824629D01*
X142293880Y-94763480D01*
X142361999Y-94743478D01*
X142430116Y-94763478D01*
X142486007Y-94799397D01*
X142525264Y-94824627D01*
X142525266Y-94824627D01*
X142525268Y-94824629D01*
X142664464Y-94865500D01*
X142809536Y-94865500D01*
X142948732Y-94824629D01*
X143070775Y-94746196D01*
X143165777Y-94636558D01*
X143226042Y-94504596D01*
X143246688Y-94361000D01*
X143226042Y-94217404D01*
X143226039Y-94217397D01*
X143224749Y-94213003D01*
X143224746Y-94142007D01*
X143263128Y-94082279D01*
X143327707Y-94052783D01*
X143345644Y-94051500D01*
X149186771Y-94051500D01*
X149254892Y-94071502D01*
X149275866Y-94088405D01*
X157862889Y-102675428D01*
X157879276Y-102695606D01*
X157884378Y-102703416D01*
X157897540Y-102713660D01*
X157910613Y-102723835D01*
X157916457Y-102728996D01*
X157918903Y-102731442D01*
X157936850Y-102744256D01*
X157977744Y-102776085D01*
X157977746Y-102776085D01*
X157984229Y-102779594D01*
X157984276Y-102779617D01*
X157984326Y-102779644D01*
X157990949Y-102782882D01*
X157990952Y-102782884D01*
X158040631Y-102797674D01*
X158089644Y-102814500D01*
X158089651Y-102814500D01*
X158096901Y-102815710D01*
X158096973Y-102815719D01*
X158097062Y-102815734D01*
X158104342Y-102816641D01*
X158104344Y-102816642D01*
X158104345Y-102816641D01*
X158104346Y-102816642D01*
X158156124Y-102814500D01*
X159994456Y-102814500D01*
X160062577Y-102834502D01*
X160109070Y-102888158D01*
X160120456Y-102940491D01*
X160120460Y-103004066D01*
X160150231Y-103172845D01*
X160159740Y-103198965D01*
X160208861Y-103333901D01*
X160294548Y-103482300D01*
X160294565Y-103482329D01*
X160404731Y-103613609D01*
X160404737Y-103613615D01*
X160461666Y-103661381D01*
X160536032Y-103723777D01*
X160684463Y-103809469D01*
X160684467Y-103809470D01*
X160684470Y-103809472D01*
X160738561Y-103829158D01*
X160845518Y-103868085D01*
X161014305Y-103897846D01*
X161100000Y-103897845D01*
X161156147Y-103897845D01*
X161165958Y-103897845D01*
X161166511Y-103897800D01*
X161185691Y-103897801D01*
X161354470Y-103868042D01*
X161515397Y-103809472D01*
X161515510Y-103809431D01*
X161515510Y-103809430D01*
X161515518Y-103809428D01*
X161663942Y-103723740D01*
X161795232Y-103613582D01*
X161803451Y-103603787D01*
X161862559Y-103564463D01*
X161933547Y-103563337D01*
X161993874Y-103600769D01*
X161996486Y-103603783D01*
X162004736Y-103613614D01*
X162004737Y-103613615D01*
X162061666Y-103661381D01*
X162136032Y-103723777D01*
X162284463Y-103809469D01*
X162284467Y-103809470D01*
X162284470Y-103809472D01*
X162338561Y-103829158D01*
X162445518Y-103868085D01*
X162614305Y-103897846D01*
X162700000Y-103897845D01*
X162756147Y-103897845D01*
X162765958Y-103897845D01*
X162766511Y-103897800D01*
X162785691Y-103897801D01*
X162954470Y-103868042D01*
X163115397Y-103809472D01*
X163115510Y-103809431D01*
X163115510Y-103809430D01*
X163115518Y-103809428D01*
X163263942Y-103723740D01*
X163395232Y-103613582D01*
X163403451Y-103603787D01*
X163462559Y-103564463D01*
X163533547Y-103563337D01*
X163593874Y-103600769D01*
X163596486Y-103603783D01*
X163604736Y-103613614D01*
X163604737Y-103613615D01*
X163661666Y-103661381D01*
X163736032Y-103723777D01*
X163884463Y-103809469D01*
X163884467Y-103809470D01*
X163884470Y-103809472D01*
X163938561Y-103829158D01*
X164045518Y-103868085D01*
X164214305Y-103897846D01*
X164300000Y-103897845D01*
X164356147Y-103897845D01*
X164365958Y-103897845D01*
X164366511Y-103897800D01*
X164385691Y-103897801D01*
X164554470Y-103868042D01*
X164715397Y-103809472D01*
X164715510Y-103809431D01*
X164715510Y-103809430D01*
X164715518Y-103809428D01*
X164863942Y-103723740D01*
X164995232Y-103613582D01*
X165003451Y-103603787D01*
X165062559Y-103564463D01*
X165133547Y-103563337D01*
X165193874Y-103600769D01*
X165196486Y-103603783D01*
X165204736Y-103613614D01*
X165204737Y-103613615D01*
X165261666Y-103661381D01*
X165336032Y-103723777D01*
X165484463Y-103809469D01*
X165484467Y-103809470D01*
X165484470Y-103809472D01*
X165538561Y-103829158D01*
X165645518Y-103868085D01*
X165814305Y-103897846D01*
X165900000Y-103897845D01*
X165956147Y-103897845D01*
X165965958Y-103897845D01*
X165966511Y-103897800D01*
X165985691Y-103897801D01*
X166154470Y-103868042D01*
X166315397Y-103809472D01*
X166315510Y-103809431D01*
X166315510Y-103809430D01*
X166315518Y-103809428D01*
X166463942Y-103723740D01*
X166595232Y-103613582D01*
X166705400Y-103482300D01*
X166791098Y-103333882D01*
X166849724Y-103172839D01*
X166879495Y-103004062D01*
X166879495Y-102989540D01*
X166879500Y-102989500D01*
X166879500Y-102940500D01*
X166899502Y-102872379D01*
X166953158Y-102825886D01*
X167005500Y-102814500D01*
X168153920Y-102814500D01*
X168222041Y-102834502D01*
X168243015Y-102851405D01*
X169761389Y-104369779D01*
X169795415Y-104432091D01*
X169797012Y-104476803D01*
X169791162Y-104517500D01*
X169791100Y-104517928D01*
X169761608Y-104582509D01*
X169701883Y-104620894D01*
X169666382Y-104625999D01*
X169602770Y-104625999D01*
X169463575Y-104666869D01*
X169463572Y-104666871D01*
X169341531Y-104745302D01*
X169246529Y-104854940D01*
X169186264Y-104986902D01*
X169165618Y-105130499D01*
X169185110Y-105266069D01*
X169175005Y-105336343D01*
X169128512Y-105389998D01*
X169060392Y-105410000D01*
X168522099Y-105410000D01*
X168453978Y-105389998D01*
X168407485Y-105336342D01*
X168397381Y-105266070D01*
X168397382Y-105266068D01*
X168417305Y-105127502D01*
X168415225Y-105113033D01*
X168396659Y-104983903D01*
X168336394Y-104851941D01*
X168241392Y-104742303D01*
X168241391Y-104742302D01*
X168165720Y-104693671D01*
X168119349Y-104663870D01*
X168119348Y-104663869D01*
X168119347Y-104663869D01*
X167980153Y-104622999D01*
X167835081Y-104622999D01*
X167695886Y-104663869D01*
X167695883Y-104663871D01*
X167573842Y-104742302D01*
X167478840Y-104851940D01*
X167418575Y-104983902D01*
X167397929Y-105127502D01*
X167417852Y-105266068D01*
X167407749Y-105336342D01*
X167361256Y-105389998D01*
X167293135Y-105410000D01*
X166733791Y-105410000D01*
X166665670Y-105389998D01*
X166619177Y-105336342D01*
X166609073Y-105266069D01*
X166614020Y-105231659D01*
X166628223Y-105132878D01*
X166607577Y-104989282D01*
X166547312Y-104857320D01*
X166452310Y-104747682D01*
X166452309Y-104747681D01*
X166381687Y-104702295D01*
X166330267Y-104669249D01*
X166330266Y-104669248D01*
X166330265Y-104669248D01*
X166191071Y-104628378D01*
X166045999Y-104628378D01*
X165906804Y-104669248D01*
X165906801Y-104669250D01*
X165784760Y-104747681D01*
X165689758Y-104857319D01*
X165629493Y-104989281D01*
X165608847Y-105132878D01*
X165627997Y-105266069D01*
X165617893Y-105336343D01*
X165571399Y-105389998D01*
X165503279Y-105410000D01*
X164957073Y-105410000D01*
X164888952Y-105389998D01*
X164842459Y-105336342D01*
X164832355Y-105266069D01*
X164833556Y-105257716D01*
X164851049Y-105136049D01*
X164830403Y-104992453D01*
X164770138Y-104860491D01*
X164675136Y-104750853D01*
X164675135Y-104750852D01*
X164586782Y-104694071D01*
X164553093Y-104672420D01*
X164553092Y-104672419D01*
X164553091Y-104672419D01*
X164413897Y-104631549D01*
X164268825Y-104631549D01*
X164129630Y-104672419D01*
X164129627Y-104672421D01*
X164007586Y-104750852D01*
X163912584Y-104860490D01*
X163852319Y-104992452D01*
X163831673Y-105136049D01*
X163850367Y-105266069D01*
X163840262Y-105336343D01*
X163793769Y-105389998D01*
X163725649Y-105410000D01*
X163179880Y-105410000D01*
X163111759Y-105389998D01*
X163065266Y-105336342D01*
X163055162Y-105266068D01*
X163073226Y-105140433D01*
X163052580Y-104996837D01*
X162992315Y-104864875D01*
X162897313Y-104755237D01*
X162897312Y-104755236D01*
X162809496Y-104698800D01*
X162775270Y-104676804D01*
X162775269Y-104676803D01*
X162775268Y-104676803D01*
X162636074Y-104635933D01*
X162491002Y-104635933D01*
X162351807Y-104676803D01*
X162351804Y-104676805D01*
X162229763Y-104755236D01*
X162134761Y-104864874D01*
X162074496Y-104996836D01*
X162072258Y-105012403D01*
X162053850Y-105140433D01*
X162069430Y-105248796D01*
X162071914Y-105266068D01*
X162061810Y-105336342D01*
X162015317Y-105389998D01*
X161947196Y-105410000D01*
X161402016Y-105410000D01*
X161333895Y-105389998D01*
X161287402Y-105336342D01*
X161277298Y-105266070D01*
X161277299Y-105266068D01*
X161294575Y-105145912D01*
X161294575Y-105145909D01*
X161273929Y-105002313D01*
X161213664Y-104870351D01*
X161118662Y-104760713D01*
X161118661Y-104760712D01*
X161044963Y-104713349D01*
X160996619Y-104682280D01*
X160996618Y-104682279D01*
X160996617Y-104682279D01*
X160857423Y-104641409D01*
X160712351Y-104641409D01*
X160573156Y-104682279D01*
X160573153Y-104682281D01*
X160451112Y-104760712D01*
X160356110Y-104870350D01*
X160296314Y-105001287D01*
X160295845Y-105002313D01*
X160275347Y-105144884D01*
X160275199Y-105145912D01*
X160292475Y-105266068D01*
X160282372Y-105336342D01*
X160235879Y-105389998D01*
X160167758Y-105410000D01*
X159618482Y-105410000D01*
X159550361Y-105389998D01*
X159503868Y-105336342D01*
X159493764Y-105266070D01*
X159493765Y-105266068D01*
X159513688Y-105127502D01*
X159511608Y-105113033D01*
X159493042Y-104983903D01*
X159432777Y-104851941D01*
X159337775Y-104742303D01*
X159337774Y-104742302D01*
X159262103Y-104693671D01*
X159215732Y-104663870D01*
X159215731Y-104663869D01*
X159215730Y-104663869D01*
X159076536Y-104622999D01*
X158931464Y-104622999D01*
X158792269Y-104663869D01*
X158792266Y-104663871D01*
X158670225Y-104742302D01*
X158575223Y-104851940D01*
X158514958Y-104983902D01*
X158494312Y-105127502D01*
X158514235Y-105266068D01*
X158504132Y-105336342D01*
X158457639Y-105389998D01*
X158389518Y-105410000D01*
X157717085Y-105410000D01*
X157648964Y-105389998D01*
X157602471Y-105336342D01*
X157592367Y-105266070D01*
X157592368Y-105266068D01*
X157611728Y-105131418D01*
X157609085Y-105113033D01*
X157591082Y-104987819D01*
X157530817Y-104855857D01*
X157435815Y-104746219D01*
X157435814Y-104746218D01*
X157374793Y-104707002D01*
X157313772Y-104667786D01*
X157313771Y-104667785D01*
X157313770Y-104667785D01*
X157174576Y-104626915D01*
X157029504Y-104626915D01*
X156890309Y-104667785D01*
X156890306Y-104667787D01*
X156768265Y-104746218D01*
X156673263Y-104855856D01*
X156612998Y-104987818D01*
X156610715Y-105003695D01*
X156604705Y-105045502D01*
X156592352Y-105131418D01*
X156611712Y-105266068D01*
X156601609Y-105336342D01*
X156555116Y-105389998D01*
X156486995Y-105410000D01*
X156058498Y-105410000D01*
X155990377Y-105389998D01*
X155943884Y-105336342D01*
X155933780Y-105266068D01*
X155937601Y-105248504D01*
X155939038Y-105243602D01*
X155939042Y-105243596D01*
X155959688Y-105100000D01*
X155939042Y-104956404D01*
X155878777Y-104824442D01*
X155783775Y-104714804D01*
X155783774Y-104714803D01*
X155714887Y-104670532D01*
X155661732Y-104636371D01*
X155661731Y-104636370D01*
X155661730Y-104636370D01*
X155522536Y-104595500D01*
X155377464Y-104595500D01*
X155238269Y-104636370D01*
X155238266Y-104636372D01*
X155116225Y-104714803D01*
X155021223Y-104824441D01*
X154960958Y-104956403D01*
X154952906Y-105012404D01*
X154940312Y-105100000D01*
X154960958Y-105243596D01*
X154960958Y-105243597D01*
X154960959Y-105243599D01*
X154962399Y-105248504D01*
X154962398Y-105319500D01*
X154924013Y-105379226D01*
X154859432Y-105408718D01*
X154841502Y-105410000D01*
X154162305Y-105410000D01*
X154094184Y-105389998D01*
X154047691Y-105336342D01*
X154037587Y-105266068D01*
X154056153Y-105136942D01*
X154035507Y-104993346D01*
X153975242Y-104861384D01*
X153880240Y-104751746D01*
X153880239Y-104751745D01*
X153797855Y-104698800D01*
X153758197Y-104673313D01*
X153758196Y-104673312D01*
X153758195Y-104673312D01*
X153619001Y-104632442D01*
X153473929Y-104632442D01*
X153334734Y-104673312D01*
X153334731Y-104673314D01*
X153212690Y-104751745D01*
X153117688Y-104861383D01*
X153057423Y-104993345D01*
X153042088Y-105100000D01*
X153036777Y-105136942D01*
X153052859Y-105248796D01*
X153055343Y-105266068D01*
X153045239Y-105336342D01*
X152998746Y-105389998D01*
X152930625Y-105410000D01*
X152384976Y-105410000D01*
X152316855Y-105389998D01*
X152270362Y-105336342D01*
X152260258Y-105266069D01*
X152262698Y-105249101D01*
X152278156Y-105141586D01*
X152257510Y-104997990D01*
X152197245Y-104866028D01*
X152102243Y-104756390D01*
X152102242Y-104756389D01*
X152041221Y-104717173D01*
X151980200Y-104677957D01*
X151980199Y-104677956D01*
X151980198Y-104677956D01*
X151841004Y-104637086D01*
X151695932Y-104637086D01*
X151556737Y-104677956D01*
X151556734Y-104677958D01*
X151434693Y-104756389D01*
X151339691Y-104866027D01*
X151279426Y-104997989D01*
X151262885Y-105113033D01*
X151258780Y-105141586D01*
X151274194Y-105248796D01*
X151276678Y-105266069D01*
X151266574Y-105336343D01*
X151220081Y-105389998D01*
X151151960Y-105410000D01*
X150606936Y-105410000D01*
X150538815Y-105389998D01*
X150492322Y-105336342D01*
X150482218Y-105266068D01*
X150499296Y-105147291D01*
X150478650Y-105003695D01*
X150418385Y-104871733D01*
X150323383Y-104762095D01*
X150323382Y-104762094D01*
X150230333Y-104702295D01*
X150201340Y-104683662D01*
X150201339Y-104683661D01*
X150201338Y-104683661D01*
X150062144Y-104642791D01*
X149917072Y-104642791D01*
X149777877Y-104683661D01*
X149777874Y-104683663D01*
X149655833Y-104762094D01*
X149560831Y-104871732D01*
X149500566Y-105003694D01*
X149499314Y-105012403D01*
X149479920Y-105147291D01*
X149494514Y-105248796D01*
X149496998Y-105266068D01*
X149486894Y-105336342D01*
X149440401Y-105389998D01*
X149372280Y-105410000D01*
X148880215Y-105410000D01*
X148812094Y-105389998D01*
X148765601Y-105336342D01*
X148755497Y-105266068D01*
X148772921Y-105144884D01*
X148752275Y-105001288D01*
X148692010Y-104869326D01*
X148597008Y-104759688D01*
X148597007Y-104759687D01*
X148535259Y-104720004D01*
X148474965Y-104681255D01*
X148474964Y-104681254D01*
X148474963Y-104681254D01*
X148335769Y-104640384D01*
X148190697Y-104640384D01*
X148051502Y-104681254D01*
X148051499Y-104681256D01*
X147929458Y-104759687D01*
X147834456Y-104869325D01*
X147774191Y-105001287D01*
X147769976Y-105030604D01*
X147753545Y-105144884D01*
X147768485Y-105248796D01*
X147770969Y-105266068D01*
X147760865Y-105336342D01*
X147714372Y-105389998D01*
X147646251Y-105410000D01*
X147049580Y-105410000D01*
X146981459Y-105389998D01*
X146934966Y-105336342D01*
X146924862Y-105266069D01*
X146924863Y-105266068D01*
X146940688Y-105156003D01*
X146940041Y-105151500D01*
X146920042Y-105012404D01*
X146859777Y-104880442D01*
X146764775Y-104770804D01*
X146764774Y-104770803D01*
X146692946Y-104724642D01*
X146642732Y-104692371D01*
X146642731Y-104692370D01*
X146642730Y-104692370D01*
X146503536Y-104651500D01*
X146358464Y-104651500D01*
X146219269Y-104692370D01*
X146219266Y-104692372D01*
X146097225Y-104770803D01*
X146002223Y-104880441D01*
X145945936Y-105003694D01*
X145941958Y-105012404D01*
X145922565Y-105147291D01*
X145921312Y-105156003D01*
X145937137Y-105266068D01*
X145927034Y-105336342D01*
X145880541Y-105389998D01*
X145812420Y-105410000D01*
X145144418Y-105410000D01*
X145076297Y-105389998D01*
X145029804Y-105336342D01*
X145019700Y-105266070D01*
X145019701Y-105266068D01*
X145038666Y-105134165D01*
X145038666Y-105134162D01*
X145018020Y-104990566D01*
X144957755Y-104858604D01*
X144862753Y-104748966D01*
X144862752Y-104748965D01*
X144790131Y-104702294D01*
X144740710Y-104670533D01*
X144740709Y-104670532D01*
X144740708Y-104670532D01*
X144601514Y-104629662D01*
X144456442Y-104629662D01*
X144317247Y-104670532D01*
X144317244Y-104670534D01*
X144195203Y-104748965D01*
X144100201Y-104858603D01*
X144039936Y-104990565D01*
X144038394Y-105001288D01*
X144019376Y-105133569D01*
X144019290Y-105134165D01*
X144038255Y-105266068D01*
X144028152Y-105336342D01*
X143981659Y-105389998D01*
X143913538Y-105410000D01*
X143394391Y-105410000D01*
X143326270Y-105389998D01*
X143279777Y-105336342D01*
X143269673Y-105266068D01*
X143279777Y-105231658D01*
X143283881Y-105222671D01*
X143292859Y-105203013D01*
X143313505Y-105059417D01*
X143292859Y-104915821D01*
X143232594Y-104783859D01*
X143137592Y-104674221D01*
X143137591Y-104674220D01*
X143067367Y-104629090D01*
X143015549Y-104595788D01*
X143015548Y-104595787D01*
X143015547Y-104595787D01*
X142876353Y-104554917D01*
X142731281Y-104554917D01*
X142592086Y-104595787D01*
X142592083Y-104595789D01*
X142470042Y-104674220D01*
X142375040Y-104783858D01*
X142314775Y-104915820D01*
X142294129Y-105059417D01*
X142314775Y-105203013D01*
X142327857Y-105231658D01*
X142337960Y-105301932D01*
X142308467Y-105366513D01*
X142248741Y-105404896D01*
X142213243Y-105410000D01*
X141609083Y-105410000D01*
X141540962Y-105389998D01*
X141494469Y-105336342D01*
X141484365Y-105266068D01*
X141494469Y-105231659D01*
X141500159Y-105219197D01*
X141509842Y-105197996D01*
X141530488Y-105054400D01*
X141509842Y-104910804D01*
X141469670Y-104822841D01*
X141459568Y-104752568D01*
X141489061Y-104687987D01*
X141548787Y-104649604D01*
X141584285Y-104644500D01*
X141677536Y-104644500D01*
X141816732Y-104603629D01*
X141938775Y-104525196D01*
X142033777Y-104415558D01*
X142094042Y-104283596D01*
X142114688Y-104140000D01*
X142094042Y-103996404D01*
X142033777Y-103864442D01*
X142002446Y-103828284D01*
X141972953Y-103763703D01*
X141973064Y-103762928D01*
X141933208Y-103751226D01*
X141862659Y-103705887D01*
X141816732Y-103676371D01*
X141816731Y-103676370D01*
X141816730Y-103676370D01*
X141677536Y-103635500D01*
X141654029Y-103635500D01*
X141585908Y-103615498D01*
X141564934Y-103598595D01*
X140853405Y-102887066D01*
X140819379Y-102824754D01*
X140816500Y-102797971D01*
X140816500Y-102379028D01*
X140836502Y-102310907D01*
X140890158Y-102264414D01*
X140960432Y-102254310D01*
X141025012Y-102283804D01*
X141031595Y-102289933D01*
X141953255Y-103211593D01*
X141987281Y-103273905D01*
X141988877Y-103282756D01*
X142004956Y-103394589D01*
X142004958Y-103394596D01*
X142065223Y-103526558D01*
X142065226Y-103526562D01*
X142096553Y-103562716D01*
X142126046Y-103627296D01*
X142125934Y-103628070D01*
X142165790Y-103639772D01*
X142282268Y-103714629D01*
X142421464Y-103755500D01*
X142566536Y-103755500D01*
X142705732Y-103714629D01*
X142827775Y-103636196D01*
X142922777Y-103526558D01*
X142983042Y-103394596D01*
X143003688Y-103251000D01*
X142983042Y-103107404D01*
X142922777Y-102975442D01*
X142827775Y-102865804D01*
X142827774Y-102865803D01*
X142725946Y-102800362D01*
X142705732Y-102787371D01*
X142705731Y-102787370D01*
X142705730Y-102787370D01*
X142566536Y-102746500D01*
X142543028Y-102746500D01*
X142474907Y-102726498D01*
X142453933Y-102709595D01*
X141234405Y-101490066D01*
X141200379Y-101427754D01*
X141197500Y-101400971D01*
X141197500Y-98298000D01*
X151890312Y-98298000D01*
X151910958Y-98441596D01*
X151971223Y-98573558D01*
X152066225Y-98683196D01*
X152188268Y-98761629D01*
X152327464Y-98802500D01*
X152472534Y-98802500D01*
X152472536Y-98802500D01*
X152510775Y-98791271D01*
X152581768Y-98791271D01*
X152641494Y-98829654D01*
X152670988Y-98894235D01*
X152670989Y-98930099D01*
X152655412Y-99038442D01*
X152652312Y-99060000D01*
X152672958Y-99203596D01*
X152733223Y-99335558D01*
X152828225Y-99445196D01*
X152950268Y-99523629D01*
X153089464Y-99564500D01*
X153234536Y-99564500D01*
X153373732Y-99523629D01*
X153495775Y-99445196D01*
X153590777Y-99335558D01*
X153651042Y-99203596D01*
X153671688Y-99060000D01*
X153651042Y-98916404D01*
X153590777Y-98784442D01*
X153495775Y-98674804D01*
X153495774Y-98674803D01*
X153379881Y-98600323D01*
X153373732Y-98596371D01*
X153373731Y-98596370D01*
X153373730Y-98596370D01*
X153234536Y-98555500D01*
X153089464Y-98555500D01*
X153051224Y-98566727D01*
X152980228Y-98566727D01*
X152920502Y-98528342D01*
X152891010Y-98463761D01*
X152891011Y-98427899D01*
X152892142Y-98420038D01*
X152909688Y-98298000D01*
X152889042Y-98154404D01*
X152828777Y-98022442D01*
X152733775Y-97912804D01*
X152733774Y-97912803D01*
X152671262Y-97872629D01*
X152611732Y-97834371D01*
X152611731Y-97834370D01*
X152611730Y-97834370D01*
X152472536Y-97793500D01*
X152327464Y-97793500D01*
X152188269Y-97834370D01*
X152188266Y-97834372D01*
X152066225Y-97912803D01*
X151971223Y-98022441D01*
X151910958Y-98154403D01*
X151906638Y-98184449D01*
X151890312Y-98298000D01*
X141197500Y-98298000D01*
X141197500Y-94664834D01*
X141200182Y-94638974D01*
X141202095Y-94629853D01*
X141197983Y-94596869D01*
X141197500Y-94589077D01*
X141197500Y-94585625D01*
X141193869Y-94563862D01*
X141187461Y-94512452D01*
X141185341Y-94505334D01*
X141185331Y-94505304D01*
X141185323Y-94505279D01*
X141182929Y-94498307D01*
X141182929Y-94498302D01*
X141158255Y-94452710D01*
X141135499Y-94406160D01*
X141135497Y-94406158D01*
X141131175Y-94400105D01*
X141126621Y-94394254D01*
X141126619Y-94394251D01*
X141088490Y-94359151D01*
X141053549Y-94324210D01*
X141002744Y-94273404D01*
X140968718Y-94211092D01*
X140967123Y-94202256D01*
X140951042Y-94090404D01*
X140890777Y-93958442D01*
X140795775Y-93848804D01*
X140795774Y-93848803D01*
X140694366Y-93783632D01*
X140673732Y-93770371D01*
X140673731Y-93770370D01*
X140673730Y-93770370D01*
X140534536Y-93729500D01*
X140389464Y-93729500D01*
X140351224Y-93740727D01*
X140280228Y-93740727D01*
X140220502Y-93702342D01*
X140191010Y-93637761D01*
X140191011Y-93601899D01*
X140192032Y-93594803D01*
X140203308Y-93516372D01*
X140209688Y-93472003D01*
X140209687Y-93471996D01*
X140189042Y-93328404D01*
X140128777Y-93196442D01*
X140033775Y-93086804D01*
X140033774Y-93086803D01*
X139941144Y-93027273D01*
X139911732Y-93008371D01*
X139911731Y-93008370D01*
X139911730Y-93008370D01*
X139772536Y-92967500D01*
X139627464Y-92967500D01*
X139488269Y-93008370D01*
X139488266Y-93008372D01*
X139366225Y-93086803D01*
X139287912Y-93177181D01*
X139228186Y-93215564D01*
X139157189Y-93215564D01*
X139097463Y-93177180D01*
X139067970Y-93112599D01*
X139066688Y-93094668D01*
X139066688Y-93091003D01*
X139066382Y-93088875D01*
X139046042Y-92947404D01*
X138985777Y-92815442D01*
X138890775Y-92705804D01*
X138890774Y-92705803D01*
X138829753Y-92666587D01*
X138768732Y-92627371D01*
X138768731Y-92627370D01*
X138768730Y-92627370D01*
X138629536Y-92586500D01*
X138484464Y-92586500D01*
X138345269Y-92627370D01*
X138345266Y-92627372D01*
X138223225Y-92705803D01*
X138128223Y-92815441D01*
X138067958Y-92947403D01*
X138056903Y-93024294D01*
X138047312Y-93091000D01*
X138067958Y-93234596D01*
X138128223Y-93366558D01*
X138171724Y-93416761D01*
X138201217Y-93481340D01*
X138202500Y-93499273D01*
X138202500Y-94029732D01*
X138199818Y-94055589D01*
X138197904Y-94064713D01*
X138198751Y-94071502D01*
X138202016Y-94097702D01*
X138202500Y-94105489D01*
X138202500Y-94108948D01*
X138202499Y-94108948D01*
X138206128Y-94130688D01*
X138212538Y-94182115D01*
X138214652Y-94189215D01*
X138214660Y-94189238D01*
X138214666Y-94189260D01*
X138217070Y-94196263D01*
X138217071Y-94196265D01*
X138226129Y-94213003D01*
X138241739Y-94241848D01*
X138264502Y-94288409D01*
X138268767Y-94294382D01*
X138268811Y-94294439D01*
X138268855Y-94294501D01*
X138273380Y-94300315D01*
X138311508Y-94335415D01*
X139689595Y-95713501D01*
X139723620Y-95775813D01*
X139726500Y-95802596D01*
X139726500Y-97049050D01*
X139706498Y-97117171D01*
X139652842Y-97163664D01*
X139582568Y-97173768D01*
X139532379Y-97155048D01*
X139476846Y-97119359D01*
X139403732Y-97072371D01*
X139403731Y-97072370D01*
X139403730Y-97072370D01*
X139264536Y-97031500D01*
X139119464Y-97031500D01*
X138980269Y-97072370D01*
X138980266Y-97072372D01*
X138858225Y-97150803D01*
X138763223Y-97260441D01*
X138702958Y-97392403D01*
X138686856Y-97504394D01*
X138682312Y-97536000D01*
X138702958Y-97679596D01*
X138763223Y-97811558D01*
X138858225Y-97921196D01*
X138980268Y-97999629D01*
X139119464Y-98040500D01*
X139142971Y-98040500D01*
X139211092Y-98060502D01*
X139232066Y-98077405D01*
X139308595Y-98153934D01*
X139342621Y-98216246D01*
X139345500Y-98243029D01*
X139345500Y-101845166D01*
X139325498Y-101913287D01*
X139287621Y-101951164D01*
X139247725Y-101976803D01*
X139147168Y-102092852D01*
X139087442Y-102131235D01*
X139016445Y-102131235D01*
X138956719Y-102092851D01*
X138927226Y-102028270D01*
X138925944Y-102010339D01*
X138925944Y-99378278D01*
X138928626Y-99352418D01*
X138930539Y-99343297D01*
X138926427Y-99310310D01*
X138925944Y-99302520D01*
X138925944Y-99299066D01*
X138922315Y-99277321D01*
X138921820Y-99273348D01*
X138915905Y-99225893D01*
X138915903Y-99225890D01*
X138913797Y-99218815D01*
X138913788Y-99218787D01*
X138913775Y-99218746D01*
X138911373Y-99211748D01*
X138911373Y-99211746D01*
X138886704Y-99166162D01*
X138863943Y-99119604D01*
X138863940Y-99119601D01*
X138859649Y-99113591D01*
X138859625Y-99113560D01*
X138859596Y-99113520D01*
X138855064Y-99107697D01*
X138855063Y-99107695D01*
X138816934Y-99072595D01*
X137192744Y-97448405D01*
X137158719Y-97386093D01*
X137157124Y-97377261D01*
X137141042Y-97265404D01*
X137080777Y-97133442D01*
X136985775Y-97023804D01*
X136985774Y-97023803D01*
X136923259Y-96983627D01*
X136863732Y-96945371D01*
X136863731Y-96945370D01*
X136863730Y-96945370D01*
X136724536Y-96904500D01*
X136579464Y-96904500D01*
X136440269Y-96945370D01*
X136440266Y-96945372D01*
X136318225Y-97023803D01*
X136223223Y-97133441D01*
X136162958Y-97265403D01*
X136162956Y-97265410D01*
X136145580Y-97386266D01*
X136116087Y-97450847D01*
X136056361Y-97489230D01*
X135985365Y-97489230D01*
X135931768Y-97457429D01*
X135922744Y-97448405D01*
X135888718Y-97386093D01*
X135887124Y-97377261D01*
X135871042Y-97265404D01*
X135810777Y-97133442D01*
X135715775Y-97023804D01*
X135715774Y-97023803D01*
X135653259Y-96983627D01*
X135593732Y-96945371D01*
X135593731Y-96945370D01*
X135593730Y-96945370D01*
X135454536Y-96904500D01*
X135309464Y-96904500D01*
X135170269Y-96945370D01*
X135170266Y-96945372D01*
X135048225Y-97023803D01*
X134953223Y-97133441D01*
X134953221Y-97133444D01*
X134915293Y-97216494D01*
X134868800Y-97270150D01*
X134800679Y-97290151D01*
X134732558Y-97270148D01*
X134711585Y-97253246D01*
X132471405Y-95013066D01*
X132437379Y-94950754D01*
X132434500Y-94923971D01*
X132434500Y-91567000D01*
X142365312Y-91567000D01*
X142385958Y-91710596D01*
X142446223Y-91842558D01*
X142541225Y-91952196D01*
X142663268Y-92030629D01*
X142802464Y-92071500D01*
X142947536Y-92071500D01*
X143086732Y-92030629D01*
X143208775Y-91952196D01*
X143303777Y-91842558D01*
X143364042Y-91710596D01*
X143384688Y-91567000D01*
X143364042Y-91423404D01*
X143313622Y-91313000D01*
X147445312Y-91313000D01*
X147465958Y-91456596D01*
X147526223Y-91588558D01*
X147621225Y-91698196D01*
X147743268Y-91776629D01*
X147882464Y-91817500D01*
X148027536Y-91817500D01*
X148166732Y-91776629D01*
X148288775Y-91698196D01*
X148383777Y-91588558D01*
X148444042Y-91456596D01*
X148464688Y-91313000D01*
X148444042Y-91169404D01*
X148383777Y-91037442D01*
X148288775Y-90927804D01*
X148288774Y-90927803D01*
X148226259Y-90887627D01*
X148166732Y-90849371D01*
X148166731Y-90849370D01*
X148166730Y-90849370D01*
X148027536Y-90808500D01*
X147882464Y-90808500D01*
X147743269Y-90849370D01*
X147743266Y-90849372D01*
X147621225Y-90927803D01*
X147526223Y-91037441D01*
X147465958Y-91169403D01*
X147460472Y-91207558D01*
X147445312Y-91313000D01*
X143313622Y-91313000D01*
X143303777Y-91291442D01*
X143208775Y-91181804D01*
X143208774Y-91181803D01*
X143147727Y-91142570D01*
X143086732Y-91103371D01*
X143086730Y-91103370D01*
X143083817Y-91101498D01*
X143037324Y-91047842D01*
X143027221Y-90977568D01*
X143056714Y-90912987D01*
X143083817Y-90889502D01*
X143086730Y-90887629D01*
X143086732Y-90887629D01*
X143208775Y-90809196D01*
X143303777Y-90699558D01*
X143364042Y-90567596D01*
X143384688Y-90424000D01*
X143366428Y-90297000D01*
X162304312Y-90297000D01*
X162324958Y-90440596D01*
X162385223Y-90572558D01*
X162480225Y-90682196D01*
X162602268Y-90760629D01*
X162741464Y-90801500D01*
X162886536Y-90801500D01*
X163025732Y-90760629D01*
X163147775Y-90682196D01*
X163242777Y-90572558D01*
X163303042Y-90440596D01*
X163305428Y-90424000D01*
X163828312Y-90424000D01*
X163848958Y-90567596D01*
X163909223Y-90699558D01*
X164004225Y-90809196D01*
X164126268Y-90887629D01*
X164265464Y-90928500D01*
X164410536Y-90928500D01*
X164549732Y-90887629D01*
X164671775Y-90809196D01*
X164766777Y-90699558D01*
X164827042Y-90567596D01*
X164847688Y-90424000D01*
X164827042Y-90280404D01*
X164776622Y-90170000D01*
X176020312Y-90170000D01*
X176040958Y-90313596D01*
X176101223Y-90445558D01*
X176196225Y-90555196D01*
X176318268Y-90633629D01*
X176457464Y-90674500D01*
X176602536Y-90674500D01*
X176741732Y-90633629D01*
X176863775Y-90555196D01*
X176958777Y-90445558D01*
X177019042Y-90313596D01*
X177039688Y-90170000D01*
X178560312Y-90170000D01*
X178580958Y-90313596D01*
X178641223Y-90445558D01*
X178736225Y-90555196D01*
X178858268Y-90633629D01*
X178997464Y-90674500D01*
X179142536Y-90674500D01*
X179281732Y-90633629D01*
X179403775Y-90555196D01*
X179498777Y-90445558D01*
X179559042Y-90313596D01*
X179579688Y-90170000D01*
X179559042Y-90026404D01*
X179498777Y-89894442D01*
X179403775Y-89784804D01*
X179403774Y-89784803D01*
X179313909Y-89727050D01*
X179281732Y-89706371D01*
X179281731Y-89706370D01*
X179281730Y-89706370D01*
X179142536Y-89665500D01*
X178997464Y-89665500D01*
X178858269Y-89706370D01*
X178858266Y-89706372D01*
X178736225Y-89784803D01*
X178641223Y-89894441D01*
X178583225Y-90021441D01*
X178580958Y-90026404D01*
X178560312Y-90170000D01*
X177039688Y-90170000D01*
X177019042Y-90026404D01*
X176958777Y-89894442D01*
X176863775Y-89784804D01*
X176863774Y-89784803D01*
X176773909Y-89727050D01*
X176741732Y-89706371D01*
X176741731Y-89706370D01*
X176741730Y-89706370D01*
X176602536Y-89665500D01*
X176457464Y-89665500D01*
X176318269Y-89706370D01*
X176318266Y-89706372D01*
X176196225Y-89784803D01*
X176101223Y-89894441D01*
X176043225Y-90021441D01*
X176040958Y-90026404D01*
X176020312Y-90170000D01*
X164776622Y-90170000D01*
X164766777Y-90148442D01*
X164671775Y-90038804D01*
X164671774Y-90038803D01*
X164589857Y-89986158D01*
X164549732Y-89960371D01*
X164549731Y-89960370D01*
X164549730Y-89960370D01*
X164410536Y-89919500D01*
X164265464Y-89919500D01*
X164126269Y-89960370D01*
X164126266Y-89960372D01*
X164004225Y-90038803D01*
X163909223Y-90148441D01*
X163848958Y-90280403D01*
X163845968Y-90301197D01*
X163828312Y-90424000D01*
X163305428Y-90424000D01*
X163323688Y-90297000D01*
X163303042Y-90153404D01*
X163242777Y-90021442D01*
X163147775Y-89911804D01*
X163147774Y-89911803D01*
X163079435Y-89867884D01*
X163025732Y-89833371D01*
X163025731Y-89833370D01*
X163025730Y-89833370D01*
X162886536Y-89792500D01*
X162741464Y-89792500D01*
X162602269Y-89833370D01*
X162602266Y-89833372D01*
X162480225Y-89911803D01*
X162385223Y-90021441D01*
X162324958Y-90153403D01*
X162319472Y-90191558D01*
X162304312Y-90297000D01*
X143366428Y-90297000D01*
X143364042Y-90280404D01*
X143303777Y-90148442D01*
X143208775Y-90038804D01*
X143208774Y-90038803D01*
X143126857Y-89986158D01*
X143086732Y-89960371D01*
X143086731Y-89960370D01*
X143086730Y-89960370D01*
X142947536Y-89919500D01*
X142802464Y-89919500D01*
X142663269Y-89960370D01*
X142663266Y-89960372D01*
X142541225Y-90038803D01*
X142446223Y-90148441D01*
X142385958Y-90280403D01*
X142365312Y-90424000D01*
X142385958Y-90567596D01*
X142446223Y-90699558D01*
X142541225Y-90809196D01*
X142666182Y-90889502D01*
X142712675Y-90943158D01*
X142722778Y-91013432D01*
X142693285Y-91078013D01*
X142666182Y-91101498D01*
X142541225Y-91181803D01*
X142446223Y-91291441D01*
X142388224Y-91418443D01*
X142385958Y-91423404D01*
X142365312Y-91567000D01*
X132434500Y-91567000D01*
X132434500Y-89976568D01*
X132454502Y-89908447D01*
X132508158Y-89861954D01*
X132578432Y-89851850D01*
X132621973Y-89868091D01*
X132622068Y-89867884D01*
X132624974Y-89869211D01*
X132628624Y-89870572D01*
X132630268Y-89871629D01*
X132769464Y-89912500D01*
X132858923Y-89912500D01*
X132927044Y-89932502D01*
X132973537Y-89986158D01*
X132983640Y-90056430D01*
X132972570Y-90133427D01*
X132967313Y-90169996D01*
X132967312Y-90170000D01*
X132987958Y-90313596D01*
X133048223Y-90445558D01*
X133143225Y-90555196D01*
X133265268Y-90633629D01*
X133404464Y-90674500D01*
X133549536Y-90674500D01*
X133688732Y-90633629D01*
X133810775Y-90555196D01*
X133905777Y-90445558D01*
X133966042Y-90313596D01*
X133986688Y-90170000D01*
X133968011Y-90040099D01*
X133978114Y-89969826D01*
X134024607Y-89916170D01*
X134092727Y-89896168D01*
X134128221Y-89901271D01*
X134166464Y-89912500D01*
X134166465Y-89912500D01*
X134255923Y-89912500D01*
X134324044Y-89932502D01*
X134370537Y-89986158D01*
X134380640Y-90056430D01*
X134369570Y-90133427D01*
X134364313Y-90169996D01*
X134364312Y-90170000D01*
X134384958Y-90313596D01*
X134445223Y-90445558D01*
X134540225Y-90555196D01*
X134662268Y-90633629D01*
X134801464Y-90674500D01*
X134946536Y-90674500D01*
X135085732Y-90633629D01*
X135207775Y-90555196D01*
X135302777Y-90445558D01*
X135363042Y-90313596D01*
X135383688Y-90170000D01*
X135383687Y-90169997D01*
X135383688Y-90169996D01*
X135368771Y-90066247D01*
X135365011Y-90040099D01*
X135375114Y-89969826D01*
X135421607Y-89916170D01*
X135489727Y-89896168D01*
X135525221Y-89901271D01*
X135563464Y-89912500D01*
X135563465Y-89912500D01*
X135708536Y-89912500D01*
X135847732Y-89871629D01*
X135969775Y-89793196D01*
X136064777Y-89683558D01*
X136125042Y-89551596D01*
X136145688Y-89408000D01*
X136125042Y-89264404D01*
X136074622Y-89154000D01*
X142365312Y-89154000D01*
X142385958Y-89297596D01*
X142446223Y-89429558D01*
X142541225Y-89539196D01*
X142663268Y-89617629D01*
X142802464Y-89658500D01*
X142947536Y-89658500D01*
X143086732Y-89617629D01*
X143208775Y-89539196D01*
X143212411Y-89535000D01*
X149604312Y-89535000D01*
X149624958Y-89678596D01*
X149685223Y-89810558D01*
X149780225Y-89920196D01*
X149902268Y-89998629D01*
X150041464Y-90039500D01*
X150186536Y-90039500D01*
X150325732Y-89998629D01*
X150447775Y-89920196D01*
X150542777Y-89810558D01*
X150603042Y-89678596D01*
X150623688Y-89535000D01*
X150603042Y-89391404D01*
X150542777Y-89259442D01*
X150447775Y-89149804D01*
X150447774Y-89149803D01*
X150334380Y-89076929D01*
X150325732Y-89071371D01*
X150325731Y-89071370D01*
X150325730Y-89071370D01*
X150186536Y-89030500D01*
X150041464Y-89030500D01*
X149902269Y-89071370D01*
X149902266Y-89071372D01*
X149780225Y-89149803D01*
X149685223Y-89259441D01*
X149624958Y-89391403D01*
X149609634Y-89497983D01*
X149604312Y-89535000D01*
X143212411Y-89535000D01*
X143303777Y-89429558D01*
X143364042Y-89297596D01*
X143384688Y-89154000D01*
X143366428Y-89027000D01*
X145159312Y-89027000D01*
X145179958Y-89170596D01*
X145240223Y-89302558D01*
X145335225Y-89412196D01*
X145457268Y-89490629D01*
X145596464Y-89531500D01*
X145741536Y-89531500D01*
X145880732Y-89490629D01*
X146002775Y-89412196D01*
X146002775Y-89412195D01*
X146010356Y-89407324D01*
X146011075Y-89408442D01*
X146067265Y-89382782D01*
X146085196Y-89381500D01*
X146254166Y-89381500D01*
X146280022Y-89384181D01*
X146289147Y-89386095D01*
X146322134Y-89381983D01*
X146329923Y-89381500D01*
X146333376Y-89381500D01*
X146333377Y-89381500D01*
X146355122Y-89377871D01*
X146406551Y-89371461D01*
X146406555Y-89371458D01*
X146413584Y-89369365D01*
X146413671Y-89369336D01*
X146413780Y-89369303D01*
X146420694Y-89366929D01*
X146420698Y-89366929D01*
X146466281Y-89342260D01*
X146512840Y-89319499D01*
X146512845Y-89319493D01*
X146518845Y-89315209D01*
X146518872Y-89315189D01*
X146518913Y-89315159D01*
X146524741Y-89310622D01*
X146524749Y-89310619D01*
X146559848Y-89272490D01*
X147916435Y-87915902D01*
X147936608Y-87899521D01*
X147944416Y-87894421D01*
X147964842Y-87868176D01*
X147970001Y-87862337D01*
X147972442Y-87859897D01*
X147985256Y-87841949D01*
X148017085Y-87801056D01*
X148017085Y-87801053D01*
X148020592Y-87794572D01*
X148020629Y-87794497D01*
X148020661Y-87794437D01*
X148023879Y-87787854D01*
X148023884Y-87787848D01*
X148038674Y-87738168D01*
X148055500Y-87689156D01*
X148055500Y-87689151D01*
X148056725Y-87681808D01*
X148057642Y-87674453D01*
X148055500Y-87622675D01*
X148055500Y-86733901D01*
X148075502Y-86665780D01*
X148129158Y-86619287D01*
X148146003Y-86613005D01*
X148154534Y-86610500D01*
X148154536Y-86610500D01*
X148293732Y-86569629D01*
X148415775Y-86491196D01*
X148510777Y-86381558D01*
X148571042Y-86249596D01*
X148591688Y-86106000D01*
X148571343Y-85964498D01*
X149984833Y-85964498D01*
X150005479Y-86108094D01*
X150064545Y-86237431D01*
X150074648Y-86307705D01*
X150064545Y-86342115D01*
X150005958Y-86470403D01*
X150002519Y-86494324D01*
X149985312Y-86614000D01*
X150005958Y-86757596D01*
X150066223Y-86889558D01*
X150161225Y-86999196D01*
X150283268Y-87077629D01*
X150422464Y-87118500D01*
X150567536Y-87118500D01*
X150706732Y-87077629D01*
X150807191Y-87013066D01*
X150875311Y-86993065D01*
X150943432Y-87013067D01*
X150989925Y-87066722D01*
X151000011Y-87113085D01*
X151000030Y-87113083D01*
X151000067Y-87113345D01*
X151001312Y-87119065D01*
X151001312Y-87122001D01*
X151006051Y-87154968D01*
X150995945Y-87225241D01*
X150949451Y-87278896D01*
X150926374Y-87289435D01*
X150926463Y-87289629D01*
X150918266Y-87293372D01*
X150796225Y-87371803D01*
X150701223Y-87481441D01*
X150640958Y-87613403D01*
X150630066Y-87689157D01*
X150620312Y-87757000D01*
X150640958Y-87900596D01*
X150701223Y-88032558D01*
X150796225Y-88142196D01*
X150918268Y-88220629D01*
X151057464Y-88261500D01*
X151202535Y-88261500D01*
X151202536Y-88261500D01*
X151207569Y-88260021D01*
X151278564Y-88260018D01*
X151338292Y-88298399D01*
X151367789Y-88362978D01*
X151367790Y-88398847D01*
X151354512Y-88491199D01*
X151354512Y-88491200D01*
X151375158Y-88634796D01*
X151435423Y-88766758D01*
X151530425Y-88876396D01*
X151652468Y-88954829D01*
X151791664Y-88995700D01*
X151936736Y-88995700D01*
X152075932Y-88954829D01*
X152197975Y-88876396D01*
X152292977Y-88766758D01*
X152353242Y-88634796D01*
X152373888Y-88491200D01*
X152353242Y-88347604D01*
X152292977Y-88215642D01*
X152197975Y-88106004D01*
X152197974Y-88106003D01*
X152119188Y-88055370D01*
X152075932Y-88027571D01*
X152075931Y-88027570D01*
X152075930Y-88027570D01*
X151936736Y-87986700D01*
X151791664Y-87986700D01*
X151791662Y-87986700D01*
X151786621Y-87988180D01*
X151715624Y-87988178D01*
X151655899Y-87949792D01*
X151626409Y-87885210D01*
X151626410Y-87849351D01*
X151639688Y-87757003D01*
X151639688Y-87756999D01*
X151637302Y-87740404D01*
X151634948Y-87724035D01*
X151645050Y-87653763D01*
X151691542Y-87600106D01*
X151714621Y-87589568D01*
X151714533Y-87589374D01*
X151722728Y-87585631D01*
X151722730Y-87585629D01*
X151722732Y-87585629D01*
X151844775Y-87507196D01*
X151939777Y-87397558D01*
X152000042Y-87265596D01*
X152020688Y-87122000D01*
X152019312Y-87112430D01*
X152029417Y-87042157D01*
X152075910Y-86988501D01*
X152144030Y-86968500D01*
X153851971Y-86968500D01*
X153920092Y-86988502D01*
X153941066Y-87005405D01*
X155669255Y-88733594D01*
X155703281Y-88795906D01*
X155704877Y-88804757D01*
X155720956Y-88916589D01*
X155720958Y-88916596D01*
X155781223Y-89048558D01*
X155876225Y-89158196D01*
X155998268Y-89236629D01*
X156137464Y-89277500D01*
X156282536Y-89277500D01*
X156421732Y-89236629D01*
X156543775Y-89158196D01*
X156638777Y-89048558D01*
X156699042Y-88916596D01*
X156719688Y-88773000D01*
X156699042Y-88629404D01*
X156648622Y-88519000D01*
X158494312Y-88519000D01*
X158514958Y-88662596D01*
X158575223Y-88794558D01*
X158670225Y-88904196D01*
X158792268Y-88982629D01*
X158931464Y-89023500D01*
X159076536Y-89023500D01*
X159215732Y-88982629D01*
X159337775Y-88904196D01*
X159432777Y-88794558D01*
X159493042Y-88662596D01*
X159513688Y-88519000D01*
X159495428Y-88392000D01*
X162812312Y-88392000D01*
X162832958Y-88535596D01*
X162893223Y-88667558D01*
X162988225Y-88777196D01*
X163110268Y-88855629D01*
X163249464Y-88896500D01*
X163394536Y-88896500D01*
X163533732Y-88855629D01*
X163655775Y-88777196D01*
X163750777Y-88667558D01*
X163811042Y-88535596D01*
X163831688Y-88392000D01*
X163811042Y-88248404D01*
X163750777Y-88116442D01*
X163655775Y-88006804D01*
X163655774Y-88006803D01*
X163567063Y-87949792D01*
X163533732Y-87928371D01*
X163533731Y-87928370D01*
X163533730Y-87928370D01*
X163394536Y-87887500D01*
X163249464Y-87887500D01*
X163110269Y-87928370D01*
X163110266Y-87928372D01*
X162988225Y-88006803D01*
X162893223Y-88116441D01*
X162832958Y-88248403D01*
X162827552Y-88286002D01*
X162812312Y-88392000D01*
X159495428Y-88392000D01*
X159493042Y-88375404D01*
X159432777Y-88243442D01*
X159337775Y-88133804D01*
X159337774Y-88133803D01*
X159249387Y-88077000D01*
X159215732Y-88055371D01*
X159215731Y-88055370D01*
X159215730Y-88055370D01*
X159076536Y-88014500D01*
X158931464Y-88014500D01*
X158792269Y-88055370D01*
X158792266Y-88055372D01*
X158670225Y-88133803D01*
X158575223Y-88243441D01*
X158514958Y-88375403D01*
X158511587Y-88398847D01*
X158494312Y-88519000D01*
X156648622Y-88519000D01*
X156638777Y-88497442D01*
X156543775Y-88387804D01*
X156543774Y-88387803D01*
X156453909Y-88330050D01*
X156421732Y-88309371D01*
X156421731Y-88309370D01*
X156421730Y-88309370D01*
X156282536Y-88268500D01*
X156259029Y-88268500D01*
X156190908Y-88248498D01*
X156169934Y-88231595D01*
X155568339Y-87630000D01*
X168400312Y-87630000D01*
X168420958Y-87773596D01*
X168481223Y-87905558D01*
X168576225Y-88015196D01*
X168698268Y-88093629D01*
X168837464Y-88134500D01*
X168982536Y-88134500D01*
X169121732Y-88093629D01*
X169243775Y-88015196D01*
X169338777Y-87905558D01*
X169399042Y-87773596D01*
X169419688Y-87630000D01*
X178560312Y-87630000D01*
X178580958Y-87773596D01*
X178641223Y-87905558D01*
X178736225Y-88015196D01*
X178858268Y-88093629D01*
X178997464Y-88134500D01*
X179142536Y-88134500D01*
X179281732Y-88093629D01*
X179403775Y-88015196D01*
X179498777Y-87905558D01*
X179559042Y-87773596D01*
X179579688Y-87630000D01*
X179559042Y-87486404D01*
X179498777Y-87354442D01*
X179403775Y-87244804D01*
X179403774Y-87244803D01*
X179342753Y-87205587D01*
X179281732Y-87166371D01*
X179281731Y-87166370D01*
X179281730Y-87166370D01*
X179142536Y-87125500D01*
X178997464Y-87125500D01*
X178858269Y-87166370D01*
X178858266Y-87166372D01*
X178736225Y-87244803D01*
X178641223Y-87354441D01*
X178580958Y-87486403D01*
X178571654Y-87551116D01*
X178560312Y-87630000D01*
X169419688Y-87630000D01*
X169399042Y-87486404D01*
X169338777Y-87354442D01*
X169243775Y-87244804D01*
X169243774Y-87244803D01*
X169182753Y-87205587D01*
X169121732Y-87166371D01*
X169121731Y-87166370D01*
X169121730Y-87166370D01*
X168982536Y-87125500D01*
X168837464Y-87125500D01*
X168698269Y-87166370D01*
X168698266Y-87166372D01*
X168576225Y-87244803D01*
X168481223Y-87354441D01*
X168420958Y-87486403D01*
X168411654Y-87551116D01*
X168400312Y-87630000D01*
X155568339Y-87630000D01*
X155060339Y-87122000D01*
X158621312Y-87122000D01*
X158641958Y-87265596D01*
X158702223Y-87397558D01*
X158797225Y-87507196D01*
X158919268Y-87585629D01*
X159058464Y-87626500D01*
X159203536Y-87626500D01*
X159342732Y-87585629D01*
X159464775Y-87507196D01*
X159559777Y-87397558D01*
X159620042Y-87265596D01*
X159640688Y-87122000D01*
X159620042Y-86978404D01*
X159559777Y-86846442D01*
X159464775Y-86736804D01*
X159464774Y-86736803D01*
X159375181Y-86679225D01*
X159342732Y-86658371D01*
X159342731Y-86658370D01*
X159342730Y-86658370D01*
X159203536Y-86617500D01*
X159058464Y-86617500D01*
X158919269Y-86658370D01*
X158919266Y-86658372D01*
X158797225Y-86736803D01*
X158702223Y-86846441D01*
X158641958Y-86978403D01*
X158638076Y-87005405D01*
X158621312Y-87122000D01*
X155060339Y-87122000D01*
X154336909Y-86398570D01*
X154320519Y-86378387D01*
X154315421Y-86370584D01*
X154301823Y-86360000D01*
X167130312Y-86360000D01*
X167150958Y-86503596D01*
X167211223Y-86635558D01*
X167306225Y-86745196D01*
X167428268Y-86823629D01*
X167567464Y-86864500D01*
X167712536Y-86864500D01*
X167851732Y-86823629D01*
X167973775Y-86745196D01*
X168068777Y-86635558D01*
X168129042Y-86503596D01*
X168149688Y-86360000D01*
X179830312Y-86360000D01*
X179850958Y-86503596D01*
X179911223Y-86635558D01*
X180006225Y-86745196D01*
X180128268Y-86823629D01*
X180267464Y-86864500D01*
X180412536Y-86864500D01*
X180551732Y-86823629D01*
X180673775Y-86745196D01*
X180768777Y-86635558D01*
X180829042Y-86503596D01*
X180849688Y-86360000D01*
X180829042Y-86216404D01*
X180768777Y-86084442D01*
X180673775Y-85974804D01*
X180673774Y-85974803D01*
X180600563Y-85927753D01*
X180551732Y-85896371D01*
X180551731Y-85896370D01*
X180551730Y-85896370D01*
X180412536Y-85855500D01*
X180267464Y-85855500D01*
X180128269Y-85896370D01*
X180128266Y-85896372D01*
X180006225Y-85974803D01*
X179911223Y-86084441D01*
X179850958Y-86216403D01*
X179844762Y-86259499D01*
X179830312Y-86360000D01*
X168149688Y-86360000D01*
X168129042Y-86216404D01*
X168068777Y-86084442D01*
X167973775Y-85974804D01*
X167973774Y-85974803D01*
X167900563Y-85927753D01*
X167851732Y-85896371D01*
X167851731Y-85896370D01*
X167851730Y-85896370D01*
X167712536Y-85855500D01*
X167567464Y-85855500D01*
X167428269Y-85896370D01*
X167428266Y-85896372D01*
X167306225Y-85974803D01*
X167211223Y-86084441D01*
X167150958Y-86216403D01*
X167144762Y-86259499D01*
X167130312Y-86360000D01*
X154301823Y-86360000D01*
X154289180Y-86350160D01*
X154283336Y-86344997D01*
X154280897Y-86342558D01*
X154262949Y-86329743D01*
X154262190Y-86329152D01*
X154222056Y-86297914D01*
X154215534Y-86294385D01*
X154208844Y-86291114D01*
X154159168Y-86276325D01*
X154110154Y-86259499D01*
X154102827Y-86258277D01*
X154095453Y-86257357D01*
X154043675Y-86259500D01*
X151107206Y-86259500D01*
X151039085Y-86239498D01*
X150992592Y-86185842D01*
X150982488Y-86115568D01*
X150983864Y-86106000D01*
X151004209Y-85964498D01*
X150983563Y-85820902D01*
X150923298Y-85688940D01*
X150828296Y-85579302D01*
X150828295Y-85579301D01*
X150767274Y-85540085D01*
X150706253Y-85500869D01*
X150706252Y-85500868D01*
X150706251Y-85500868D01*
X150567057Y-85459998D01*
X150421985Y-85459998D01*
X150282790Y-85500868D01*
X150282787Y-85500870D01*
X150160746Y-85579301D01*
X150065744Y-85688939D01*
X150005479Y-85820901D01*
X149984833Y-85964498D01*
X148571343Y-85964498D01*
X148571042Y-85962404D01*
X148510777Y-85830442D01*
X148415775Y-85720804D01*
X148415774Y-85720803D01*
X148354753Y-85681587D01*
X148293732Y-85642371D01*
X148293731Y-85642370D01*
X148293730Y-85642370D01*
X148154536Y-85601500D01*
X148009464Y-85601500D01*
X147870269Y-85642370D01*
X147870266Y-85642372D01*
X147748225Y-85720803D01*
X147653223Y-85830441D01*
X147592958Y-85962403D01*
X147592956Y-85962410D01*
X147576877Y-86074241D01*
X147547384Y-86138822D01*
X147541255Y-86145404D01*
X147485569Y-86201090D01*
X147465397Y-86217473D01*
X147457586Y-86222576D01*
X147457585Y-86222577D01*
X147437172Y-86248803D01*
X147432006Y-86254653D01*
X147429561Y-86257098D01*
X147416741Y-86275051D01*
X147384912Y-86315947D01*
X147381378Y-86322476D01*
X147378115Y-86329152D01*
X147363325Y-86378830D01*
X147346500Y-86427843D01*
X147345277Y-86435170D01*
X147344357Y-86442545D01*
X147346500Y-86494324D01*
X147346500Y-87430971D01*
X147326498Y-87499092D01*
X147309595Y-87520066D01*
X146194066Y-88635595D01*
X146131754Y-88669621D01*
X146104971Y-88672500D01*
X146085196Y-88672500D01*
X146017075Y-88652498D01*
X146002877Y-88641869D01*
X145895444Y-88572826D01*
X145880732Y-88563371D01*
X145880731Y-88563370D01*
X145880730Y-88563370D01*
X145741536Y-88522500D01*
X145596464Y-88522500D01*
X145457269Y-88563370D01*
X145457266Y-88563372D01*
X145335225Y-88641803D01*
X145240223Y-88751441D01*
X145179958Y-88883403D01*
X145159915Y-89022803D01*
X145159312Y-89027000D01*
X143366428Y-89027000D01*
X143364042Y-89010404D01*
X143303777Y-88878442D01*
X143208775Y-88768804D01*
X143208774Y-88768803D01*
X143147753Y-88729587D01*
X143086732Y-88690371D01*
X143086731Y-88690370D01*
X143086730Y-88690370D01*
X142947536Y-88649500D01*
X142802464Y-88649500D01*
X142663269Y-88690370D01*
X142663266Y-88690372D01*
X142541225Y-88768803D01*
X142446223Y-88878441D01*
X142385958Y-89010403D01*
X142385122Y-89016216D01*
X142365312Y-89154000D01*
X136074622Y-89154000D01*
X136064777Y-89132442D01*
X135969775Y-89022804D01*
X135969774Y-89022803D01*
X135907259Y-88982627D01*
X135847732Y-88944371D01*
X135847731Y-88944370D01*
X135847730Y-88944370D01*
X135708536Y-88903500D01*
X135563464Y-88903500D01*
X135561094Y-88904196D01*
X135544289Y-88909130D01*
X135473292Y-88909128D01*
X135413567Y-88870743D01*
X135384075Y-88806162D01*
X135384076Y-88782012D01*
X135383688Y-88782012D01*
X135383688Y-88772996D01*
X135365011Y-88643100D01*
X135375114Y-88572826D01*
X135421607Y-88519170D01*
X135422186Y-88519000D01*
X136904312Y-88519000D01*
X136924958Y-88662596D01*
X136985223Y-88794558D01*
X137080225Y-88904196D01*
X137202268Y-88982629D01*
X137341464Y-89023500D01*
X137486536Y-89023500D01*
X137625732Y-88982629D01*
X137747775Y-88904196D01*
X137842777Y-88794558D01*
X137903042Y-88662596D01*
X137923688Y-88519000D01*
X138809312Y-88519000D01*
X138829958Y-88662596D01*
X138890223Y-88794558D01*
X138985225Y-88904196D01*
X139107268Y-88982629D01*
X139246464Y-89023500D01*
X139391536Y-89023500D01*
X139530732Y-88982629D01*
X139652775Y-88904196D01*
X139747777Y-88794558D01*
X139808042Y-88662596D01*
X139828688Y-88519000D01*
X140587312Y-88519000D01*
X140607958Y-88662596D01*
X140668223Y-88794558D01*
X140763225Y-88904196D01*
X140885268Y-88982629D01*
X141024464Y-89023500D01*
X141169536Y-89023500D01*
X141308732Y-88982629D01*
X141430775Y-88904196D01*
X141525777Y-88794558D01*
X141586042Y-88662596D01*
X141606688Y-88519000D01*
X141586042Y-88375404D01*
X141525777Y-88243442D01*
X141430775Y-88133804D01*
X141430774Y-88133803D01*
X141342387Y-88077000D01*
X141308732Y-88055371D01*
X141308731Y-88055370D01*
X141308730Y-88055370D01*
X141169536Y-88014500D01*
X141024464Y-88014500D01*
X140885269Y-88055370D01*
X140885266Y-88055372D01*
X140763225Y-88133803D01*
X140668223Y-88243441D01*
X140607958Y-88375403D01*
X140604587Y-88398847D01*
X140587312Y-88519000D01*
X139828688Y-88519000D01*
X139808042Y-88375404D01*
X139747777Y-88243442D01*
X139652775Y-88133804D01*
X139652774Y-88133803D01*
X139564387Y-88077000D01*
X139530732Y-88055371D01*
X139530731Y-88055370D01*
X139530730Y-88055370D01*
X139391536Y-88014500D01*
X139246464Y-88014500D01*
X139107269Y-88055370D01*
X139107266Y-88055372D01*
X138985225Y-88133803D01*
X138890223Y-88243441D01*
X138829958Y-88375403D01*
X138826587Y-88398847D01*
X138809312Y-88519000D01*
X137923688Y-88519000D01*
X137903042Y-88375404D01*
X137842777Y-88243442D01*
X137747775Y-88133804D01*
X137747774Y-88133803D01*
X137659387Y-88077000D01*
X137625732Y-88055371D01*
X137625731Y-88055370D01*
X137625730Y-88055370D01*
X137486536Y-88014500D01*
X137341464Y-88014500D01*
X137202269Y-88055370D01*
X137202266Y-88055372D01*
X137080225Y-88133803D01*
X136985223Y-88243441D01*
X136924958Y-88375403D01*
X136921587Y-88398847D01*
X136904312Y-88519000D01*
X135422186Y-88519000D01*
X135489727Y-88499168D01*
X135525221Y-88504271D01*
X135563464Y-88515500D01*
X135563465Y-88515500D01*
X135708536Y-88515500D01*
X135847732Y-88474629D01*
X135969775Y-88396196D01*
X136064777Y-88286558D01*
X136125042Y-88154596D01*
X136145688Y-88011000D01*
X136127428Y-87884000D01*
X142365312Y-87884000D01*
X142385958Y-88027596D01*
X142446223Y-88159558D01*
X142541225Y-88269196D01*
X142663268Y-88347629D01*
X142802464Y-88388500D01*
X142947536Y-88388500D01*
X143086732Y-88347629D01*
X143208775Y-88269196D01*
X143303777Y-88159558D01*
X143364042Y-88027596D01*
X143384688Y-87884000D01*
X143364042Y-87740404D01*
X143303777Y-87608442D01*
X143208775Y-87498804D01*
X143208774Y-87498803D01*
X143130689Y-87448621D01*
X143086732Y-87420371D01*
X143086731Y-87420370D01*
X143086730Y-87420370D01*
X142947536Y-87379500D01*
X142802464Y-87379500D01*
X142663269Y-87420370D01*
X142663266Y-87420372D01*
X142541225Y-87498803D01*
X142446223Y-87608441D01*
X142385958Y-87740403D01*
X142377237Y-87801057D01*
X142365312Y-87884000D01*
X136127428Y-87884000D01*
X136125042Y-87867404D01*
X136064777Y-87735442D01*
X135969775Y-87625804D01*
X135969774Y-87625803D01*
X135907259Y-87585627D01*
X135847732Y-87547371D01*
X135847731Y-87547370D01*
X135847730Y-87547370D01*
X135708536Y-87506500D01*
X135563464Y-87506500D01*
X135561094Y-87507196D01*
X135544289Y-87512130D01*
X135473292Y-87512128D01*
X135413567Y-87473743D01*
X135384075Y-87409162D01*
X135384076Y-87385012D01*
X135383688Y-87385012D01*
X135383688Y-87376003D01*
X135383688Y-87376000D01*
X135363042Y-87232404D01*
X135302777Y-87100442D01*
X135207775Y-86990804D01*
X135207774Y-86990803D01*
X135146753Y-86951587D01*
X135085732Y-86912371D01*
X135085731Y-86912370D01*
X135085730Y-86912370D01*
X134946536Y-86871500D01*
X134801464Y-86871500D01*
X134662269Y-86912370D01*
X134662266Y-86912372D01*
X134540225Y-86990803D01*
X134445223Y-87100441D01*
X134384958Y-87232403D01*
X134381968Y-87253197D01*
X134364816Y-87372500D01*
X134364312Y-87376003D01*
X134364312Y-87380500D01*
X134363045Y-87384814D01*
X134363030Y-87384920D01*
X134363014Y-87384917D01*
X134344310Y-87448621D01*
X134290654Y-87495114D01*
X134238312Y-87506500D01*
X134166464Y-87506500D01*
X134164094Y-87507196D01*
X134147289Y-87512130D01*
X134076292Y-87512128D01*
X134016567Y-87473743D01*
X133987075Y-87409162D01*
X133987076Y-87385012D01*
X133986688Y-87385012D01*
X133986688Y-87376003D01*
X133986688Y-87376000D01*
X133966042Y-87232404D01*
X133905777Y-87100442D01*
X133810775Y-86990804D01*
X133810774Y-86990803D01*
X133749753Y-86951587D01*
X133688732Y-86912371D01*
X133688731Y-86912370D01*
X133688730Y-86912370D01*
X133549536Y-86871500D01*
X133404464Y-86871500D01*
X133265269Y-86912370D01*
X133265266Y-86912372D01*
X133143225Y-86990803D01*
X133048223Y-87100441D01*
X132987958Y-87232403D01*
X132984968Y-87253197D01*
X132967816Y-87372500D01*
X132967312Y-87376003D01*
X132967312Y-87380500D01*
X132966045Y-87384814D01*
X132966030Y-87384920D01*
X132966014Y-87384917D01*
X132947310Y-87448621D01*
X132893654Y-87495114D01*
X132841312Y-87506500D01*
X132769464Y-87506500D01*
X132630269Y-87547370D01*
X132630260Y-87547374D01*
X132628617Y-87548431D01*
X132626742Y-87548981D01*
X132622068Y-87551116D01*
X132621761Y-87550443D01*
X132560495Y-87568431D01*
X132492375Y-87548426D01*
X132445884Y-87494769D01*
X132434500Y-87442431D01*
X132434500Y-86360000D01*
X145159312Y-86360000D01*
X145179958Y-86503596D01*
X145240223Y-86635558D01*
X145335225Y-86745196D01*
X145457268Y-86823629D01*
X145596464Y-86864500D01*
X145741536Y-86864500D01*
X145880732Y-86823629D01*
X146002775Y-86745196D01*
X146097777Y-86635558D01*
X146158042Y-86503596D01*
X146178688Y-86360000D01*
X146158042Y-86216404D01*
X146097777Y-86084442D01*
X146002775Y-85974804D01*
X146002774Y-85974803D01*
X145929563Y-85927753D01*
X145880732Y-85896371D01*
X145880731Y-85896370D01*
X145880730Y-85896370D01*
X145741536Y-85855500D01*
X145596464Y-85855500D01*
X145457269Y-85896370D01*
X145457266Y-85896372D01*
X145335225Y-85974803D01*
X145240223Y-86084441D01*
X145179958Y-86216403D01*
X145173762Y-86259499D01*
X145159312Y-86360000D01*
X132434500Y-86360000D01*
X132434500Y-85090000D01*
X165860312Y-85090000D01*
X165880958Y-85233596D01*
X165941223Y-85365558D01*
X166036225Y-85475196D01*
X166158268Y-85553629D01*
X166297464Y-85594500D01*
X166442536Y-85594500D01*
X166581732Y-85553629D01*
X166703775Y-85475196D01*
X166798777Y-85365558D01*
X166859042Y-85233596D01*
X166879688Y-85090000D01*
X168400312Y-85090000D01*
X168420958Y-85233596D01*
X168481223Y-85365558D01*
X168576225Y-85475196D01*
X168698268Y-85553629D01*
X168837464Y-85594500D01*
X168982536Y-85594500D01*
X169121732Y-85553629D01*
X169243775Y-85475196D01*
X169338777Y-85365558D01*
X169399042Y-85233596D01*
X169419688Y-85090000D01*
X170940312Y-85090000D01*
X170960958Y-85233596D01*
X171021223Y-85365558D01*
X171116225Y-85475196D01*
X171238268Y-85553629D01*
X171377464Y-85594500D01*
X171522536Y-85594500D01*
X171661732Y-85553629D01*
X171783775Y-85475196D01*
X171878777Y-85365558D01*
X171939042Y-85233596D01*
X171959688Y-85090000D01*
X173480312Y-85090000D01*
X173500958Y-85233596D01*
X173561223Y-85365558D01*
X173656225Y-85475196D01*
X173778268Y-85553629D01*
X173917464Y-85594500D01*
X174062536Y-85594500D01*
X174201732Y-85553629D01*
X174323775Y-85475196D01*
X174418777Y-85365558D01*
X174479042Y-85233596D01*
X174499688Y-85090000D01*
X175639312Y-85090000D01*
X175659958Y-85233596D01*
X175720223Y-85365558D01*
X175815225Y-85475196D01*
X175937268Y-85553629D01*
X176076464Y-85594500D01*
X176221536Y-85594500D01*
X176360732Y-85553629D01*
X176482775Y-85475196D01*
X176577777Y-85365558D01*
X176638042Y-85233596D01*
X176658688Y-85090000D01*
X181100312Y-85090000D01*
X181120958Y-85233596D01*
X181181223Y-85365558D01*
X181276225Y-85475196D01*
X181398268Y-85553629D01*
X181537464Y-85594500D01*
X181682536Y-85594500D01*
X181821732Y-85553629D01*
X181943775Y-85475196D01*
X182038777Y-85365558D01*
X182099042Y-85233596D01*
X182119688Y-85090000D01*
X182099042Y-84946404D01*
X182038777Y-84814442D01*
X181943775Y-84704804D01*
X181943774Y-84704803D01*
X181882753Y-84665587D01*
X181821732Y-84626371D01*
X181821731Y-84626370D01*
X181821730Y-84626370D01*
X181682536Y-84585500D01*
X181537464Y-84585500D01*
X181398269Y-84626370D01*
X181398266Y-84626372D01*
X181276225Y-84704803D01*
X181181223Y-84814441D01*
X181171378Y-84836000D01*
X181120958Y-84946404D01*
X181100312Y-85090000D01*
X176658688Y-85090000D01*
X176638042Y-84946404D01*
X176577777Y-84814442D01*
X176482775Y-84704804D01*
X176482774Y-84704803D01*
X176421753Y-84665587D01*
X176360732Y-84626371D01*
X176360731Y-84626370D01*
X176360730Y-84626370D01*
X176221536Y-84585500D01*
X176076464Y-84585500D01*
X175937269Y-84626370D01*
X175937266Y-84626372D01*
X175815225Y-84704803D01*
X175720223Y-84814441D01*
X175710378Y-84836000D01*
X175659958Y-84946404D01*
X175639312Y-85090000D01*
X174499688Y-85090000D01*
X174479042Y-84946404D01*
X174418777Y-84814442D01*
X174323775Y-84704804D01*
X174323774Y-84704803D01*
X174262753Y-84665587D01*
X174201732Y-84626371D01*
X174201731Y-84626370D01*
X174201730Y-84626370D01*
X174062536Y-84585500D01*
X173917464Y-84585500D01*
X173778269Y-84626370D01*
X173778266Y-84626372D01*
X173656225Y-84704803D01*
X173561223Y-84814441D01*
X173551378Y-84836000D01*
X173500958Y-84946404D01*
X173480312Y-85090000D01*
X171959688Y-85090000D01*
X171939042Y-84946404D01*
X171878777Y-84814442D01*
X171783775Y-84704804D01*
X171783774Y-84704803D01*
X171722753Y-84665587D01*
X171661732Y-84626371D01*
X171661731Y-84626370D01*
X171661730Y-84626370D01*
X171522536Y-84585500D01*
X171377464Y-84585500D01*
X171238269Y-84626370D01*
X171238266Y-84626372D01*
X171116225Y-84704803D01*
X171021223Y-84814441D01*
X171011378Y-84836000D01*
X170960958Y-84946404D01*
X170940312Y-85090000D01*
X169419688Y-85090000D01*
X169399042Y-84946404D01*
X169338777Y-84814442D01*
X169243775Y-84704804D01*
X169243774Y-84704803D01*
X169182753Y-84665587D01*
X169121732Y-84626371D01*
X169121731Y-84626370D01*
X169121730Y-84626370D01*
X168982536Y-84585500D01*
X168837464Y-84585500D01*
X168698269Y-84626370D01*
X168698266Y-84626372D01*
X168576225Y-84704803D01*
X168481223Y-84814441D01*
X168471378Y-84836000D01*
X168420958Y-84946404D01*
X168400312Y-85090000D01*
X166879688Y-85090000D01*
X166859042Y-84946404D01*
X166798777Y-84814442D01*
X166703775Y-84704804D01*
X166703774Y-84704803D01*
X166642753Y-84665587D01*
X166581732Y-84626371D01*
X166581731Y-84626370D01*
X166581730Y-84626370D01*
X166442536Y-84585500D01*
X166297464Y-84585500D01*
X166158269Y-84626370D01*
X166158266Y-84626372D01*
X166036225Y-84704803D01*
X165941223Y-84814441D01*
X165931378Y-84836000D01*
X165880958Y-84946404D01*
X165860312Y-85090000D01*
X132434500Y-85090000D01*
X132434500Y-84228273D01*
X132454502Y-84160152D01*
X132465272Y-84145765D01*
X132508777Y-84095558D01*
X132569042Y-83963596D01*
X132589688Y-83820000D01*
X150620312Y-83820000D01*
X150640958Y-83963596D01*
X150701223Y-84095558D01*
X150796225Y-84205196D01*
X150918268Y-84283629D01*
X151057464Y-84324500D01*
X151202536Y-84324500D01*
X151341732Y-84283629D01*
X151463775Y-84205196D01*
X151558777Y-84095558D01*
X151619042Y-83963596D01*
X151639688Y-83820000D01*
X158240312Y-83820000D01*
X158260958Y-83963596D01*
X158321223Y-84095558D01*
X158416225Y-84205196D01*
X158538268Y-84283629D01*
X158677464Y-84324500D01*
X158822536Y-84324500D01*
X158961732Y-84283629D01*
X159083775Y-84205196D01*
X159178777Y-84095558D01*
X159239042Y-83963596D01*
X159259688Y-83820000D01*
X160780312Y-83820000D01*
X160800958Y-83963596D01*
X160861223Y-84095558D01*
X160956225Y-84205196D01*
X161078268Y-84283629D01*
X161217464Y-84324500D01*
X161362536Y-84324500D01*
X161501732Y-84283629D01*
X161623775Y-84205196D01*
X161718777Y-84095558D01*
X161779042Y-83963596D01*
X161799688Y-83820000D01*
X163320312Y-83820000D01*
X163340958Y-83963596D01*
X163401223Y-84095558D01*
X163496225Y-84205196D01*
X163618268Y-84283629D01*
X163757464Y-84324500D01*
X163902536Y-84324500D01*
X164041732Y-84283629D01*
X164163775Y-84205196D01*
X164258777Y-84095558D01*
X164319042Y-83963596D01*
X164339688Y-83820000D01*
X177290312Y-83820000D01*
X177310958Y-83963596D01*
X177371223Y-84095558D01*
X177466225Y-84205196D01*
X177588268Y-84283629D01*
X177727464Y-84324500D01*
X177872536Y-84324500D01*
X178011732Y-84283629D01*
X178133775Y-84205196D01*
X178228777Y-84095558D01*
X178289042Y-83963596D01*
X178309688Y-83820000D01*
X178289042Y-83676404D01*
X178228777Y-83544442D01*
X178133775Y-83434804D01*
X178133774Y-83434803D01*
X178072753Y-83395587D01*
X178011732Y-83356371D01*
X178011731Y-83356370D01*
X178011730Y-83356370D01*
X177872536Y-83315500D01*
X177727464Y-83315500D01*
X177588269Y-83356370D01*
X177588266Y-83356372D01*
X177466225Y-83434803D01*
X177371223Y-83544441D01*
X177371223Y-83544442D01*
X177310958Y-83676404D01*
X177290312Y-83820000D01*
X164339688Y-83820000D01*
X164319042Y-83676404D01*
X164258777Y-83544442D01*
X164163775Y-83434804D01*
X164163774Y-83434803D01*
X164102753Y-83395587D01*
X164041732Y-83356371D01*
X164041731Y-83356370D01*
X164041730Y-83356370D01*
X163902536Y-83315500D01*
X163757464Y-83315500D01*
X163618269Y-83356370D01*
X163618266Y-83356372D01*
X163496225Y-83434803D01*
X163401223Y-83544441D01*
X163401223Y-83544442D01*
X163340958Y-83676404D01*
X163320312Y-83820000D01*
X161799688Y-83820000D01*
X161779042Y-83676404D01*
X161718777Y-83544442D01*
X161623775Y-83434804D01*
X161623774Y-83434803D01*
X161562753Y-83395587D01*
X161501732Y-83356371D01*
X161501731Y-83356370D01*
X161501730Y-83356370D01*
X161362536Y-83315500D01*
X161217464Y-83315500D01*
X161078269Y-83356370D01*
X161078266Y-83356372D01*
X160956225Y-83434803D01*
X160861223Y-83544441D01*
X160861223Y-83544442D01*
X160800958Y-83676404D01*
X160780312Y-83820000D01*
X159259688Y-83820000D01*
X159239042Y-83676404D01*
X159178777Y-83544442D01*
X159083775Y-83434804D01*
X159083774Y-83434803D01*
X159022753Y-83395587D01*
X158961732Y-83356371D01*
X158961731Y-83356370D01*
X158961730Y-83356370D01*
X158822536Y-83315500D01*
X158677464Y-83315500D01*
X158538269Y-83356370D01*
X158538266Y-83356372D01*
X158416225Y-83434803D01*
X158321223Y-83544441D01*
X158321223Y-83544442D01*
X158260958Y-83676404D01*
X158240312Y-83820000D01*
X151639688Y-83820000D01*
X151619042Y-83676404D01*
X151558777Y-83544442D01*
X151463775Y-83434804D01*
X151463774Y-83434803D01*
X151402753Y-83395587D01*
X151341732Y-83356371D01*
X151341731Y-83356370D01*
X151341730Y-83356370D01*
X151202536Y-83315500D01*
X151057464Y-83315500D01*
X150918269Y-83356370D01*
X150918266Y-83356372D01*
X150796225Y-83434803D01*
X150701223Y-83544441D01*
X150701223Y-83544442D01*
X150640958Y-83676404D01*
X150620312Y-83820000D01*
X132589688Y-83820000D01*
X132569042Y-83676404D01*
X132508777Y-83544442D01*
X132413775Y-83434804D01*
X132413774Y-83434803D01*
X132352753Y-83395587D01*
X132291732Y-83356371D01*
X132291731Y-83356370D01*
X132291730Y-83356370D01*
X132152536Y-83315500D01*
X132007464Y-83315500D01*
X131868269Y-83356370D01*
X131868266Y-83356372D01*
X131746225Y-83434803D01*
X131651223Y-83544441D01*
X131590958Y-83676403D01*
X131590956Y-83676410D01*
X131570311Y-83819996D01*
X131570312Y-83820000D01*
X131590958Y-83963596D01*
X131651223Y-84095558D01*
X131694724Y-84145761D01*
X131724217Y-84210340D01*
X131725500Y-84228273D01*
X131725500Y-94597971D01*
X131705498Y-94666092D01*
X131651842Y-94712585D01*
X131581568Y-94722689D01*
X131516988Y-94693195D01*
X131510405Y-94687066D01*
X131201405Y-94378066D01*
X131167379Y-94315754D01*
X131164500Y-94288971D01*
X131164500Y-84228273D01*
X131184502Y-84160152D01*
X131195272Y-84145765D01*
X131238777Y-84095558D01*
X131299042Y-83963596D01*
X131319688Y-83820000D01*
X131319687Y-83819997D01*
X131319688Y-83819996D01*
X131299043Y-83676410D01*
X131299042Y-83676409D01*
X131299042Y-83676404D01*
X131238777Y-83544442D01*
X131143775Y-83434804D01*
X131143774Y-83434803D01*
X131082753Y-83395587D01*
X131021732Y-83356371D01*
X131021731Y-83356370D01*
X131021730Y-83356370D01*
X130882536Y-83315500D01*
X130737464Y-83315500D01*
X130598269Y-83356370D01*
X130598266Y-83356372D01*
X130476225Y-83434803D01*
X130381223Y-83544441D01*
X130381223Y-83544442D01*
X130320958Y-83676404D01*
X130300312Y-83820000D01*
X130320958Y-83963596D01*
X130381223Y-84095558D01*
X130424724Y-84145761D01*
X130454217Y-84210340D01*
X130455500Y-84228273D01*
X130455500Y-90066247D01*
X130435498Y-90134368D01*
X130381842Y-90180861D01*
X130311568Y-90190965D01*
X130294003Y-90187143D01*
X130247537Y-90173500D01*
X130247536Y-90173500D01*
X130102464Y-90173500D01*
X129963269Y-90214370D01*
X129963266Y-90214372D01*
X129841225Y-90292803D01*
X129746223Y-90402441D01*
X129685958Y-90534403D01*
X129681186Y-90567596D01*
X129665312Y-90678000D01*
X129685958Y-90821596D01*
X129746223Y-90953558D01*
X129789724Y-91003761D01*
X129819217Y-91068340D01*
X129820500Y-91086273D01*
X129820500Y-93620050D01*
X129800498Y-93688171D01*
X129746842Y-93734664D01*
X129676568Y-93744768D01*
X129626379Y-93726048D01*
X129584511Y-93699141D01*
X129497732Y-93643371D01*
X129497731Y-93643370D01*
X129497730Y-93643370D01*
X129358536Y-93602500D01*
X129213464Y-93602500D01*
X129074269Y-93643370D01*
X129074266Y-93643372D01*
X128952225Y-93721803D01*
X128857223Y-93831441D01*
X128796958Y-93963403D01*
X128776312Y-94107000D01*
X128796958Y-94250596D01*
X128857223Y-94382558D01*
X128952225Y-94492196D01*
X129025381Y-94539211D01*
X129071874Y-94592867D01*
X129081977Y-94663141D01*
X129052484Y-94727722D01*
X129046355Y-94734304D01*
X126725357Y-97055302D01*
X126705185Y-97071685D01*
X126697374Y-97076788D01*
X126697373Y-97076789D01*
X126676960Y-97103015D01*
X126671794Y-97108865D01*
X126669349Y-97111310D01*
X126656529Y-97129263D01*
X126624700Y-97170159D01*
X126621166Y-97176688D01*
X126617903Y-97183364D01*
X126603113Y-97233042D01*
X126586288Y-97282055D01*
X126585065Y-97289382D01*
X126584145Y-97296757D01*
X126586288Y-97348536D01*
X126586288Y-100063182D01*
X126566286Y-100131303D01*
X126549383Y-100152277D01*
X124244569Y-102457090D01*
X124224397Y-102473473D01*
X124216586Y-102478576D01*
X124216585Y-102478577D01*
X124196172Y-102504803D01*
X124191006Y-102510653D01*
X124188561Y-102513098D01*
X124175741Y-102531051D01*
X124143912Y-102571947D01*
X124140378Y-102578476D01*
X124137115Y-102585152D01*
X124122325Y-102634830D01*
X124105500Y-102683843D01*
X124104277Y-102691170D01*
X124103357Y-102698545D01*
X124105500Y-102750324D01*
X124105500Y-103604725D01*
X124085498Y-103672846D01*
X124074725Y-103687237D01*
X124031224Y-103737440D01*
X123970958Y-103869403D01*
X123950312Y-104013000D01*
X123970958Y-104156596D01*
X124031223Y-104288558D01*
X124126225Y-104398196D01*
X124202563Y-104447256D01*
X124249056Y-104500912D01*
X124259160Y-104571185D01*
X124240812Y-104698799D01*
X124240812Y-104698800D01*
X124261458Y-104842396D01*
X124321723Y-104974358D01*
X124416725Y-105083996D01*
X124538768Y-105162429D01*
X124541067Y-105163104D01*
X124543080Y-105164398D01*
X124546963Y-105166171D01*
X124546708Y-105166729D01*
X124600793Y-105201487D01*
X124630286Y-105266068D01*
X124620183Y-105336342D01*
X124573690Y-105389998D01*
X124505569Y-105410000D01*
X123512683Y-105410000D01*
X123444562Y-105389998D01*
X123398069Y-105336342D01*
X123387965Y-105266068D01*
X123398069Y-105231658D01*
X123425042Y-105172596D01*
X123445688Y-105029000D01*
X123425042Y-104885404D01*
X123364777Y-104753442D01*
X123269775Y-104643804D01*
X123269774Y-104643803D01*
X123207259Y-104603627D01*
X123147732Y-104565371D01*
X123147731Y-104565370D01*
X123147730Y-104565370D01*
X123008536Y-104524500D01*
X122863464Y-104524500D01*
X122724269Y-104565370D01*
X122724266Y-104565372D01*
X122602225Y-104643803D01*
X122507223Y-104753441D01*
X122446958Y-104885403D01*
X122443306Y-104910803D01*
X122426312Y-105029000D01*
X122446958Y-105172596D01*
X122469826Y-105222671D01*
X122473931Y-105231658D01*
X122484034Y-105301932D01*
X122454541Y-105366513D01*
X122394815Y-105404896D01*
X122359317Y-105410000D01*
X121734683Y-105410000D01*
X121666562Y-105389998D01*
X121620069Y-105336342D01*
X121609965Y-105266068D01*
X121620069Y-105231658D01*
X121647042Y-105172596D01*
X121667688Y-105029000D01*
X121647042Y-104885404D01*
X121586777Y-104753442D01*
X121491775Y-104643804D01*
X121491774Y-104643803D01*
X121429259Y-104603627D01*
X121369732Y-104565371D01*
X121369731Y-104565370D01*
X121369730Y-104565370D01*
X121230536Y-104524500D01*
X121085464Y-104524500D01*
X120946269Y-104565370D01*
X120946266Y-104565372D01*
X120824225Y-104643803D01*
X120729223Y-104753441D01*
X120668958Y-104885403D01*
X120665306Y-104910803D01*
X120648312Y-105029000D01*
X120668958Y-105172596D01*
X120691826Y-105222671D01*
X120695931Y-105231658D01*
X120706034Y-105301932D01*
X120676541Y-105366513D01*
X120616815Y-105404896D01*
X120581317Y-105410000D01*
X119956683Y-105410000D01*
X119888562Y-105389998D01*
X119842069Y-105336342D01*
X119831965Y-105266068D01*
X119842069Y-105231658D01*
X119869042Y-105172596D01*
X119889688Y-105029000D01*
X119869042Y-104885404D01*
X119808777Y-104753442D01*
X119713775Y-104643804D01*
X119713774Y-104643803D01*
X119651259Y-104603627D01*
X119591732Y-104565371D01*
X119591731Y-104565370D01*
X119591730Y-104565370D01*
X119452536Y-104524500D01*
X119307464Y-104524500D01*
X119168269Y-104565370D01*
X119168266Y-104565372D01*
X119046225Y-104643803D01*
X118951223Y-104753441D01*
X118890958Y-104885403D01*
X118887306Y-104910803D01*
X118870312Y-105029000D01*
X118890958Y-105172596D01*
X118913826Y-105222671D01*
X118917931Y-105231658D01*
X118928034Y-105301932D01*
X118898541Y-105366513D01*
X118838815Y-105404896D01*
X118803317Y-105410000D01*
X118178683Y-105410000D01*
X118110562Y-105389998D01*
X118064069Y-105336342D01*
X118053965Y-105266068D01*
X118064069Y-105231658D01*
X118091042Y-105172596D01*
X118111688Y-105029000D01*
X118091042Y-104885404D01*
X118030777Y-104753442D01*
X117935775Y-104643804D01*
X117935774Y-104643803D01*
X117873259Y-104603627D01*
X117813732Y-104565371D01*
X117813731Y-104565370D01*
X117813730Y-104565370D01*
X117674536Y-104524500D01*
X117529464Y-104524500D01*
X117390269Y-104565370D01*
X117390266Y-104565372D01*
X117268225Y-104643803D01*
X117225014Y-104693672D01*
X117165288Y-104732055D01*
X117094291Y-104732055D01*
X117034565Y-104693671D01*
X117005072Y-104629090D01*
X117003790Y-104611159D01*
X117003790Y-104282968D01*
X117023792Y-104214847D01*
X117037336Y-104197363D01*
X117635859Y-103550958D01*
X117696817Y-103514564D01*
X117767775Y-103516903D01*
X117826204Y-103557234D01*
X117853553Y-103622752D01*
X117853905Y-103629170D01*
X117871091Y-103748698D01*
X117874958Y-103775596D01*
X117935223Y-103907558D01*
X118030225Y-104017196D01*
X118152268Y-104095629D01*
X118291464Y-104136500D01*
X118436536Y-104136500D01*
X118575732Y-104095629D01*
X118676879Y-104030624D01*
X118744999Y-104010623D01*
X118813120Y-104030625D01*
X118813121Y-104030625D01*
X118914268Y-104095629D01*
X119053464Y-104136500D01*
X119198536Y-104136500D01*
X119337732Y-104095629D01*
X119459775Y-104017196D01*
X119475276Y-103999306D01*
X119535000Y-103960923D01*
X119605996Y-103960922D01*
X119665721Y-103999304D01*
X119681225Y-104017196D01*
X119803268Y-104095629D01*
X119942464Y-104136500D01*
X120087536Y-104136500D01*
X120226732Y-104095629D01*
X120327879Y-104030624D01*
X120395999Y-104010623D01*
X120464120Y-104030625D01*
X120464121Y-104030625D01*
X120565268Y-104095629D01*
X120704464Y-104136500D01*
X120849536Y-104136500D01*
X120988732Y-104095629D01*
X121110775Y-104017196D01*
X121205777Y-103907558D01*
X121266042Y-103775596D01*
X121286688Y-103632000D01*
X121266042Y-103488404D01*
X121205777Y-103356442D01*
X121110775Y-103246804D01*
X121110774Y-103246803D01*
X121031767Y-103196028D01*
X120988732Y-103168371D01*
X120988731Y-103168370D01*
X120988730Y-103168370D01*
X120849536Y-103127500D01*
X120704464Y-103127500D01*
X120565269Y-103168370D01*
X120565266Y-103168372D01*
X120464121Y-103233374D01*
X120396000Y-103253376D01*
X120327879Y-103233374D01*
X120233701Y-103172850D01*
X120226732Y-103168371D01*
X120226731Y-103168370D01*
X120226730Y-103168370D01*
X120087536Y-103127500D01*
X119942464Y-103127500D01*
X119803269Y-103168370D01*
X119803266Y-103168372D01*
X119681225Y-103246803D01*
X119665724Y-103264693D01*
X119605998Y-103303076D01*
X119535001Y-103303076D01*
X119475276Y-103264693D01*
X119459774Y-103246803D01*
X119380767Y-103196028D01*
X119337732Y-103168371D01*
X119337731Y-103168370D01*
X119337730Y-103168370D01*
X119198536Y-103127500D01*
X119053464Y-103127500D01*
X118914269Y-103168370D01*
X118914266Y-103168372D01*
X118813121Y-103233374D01*
X118745000Y-103253376D01*
X118676879Y-103233374D01*
X118582701Y-103172850D01*
X118575732Y-103168371D01*
X118575731Y-103168370D01*
X118575730Y-103168370D01*
X118436536Y-103127500D01*
X118316335Y-103127500D01*
X118248214Y-103107498D01*
X118201721Y-103053842D01*
X118191617Y-102983568D01*
X118221111Y-102918988D01*
X118223881Y-102915895D01*
X119401583Y-101643977D01*
X120141387Y-100844987D01*
X120202346Y-100808593D01*
X120233841Y-100804593D01*
X123861789Y-100804593D01*
X123861790Y-100804593D01*
X124807479Y-99858903D01*
X124869790Y-99824880D01*
X124896573Y-99822000D01*
X124968000Y-99822000D01*
X124968000Y-99750573D01*
X124988002Y-99682452D01*
X125004766Y-99661648D01*
X125004790Y-99661593D01*
X125004790Y-99460624D01*
X125024792Y-99392503D01*
X125078448Y-99346010D01*
X125148722Y-99335906D01*
X125198910Y-99354625D01*
X125264268Y-99396629D01*
X125403464Y-99437500D01*
X125548536Y-99437500D01*
X125687732Y-99396629D01*
X125809775Y-99318196D01*
X125904777Y-99208558D01*
X125965042Y-99076596D01*
X125985688Y-98933000D01*
X125965042Y-98789404D01*
X125904777Y-98657442D01*
X125809775Y-98547804D01*
X125809774Y-98547803D01*
X125687735Y-98469373D01*
X125687732Y-98469371D01*
X125687731Y-98469370D01*
X125687730Y-98469370D01*
X125548536Y-98428500D01*
X125403464Y-98428500D01*
X125264269Y-98469370D01*
X125264262Y-98469373D01*
X125198910Y-98511373D01*
X125130790Y-98531375D01*
X125062669Y-98511373D01*
X125016176Y-98457717D01*
X125004790Y-98405375D01*
X125004790Y-97809624D01*
X125024792Y-97741503D01*
X125078448Y-97695010D01*
X125148722Y-97684906D01*
X125198910Y-97703625D01*
X125264268Y-97745629D01*
X125403464Y-97786500D01*
X125548536Y-97786500D01*
X125687732Y-97745629D01*
X125809775Y-97667196D01*
X125904777Y-97557558D01*
X125965042Y-97425596D01*
X125985688Y-97282000D01*
X125965042Y-97138404D01*
X125904777Y-97006442D01*
X125809775Y-96896804D01*
X125809774Y-96896803D01*
X125687735Y-96818373D01*
X125687732Y-96818371D01*
X125687731Y-96818370D01*
X125687730Y-96818370D01*
X125548536Y-96777500D01*
X125403464Y-96777500D01*
X125264269Y-96818370D01*
X125264262Y-96818373D01*
X125198910Y-96860373D01*
X125130790Y-96880375D01*
X125062669Y-96860373D01*
X125016176Y-96806717D01*
X125004790Y-96754375D01*
X125004790Y-96539624D01*
X125024792Y-96471503D01*
X125078448Y-96425010D01*
X125148722Y-96414906D01*
X125198910Y-96433625D01*
X125264268Y-96475629D01*
X125403464Y-96516500D01*
X125548536Y-96516500D01*
X125687732Y-96475629D01*
X125809775Y-96397196D01*
X125904777Y-96287558D01*
X125965042Y-96155596D01*
X125985688Y-96012000D01*
X125965042Y-95868404D01*
X125904777Y-95736442D01*
X125809775Y-95626804D01*
X125809774Y-95626803D01*
X125809773Y-95626802D01*
X125783625Y-95609998D01*
X125737132Y-95556343D01*
X125727027Y-95486069D01*
X125756520Y-95421488D01*
X125783625Y-95398002D01*
X125809773Y-95381197D01*
X125809774Y-95381197D01*
X125809775Y-95381196D01*
X125904777Y-95271558D01*
X125965042Y-95139596D01*
X125985688Y-94996000D01*
X125965042Y-94852404D01*
X125904777Y-94720442D01*
X125809775Y-94610804D01*
X125809774Y-94610803D01*
X125809773Y-94610802D01*
X125783625Y-94593998D01*
X125737132Y-94540343D01*
X125727027Y-94470069D01*
X125756520Y-94405488D01*
X125783625Y-94382002D01*
X125809773Y-94365197D01*
X125809774Y-94365197D01*
X125817047Y-94356804D01*
X125904777Y-94255558D01*
X125965042Y-94123596D01*
X125985688Y-93980000D01*
X125965042Y-93836404D01*
X125904777Y-93704442D01*
X125809775Y-93594804D01*
X125809774Y-93594803D01*
X125809773Y-93594802D01*
X125783625Y-93577998D01*
X125737132Y-93524343D01*
X125727027Y-93454069D01*
X125756520Y-93389488D01*
X125783625Y-93366002D01*
X125809773Y-93349197D01*
X125809774Y-93349197D01*
X125832092Y-93323441D01*
X125904777Y-93239558D01*
X125965042Y-93107596D01*
X125985688Y-92964000D01*
X125965042Y-92820404D01*
X125904777Y-92688442D01*
X125809775Y-92578804D01*
X125809774Y-92578803D01*
X125809773Y-92578802D01*
X125783625Y-92561998D01*
X125737132Y-92508343D01*
X125727027Y-92438069D01*
X125756520Y-92373488D01*
X125783625Y-92350002D01*
X125809773Y-92333197D01*
X125809774Y-92333197D01*
X125817047Y-92324804D01*
X125904777Y-92223558D01*
X125965042Y-92091596D01*
X125985688Y-91948000D01*
X125985687Y-91947997D01*
X125985688Y-91947996D01*
X125985688Y-91945065D01*
X125986513Y-91942252D01*
X125986970Y-91939080D01*
X125987426Y-91939145D01*
X126005690Y-91876944D01*
X126059346Y-91830451D01*
X126129620Y-91820347D01*
X126179807Y-91839066D01*
X126280268Y-91903629D01*
X126400687Y-91938986D01*
X126460413Y-91977369D01*
X126489906Y-92041949D01*
X126489908Y-92065988D01*
X126490312Y-92065988D01*
X126490312Y-92074996D01*
X126490312Y-92074998D01*
X126490312Y-92075000D01*
X126510958Y-92218596D01*
X126571223Y-92350558D01*
X126666225Y-92460196D01*
X126788268Y-92538629D01*
X126908687Y-92573986D01*
X126968413Y-92612369D01*
X126997906Y-92676949D01*
X126997908Y-92700988D01*
X126998312Y-92700988D01*
X126998312Y-92709996D01*
X126998312Y-92709998D01*
X126998312Y-92710000D01*
X127013472Y-92815441D01*
X127018958Y-92853596D01*
X127079223Y-92985558D01*
X127079226Y-92985562D01*
X127172430Y-93093126D01*
X127201924Y-93157706D01*
X127191820Y-93227980D01*
X127145958Y-93328403D01*
X127142968Y-93349197D01*
X127125312Y-93472000D01*
X127145958Y-93615596D01*
X127206223Y-93747558D01*
X127301225Y-93857196D01*
X127423268Y-93935629D01*
X127562464Y-93976500D01*
X127707536Y-93976500D01*
X127846732Y-93935629D01*
X127968775Y-93857196D01*
X128063777Y-93747558D01*
X128124042Y-93615596D01*
X128144688Y-93472000D01*
X128124042Y-93328404D01*
X128063777Y-93196442D01*
X127970568Y-93088873D01*
X127941076Y-93024294D01*
X127951178Y-92954022D01*
X127997042Y-92853596D01*
X128017688Y-92710000D01*
X127997042Y-92566404D01*
X127936777Y-92434442D01*
X127841775Y-92324804D01*
X127841774Y-92324803D01*
X127780753Y-92285587D01*
X127719732Y-92246371D01*
X127719731Y-92246370D01*
X127719730Y-92246370D01*
X127599312Y-92211013D01*
X127539586Y-92172630D01*
X127510093Y-92108049D01*
X127510093Y-92084012D01*
X127509688Y-92084012D01*
X127509688Y-92075003D01*
X127509687Y-92074996D01*
X127489042Y-91931404D01*
X127428777Y-91799442D01*
X127333775Y-91689804D01*
X127333774Y-91689803D01*
X127272753Y-91650587D01*
X127211732Y-91611371D01*
X127211731Y-91611370D01*
X127211730Y-91611370D01*
X127091312Y-91576013D01*
X127031586Y-91537630D01*
X127002093Y-91473049D01*
X127002093Y-91449012D01*
X127001688Y-91449012D01*
X127001688Y-91440003D01*
X127001688Y-91440000D01*
X126981042Y-91296404D01*
X126920777Y-91164442D01*
X126825775Y-91054804D01*
X126825774Y-91054803D01*
X126764753Y-91015587D01*
X126703732Y-90976371D01*
X126703731Y-90976370D01*
X126703730Y-90976370D01*
X126564536Y-90935500D01*
X126419464Y-90935500D01*
X126280269Y-90976370D01*
X126280266Y-90976372D01*
X126179809Y-91040932D01*
X126111688Y-91060934D01*
X126043567Y-91040932D01*
X125997074Y-90987276D01*
X125986989Y-90940917D01*
X125986970Y-90940920D01*
X125986930Y-90940646D01*
X125985688Y-90934934D01*
X125985688Y-90932003D01*
X125985688Y-90932000D01*
X125965042Y-90788404D01*
X125904777Y-90656442D01*
X125809775Y-90546804D01*
X125809774Y-90546803D01*
X125809773Y-90546802D01*
X125783625Y-90529998D01*
X125737132Y-90476343D01*
X125727027Y-90406069D01*
X125756520Y-90341488D01*
X125783625Y-90318002D01*
X125809773Y-90301197D01*
X125809774Y-90301197D01*
X125817047Y-90292804D01*
X125904777Y-90191558D01*
X125965042Y-90059596D01*
X125985688Y-89916000D01*
X125965042Y-89772404D01*
X125904777Y-89640442D01*
X125809775Y-89530804D01*
X125809774Y-89530803D01*
X125809773Y-89530802D01*
X125783625Y-89513998D01*
X125737132Y-89460343D01*
X125727027Y-89390069D01*
X125756520Y-89325488D01*
X125783625Y-89302002D01*
X125809773Y-89285197D01*
X125809774Y-89285197D01*
X125809775Y-89285196D01*
X125904777Y-89175558D01*
X125965042Y-89043596D01*
X125985688Y-88900000D01*
X125965042Y-88756404D01*
X125904777Y-88624442D01*
X125809775Y-88514804D01*
X125809774Y-88514803D01*
X125809773Y-88514802D01*
X125783625Y-88497998D01*
X125737132Y-88444343D01*
X125727027Y-88374069D01*
X125756520Y-88309488D01*
X125783625Y-88286002D01*
X125809773Y-88269197D01*
X125809774Y-88269197D01*
X125813559Y-88264829D01*
X125904777Y-88159558D01*
X125965042Y-88027596D01*
X125985688Y-87884000D01*
X125965042Y-87740404D01*
X125904777Y-87608442D01*
X125809775Y-87498804D01*
X125809774Y-87498803D01*
X125809773Y-87498802D01*
X125783625Y-87481998D01*
X125737132Y-87428343D01*
X125727027Y-87358069D01*
X125756520Y-87293488D01*
X125783625Y-87270002D01*
X125809773Y-87253197D01*
X125809774Y-87253197D01*
X125817047Y-87244804D01*
X125904777Y-87143558D01*
X125965042Y-87011596D01*
X125985688Y-86868000D01*
X125965042Y-86724404D01*
X125904777Y-86592442D01*
X125809775Y-86482804D01*
X125809774Y-86482803D01*
X125809773Y-86482802D01*
X125783625Y-86465998D01*
X125737132Y-86412343D01*
X125727027Y-86342069D01*
X125756520Y-86277488D01*
X125783625Y-86254002D01*
X125796086Y-86245992D01*
X125809773Y-86237197D01*
X125809774Y-86237197D01*
X125818176Y-86227501D01*
X125904777Y-86127558D01*
X125965042Y-85995596D01*
X125985688Y-85852000D01*
X125965042Y-85708404D01*
X125904777Y-85576442D01*
X125809775Y-85466804D01*
X125809774Y-85466803D01*
X125809773Y-85466802D01*
X125783625Y-85449998D01*
X125737132Y-85396343D01*
X125727027Y-85326069D01*
X125756520Y-85261488D01*
X125783625Y-85238002D01*
X125809773Y-85221197D01*
X125809774Y-85221197D01*
X125809775Y-85221196D01*
X125904777Y-85111558D01*
X125965042Y-84979596D01*
X125985688Y-84836000D01*
X125965042Y-84692404D01*
X125904777Y-84560442D01*
X125809775Y-84450804D01*
X125809774Y-84450803D01*
X125809773Y-84450802D01*
X125783625Y-84433998D01*
X125737132Y-84380343D01*
X125727027Y-84310069D01*
X125756520Y-84245488D01*
X125783625Y-84222002D01*
X125809773Y-84205197D01*
X125809774Y-84205197D01*
X125830500Y-84181278D01*
X125904777Y-84095558D01*
X125965042Y-83963596D01*
X125985688Y-83820000D01*
X125965042Y-83676404D01*
X125904777Y-83544442D01*
X125809775Y-83434804D01*
X125809774Y-83434803D01*
X125809773Y-83434802D01*
X125783625Y-83417998D01*
X125737132Y-83364343D01*
X125727027Y-83294069D01*
X125756520Y-83229488D01*
X125783625Y-83206002D01*
X125809773Y-83189197D01*
X125809774Y-83189197D01*
X125809775Y-83189196D01*
X125904777Y-83079558D01*
X125965042Y-82947596D01*
X125985688Y-82804000D01*
X125965042Y-82660404D01*
X125914622Y-82550000D01*
X136650312Y-82550000D01*
X136670958Y-82693596D01*
X136731223Y-82825558D01*
X136826225Y-82935196D01*
X136948268Y-83013629D01*
X137087464Y-83054500D01*
X137232536Y-83054500D01*
X137371732Y-83013629D01*
X137493775Y-82935196D01*
X137588777Y-82825558D01*
X137649042Y-82693596D01*
X137669688Y-82550000D01*
X139190312Y-82550000D01*
X139210958Y-82693596D01*
X139271223Y-82825558D01*
X139366225Y-82935196D01*
X139488268Y-83013629D01*
X139627464Y-83054500D01*
X139772536Y-83054500D01*
X139911732Y-83013629D01*
X140033775Y-82935196D01*
X140128777Y-82825558D01*
X140189042Y-82693596D01*
X140209688Y-82550000D01*
X141730312Y-82550000D01*
X141750958Y-82693596D01*
X141811223Y-82825558D01*
X141906225Y-82935196D01*
X142028268Y-83013629D01*
X142167464Y-83054500D01*
X142312536Y-83054500D01*
X142451732Y-83013629D01*
X142573775Y-82935196D01*
X142668777Y-82825558D01*
X142729042Y-82693596D01*
X142749688Y-82550000D01*
X149350312Y-82550000D01*
X149370958Y-82693596D01*
X149431223Y-82825558D01*
X149526225Y-82935196D01*
X149648268Y-83013629D01*
X149787464Y-83054500D01*
X149932536Y-83054500D01*
X150071732Y-83013629D01*
X150193775Y-82935196D01*
X150288777Y-82825558D01*
X150349042Y-82693596D01*
X150369688Y-82550000D01*
X151890312Y-82550000D01*
X151910958Y-82693596D01*
X151971223Y-82825558D01*
X152066225Y-82935196D01*
X152188268Y-83013629D01*
X152327464Y-83054500D01*
X152472536Y-83054500D01*
X152611732Y-83013629D01*
X152733775Y-82935196D01*
X152828777Y-82825558D01*
X152889042Y-82693596D01*
X152909688Y-82550000D01*
X154430312Y-82550000D01*
X154450958Y-82693596D01*
X154511223Y-82825558D01*
X154606225Y-82935196D01*
X154728268Y-83013629D01*
X154867464Y-83054500D01*
X155012536Y-83054500D01*
X155151732Y-83013629D01*
X155273775Y-82935196D01*
X155368777Y-82825558D01*
X155429042Y-82693596D01*
X155449688Y-82550000D01*
X156970312Y-82550000D01*
X156990958Y-82693596D01*
X157051223Y-82825558D01*
X157146225Y-82935196D01*
X157268268Y-83013629D01*
X157407464Y-83054500D01*
X157552536Y-83054500D01*
X157691732Y-83013629D01*
X157813775Y-82935196D01*
X157908777Y-82825558D01*
X157969042Y-82693596D01*
X157989688Y-82550000D01*
X159510312Y-82550000D01*
X159530958Y-82693596D01*
X159591223Y-82825558D01*
X159686225Y-82935196D01*
X159808268Y-83013629D01*
X159947464Y-83054500D01*
X160092536Y-83054500D01*
X160231732Y-83013629D01*
X160353775Y-82935196D01*
X160448777Y-82825558D01*
X160509042Y-82693596D01*
X160529688Y-82550000D01*
X162050312Y-82550000D01*
X162070958Y-82693596D01*
X162131223Y-82825558D01*
X162226225Y-82935196D01*
X162348268Y-83013629D01*
X162487464Y-83054500D01*
X162632536Y-83054500D01*
X162771732Y-83013629D01*
X162893775Y-82935196D01*
X162988777Y-82825558D01*
X163049042Y-82693596D01*
X163069688Y-82550000D01*
X164590312Y-82550000D01*
X164610958Y-82693596D01*
X164671223Y-82825558D01*
X164766225Y-82935196D01*
X164888268Y-83013629D01*
X165027464Y-83054500D01*
X165172536Y-83054500D01*
X165311732Y-83013629D01*
X165433775Y-82935196D01*
X165466745Y-82897145D01*
X165526470Y-82858763D01*
X165597467Y-82858763D01*
X165630091Y-82873662D01*
X165650264Y-82886627D01*
X165650266Y-82886627D01*
X165650268Y-82886629D01*
X165789464Y-82927500D01*
X165934536Y-82927500D01*
X166073732Y-82886629D01*
X166195775Y-82808196D01*
X166290777Y-82698558D01*
X166351042Y-82566596D01*
X166353428Y-82550000D01*
X176020312Y-82550000D01*
X176040958Y-82693596D01*
X176101223Y-82825558D01*
X176196225Y-82935196D01*
X176318268Y-83013629D01*
X176457464Y-83054500D01*
X176602536Y-83054500D01*
X176741732Y-83013629D01*
X176863775Y-82935196D01*
X176958777Y-82825558D01*
X177019042Y-82693596D01*
X177039688Y-82550000D01*
X177019042Y-82406404D01*
X176958777Y-82274442D01*
X176863775Y-82164804D01*
X176863774Y-82164803D01*
X176785089Y-82114235D01*
X176741732Y-82086371D01*
X176741731Y-82086370D01*
X176741730Y-82086370D01*
X176602536Y-82045500D01*
X176457464Y-82045500D01*
X176318269Y-82086370D01*
X176318266Y-82086372D01*
X176196225Y-82164803D01*
X176101223Y-82274441D01*
X176067474Y-82348343D01*
X176040958Y-82406404D01*
X176020312Y-82550000D01*
X166353428Y-82550000D01*
X166371688Y-82423000D01*
X166351042Y-82279404D01*
X166290777Y-82147442D01*
X166195775Y-82037804D01*
X166195774Y-82037803D01*
X166134753Y-81998587D01*
X166073732Y-81959371D01*
X166073731Y-81959370D01*
X166073730Y-81959370D01*
X165934536Y-81918500D01*
X165789464Y-81918500D01*
X165650269Y-81959370D01*
X165650266Y-81959372D01*
X165528224Y-82037804D01*
X165495253Y-82075854D01*
X165435526Y-82114237D01*
X165364529Y-82114235D01*
X165331909Y-82099338D01*
X165328036Y-82096849D01*
X165311732Y-82086371D01*
X165311731Y-82086370D01*
X165311730Y-82086370D01*
X165172536Y-82045500D01*
X165027464Y-82045500D01*
X164888269Y-82086370D01*
X164888266Y-82086372D01*
X164766225Y-82164803D01*
X164671223Y-82274441D01*
X164637474Y-82348343D01*
X164610958Y-82406404D01*
X164590312Y-82550000D01*
X163069688Y-82550000D01*
X163049042Y-82406404D01*
X162988777Y-82274442D01*
X162893775Y-82164804D01*
X162893774Y-82164803D01*
X162815089Y-82114235D01*
X162771732Y-82086371D01*
X162771731Y-82086370D01*
X162771730Y-82086370D01*
X162632536Y-82045500D01*
X162487464Y-82045500D01*
X162348269Y-82086370D01*
X162348266Y-82086372D01*
X162226225Y-82164803D01*
X162131223Y-82274441D01*
X162097474Y-82348343D01*
X162070958Y-82406404D01*
X162050312Y-82550000D01*
X160529688Y-82550000D01*
X160509042Y-82406404D01*
X160448777Y-82274442D01*
X160353775Y-82164804D01*
X160353774Y-82164803D01*
X160275089Y-82114235D01*
X160231732Y-82086371D01*
X160231731Y-82086370D01*
X160231730Y-82086370D01*
X160092536Y-82045500D01*
X159947464Y-82045500D01*
X159808269Y-82086370D01*
X159808266Y-82086372D01*
X159686225Y-82164803D01*
X159591223Y-82274441D01*
X159557474Y-82348343D01*
X159530958Y-82406404D01*
X159510312Y-82550000D01*
X157989688Y-82550000D01*
X157969042Y-82406404D01*
X157908777Y-82274442D01*
X157813775Y-82164804D01*
X157813774Y-82164803D01*
X157735089Y-82114235D01*
X157691732Y-82086371D01*
X157691731Y-82086370D01*
X157691730Y-82086370D01*
X157552536Y-82045500D01*
X157407464Y-82045500D01*
X157268269Y-82086370D01*
X157268266Y-82086372D01*
X157146225Y-82164803D01*
X157051223Y-82274441D01*
X157017474Y-82348343D01*
X156990958Y-82406404D01*
X156970312Y-82550000D01*
X155449688Y-82550000D01*
X155429042Y-82406404D01*
X155368777Y-82274442D01*
X155273775Y-82164804D01*
X155273774Y-82164803D01*
X155195089Y-82114235D01*
X155151732Y-82086371D01*
X155151731Y-82086370D01*
X155151730Y-82086370D01*
X155012536Y-82045500D01*
X154867464Y-82045500D01*
X154728269Y-82086370D01*
X154728266Y-82086372D01*
X154606225Y-82164803D01*
X154511223Y-82274441D01*
X154477474Y-82348343D01*
X154450958Y-82406404D01*
X154430312Y-82550000D01*
X152909688Y-82550000D01*
X152889042Y-82406404D01*
X152828777Y-82274442D01*
X152733775Y-82164804D01*
X152733774Y-82164803D01*
X152655089Y-82114235D01*
X152611732Y-82086371D01*
X152611731Y-82086370D01*
X152611730Y-82086370D01*
X152472536Y-82045500D01*
X152327464Y-82045500D01*
X152188269Y-82086370D01*
X152188266Y-82086372D01*
X152066225Y-82164803D01*
X151971223Y-82274441D01*
X151937474Y-82348343D01*
X151910958Y-82406404D01*
X151890312Y-82550000D01*
X150369688Y-82550000D01*
X150349042Y-82406404D01*
X150288777Y-82274442D01*
X150193775Y-82164804D01*
X150193774Y-82164803D01*
X150115089Y-82114235D01*
X150071732Y-82086371D01*
X150071731Y-82086370D01*
X150071730Y-82086370D01*
X149932536Y-82045500D01*
X149787464Y-82045500D01*
X149648269Y-82086370D01*
X149648266Y-82086372D01*
X149526225Y-82164803D01*
X149431223Y-82274441D01*
X149397474Y-82348343D01*
X149370958Y-82406404D01*
X149350312Y-82550000D01*
X142749688Y-82550000D01*
X142729042Y-82406404D01*
X142668777Y-82274442D01*
X142573775Y-82164804D01*
X142573774Y-82164803D01*
X142495089Y-82114235D01*
X142451732Y-82086371D01*
X142451731Y-82086370D01*
X142451730Y-82086370D01*
X142312536Y-82045500D01*
X142167464Y-82045500D01*
X142028269Y-82086370D01*
X142028266Y-82086372D01*
X141906225Y-82164803D01*
X141811223Y-82274441D01*
X141777474Y-82348343D01*
X141750958Y-82406404D01*
X141730312Y-82550000D01*
X140209688Y-82550000D01*
X140189042Y-82406404D01*
X140128777Y-82274442D01*
X140033775Y-82164804D01*
X140033774Y-82164803D01*
X139955089Y-82114235D01*
X139911732Y-82086371D01*
X139911731Y-82086370D01*
X139911730Y-82086370D01*
X139772536Y-82045500D01*
X139627464Y-82045500D01*
X139488269Y-82086370D01*
X139488266Y-82086372D01*
X139366225Y-82164803D01*
X139271223Y-82274441D01*
X139237474Y-82348343D01*
X139210958Y-82406404D01*
X139190312Y-82550000D01*
X137669688Y-82550000D01*
X137649042Y-82406404D01*
X137588777Y-82274442D01*
X137493775Y-82164804D01*
X137493774Y-82164803D01*
X137415089Y-82114235D01*
X137371732Y-82086371D01*
X137371731Y-82086370D01*
X137371730Y-82086370D01*
X137232536Y-82045500D01*
X137087464Y-82045500D01*
X136948269Y-82086370D01*
X136948266Y-82086372D01*
X136826225Y-82164803D01*
X136731223Y-82274441D01*
X136697474Y-82348343D01*
X136670958Y-82406404D01*
X136650312Y-82550000D01*
X125914622Y-82550000D01*
X125904777Y-82528442D01*
X125809775Y-82418804D01*
X125809774Y-82418803D01*
X125809773Y-82418802D01*
X125783625Y-82401998D01*
X125737132Y-82348343D01*
X125727027Y-82278069D01*
X125756520Y-82213488D01*
X125783625Y-82190002D01*
X125809773Y-82173197D01*
X125809774Y-82173197D01*
X125817047Y-82164804D01*
X125904777Y-82063558D01*
X125965042Y-81931596D01*
X125985688Y-81788000D01*
X125965042Y-81644404D01*
X125904777Y-81512442D01*
X125809775Y-81402804D01*
X125809774Y-81402803D01*
X125809773Y-81402802D01*
X125783625Y-81385998D01*
X125737132Y-81332343D01*
X125727027Y-81262069D01*
X125756520Y-81197488D01*
X125783625Y-81174002D01*
X125809773Y-81157197D01*
X125809774Y-81157197D01*
X125813411Y-81153000D01*
X166622312Y-81153000D01*
X166642958Y-81296596D01*
X166703223Y-81428558D01*
X166798225Y-81538196D01*
X166920268Y-81616629D01*
X167059464Y-81657500D01*
X167204536Y-81657500D01*
X167343732Y-81616629D01*
X167465775Y-81538196D01*
X167560777Y-81428558D01*
X167621042Y-81296596D01*
X167623428Y-81280000D01*
X174750312Y-81280000D01*
X174770958Y-81423596D01*
X174831223Y-81555558D01*
X174926225Y-81665196D01*
X175048268Y-81743629D01*
X175187464Y-81784500D01*
X175332536Y-81784500D01*
X175471732Y-81743629D01*
X175593775Y-81665196D01*
X175688777Y-81555558D01*
X175749042Y-81423596D01*
X175769688Y-81280000D01*
X175749042Y-81136404D01*
X175688777Y-81004442D01*
X175593775Y-80894804D01*
X175593774Y-80894803D01*
X175532753Y-80855587D01*
X175471732Y-80816371D01*
X175471731Y-80816370D01*
X175471730Y-80816370D01*
X175332536Y-80775500D01*
X175187464Y-80775500D01*
X175048269Y-80816370D01*
X175048266Y-80816372D01*
X174926225Y-80894803D01*
X174831223Y-81004441D01*
X174770958Y-81136403D01*
X174767968Y-81157197D01*
X174750312Y-81280000D01*
X167623428Y-81280000D01*
X167641688Y-81153000D01*
X167621042Y-81009404D01*
X167560777Y-80877442D01*
X167465775Y-80767804D01*
X167465774Y-80767803D01*
X167404753Y-80728587D01*
X167343732Y-80689371D01*
X167343731Y-80689370D01*
X167343730Y-80689370D01*
X167204536Y-80648500D01*
X167059464Y-80648500D01*
X166920269Y-80689370D01*
X166920266Y-80689372D01*
X166798225Y-80767803D01*
X166703223Y-80877441D01*
X166642958Y-81009403D01*
X166622312Y-81153000D01*
X125813411Y-81153000D01*
X125827792Y-81136403D01*
X125904777Y-81047558D01*
X125965042Y-80915596D01*
X125985688Y-80772000D01*
X125965042Y-80628404D01*
X125914622Y-80518000D01*
X127125312Y-80518000D01*
X127145958Y-80661596D01*
X127206223Y-80793558D01*
X127301225Y-80903196D01*
X127423268Y-80981629D01*
X127562464Y-81022500D01*
X127707536Y-81022500D01*
X127846732Y-80981629D01*
X127968775Y-80903196D01*
X128063777Y-80793558D01*
X128124042Y-80661596D01*
X128144688Y-80518000D01*
X128522312Y-80518000D01*
X128542958Y-80661596D01*
X128603223Y-80793558D01*
X128698225Y-80903196D01*
X128820268Y-80981629D01*
X128959464Y-81022500D01*
X129104536Y-81022500D01*
X129243732Y-80981629D01*
X129365775Y-80903196D01*
X129460777Y-80793558D01*
X129521042Y-80661596D01*
X129541688Y-80518000D01*
X129521042Y-80374404D01*
X129460777Y-80242442D01*
X129365775Y-80132804D01*
X129365774Y-80132803D01*
X129259902Y-80064763D01*
X129243732Y-80054371D01*
X129243731Y-80054370D01*
X129243730Y-80054370D01*
X129104536Y-80013500D01*
X128959464Y-80013500D01*
X128820269Y-80054370D01*
X128820266Y-80054372D01*
X128698225Y-80132803D01*
X128603223Y-80242441D01*
X128542958Y-80374403D01*
X128528692Y-80473627D01*
X128522312Y-80518000D01*
X128144688Y-80518000D01*
X128124042Y-80374404D01*
X128063777Y-80242442D01*
X127968775Y-80132804D01*
X127968774Y-80132803D01*
X127862902Y-80064763D01*
X127846732Y-80054371D01*
X127846731Y-80054370D01*
X127846730Y-80054370D01*
X127707536Y-80013500D01*
X127562464Y-80013500D01*
X127423269Y-80054370D01*
X127423266Y-80054372D01*
X127301225Y-80132803D01*
X127206223Y-80242441D01*
X127145958Y-80374403D01*
X127131692Y-80473627D01*
X127125312Y-80518000D01*
X125914622Y-80518000D01*
X125904777Y-80496442D01*
X125809775Y-80386804D01*
X125809774Y-80386803D01*
X125809773Y-80386802D01*
X125783625Y-80369998D01*
X125737132Y-80316343D01*
X125727027Y-80246069D01*
X125756520Y-80181488D01*
X125783625Y-80158002D01*
X125809773Y-80141197D01*
X125809772Y-80141197D01*
X125809775Y-80141196D01*
X125842745Y-80103145D01*
X125902470Y-80064763D01*
X125973467Y-80064763D01*
X126006091Y-80079662D01*
X126026264Y-80092627D01*
X126026266Y-80092627D01*
X126026268Y-80092629D01*
X126165464Y-80133500D01*
X126310536Y-80133500D01*
X126449732Y-80092629D01*
X126571775Y-80014196D01*
X126575411Y-80010000D01*
X149350312Y-80010000D01*
X149370958Y-80153596D01*
X149431223Y-80285558D01*
X149526225Y-80395196D01*
X149648268Y-80473629D01*
X149787464Y-80514500D01*
X149932536Y-80514500D01*
X150071732Y-80473629D01*
X150193775Y-80395196D01*
X150288777Y-80285558D01*
X150349042Y-80153596D01*
X150369688Y-80010000D01*
X151890312Y-80010000D01*
X151910958Y-80153596D01*
X151971223Y-80285558D01*
X152066225Y-80395196D01*
X152188268Y-80473629D01*
X152327464Y-80514500D01*
X152472536Y-80514500D01*
X152611732Y-80473629D01*
X152733775Y-80395196D01*
X152828777Y-80285558D01*
X152889042Y-80153596D01*
X152909688Y-80010000D01*
X154430312Y-80010000D01*
X154450958Y-80153596D01*
X154511223Y-80285558D01*
X154606225Y-80395196D01*
X154728268Y-80473629D01*
X154867464Y-80514500D01*
X155012536Y-80514500D01*
X155151732Y-80473629D01*
X155273775Y-80395196D01*
X155368777Y-80285558D01*
X155429042Y-80153596D01*
X155449688Y-80010000D01*
X156970312Y-80010000D01*
X156990958Y-80153596D01*
X157051223Y-80285558D01*
X157146225Y-80395196D01*
X157268268Y-80473629D01*
X157407464Y-80514500D01*
X157552536Y-80514500D01*
X157691732Y-80473629D01*
X157813775Y-80395196D01*
X157908777Y-80285558D01*
X157969042Y-80153596D01*
X157989688Y-80010000D01*
X159510312Y-80010000D01*
X159530958Y-80153596D01*
X159591223Y-80285558D01*
X159686225Y-80395196D01*
X159808268Y-80473629D01*
X159947464Y-80514500D01*
X160092536Y-80514500D01*
X160231732Y-80473629D01*
X160353775Y-80395196D01*
X160448777Y-80285558D01*
X160509042Y-80153596D01*
X160529688Y-80010000D01*
X162050312Y-80010000D01*
X162070958Y-80153596D01*
X162131223Y-80285558D01*
X162226225Y-80395196D01*
X162348268Y-80473629D01*
X162487464Y-80514500D01*
X162632536Y-80514500D01*
X162771732Y-80473629D01*
X162893775Y-80395196D01*
X162988777Y-80285558D01*
X163049042Y-80153596D01*
X163069688Y-80010000D01*
X164590312Y-80010000D01*
X164610958Y-80153596D01*
X164671223Y-80285558D01*
X164766225Y-80395196D01*
X164888268Y-80473629D01*
X165027464Y-80514500D01*
X165172536Y-80514500D01*
X165311732Y-80473629D01*
X165433775Y-80395196D01*
X165528777Y-80285558D01*
X165589042Y-80153596D01*
X165609688Y-80010000D01*
X165589042Y-79866404D01*
X165528777Y-79734442D01*
X165433775Y-79624804D01*
X165433774Y-79624803D01*
X165372753Y-79585587D01*
X165311732Y-79546371D01*
X165311731Y-79546370D01*
X165311730Y-79546370D01*
X165172536Y-79505500D01*
X165027464Y-79505500D01*
X164888269Y-79546370D01*
X164888266Y-79546372D01*
X164766225Y-79624803D01*
X164671223Y-79734441D01*
X164630086Y-79824520D01*
X164610958Y-79866404D01*
X164590312Y-80010000D01*
X163069688Y-80010000D01*
X163049042Y-79866404D01*
X162988777Y-79734442D01*
X162893775Y-79624804D01*
X162893774Y-79624803D01*
X162832753Y-79585587D01*
X162771732Y-79546371D01*
X162771731Y-79546370D01*
X162771730Y-79546370D01*
X162632536Y-79505500D01*
X162487464Y-79505500D01*
X162348269Y-79546370D01*
X162348266Y-79546372D01*
X162226225Y-79624803D01*
X162131223Y-79734441D01*
X162090086Y-79824520D01*
X162070958Y-79866404D01*
X162050312Y-80010000D01*
X160529688Y-80010000D01*
X160509042Y-79866404D01*
X160448777Y-79734442D01*
X160353775Y-79624804D01*
X160353774Y-79624803D01*
X160292753Y-79585587D01*
X160231732Y-79546371D01*
X160231731Y-79546370D01*
X160231730Y-79546370D01*
X160092536Y-79505500D01*
X159947464Y-79505500D01*
X159808269Y-79546370D01*
X159808266Y-79546372D01*
X159686225Y-79624803D01*
X159591223Y-79734441D01*
X159550086Y-79824520D01*
X159530958Y-79866404D01*
X159510312Y-80010000D01*
X157989688Y-80010000D01*
X157969042Y-79866404D01*
X157908777Y-79734442D01*
X157813775Y-79624804D01*
X157813774Y-79624803D01*
X157752753Y-79585587D01*
X157691732Y-79546371D01*
X157691731Y-79546370D01*
X157691730Y-79546370D01*
X157552536Y-79505500D01*
X157407464Y-79505500D01*
X157268269Y-79546370D01*
X157268266Y-79546372D01*
X157146225Y-79624803D01*
X157051223Y-79734441D01*
X157010086Y-79824520D01*
X156990958Y-79866404D01*
X156970312Y-80010000D01*
X155449688Y-80010000D01*
X155429042Y-79866404D01*
X155368777Y-79734442D01*
X155273775Y-79624804D01*
X155273774Y-79624803D01*
X155212753Y-79585587D01*
X155151732Y-79546371D01*
X155151731Y-79546370D01*
X155151730Y-79546370D01*
X155012536Y-79505500D01*
X154867464Y-79505500D01*
X154728269Y-79546370D01*
X154728266Y-79546372D01*
X154606225Y-79624803D01*
X154511223Y-79734441D01*
X154470086Y-79824520D01*
X154450958Y-79866404D01*
X154430312Y-80010000D01*
X152909688Y-80010000D01*
X152889042Y-79866404D01*
X152828777Y-79734442D01*
X152733775Y-79624804D01*
X152733774Y-79624803D01*
X152672753Y-79585587D01*
X152611732Y-79546371D01*
X152611731Y-79546370D01*
X152611730Y-79546370D01*
X152472536Y-79505500D01*
X152327464Y-79505500D01*
X152188269Y-79546370D01*
X152188266Y-79546372D01*
X152066225Y-79624803D01*
X151971223Y-79734441D01*
X151930086Y-79824520D01*
X151910958Y-79866404D01*
X151890312Y-80010000D01*
X150369688Y-80010000D01*
X150349042Y-79866404D01*
X150288777Y-79734442D01*
X150193775Y-79624804D01*
X150193774Y-79624803D01*
X150132753Y-79585587D01*
X150071732Y-79546371D01*
X150071731Y-79546370D01*
X150071730Y-79546370D01*
X149932536Y-79505500D01*
X149787464Y-79505500D01*
X149648269Y-79546370D01*
X149648266Y-79546372D01*
X149526225Y-79624803D01*
X149431223Y-79734441D01*
X149390086Y-79824520D01*
X149370958Y-79866404D01*
X149350312Y-80010000D01*
X126575411Y-80010000D01*
X126666777Y-79904558D01*
X126727042Y-79772596D01*
X126747688Y-79629000D01*
X126727042Y-79485404D01*
X126666777Y-79353442D01*
X126571775Y-79243804D01*
X126571774Y-79243803D01*
X126509259Y-79203627D01*
X126449732Y-79165371D01*
X126449731Y-79165370D01*
X126449730Y-79165370D01*
X126310536Y-79124500D01*
X126165464Y-79124500D01*
X126165463Y-79124500D01*
X126071674Y-79152038D01*
X126000678Y-79152038D01*
X125940952Y-79113654D01*
X125911459Y-79049073D01*
X125921564Y-78978799D01*
X125928827Y-78962896D01*
X125965042Y-78883596D01*
X125985688Y-78740000D01*
X125965042Y-78596404D01*
X125914622Y-78486000D01*
X145540312Y-78486000D01*
X145560958Y-78629596D01*
X145621223Y-78761558D01*
X145716225Y-78871196D01*
X145838268Y-78949629D01*
X145977464Y-78990500D01*
X146122536Y-78990500D01*
X146261732Y-78949629D01*
X146383775Y-78871196D01*
X146478777Y-78761558D01*
X146488622Y-78740000D01*
X148080312Y-78740000D01*
X148100958Y-78883596D01*
X148161223Y-79015558D01*
X148256225Y-79125196D01*
X148378268Y-79203629D01*
X148517464Y-79244500D01*
X148662536Y-79244500D01*
X148801732Y-79203629D01*
X148923775Y-79125196D01*
X149018777Y-79015558D01*
X149079042Y-78883596D01*
X149099688Y-78740000D01*
X150620312Y-78740000D01*
X150640958Y-78883596D01*
X150701223Y-79015558D01*
X150796225Y-79125196D01*
X150918268Y-79203629D01*
X151057464Y-79244500D01*
X151202536Y-79244500D01*
X151341732Y-79203629D01*
X151463775Y-79125196D01*
X151558777Y-79015558D01*
X151619042Y-78883596D01*
X151639688Y-78740000D01*
X153160312Y-78740000D01*
X153180958Y-78883596D01*
X153241223Y-79015558D01*
X153336225Y-79125196D01*
X153458268Y-79203629D01*
X153597464Y-79244500D01*
X153742536Y-79244500D01*
X153881732Y-79203629D01*
X154003775Y-79125196D01*
X154098777Y-79015558D01*
X154159042Y-78883596D01*
X154179688Y-78740000D01*
X155700312Y-78740000D01*
X155720958Y-78883596D01*
X155781223Y-79015558D01*
X155876225Y-79125196D01*
X155998268Y-79203629D01*
X156137464Y-79244500D01*
X156282536Y-79244500D01*
X156421732Y-79203629D01*
X156543775Y-79125196D01*
X156638777Y-79015558D01*
X156699042Y-78883596D01*
X156719688Y-78740000D01*
X158240312Y-78740000D01*
X158260958Y-78883596D01*
X158321223Y-79015558D01*
X158416225Y-79125196D01*
X158538268Y-79203629D01*
X158677464Y-79244500D01*
X158822536Y-79244500D01*
X158961732Y-79203629D01*
X159083775Y-79125196D01*
X159178777Y-79015558D01*
X159239042Y-78883596D01*
X159259688Y-78740000D01*
X160780312Y-78740000D01*
X160800958Y-78883596D01*
X160861223Y-79015558D01*
X160956225Y-79125196D01*
X161078268Y-79203629D01*
X161217464Y-79244500D01*
X161362536Y-79244500D01*
X161501732Y-79203629D01*
X161623775Y-79125196D01*
X161718777Y-79015558D01*
X161779042Y-78883596D01*
X161799688Y-78740000D01*
X163320312Y-78740000D01*
X163340958Y-78883596D01*
X163401223Y-79015558D01*
X163496225Y-79125196D01*
X163618268Y-79203629D01*
X163757464Y-79244500D01*
X163902536Y-79244500D01*
X164041732Y-79203629D01*
X164163775Y-79125196D01*
X164258777Y-79015558D01*
X164319042Y-78883596D01*
X164339688Y-78740000D01*
X174750312Y-78740000D01*
X174770958Y-78883596D01*
X174831223Y-79015558D01*
X174926225Y-79125196D01*
X175048268Y-79203629D01*
X175187464Y-79244500D01*
X175332536Y-79244500D01*
X175471732Y-79203629D01*
X175593775Y-79125196D01*
X175688777Y-79015558D01*
X175749042Y-78883596D01*
X175769688Y-78740000D01*
X175749042Y-78596404D01*
X175688777Y-78464442D01*
X175593775Y-78354804D01*
X175593774Y-78354803D01*
X175531259Y-78314627D01*
X175471732Y-78276371D01*
X175471731Y-78276370D01*
X175471730Y-78276370D01*
X175332536Y-78235500D01*
X175187464Y-78235500D01*
X175048269Y-78276370D01*
X175048266Y-78276372D01*
X174926225Y-78354803D01*
X174831223Y-78464441D01*
X174821378Y-78486000D01*
X174770958Y-78596404D01*
X174750312Y-78740000D01*
X164339688Y-78740000D01*
X164319042Y-78596404D01*
X164258777Y-78464442D01*
X164163775Y-78354804D01*
X164163774Y-78354803D01*
X164101259Y-78314627D01*
X164041732Y-78276371D01*
X164041731Y-78276370D01*
X164041730Y-78276370D01*
X163902536Y-78235500D01*
X163757464Y-78235500D01*
X163618269Y-78276370D01*
X163618266Y-78276372D01*
X163496225Y-78354803D01*
X163401223Y-78464441D01*
X163391378Y-78486000D01*
X163340958Y-78596404D01*
X163320312Y-78740000D01*
X161799688Y-78740000D01*
X161779042Y-78596404D01*
X161718777Y-78464442D01*
X161623775Y-78354804D01*
X161623774Y-78354803D01*
X161561259Y-78314627D01*
X161501732Y-78276371D01*
X161501731Y-78276370D01*
X161501730Y-78276370D01*
X161362536Y-78235500D01*
X161217464Y-78235500D01*
X161078269Y-78276370D01*
X161078266Y-78276372D01*
X160956225Y-78354803D01*
X160861223Y-78464441D01*
X160851378Y-78486000D01*
X160800958Y-78596404D01*
X160780312Y-78740000D01*
X159259688Y-78740000D01*
X159239042Y-78596404D01*
X159178777Y-78464442D01*
X159083775Y-78354804D01*
X159083774Y-78354803D01*
X159021259Y-78314627D01*
X158961732Y-78276371D01*
X158961731Y-78276370D01*
X158961730Y-78276370D01*
X158822536Y-78235500D01*
X158677464Y-78235500D01*
X158538269Y-78276370D01*
X158538266Y-78276372D01*
X158416225Y-78354803D01*
X158321223Y-78464441D01*
X158311378Y-78486000D01*
X158260958Y-78596404D01*
X158240312Y-78740000D01*
X156719688Y-78740000D01*
X156699042Y-78596404D01*
X156638777Y-78464442D01*
X156543775Y-78354804D01*
X156543774Y-78354803D01*
X156481259Y-78314627D01*
X156421732Y-78276371D01*
X156421731Y-78276370D01*
X156421730Y-78276370D01*
X156282536Y-78235500D01*
X156137464Y-78235500D01*
X155998269Y-78276370D01*
X155998266Y-78276372D01*
X155876225Y-78354803D01*
X155781223Y-78464441D01*
X155771378Y-78486000D01*
X155720958Y-78596404D01*
X155700312Y-78740000D01*
X154179688Y-78740000D01*
X154159042Y-78596404D01*
X154098777Y-78464442D01*
X154003775Y-78354804D01*
X154003774Y-78354803D01*
X153941259Y-78314627D01*
X153881732Y-78276371D01*
X153881731Y-78276370D01*
X153881730Y-78276370D01*
X153742536Y-78235500D01*
X153597464Y-78235500D01*
X153458269Y-78276370D01*
X153458266Y-78276372D01*
X153336225Y-78354803D01*
X153241223Y-78464441D01*
X153231378Y-78486000D01*
X153180958Y-78596404D01*
X153160312Y-78740000D01*
X151639688Y-78740000D01*
X151619042Y-78596404D01*
X151558777Y-78464442D01*
X151463775Y-78354804D01*
X151463774Y-78354803D01*
X151401259Y-78314627D01*
X151341732Y-78276371D01*
X151341731Y-78276370D01*
X151341730Y-78276370D01*
X151202536Y-78235500D01*
X151057464Y-78235500D01*
X150918269Y-78276370D01*
X150918266Y-78276372D01*
X150796225Y-78354803D01*
X150701223Y-78464441D01*
X150691378Y-78486000D01*
X150640958Y-78596404D01*
X150620312Y-78740000D01*
X149099688Y-78740000D01*
X149079042Y-78596404D01*
X149018777Y-78464442D01*
X148923775Y-78354804D01*
X148923774Y-78354803D01*
X148861259Y-78314627D01*
X148801732Y-78276371D01*
X148801731Y-78276370D01*
X148801730Y-78276370D01*
X148662536Y-78235500D01*
X148517464Y-78235500D01*
X148378269Y-78276370D01*
X148378266Y-78276372D01*
X148256225Y-78354803D01*
X148161223Y-78464441D01*
X148151378Y-78486000D01*
X148100958Y-78596404D01*
X148080312Y-78740000D01*
X146488622Y-78740000D01*
X146539042Y-78629596D01*
X146559688Y-78486000D01*
X146539042Y-78342404D01*
X146478777Y-78210442D01*
X146383775Y-78100804D01*
X146383774Y-78100803D01*
X146322753Y-78061587D01*
X146261732Y-78022371D01*
X146261731Y-78022370D01*
X146261730Y-78022370D01*
X146122536Y-77981500D01*
X145977464Y-77981500D01*
X145838269Y-78022370D01*
X145838266Y-78022372D01*
X145716225Y-78100803D01*
X145621223Y-78210441D01*
X145587474Y-78284343D01*
X145560958Y-78342404D01*
X145540312Y-78486000D01*
X125914622Y-78486000D01*
X125904777Y-78464442D01*
X125809775Y-78354804D01*
X125809774Y-78354803D01*
X125809773Y-78354802D01*
X125783625Y-78337998D01*
X125737132Y-78284343D01*
X125727027Y-78214069D01*
X125756520Y-78149488D01*
X125783625Y-78126002D01*
X125809773Y-78109197D01*
X125809774Y-78109197D01*
X125817047Y-78100804D01*
X125904777Y-77999558D01*
X125965042Y-77867596D01*
X125985688Y-77724000D01*
X125965042Y-77580404D01*
X125904777Y-77448442D01*
X125809775Y-77338804D01*
X125809774Y-77338803D01*
X125764176Y-77309499D01*
X125717683Y-77255843D01*
X125707580Y-77185569D01*
X125737073Y-77120988D01*
X125796799Y-77082605D01*
X125832297Y-77077501D01*
X146748568Y-77077501D01*
X146816689Y-77097503D01*
G37*
%TD.AperFunction*%
%TA.AperFunction,Conductor*%
G36*
X130911605Y-95095022D02*
G01*
X130932598Y-95111937D01*
X135244595Y-99423933D01*
X135278621Y-99486245D01*
X135281500Y-99513028D01*
X135281500Y-103604725D01*
X135261498Y-103672846D01*
X135250725Y-103687237D01*
X135207224Y-103737440D01*
X135146958Y-103869403D01*
X135126312Y-104013000D01*
X135146958Y-104156596D01*
X135207223Y-104288558D01*
X135302225Y-104398196D01*
X135427182Y-104478502D01*
X135473675Y-104532158D01*
X135483778Y-104602432D01*
X135454285Y-104667013D01*
X135427182Y-104690498D01*
X135302225Y-104770803D01*
X135207223Y-104880441D01*
X135150936Y-105003694D01*
X135146958Y-105012404D01*
X135127565Y-105147291D01*
X135126312Y-105156003D01*
X135142137Y-105266068D01*
X135132034Y-105336342D01*
X135085541Y-105389998D01*
X135017420Y-105410000D01*
X134169391Y-105410000D01*
X134101270Y-105389998D01*
X134054777Y-105336342D01*
X134044673Y-105266068D01*
X134054777Y-105231659D01*
X134093350Y-105147196D01*
X134113996Y-105003600D01*
X134093350Y-104860004D01*
X134033085Y-104728042D01*
X133938083Y-104618404D01*
X133938082Y-104618403D01*
X133842828Y-104557187D01*
X133816040Y-104539971D01*
X133816039Y-104539970D01*
X133816038Y-104539970D01*
X133676844Y-104499100D01*
X133531772Y-104499100D01*
X133392577Y-104539970D01*
X133392574Y-104539972D01*
X133270533Y-104618403D01*
X133175531Y-104728041D01*
X133115266Y-104860003D01*
X133107962Y-104910803D01*
X133094620Y-105003600D01*
X133115266Y-105147196D01*
X133153839Y-105231659D01*
X133163943Y-105301932D01*
X133134449Y-105366512D01*
X133074723Y-105404896D01*
X133039225Y-105410000D01*
X132451846Y-105410000D01*
X132383725Y-105389998D01*
X132337232Y-105336342D01*
X132325846Y-105284000D01*
X132325846Y-104503709D01*
X132322565Y-104489334D01*
X132293227Y-104360795D01*
X132229625Y-104228724D01*
X132138229Y-104114118D01*
X132023623Y-104022722D01*
X132023621Y-104022721D01*
X132023620Y-104022720D01*
X132023618Y-104022719D01*
X131906174Y-103966161D01*
X131891552Y-103959120D01*
X131748640Y-103926501D01*
X131602052Y-103926501D01*
X131459140Y-103959120D01*
X131459135Y-103959122D01*
X131327073Y-104022719D01*
X131327071Y-104022720D01*
X131212463Y-104114118D01*
X131121065Y-104228726D01*
X131121064Y-104228728D01*
X131057467Y-104360790D01*
X131057465Y-104360795D01*
X131031027Y-104476629D01*
X131024846Y-104503709D01*
X131024846Y-105284000D01*
X131004844Y-105352121D01*
X130951188Y-105398614D01*
X130898846Y-105410000D01*
X127075280Y-105410000D01*
X127007159Y-105389998D01*
X126960666Y-105336342D01*
X126950562Y-105266068D01*
X126980056Y-105201488D01*
X126980056Y-105201487D01*
X127010174Y-105166729D01*
X127056702Y-105113033D01*
X127116967Y-104981071D01*
X127120605Y-104955767D01*
X127150096Y-104891189D01*
X127209822Y-104852804D01*
X127245322Y-104847700D01*
X127275736Y-104847700D01*
X127414932Y-104806829D01*
X127536975Y-104728396D01*
X127536975Y-104728395D01*
X127544556Y-104723524D01*
X127545275Y-104724642D01*
X127601465Y-104698982D01*
X127619396Y-104697700D01*
X128143966Y-104697700D01*
X128169822Y-104700381D01*
X128178947Y-104702295D01*
X128211934Y-104698183D01*
X128219723Y-104697700D01*
X128223176Y-104697700D01*
X128223177Y-104697700D01*
X128244922Y-104694071D01*
X128296351Y-104687661D01*
X128296355Y-104687658D01*
X128303384Y-104685565D01*
X128303471Y-104685536D01*
X128303580Y-104685503D01*
X128310494Y-104683129D01*
X128310498Y-104683129D01*
X128356081Y-104658460D01*
X128402640Y-104635699D01*
X128402645Y-104635693D01*
X128408645Y-104631409D01*
X128408672Y-104631389D01*
X128408713Y-104631359D01*
X128414541Y-104626822D01*
X128414549Y-104626819D01*
X128449648Y-104588690D01*
X129138971Y-103899366D01*
X129201282Y-103865343D01*
X129272097Y-103870407D01*
X129328933Y-103912954D01*
X129353744Y-103979474D01*
X129342679Y-104040804D01*
X129304959Y-104123400D01*
X129304958Y-104123403D01*
X129304958Y-104123404D01*
X129284312Y-104267000D01*
X129304958Y-104410596D01*
X129365223Y-104542558D01*
X129460225Y-104652196D01*
X129582268Y-104730629D01*
X129721464Y-104771500D01*
X129866536Y-104771500D01*
X130005732Y-104730629D01*
X130127775Y-104652196D01*
X130222777Y-104542558D01*
X130283042Y-104410596D01*
X130303688Y-104267000D01*
X130283042Y-104123404D01*
X130222777Y-103991442D01*
X130127775Y-103881804D01*
X130127774Y-103881803D01*
X130060704Y-103838700D01*
X130005732Y-103803371D01*
X130005731Y-103803370D01*
X130005730Y-103803370D01*
X129866536Y-103762500D01*
X129721464Y-103762500D01*
X129582264Y-103803371D01*
X129578294Y-103805185D01*
X129573977Y-103805805D01*
X129573621Y-103805910D01*
X129573605Y-103805858D01*
X129508019Y-103815283D01*
X129443441Y-103785785D01*
X129405062Y-103726055D01*
X129405068Y-103655059D01*
X129436866Y-103601472D01*
X129822583Y-103215756D01*
X131150934Y-101887405D01*
X131213246Y-101853379D01*
X131240029Y-101850500D01*
X131263536Y-101850500D01*
X131402732Y-101809629D01*
X131524775Y-101731196D01*
X131619777Y-101621558D01*
X131680042Y-101489596D01*
X131700688Y-101346000D01*
X131680042Y-101202404D01*
X131619777Y-101070442D01*
X131524775Y-100960804D01*
X131524774Y-100960803D01*
X131440549Y-100906675D01*
X131402732Y-100882371D01*
X131402731Y-100882370D01*
X131402730Y-100882370D01*
X131263536Y-100841500D01*
X131118464Y-100841500D01*
X130979269Y-100882370D01*
X130979266Y-100882372D01*
X130857225Y-100960803D01*
X130762223Y-101070441D01*
X130701958Y-101202403D01*
X130701956Y-101202410D01*
X130685877Y-101314241D01*
X130656384Y-101378822D01*
X130650255Y-101385404D01*
X128432413Y-103603246D01*
X128370101Y-103637272D01*
X128299286Y-103632207D01*
X128242450Y-103589660D01*
X128228708Y-103566501D01*
X128190777Y-103483442D01*
X128147275Y-103433237D01*
X128117782Y-103368656D01*
X128116500Y-103350725D01*
X128116500Y-103196028D01*
X128136502Y-103127907D01*
X128153405Y-103106933D01*
X129499933Y-101760405D01*
X129562245Y-101726379D01*
X129589028Y-101723500D01*
X129612536Y-101723500D01*
X129751732Y-101682629D01*
X129873775Y-101604196D01*
X129968777Y-101494558D01*
X130029042Y-101362596D01*
X130049688Y-101219000D01*
X130029042Y-101075404D01*
X129968777Y-100943442D01*
X129873775Y-100833804D01*
X129873774Y-100833803D01*
X129778212Y-100772389D01*
X129751732Y-100755371D01*
X129751731Y-100755370D01*
X129751730Y-100755370D01*
X129612536Y-100714500D01*
X129467464Y-100714500D01*
X129328269Y-100755370D01*
X129328266Y-100755372D01*
X129206225Y-100833803D01*
X129111223Y-100943441D01*
X129050958Y-101075403D01*
X129050956Y-101075410D01*
X129034877Y-101187241D01*
X129005384Y-101251822D01*
X128999255Y-101258404D01*
X128990231Y-101267428D01*
X128927919Y-101301454D01*
X128857104Y-101296389D01*
X128800268Y-101253842D01*
X128776419Y-101196267D01*
X128759042Y-101075404D01*
X128698777Y-100943442D01*
X128603775Y-100833804D01*
X128603774Y-100833803D01*
X128508212Y-100772389D01*
X128481732Y-100755371D01*
X128481731Y-100755370D01*
X128481730Y-100755370D01*
X128342536Y-100714500D01*
X128197464Y-100714500D01*
X128058269Y-100755370D01*
X128058266Y-100755372D01*
X127936225Y-100833803D01*
X127835321Y-100950253D01*
X127833046Y-100948282D01*
X127822183Y-100957690D01*
X127819136Y-100991385D01*
X127816543Y-100997482D01*
X127780959Y-101075400D01*
X127780956Y-101075410D01*
X127764390Y-101190628D01*
X127734897Y-101255209D01*
X127728768Y-101261791D01*
X125791595Y-103198965D01*
X125729283Y-103232990D01*
X125658468Y-103227926D01*
X125601632Y-103185379D01*
X125576821Y-103118859D01*
X125576500Y-103109870D01*
X125576500Y-102959028D01*
X125596502Y-102890907D01*
X125613400Y-102869938D01*
X127505730Y-100977607D01*
X127525907Y-100961222D01*
X127533715Y-100956122D01*
X127554141Y-100929877D01*
X127559300Y-100924038D01*
X127561741Y-100921598D01*
X127568728Y-100911810D01*
X127574557Y-100903648D01*
X127602498Y-100867749D01*
X127617594Y-100856884D01*
X127617599Y-100834719D01*
X127617725Y-100834292D01*
X127617871Y-100833804D01*
X127627974Y-100799866D01*
X127644799Y-100750857D01*
X127644799Y-100750852D01*
X127646024Y-100743509D01*
X127646941Y-100736154D01*
X127644799Y-100684376D01*
X127644799Y-100476927D01*
X127664801Y-100408806D01*
X127681699Y-100387837D01*
X128882536Y-99187000D01*
X131316312Y-99187000D01*
X131336958Y-99330596D01*
X131397223Y-99462558D01*
X131492225Y-99572196D01*
X131614268Y-99650629D01*
X131753464Y-99691500D01*
X131898536Y-99691500D01*
X132037732Y-99650629D01*
X132159775Y-99572196D01*
X132254777Y-99462558D01*
X132315042Y-99330596D01*
X132335688Y-99187000D01*
X132315042Y-99043404D01*
X132254777Y-98911442D01*
X132159775Y-98801804D01*
X132159774Y-98801803D01*
X132097259Y-98761627D01*
X132037732Y-98723371D01*
X132037731Y-98723370D01*
X132037730Y-98723370D01*
X131898536Y-98682500D01*
X131753464Y-98682500D01*
X131614269Y-98723370D01*
X131614266Y-98723372D01*
X131492225Y-98801803D01*
X131397223Y-98911441D01*
X131338355Y-99040346D01*
X131336958Y-99043404D01*
X131316312Y-99187000D01*
X128882536Y-99187000D01*
X130517431Y-97552104D01*
X130537608Y-97535719D01*
X130545416Y-97530619D01*
X130565842Y-97504374D01*
X130571001Y-97498535D01*
X130573442Y-97496095D01*
X130586256Y-97478147D01*
X130618085Y-97437254D01*
X130618085Y-97437251D01*
X130621592Y-97430770D01*
X130621629Y-97430695D01*
X130621661Y-97430635D01*
X130624879Y-97424052D01*
X130624884Y-97424046D01*
X130639674Y-97374366D01*
X130656500Y-97325354D01*
X130656500Y-97325349D01*
X130657725Y-97318006D01*
X130658642Y-97310651D01*
X130656500Y-97258873D01*
X130656500Y-95277273D01*
X130676502Y-95209152D01*
X130687272Y-95194765D01*
X130730777Y-95144558D01*
X130730779Y-95144552D01*
X130735649Y-95136977D01*
X130737829Y-95138378D01*
X130775363Y-95095046D01*
X130843480Y-95075032D01*
X130911605Y-95095022D01*
G37*
%TD.AperFunction*%
%TA.AperFunction,Conductor*%
G36*
X129804528Y-95082975D02*
G01*
X129861364Y-95125522D01*
X129868212Y-95137065D01*
X129868351Y-95136977D01*
X129873223Y-95144558D01*
X129916724Y-95194761D01*
X129946217Y-95259340D01*
X129947500Y-95277273D01*
X129947500Y-97067169D01*
X129927498Y-97135290D01*
X129910595Y-97156264D01*
X127510383Y-99556476D01*
X127448071Y-99590502D01*
X127377256Y-99585437D01*
X127320420Y-99542890D01*
X127295609Y-99476370D01*
X127295288Y-99467381D01*
X127295288Y-97540240D01*
X127315290Y-97472119D01*
X127332188Y-97451150D01*
X129671403Y-95111934D01*
X129733713Y-95077911D01*
X129804528Y-95082975D01*
G37*
%TD.AperFunction*%
%TD*%
M02*
