%TF.GenerationSoftware,KiCad,Pcbnew,7.0.8*%
%TF.CreationDate,2024-03-21T14:52:22+01:00*%
%TF.ProjectId,so-dimm-esp32-cm,736f2d64-696d-46d2-9d65-737033322d63,REV.03*%
%TF.SameCoordinates,Original*%
%TF.FileFunction,Legend,Bot*%
%TF.FilePolarity,Positive*%
%FSLAX46Y46*%
G04 Gerber Fmt 4.6, Leading zero omitted, Abs format (unit mm)*
G04 Created by KiCad (PCBNEW 7.0.8) date 2024-03-21 14:52:22*
%MOMM*%
%LPD*%
G01*
G04 APERTURE LIST*
G04 Aperture macros list*
%AMFreePoly0*
4,1,19,0.550000,-0.750000,0.000000,-0.750000,0.000000,-0.744911,-0.071157,-0.744911,-0.207708,-0.704816,-0.327430,-0.627875,-0.420627,-0.520320,-0.479746,-0.390866,-0.500000,-0.250000,-0.500000,0.250000,-0.479746,0.390866,-0.420627,0.520320,-0.327430,0.627875,-0.207708,0.704816,-0.071157,0.744911,0.000000,0.744911,0.000000,0.750000,0.550000,0.750000,0.550000,-0.750000,0.550000,-0.750000,
$1*%
%AMFreePoly1*
4,1,19,0.000000,0.744911,0.071157,0.744911,0.207708,0.704816,0.327430,0.627875,0.420627,0.520320,0.479746,0.390866,0.500000,0.250000,0.500000,-0.250000,0.479746,-0.390866,0.420627,-0.520320,0.327430,-0.627875,0.207708,-0.704816,0.071157,-0.744911,0.000000,-0.744911,0.000000,-0.750000,-0.550000,-0.750000,-0.550000,0.750000,0.000000,0.750000,0.000000,0.744911,0.000000,0.744911,
$1*%
G04 Aperture macros list end*
%ADD10C,0.150000*%
%ADD11C,0.120000*%
%ADD12C,1.800000*%
%ADD13R,0.450000X2.300000*%
%ADD14C,0.800000*%
%ADD15C,5.400000*%
%ADD16C,1.000000*%
%ADD17FreePoly0,0.000000*%
%ADD18R,1.000000X1.500000*%
%ADD19FreePoly1,0.000000*%
G04 APERTURE END LIST*
D10*
X150876000Y-88265000D02*
X150876000Y-90678000D01*
X147701000Y-90678000D02*
X147701000Y-88265000D01*
X147701000Y-88265000D02*
X152400000Y-88265000D01*
X152400000Y-89471500D02*
X148209000Y-89471500D01*
X152400000Y-90678000D02*
X147701000Y-90678000D01*
X152400000Y-88265000D02*
X152400000Y-90678000D01*
X151666571Y-88569771D02*
X151609428Y-88569771D01*
X151609428Y-88569771D02*
X151552285Y-88598342D01*
X151552285Y-88598342D02*
X151523714Y-88626914D01*
X151523714Y-88626914D02*
X151495142Y-88684057D01*
X151495142Y-88684057D02*
X151466571Y-88798342D01*
X151466571Y-88798342D02*
X151466571Y-88941200D01*
X151466571Y-88941200D02*
X151495142Y-89055485D01*
X151495142Y-89055485D02*
X151523714Y-89112628D01*
X151523714Y-89112628D02*
X151552285Y-89141200D01*
X151552285Y-89141200D02*
X151609428Y-89169771D01*
X151609428Y-89169771D02*
X151666571Y-89169771D01*
X151666571Y-89169771D02*
X151723714Y-89141200D01*
X151723714Y-89141200D02*
X151752285Y-89112628D01*
X151752285Y-89112628D02*
X151780856Y-89055485D01*
X151780856Y-89055485D02*
X151809428Y-88941200D01*
X151809428Y-88941200D02*
X151809428Y-88798342D01*
X151809428Y-88798342D02*
X151780856Y-88684057D01*
X151780856Y-88684057D02*
X151752285Y-88626914D01*
X151752285Y-88626914D02*
X151723714Y-88598342D01*
X151723714Y-88598342D02*
X151666571Y-88569771D01*
X178257228Y-84816857D02*
X178257228Y-84445429D01*
X178257228Y-84445429D02*
X178028657Y-84645429D01*
X178028657Y-84645429D02*
X178028657Y-84559714D01*
X178028657Y-84559714D02*
X178000085Y-84502572D01*
X178000085Y-84502572D02*
X177971514Y-84474000D01*
X177971514Y-84474000D02*
X177914371Y-84445429D01*
X177914371Y-84445429D02*
X177771514Y-84445429D01*
X177771514Y-84445429D02*
X177714371Y-84474000D01*
X177714371Y-84474000D02*
X177685800Y-84502572D01*
X177685800Y-84502572D02*
X177657228Y-84559714D01*
X177657228Y-84559714D02*
X177657228Y-84731143D01*
X177657228Y-84731143D02*
X177685800Y-84788286D01*
X177685800Y-84788286D02*
X177714371Y-84816857D01*
X178257228Y-84274000D02*
X177657228Y-84074000D01*
X177657228Y-84074000D02*
X178257228Y-83874000D01*
X178257228Y-83731142D02*
X178257228Y-83359714D01*
X178257228Y-83359714D02*
X178028657Y-83559714D01*
X178028657Y-83559714D02*
X178028657Y-83473999D01*
X178028657Y-83473999D02*
X178000085Y-83416857D01*
X178000085Y-83416857D02*
X177971514Y-83388285D01*
X177971514Y-83388285D02*
X177914371Y-83359714D01*
X177914371Y-83359714D02*
X177771514Y-83359714D01*
X177771514Y-83359714D02*
X177714371Y-83388285D01*
X177714371Y-83388285D02*
X177685800Y-83416857D01*
X177685800Y-83416857D02*
X177657228Y-83473999D01*
X177657228Y-83473999D02*
X177657228Y-83645428D01*
X177657228Y-83645428D02*
X177685800Y-83702571D01*
X177685800Y-83702571D02*
X177714371Y-83731142D01*
X150467856Y-90312771D02*
X150467856Y-89712771D01*
X150210714Y-89769914D02*
X150182142Y-89741342D01*
X150182142Y-89741342D02*
X150125000Y-89712771D01*
X150125000Y-89712771D02*
X149982142Y-89712771D01*
X149982142Y-89712771D02*
X149925000Y-89741342D01*
X149925000Y-89741342D02*
X149896428Y-89769914D01*
X149896428Y-89769914D02*
X149867857Y-89827057D01*
X149867857Y-89827057D02*
X149867857Y-89884200D01*
X149867857Y-89884200D02*
X149896428Y-89969914D01*
X149896428Y-89969914D02*
X150239285Y-90312771D01*
X150239285Y-90312771D02*
X149867857Y-90312771D01*
X149267856Y-90255628D02*
X149296428Y-90284200D01*
X149296428Y-90284200D02*
X149382142Y-90312771D01*
X149382142Y-90312771D02*
X149439285Y-90312771D01*
X149439285Y-90312771D02*
X149524999Y-90284200D01*
X149524999Y-90284200D02*
X149582142Y-90227057D01*
X149582142Y-90227057D02*
X149610713Y-90169914D01*
X149610713Y-90169914D02*
X149639285Y-90055628D01*
X149639285Y-90055628D02*
X149639285Y-89969914D01*
X149639285Y-89969914D02*
X149610713Y-89855628D01*
X149610713Y-89855628D02*
X149582142Y-89798485D01*
X149582142Y-89798485D02*
X149524999Y-89741342D01*
X149524999Y-89741342D02*
X149439285Y-89712771D01*
X149439285Y-89712771D02*
X149382142Y-89712771D01*
X149382142Y-89712771D02*
X149296428Y-89741342D01*
X149296428Y-89741342D02*
X149267856Y-89769914D01*
X149010713Y-90084200D02*
X148553571Y-90084200D01*
X147953571Y-90312771D02*
X148296428Y-90312771D01*
X148124999Y-90312771D02*
X148124999Y-89712771D01*
X148124999Y-89712771D02*
X148182142Y-89798485D01*
X148182142Y-89798485D02*
X148239285Y-89855628D01*
X148239285Y-89855628D02*
X148296428Y-89884200D01*
X129203514Y-84897856D02*
X129203514Y-84697856D01*
X128889228Y-84612142D02*
X128889228Y-84897856D01*
X128889228Y-84897856D02*
X129489228Y-84897856D01*
X129489228Y-84897856D02*
X129489228Y-84612142D01*
X128889228Y-84354999D02*
X129489228Y-84354999D01*
X129489228Y-84354999D02*
X128889228Y-84012142D01*
X128889228Y-84012142D02*
X129489228Y-84012142D01*
X151466571Y-90312771D02*
X151809428Y-90312771D01*
X151637999Y-90312771D02*
X151637999Y-89712771D01*
X151637999Y-89712771D02*
X151695142Y-89798485D01*
X151695142Y-89798485D02*
X151752285Y-89855628D01*
X151752285Y-89855628D02*
X151809428Y-89884200D01*
X175942657Y-84531142D02*
X175971228Y-84588285D01*
X175971228Y-84588285D02*
X175971228Y-84673999D01*
X175971228Y-84673999D02*
X175942657Y-84759713D01*
X175942657Y-84759713D02*
X175885514Y-84816856D01*
X175885514Y-84816856D02*
X175828371Y-84845427D01*
X175828371Y-84845427D02*
X175714085Y-84873999D01*
X175714085Y-84873999D02*
X175628371Y-84873999D01*
X175628371Y-84873999D02*
X175514085Y-84845427D01*
X175514085Y-84845427D02*
X175456942Y-84816856D01*
X175456942Y-84816856D02*
X175399800Y-84759713D01*
X175399800Y-84759713D02*
X175371228Y-84673999D01*
X175371228Y-84673999D02*
X175371228Y-84616856D01*
X175371228Y-84616856D02*
X175399800Y-84531142D01*
X175399800Y-84531142D02*
X175428371Y-84502570D01*
X175428371Y-84502570D02*
X175628371Y-84502570D01*
X175628371Y-84502570D02*
X175628371Y-84616856D01*
X175371228Y-84245427D02*
X175971228Y-84245427D01*
X175971228Y-84245427D02*
X175371228Y-83902570D01*
X175371228Y-83902570D02*
X175971228Y-83902570D01*
X175371228Y-83616856D02*
X175971228Y-83616856D01*
X175971228Y-83616856D02*
X175971228Y-83473999D01*
X175971228Y-83473999D02*
X175942657Y-83388285D01*
X175942657Y-83388285D02*
X175885514Y-83331142D01*
X175885514Y-83331142D02*
X175828371Y-83302571D01*
X175828371Y-83302571D02*
X175714085Y-83273999D01*
X175714085Y-83273999D02*
X175628371Y-83273999D01*
X175628371Y-83273999D02*
X175514085Y-83302571D01*
X175514085Y-83302571D02*
X175456942Y-83331142D01*
X175456942Y-83331142D02*
X175399800Y-83388285D01*
X175399800Y-83388285D02*
X175371228Y-83473999D01*
X175371228Y-83473999D02*
X175371228Y-83616856D01*
X141998800Y-84947000D02*
X141970228Y-84861286D01*
X141970228Y-84861286D02*
X141970228Y-84718428D01*
X141970228Y-84718428D02*
X141998800Y-84661286D01*
X141998800Y-84661286D02*
X142027371Y-84632714D01*
X142027371Y-84632714D02*
X142084514Y-84604143D01*
X142084514Y-84604143D02*
X142141657Y-84604143D01*
X142141657Y-84604143D02*
X142198800Y-84632714D01*
X142198800Y-84632714D02*
X142227371Y-84661286D01*
X142227371Y-84661286D02*
X142255942Y-84718428D01*
X142255942Y-84718428D02*
X142284514Y-84832714D01*
X142284514Y-84832714D02*
X142313085Y-84889857D01*
X142313085Y-84889857D02*
X142341657Y-84918428D01*
X142341657Y-84918428D02*
X142398800Y-84947000D01*
X142398800Y-84947000D02*
X142455942Y-84947000D01*
X142455942Y-84947000D02*
X142513085Y-84918428D01*
X142513085Y-84918428D02*
X142541657Y-84889857D01*
X142541657Y-84889857D02*
X142570228Y-84832714D01*
X142570228Y-84832714D02*
X142570228Y-84689857D01*
X142570228Y-84689857D02*
X142541657Y-84604143D01*
X142027371Y-84004142D02*
X141998800Y-84032714D01*
X141998800Y-84032714D02*
X141970228Y-84118428D01*
X141970228Y-84118428D02*
X141970228Y-84175571D01*
X141970228Y-84175571D02*
X141998800Y-84261285D01*
X141998800Y-84261285D02*
X142055942Y-84318428D01*
X142055942Y-84318428D02*
X142113085Y-84346999D01*
X142113085Y-84346999D02*
X142227371Y-84375571D01*
X142227371Y-84375571D02*
X142313085Y-84375571D01*
X142313085Y-84375571D02*
X142427371Y-84346999D01*
X142427371Y-84346999D02*
X142484514Y-84318428D01*
X142484514Y-84318428D02*
X142541657Y-84261285D01*
X142541657Y-84261285D02*
X142570228Y-84175571D01*
X142570228Y-84175571D02*
X142570228Y-84118428D01*
X142570228Y-84118428D02*
X142541657Y-84032714D01*
X142541657Y-84032714D02*
X142513085Y-84004142D01*
X141970228Y-83461285D02*
X141970228Y-83746999D01*
X141970228Y-83746999D02*
X142570228Y-83746999D01*
X141970228Y-82947000D02*
X141970228Y-83289857D01*
X141970228Y-83118428D02*
X142570228Y-83118428D01*
X142570228Y-83118428D02*
X142484514Y-83175571D01*
X142484514Y-83175571D02*
X142427371Y-83232714D01*
X142427371Y-83232714D02*
X142398800Y-83289857D01*
X137680800Y-84947000D02*
X137652228Y-84861286D01*
X137652228Y-84861286D02*
X137652228Y-84718428D01*
X137652228Y-84718428D02*
X137680800Y-84661286D01*
X137680800Y-84661286D02*
X137709371Y-84632714D01*
X137709371Y-84632714D02*
X137766514Y-84604143D01*
X137766514Y-84604143D02*
X137823657Y-84604143D01*
X137823657Y-84604143D02*
X137880800Y-84632714D01*
X137880800Y-84632714D02*
X137909371Y-84661286D01*
X137909371Y-84661286D02*
X137937942Y-84718428D01*
X137937942Y-84718428D02*
X137966514Y-84832714D01*
X137966514Y-84832714D02*
X137995085Y-84889857D01*
X137995085Y-84889857D02*
X138023657Y-84918428D01*
X138023657Y-84918428D02*
X138080800Y-84947000D01*
X138080800Y-84947000D02*
X138137942Y-84947000D01*
X138137942Y-84947000D02*
X138195085Y-84918428D01*
X138195085Y-84918428D02*
X138223657Y-84889857D01*
X138223657Y-84889857D02*
X138252228Y-84832714D01*
X138252228Y-84832714D02*
X138252228Y-84689857D01*
X138252228Y-84689857D02*
X138223657Y-84604143D01*
X137709371Y-84004142D02*
X137680800Y-84032714D01*
X137680800Y-84032714D02*
X137652228Y-84118428D01*
X137652228Y-84118428D02*
X137652228Y-84175571D01*
X137652228Y-84175571D02*
X137680800Y-84261285D01*
X137680800Y-84261285D02*
X137737942Y-84318428D01*
X137737942Y-84318428D02*
X137795085Y-84346999D01*
X137795085Y-84346999D02*
X137909371Y-84375571D01*
X137909371Y-84375571D02*
X137995085Y-84375571D01*
X137995085Y-84375571D02*
X138109371Y-84346999D01*
X138109371Y-84346999D02*
X138166514Y-84318428D01*
X138166514Y-84318428D02*
X138223657Y-84261285D01*
X138223657Y-84261285D02*
X138252228Y-84175571D01*
X138252228Y-84175571D02*
X138252228Y-84118428D01*
X138252228Y-84118428D02*
X138223657Y-84032714D01*
X138223657Y-84032714D02*
X138195085Y-84004142D01*
X137652228Y-83461285D02*
X137652228Y-83746999D01*
X137652228Y-83746999D02*
X138252228Y-83746999D01*
X138252228Y-83147000D02*
X138252228Y-83089857D01*
X138252228Y-83089857D02*
X138223657Y-83032714D01*
X138223657Y-83032714D02*
X138195085Y-83004143D01*
X138195085Y-83004143D02*
X138137942Y-82975571D01*
X138137942Y-82975571D02*
X138023657Y-82947000D01*
X138023657Y-82947000D02*
X137880800Y-82947000D01*
X137880800Y-82947000D02*
X137766514Y-82975571D01*
X137766514Y-82975571D02*
X137709371Y-83004143D01*
X137709371Y-83004143D02*
X137680800Y-83032714D01*
X137680800Y-83032714D02*
X137652228Y-83089857D01*
X137652228Y-83089857D02*
X137652228Y-83147000D01*
X137652228Y-83147000D02*
X137680800Y-83204143D01*
X137680800Y-83204143D02*
X137709371Y-83232714D01*
X137709371Y-83232714D02*
X137766514Y-83261285D01*
X137766514Y-83261285D02*
X137880800Y-83289857D01*
X137880800Y-83289857D02*
X138023657Y-83289857D01*
X138023657Y-83289857D02*
X138137942Y-83261285D01*
X138137942Y-83261285D02*
X138195085Y-83232714D01*
X138195085Y-83232714D02*
X138223657Y-83204143D01*
X138223657Y-83204143D02*
X138252228Y-83147000D01*
X156546571Y-86121771D02*
X156889428Y-86121771D01*
X156717999Y-86121771D02*
X156717999Y-85521771D01*
X156717999Y-85521771D02*
X156775142Y-85607485D01*
X156775142Y-85607485D02*
X156832285Y-85664628D01*
X156832285Y-85664628D02*
X156889428Y-85693200D01*
X135521800Y-84961286D02*
X135493228Y-84875572D01*
X135493228Y-84875572D02*
X135493228Y-84732714D01*
X135493228Y-84732714D02*
X135521800Y-84675572D01*
X135521800Y-84675572D02*
X135550371Y-84647000D01*
X135550371Y-84647000D02*
X135607514Y-84618429D01*
X135607514Y-84618429D02*
X135664657Y-84618429D01*
X135664657Y-84618429D02*
X135721800Y-84647000D01*
X135721800Y-84647000D02*
X135750371Y-84675572D01*
X135750371Y-84675572D02*
X135778942Y-84732714D01*
X135778942Y-84732714D02*
X135807514Y-84847000D01*
X135807514Y-84847000D02*
X135836085Y-84904143D01*
X135836085Y-84904143D02*
X135864657Y-84932714D01*
X135864657Y-84932714D02*
X135921800Y-84961286D01*
X135921800Y-84961286D02*
X135978942Y-84961286D01*
X135978942Y-84961286D02*
X136036085Y-84932714D01*
X136036085Y-84932714D02*
X136064657Y-84904143D01*
X136064657Y-84904143D02*
X136093228Y-84847000D01*
X136093228Y-84847000D02*
X136093228Y-84704143D01*
X136093228Y-84704143D02*
X136064657Y-84618429D01*
X135493228Y-84361285D02*
X136093228Y-84361285D01*
X136093228Y-84361285D02*
X136093228Y-84218428D01*
X136093228Y-84218428D02*
X136064657Y-84132714D01*
X136064657Y-84132714D02*
X136007514Y-84075571D01*
X136007514Y-84075571D02*
X135950371Y-84047000D01*
X135950371Y-84047000D02*
X135836085Y-84018428D01*
X135836085Y-84018428D02*
X135750371Y-84018428D01*
X135750371Y-84018428D02*
X135636085Y-84047000D01*
X135636085Y-84047000D02*
X135578942Y-84075571D01*
X135578942Y-84075571D02*
X135521800Y-84132714D01*
X135521800Y-84132714D02*
X135493228Y-84218428D01*
X135493228Y-84218428D02*
X135493228Y-84361285D01*
X135664657Y-83789857D02*
X135664657Y-83504143D01*
X135493228Y-83847000D02*
X136093228Y-83647000D01*
X136093228Y-83647000D02*
X135493228Y-83447000D01*
X136093228Y-83132714D02*
X136093228Y-83075571D01*
X136093228Y-83075571D02*
X136064657Y-83018428D01*
X136064657Y-83018428D02*
X136036085Y-82989857D01*
X136036085Y-82989857D02*
X135978942Y-82961285D01*
X135978942Y-82961285D02*
X135864657Y-82932714D01*
X135864657Y-82932714D02*
X135721800Y-82932714D01*
X135721800Y-82932714D02*
X135607514Y-82961285D01*
X135607514Y-82961285D02*
X135550371Y-82989857D01*
X135550371Y-82989857D02*
X135521800Y-83018428D01*
X135521800Y-83018428D02*
X135493228Y-83075571D01*
X135493228Y-83075571D02*
X135493228Y-83132714D01*
X135493228Y-83132714D02*
X135521800Y-83189857D01*
X135521800Y-83189857D02*
X135550371Y-83218428D01*
X135550371Y-83218428D02*
X135607514Y-83246999D01*
X135607514Y-83246999D02*
X135721800Y-83275571D01*
X135721800Y-83275571D02*
X135864657Y-83275571D01*
X135864657Y-83275571D02*
X135978942Y-83246999D01*
X135978942Y-83246999D02*
X136036085Y-83218428D01*
X136036085Y-83218428D02*
X136064657Y-83189857D01*
X136064657Y-83189857D02*
X136093228Y-83132714D01*
X155476571Y-91490771D02*
X155419428Y-91490771D01*
X155419428Y-91490771D02*
X155362285Y-91519342D01*
X155362285Y-91519342D02*
X155333714Y-91547914D01*
X155333714Y-91547914D02*
X155305142Y-91605057D01*
X155305142Y-91605057D02*
X155276571Y-91719342D01*
X155276571Y-91719342D02*
X155276571Y-91862200D01*
X155276571Y-91862200D02*
X155305142Y-91976485D01*
X155305142Y-91976485D02*
X155333714Y-92033628D01*
X155333714Y-92033628D02*
X155362285Y-92062200D01*
X155362285Y-92062200D02*
X155419428Y-92090771D01*
X155419428Y-92090771D02*
X155476571Y-92090771D01*
X155476571Y-92090771D02*
X155533714Y-92062200D01*
X155533714Y-92062200D02*
X155562285Y-92033628D01*
X155562285Y-92033628D02*
X155590856Y-91976485D01*
X155590856Y-91976485D02*
X155619428Y-91862200D01*
X155619428Y-91862200D02*
X155619428Y-91719342D01*
X155619428Y-91719342D02*
X155590856Y-91605057D01*
X155590856Y-91605057D02*
X155562285Y-91547914D01*
X155562285Y-91547914D02*
X155533714Y-91519342D01*
X155533714Y-91519342D02*
X155476571Y-91490771D01*
X131775228Y-84947000D02*
X131775228Y-84604143D01*
X131175228Y-84775571D02*
X131775228Y-84775571D01*
X131175228Y-84461285D02*
X131575228Y-84147000D01*
X131575228Y-84461285D02*
X131175228Y-84147000D01*
X131175228Y-83918428D02*
X131775228Y-83918428D01*
X131775228Y-83918428D02*
X131775228Y-83775571D01*
X131775228Y-83775571D02*
X131746657Y-83689857D01*
X131746657Y-83689857D02*
X131689514Y-83632714D01*
X131689514Y-83632714D02*
X131632371Y-83604143D01*
X131632371Y-83604143D02*
X131518085Y-83575571D01*
X131518085Y-83575571D02*
X131432371Y-83575571D01*
X131432371Y-83575571D02*
X131318085Y-83604143D01*
X131318085Y-83604143D02*
X131260942Y-83632714D01*
X131260942Y-83632714D02*
X131203800Y-83689857D01*
X131203800Y-83689857D02*
X131175228Y-83775571D01*
X131175228Y-83775571D02*
X131175228Y-83918428D01*
X131775228Y-83204143D02*
X131775228Y-83147000D01*
X131775228Y-83147000D02*
X131746657Y-83089857D01*
X131746657Y-83089857D02*
X131718085Y-83061286D01*
X131718085Y-83061286D02*
X131660942Y-83032714D01*
X131660942Y-83032714D02*
X131546657Y-83004143D01*
X131546657Y-83004143D02*
X131403800Y-83004143D01*
X131403800Y-83004143D02*
X131289514Y-83032714D01*
X131289514Y-83032714D02*
X131232371Y-83061286D01*
X131232371Y-83061286D02*
X131203800Y-83089857D01*
X131203800Y-83089857D02*
X131175228Y-83147000D01*
X131175228Y-83147000D02*
X131175228Y-83204143D01*
X131175228Y-83204143D02*
X131203800Y-83261286D01*
X131203800Y-83261286D02*
X131232371Y-83289857D01*
X131232371Y-83289857D02*
X131289514Y-83318428D01*
X131289514Y-83318428D02*
X131403800Y-83347000D01*
X131403800Y-83347000D02*
X131546657Y-83347000D01*
X131546657Y-83347000D02*
X131660942Y-83318428D01*
X131660942Y-83318428D02*
X131718085Y-83289857D01*
X131718085Y-83289857D02*
X131746657Y-83261286D01*
X131746657Y-83261286D02*
X131775228Y-83204143D01*
X156546571Y-92090771D02*
X156889428Y-92090771D01*
X156717999Y-92090771D02*
X156717999Y-91490771D01*
X156717999Y-91490771D02*
X156775142Y-91576485D01*
X156775142Y-91576485D02*
X156832285Y-91633628D01*
X156832285Y-91633628D02*
X156889428Y-91662200D01*
X147411999Y-78247771D02*
X147411999Y-77647771D01*
X147012000Y-77647771D02*
X146897714Y-77647771D01*
X146897714Y-77647771D02*
X146840571Y-77676342D01*
X146840571Y-77676342D02*
X146783428Y-77733485D01*
X146783428Y-77733485D02*
X146754857Y-77847771D01*
X146754857Y-77847771D02*
X146754857Y-78047771D01*
X146754857Y-78047771D02*
X146783428Y-78162057D01*
X146783428Y-78162057D02*
X146840571Y-78219200D01*
X146840571Y-78219200D02*
X146897714Y-78247771D01*
X146897714Y-78247771D02*
X147012000Y-78247771D01*
X147012000Y-78247771D02*
X147069143Y-78219200D01*
X147069143Y-78219200D02*
X147126285Y-78162057D01*
X147126285Y-78162057D02*
X147154857Y-78047771D01*
X147154857Y-78047771D02*
X147154857Y-77847771D01*
X147154857Y-77847771D02*
X147126285Y-77733485D01*
X147126285Y-77733485D02*
X147069143Y-77676342D01*
X147069143Y-77676342D02*
X147012000Y-77647771D01*
X146383429Y-77647771D02*
X146326286Y-77647771D01*
X146326286Y-77647771D02*
X146269143Y-77676342D01*
X146269143Y-77676342D02*
X146240572Y-77704914D01*
X146240572Y-77704914D02*
X146212000Y-77762057D01*
X146212000Y-77762057D02*
X146183429Y-77876342D01*
X146183429Y-77876342D02*
X146183429Y-78019200D01*
X146183429Y-78019200D02*
X146212000Y-78133485D01*
X146212000Y-78133485D02*
X146240572Y-78190628D01*
X146240572Y-78190628D02*
X146269143Y-78219200D01*
X146269143Y-78219200D02*
X146326286Y-78247771D01*
X146326286Y-78247771D02*
X146383429Y-78247771D01*
X146383429Y-78247771D02*
X146440572Y-78219200D01*
X146440572Y-78219200D02*
X146469143Y-78190628D01*
X146469143Y-78190628D02*
X146497714Y-78133485D01*
X146497714Y-78133485D02*
X146526286Y-78019200D01*
X146526286Y-78019200D02*
X146526286Y-77876342D01*
X146526286Y-77876342D02*
X146497714Y-77762057D01*
X146497714Y-77762057D02*
X146469143Y-77704914D01*
X146469143Y-77704914D02*
X146440572Y-77676342D01*
X146440572Y-77676342D02*
X146383429Y-77647771D01*
X139839800Y-84961286D02*
X139811228Y-84875572D01*
X139811228Y-84875572D02*
X139811228Y-84732714D01*
X139811228Y-84732714D02*
X139839800Y-84675572D01*
X139839800Y-84675572D02*
X139868371Y-84647000D01*
X139868371Y-84647000D02*
X139925514Y-84618429D01*
X139925514Y-84618429D02*
X139982657Y-84618429D01*
X139982657Y-84618429D02*
X140039800Y-84647000D01*
X140039800Y-84647000D02*
X140068371Y-84675572D01*
X140068371Y-84675572D02*
X140096942Y-84732714D01*
X140096942Y-84732714D02*
X140125514Y-84847000D01*
X140125514Y-84847000D02*
X140154085Y-84904143D01*
X140154085Y-84904143D02*
X140182657Y-84932714D01*
X140182657Y-84932714D02*
X140239800Y-84961286D01*
X140239800Y-84961286D02*
X140296942Y-84961286D01*
X140296942Y-84961286D02*
X140354085Y-84932714D01*
X140354085Y-84932714D02*
X140382657Y-84904143D01*
X140382657Y-84904143D02*
X140411228Y-84847000D01*
X140411228Y-84847000D02*
X140411228Y-84704143D01*
X140411228Y-84704143D02*
X140382657Y-84618429D01*
X139811228Y-84361285D02*
X140411228Y-84361285D01*
X140411228Y-84361285D02*
X140411228Y-84218428D01*
X140411228Y-84218428D02*
X140382657Y-84132714D01*
X140382657Y-84132714D02*
X140325514Y-84075571D01*
X140325514Y-84075571D02*
X140268371Y-84047000D01*
X140268371Y-84047000D02*
X140154085Y-84018428D01*
X140154085Y-84018428D02*
X140068371Y-84018428D01*
X140068371Y-84018428D02*
X139954085Y-84047000D01*
X139954085Y-84047000D02*
X139896942Y-84075571D01*
X139896942Y-84075571D02*
X139839800Y-84132714D01*
X139839800Y-84132714D02*
X139811228Y-84218428D01*
X139811228Y-84218428D02*
X139811228Y-84361285D01*
X139982657Y-83789857D02*
X139982657Y-83504143D01*
X139811228Y-83847000D02*
X140411228Y-83647000D01*
X140411228Y-83647000D02*
X139811228Y-83447000D01*
X139811228Y-82932714D02*
X139811228Y-83275571D01*
X139811228Y-83104142D02*
X140411228Y-83104142D01*
X140411228Y-83104142D02*
X140325514Y-83161285D01*
X140325514Y-83161285D02*
X140268371Y-83218428D01*
X140268371Y-83218428D02*
X140239800Y-83275571D01*
X133334228Y-84589856D02*
X133619942Y-84789856D01*
X133334228Y-84932713D02*
X133934228Y-84932713D01*
X133934228Y-84932713D02*
X133934228Y-84704142D01*
X133934228Y-84704142D02*
X133905657Y-84646999D01*
X133905657Y-84646999D02*
X133877085Y-84618428D01*
X133877085Y-84618428D02*
X133819942Y-84589856D01*
X133819942Y-84589856D02*
X133734228Y-84589856D01*
X133734228Y-84589856D02*
X133677085Y-84618428D01*
X133677085Y-84618428D02*
X133648514Y-84646999D01*
X133648514Y-84646999D02*
X133619942Y-84704142D01*
X133619942Y-84704142D02*
X133619942Y-84932713D01*
X133334228Y-84389856D02*
X133734228Y-84075571D01*
X133734228Y-84389856D02*
X133334228Y-84075571D01*
X133334228Y-83846999D02*
X133934228Y-83846999D01*
X133934228Y-83846999D02*
X133934228Y-83704142D01*
X133934228Y-83704142D02*
X133905657Y-83618428D01*
X133905657Y-83618428D02*
X133848514Y-83561285D01*
X133848514Y-83561285D02*
X133791371Y-83532714D01*
X133791371Y-83532714D02*
X133677085Y-83504142D01*
X133677085Y-83504142D02*
X133591371Y-83504142D01*
X133591371Y-83504142D02*
X133477085Y-83532714D01*
X133477085Y-83532714D02*
X133419942Y-83561285D01*
X133419942Y-83561285D02*
X133362800Y-83618428D01*
X133362800Y-83618428D02*
X133334228Y-83704142D01*
X133334228Y-83704142D02*
X133334228Y-83846999D01*
X133934228Y-83132714D02*
X133934228Y-83075571D01*
X133934228Y-83075571D02*
X133905657Y-83018428D01*
X133905657Y-83018428D02*
X133877085Y-82989857D01*
X133877085Y-82989857D02*
X133819942Y-82961285D01*
X133819942Y-82961285D02*
X133705657Y-82932714D01*
X133705657Y-82932714D02*
X133562800Y-82932714D01*
X133562800Y-82932714D02*
X133448514Y-82961285D01*
X133448514Y-82961285D02*
X133391371Y-82989857D01*
X133391371Y-82989857D02*
X133362800Y-83018428D01*
X133362800Y-83018428D02*
X133334228Y-83075571D01*
X133334228Y-83075571D02*
X133334228Y-83132714D01*
X133334228Y-83132714D02*
X133362800Y-83189857D01*
X133362800Y-83189857D02*
X133391371Y-83218428D01*
X133391371Y-83218428D02*
X133448514Y-83246999D01*
X133448514Y-83246999D02*
X133562800Y-83275571D01*
X133562800Y-83275571D02*
X133705657Y-83275571D01*
X133705657Y-83275571D02*
X133819942Y-83246999D01*
X133819942Y-83246999D02*
X133877085Y-83218428D01*
X133877085Y-83218428D02*
X133905657Y-83189857D01*
X133905657Y-83189857D02*
X133934228Y-83132714D01*
X155603571Y-85521771D02*
X155546428Y-85521771D01*
X155546428Y-85521771D02*
X155489285Y-85550342D01*
X155489285Y-85550342D02*
X155460714Y-85578914D01*
X155460714Y-85578914D02*
X155432142Y-85636057D01*
X155432142Y-85636057D02*
X155403571Y-85750342D01*
X155403571Y-85750342D02*
X155403571Y-85893200D01*
X155403571Y-85893200D02*
X155432142Y-86007485D01*
X155432142Y-86007485D02*
X155460714Y-86064628D01*
X155460714Y-86064628D02*
X155489285Y-86093200D01*
X155489285Y-86093200D02*
X155546428Y-86121771D01*
X155546428Y-86121771D02*
X155603571Y-86121771D01*
X155603571Y-86121771D02*
X155660714Y-86093200D01*
X155660714Y-86093200D02*
X155689285Y-86064628D01*
X155689285Y-86064628D02*
X155717856Y-86007485D01*
X155717856Y-86007485D02*
X155746428Y-85893200D01*
X155746428Y-85893200D02*
X155746428Y-85750342D01*
X155746428Y-85750342D02*
X155717856Y-85636057D01*
X155717856Y-85636057D02*
X155689285Y-85578914D01*
X155689285Y-85578914D02*
X155660714Y-85550342D01*
X155660714Y-85550342D02*
X155603571Y-85521771D01*
X150467856Y-89169771D02*
X150467856Y-88569771D01*
X150210714Y-88626914D02*
X150182142Y-88598342D01*
X150182142Y-88598342D02*
X150125000Y-88569771D01*
X150125000Y-88569771D02*
X149982142Y-88569771D01*
X149982142Y-88569771D02*
X149925000Y-88598342D01*
X149925000Y-88598342D02*
X149896428Y-88626914D01*
X149896428Y-88626914D02*
X149867857Y-88684057D01*
X149867857Y-88684057D02*
X149867857Y-88741200D01*
X149867857Y-88741200D02*
X149896428Y-88826914D01*
X149896428Y-88826914D02*
X150239285Y-89169771D01*
X150239285Y-89169771D02*
X149867857Y-89169771D01*
X149267856Y-89112628D02*
X149296428Y-89141200D01*
X149296428Y-89141200D02*
X149382142Y-89169771D01*
X149382142Y-89169771D02*
X149439285Y-89169771D01*
X149439285Y-89169771D02*
X149524999Y-89141200D01*
X149524999Y-89141200D02*
X149582142Y-89084057D01*
X149582142Y-89084057D02*
X149610713Y-89026914D01*
X149610713Y-89026914D02*
X149639285Y-88912628D01*
X149639285Y-88912628D02*
X149639285Y-88826914D01*
X149639285Y-88826914D02*
X149610713Y-88712628D01*
X149610713Y-88712628D02*
X149582142Y-88655485D01*
X149582142Y-88655485D02*
X149524999Y-88598342D01*
X149524999Y-88598342D02*
X149439285Y-88569771D01*
X149439285Y-88569771D02*
X149382142Y-88569771D01*
X149382142Y-88569771D02*
X149296428Y-88598342D01*
X149296428Y-88598342D02*
X149267856Y-88626914D01*
X149010713Y-88941200D02*
X148553571Y-88941200D01*
X148153571Y-88569771D02*
X148096428Y-88569771D01*
X148096428Y-88569771D02*
X148039285Y-88598342D01*
X148039285Y-88598342D02*
X148010714Y-88626914D01*
X148010714Y-88626914D02*
X147982142Y-88684057D01*
X147982142Y-88684057D02*
X147953571Y-88798342D01*
X147953571Y-88798342D02*
X147953571Y-88941200D01*
X147953571Y-88941200D02*
X147982142Y-89055485D01*
X147982142Y-89055485D02*
X148010714Y-89112628D01*
X148010714Y-89112628D02*
X148039285Y-89141200D01*
X148039285Y-89141200D02*
X148096428Y-89169771D01*
X148096428Y-89169771D02*
X148153571Y-89169771D01*
X148153571Y-89169771D02*
X148210714Y-89141200D01*
X148210714Y-89141200D02*
X148239285Y-89112628D01*
X148239285Y-89112628D02*
X148267856Y-89055485D01*
X148267856Y-89055485D02*
X148296428Y-88941200D01*
X148296428Y-88941200D02*
X148296428Y-88798342D01*
X148296428Y-88798342D02*
X148267856Y-88684057D01*
X148267856Y-88684057D02*
X148239285Y-88626914D01*
X148239285Y-88626914D02*
X148210714Y-88598342D01*
X148210714Y-88598342D02*
X148153571Y-88569771D01*
D11*
%TO.C,TP4*%
X132145000Y-86233000D02*
G75*
G03*
X132145000Y-86233000I-700000J0D01*
G01*
%TO.C,TP10*%
X136463000Y-86233000D02*
G75*
G03*
X136463000Y-86233000I-700000J0D01*
G01*
%TO.C,TP2*%
X147512000Y-79502000D02*
G75*
G03*
X147512000Y-79502000I-700000J0D01*
G01*
%TO.C,TP13*%
X142940000Y-86233000D02*
G75*
G03*
X142940000Y-86233000I-700000J0D01*
G01*
%TO.C,TP8*%
X178702257Y-86233000D02*
G75*
G03*
X178702257Y-86233000I-700000J0D01*
G01*
%TO.C,TP11*%
X138622000Y-86233000D02*
G75*
G03*
X138622000Y-86233000I-700000J0D01*
G01*
%TO.C,TP6*%
X176468000Y-86233000D02*
G75*
G03*
X176468000Y-86233000I-700000J0D01*
G01*
%TO.C,TP3*%
X134304000Y-86233000D02*
G75*
G03*
X134304000Y-86233000I-700000J0D01*
G01*
%TO.C,JP1*%
X154033000Y-89870000D02*
X154033000Y-90470000D01*
X154583000Y-88670000D02*
X155183000Y-88670000D01*
X154683000Y-91170000D02*
X157483000Y-91170000D01*
X154883000Y-88970000D02*
X154583000Y-88670000D01*
X154883000Y-88970000D02*
X155183000Y-88670000D01*
X157483000Y-89170000D02*
X154683000Y-89170000D01*
X158133000Y-90470000D02*
X158133000Y-89870000D01*
X154733000Y-89170000D02*
G75*
G03*
X154033000Y-89870000I-1J-699999D01*
G01*
X154033000Y-90470000D02*
G75*
G03*
X154733000Y-91170000I699999J-1D01*
G01*
X158133000Y-89870000D02*
G75*
G03*
X157433000Y-89170000I-700000J0D01*
G01*
X157433000Y-91170000D02*
G75*
G03*
X158133000Y-90470000I0J700000D01*
G01*
%TO.C,JP2*%
X154033000Y-87203000D02*
X154033000Y-87803000D01*
X154583000Y-86003000D02*
X155183000Y-86003000D01*
X154683000Y-88503000D02*
X157483000Y-88503000D01*
X154883000Y-86303000D02*
X154583000Y-86003000D01*
X154883000Y-86303000D02*
X155183000Y-86003000D01*
X157483000Y-86503000D02*
X154683000Y-86503000D01*
X158133000Y-87803000D02*
X158133000Y-87203000D01*
X154733000Y-86503000D02*
G75*
G03*
X154033000Y-87203000I-1J-699999D01*
G01*
X154033000Y-87803000D02*
G75*
G03*
X154733000Y-88503000I699999J-1D01*
G01*
X158133000Y-87203000D02*
G75*
G03*
X157433000Y-86503000I-700000J0D01*
G01*
X157433000Y-88503000D02*
G75*
G03*
X158133000Y-87803000I0J700000D01*
G01*
%TO.C,TP1*%
X129986000Y-86233000D02*
G75*
G03*
X129986000Y-86233000I-700000J0D01*
G01*
%TO.C,TP12*%
X140781000Y-86233000D02*
G75*
G03*
X140781000Y-86233000I-700000J0D01*
G01*
%TD*%
%LPC*%
D12*
%TO.C,J1*%
X117350000Y-102080000D03*
X180950000Y-102080000D03*
D13*
X117850000Y-106680000D03*
X118450000Y-106680000D03*
X119050000Y-106680000D03*
X119650000Y-106680000D03*
X120250000Y-106680000D03*
X120850000Y-106680000D03*
X121450000Y-106680000D03*
X122050000Y-106680000D03*
X122650000Y-106680000D03*
X123250000Y-106680000D03*
X123850000Y-106680000D03*
X124450000Y-106680000D03*
X125050000Y-106680000D03*
X125650000Y-106680000D03*
X126250000Y-106680000D03*
X126850000Y-106680000D03*
X127450000Y-106680000D03*
X128050000Y-106680000D03*
X128650000Y-106680000D03*
X129250000Y-106680000D03*
X133450000Y-106680000D03*
X134050000Y-106680000D03*
X134650000Y-106680000D03*
X135250000Y-106680000D03*
X135850000Y-106680000D03*
X136450000Y-106680000D03*
X137050000Y-106680000D03*
X137650000Y-106680000D03*
X138250000Y-106680000D03*
X138850000Y-106680000D03*
X139450000Y-106680000D03*
X140050000Y-106680000D03*
X140650000Y-106680000D03*
X141250000Y-106680000D03*
X141850000Y-106680000D03*
X142450000Y-106680000D03*
X143050000Y-106680000D03*
X143650000Y-106680000D03*
X144250000Y-106680000D03*
X144850000Y-106680000D03*
X145450000Y-106680000D03*
X146050000Y-106680000D03*
X146650000Y-106680000D03*
X147250000Y-106680000D03*
X147850000Y-106680000D03*
X148450000Y-106680000D03*
X149050000Y-106680000D03*
X149650000Y-106680000D03*
X150250000Y-106680000D03*
X150850000Y-106680000D03*
X151450000Y-106680000D03*
X152050000Y-106680000D03*
X152650000Y-106680000D03*
X153250000Y-106680000D03*
X153850000Y-106680000D03*
X154450000Y-106680000D03*
X155050000Y-106680000D03*
X155650000Y-106680000D03*
X156250000Y-106680000D03*
X156850000Y-106680000D03*
X157450000Y-106680000D03*
X158050000Y-106680000D03*
X158650000Y-106680000D03*
X159250000Y-106680000D03*
X159850000Y-106680000D03*
X160450000Y-106680000D03*
X161050000Y-106680000D03*
X161650000Y-106680000D03*
X162250000Y-106680000D03*
X162850000Y-106680000D03*
X163450000Y-106680000D03*
X164050000Y-106680000D03*
X164650000Y-106680000D03*
X165250000Y-106680000D03*
X165850000Y-106680000D03*
X166450000Y-106680000D03*
X167050000Y-106680000D03*
X167650000Y-106680000D03*
X168250000Y-106680000D03*
X168850000Y-106680000D03*
X169450000Y-106680000D03*
X170050000Y-106680000D03*
X170650000Y-106680000D03*
X171250000Y-106680000D03*
X171850000Y-106680000D03*
X172450000Y-106680000D03*
X173050000Y-106680000D03*
X173650000Y-106680000D03*
X174250000Y-106680000D03*
X174850000Y-106680000D03*
X175450000Y-106680000D03*
X176050000Y-106680000D03*
X176650000Y-106680000D03*
X177250000Y-106680000D03*
X177850000Y-106680000D03*
X178450000Y-106680000D03*
X179050000Y-106680000D03*
X179650000Y-106680000D03*
X180250000Y-106680000D03*
X180850000Y-106680000D03*
%TD*%
D14*
%TO.C,H1*%
X177899109Y-79975109D03*
X178492218Y-78543218D03*
X178492218Y-81407000D03*
X179924109Y-77950109D03*
D15*
X179924109Y-79975109D03*
D14*
X179924109Y-82000109D03*
X181356000Y-78543218D03*
X181356000Y-81407000D03*
X181949109Y-79975109D03*
%TD*%
D16*
%TO.C,TP4*%
X131445000Y-86233000D03*
%TD*%
%TO.C,TP10*%
X135763000Y-86233000D03*
%TD*%
%TO.C,TP2*%
X146812000Y-79502000D03*
%TD*%
%TO.C,TP13*%
X142240000Y-86233000D03*
%TD*%
%TO.C,TP8*%
X178002257Y-86233000D03*
%TD*%
%TO.C,TP11*%
X137922000Y-86233000D03*
%TD*%
%TO.C,TP6*%
X175768000Y-86233000D03*
%TD*%
%TO.C,TP3*%
X133604000Y-86233000D03*
%TD*%
D17*
%TO.C,JP1*%
X154783000Y-90170000D03*
D18*
X156083000Y-90170000D03*
D19*
X157383000Y-90170000D03*
%TD*%
D17*
%TO.C,JP2*%
X154783000Y-87503000D03*
D18*
X156083000Y-87503000D03*
D19*
X157383000Y-87503000D03*
%TD*%
D16*
%TO.C,TP1*%
X129286000Y-86233000D03*
%TD*%
%TO.C,TP12*%
X140081000Y-86233000D03*
%TD*%
G36*
X131118385Y-105429685D02*
G01*
X131164140Y-105482489D01*
X131175346Y-105534000D01*
X131175346Y-107952990D01*
X131155661Y-108020029D01*
X131102857Y-108065784D01*
X131051335Y-108076990D01*
X116178830Y-108075692D01*
X116171885Y-108075301D01*
X116022493Y-108058463D01*
X115995477Y-108052302D01*
X115863444Y-108006164D01*
X115838446Y-107994142D01*
X115719988Y-107919818D01*
X115698289Y-107902542D01*
X115599315Y-107803747D01*
X115581998Y-107782077D01*
X115507461Y-107663750D01*
X115495395Y-107638774D01*
X115450015Y-107509654D01*
X115443000Y-107468539D01*
X115443000Y-105534000D01*
X115462685Y-105466961D01*
X115515489Y-105421206D01*
X115567000Y-105410000D01*
X131051346Y-105410000D01*
X131118385Y-105429685D01*
G37*
G36*
X182958896Y-105429685D02*
G01*
X183004651Y-105482489D01*
X183015855Y-105533344D01*
X183025327Y-107323347D01*
X183024936Y-107330632D01*
X183008102Y-107479851D01*
X183001941Y-107506860D01*
X182955798Y-107638892D01*
X182943777Y-107663887D01*
X182869454Y-107782340D01*
X182852179Y-107804036D01*
X182753380Y-107903015D01*
X182731712Y-107920331D01*
X182613391Y-107994868D01*
X182588419Y-108006934D01*
X182456490Y-108053309D01*
X182429460Y-108059523D01*
X182280168Y-108076598D01*
X182273117Y-108077000D01*
X132299346Y-108077000D01*
X132232307Y-108057315D01*
X132186552Y-108004511D01*
X132175346Y-107953000D01*
X132175346Y-105534000D01*
X132195031Y-105466961D01*
X132247835Y-105421206D01*
X132299346Y-105410000D01*
X182891857Y-105410000D01*
X182958896Y-105429685D01*
G37*
%LPD*%
M02*
